<svg width="48" height="48" viewBox="0 0 48 48" fill="none" xmlns="http://www.w3.org/2000/svg">
<g clip-path="url(#clip0_1_901)">
<path d="M24 0C37.2562 0 48 10.7438 48 24C48 37.2562 37.2562 48 24 48C10.7438 48 0 37.2562 0 24C0 10.7438 10.7438 0 24 0Z" fill="#0052FF"/>
<path d="M24.0047 32.4375C19.3453 32.4375 15.5672 28.6641 15.5672 24C15.5672 19.3359 19.3453 15.5625 24.0047 15.5625C28.1812 15.5625 31.65 18.6094 32.3156 22.5938H40.8141C40.0969 13.9312 32.8453 7.125 24 7.125C14.6812 7.125 7.125 14.6812 7.125 24C7.125 33.3188 14.6812 40.875 24 40.875C32.8453 40.875 40.0969 34.0688 40.8141 25.4062H32.3109C31.6406 29.3906 28.1812 32.4375 24.0047 32.4375Z" fill="white"/>
</g>
<defs>
<clipPath id="clip0_1_901">
<rect width="48" height="48" fill="white"/>
</clipPath>
</defs>
</svg>
