<svg width="20" height="40" viewBox="0 0 20 40" fill="none" xmlns="http://www.w3.org/2000/svg">
<g clip-path="url(#clip0_2012_1040)">
<path d="M14.1667 1.6665H5.83333C3.53333 1.6665 1.66667 3.52484 1.66667 5.8165V10.7998V11.6332C1.66667 13.9248 3.53333 15.7832 5.83333 15.7832H7.08333C7.30833 15.7832 7.60833 15.9332 7.75 16.1165L9 17.7748C9.55 18.5082 10.45 18.5082 11 17.7748L12.25 16.1165C12.4083 15.9082 12.6583 15.7832 12.9167 15.7832H14.1667C16.4667 15.7832 18.3333 13.9248 18.3333 11.6332V5.8165C18.3333 3.52484 16.4667 1.6665 14.1667 1.6665ZM6.66667 9.99984C6.2 9.99984 5.83333 9.62484 5.83333 9.1665C5.83333 8.70817 6.20833 8.33317 6.66667 8.33317C7.125 8.33317 7.5 8.70817 7.5 9.1665C7.5 9.62484 7.13333 9.99984 6.66667 9.99984ZM10 9.99984C9.53333 9.99984 9.16667 9.62484 9.16667 9.1665C9.16667 8.70817 9.54167 8.33317 10 8.33317C10.4583 8.33317 10.8333 8.70817 10.8333 9.1665C10.8333 9.62484 10.4667 9.99984 10 9.99984ZM13.3333 9.99984C12.8667 9.99984 12.5 9.62484 12.5 9.1665C12.5 8.70817 12.875 8.33317 13.3333 8.33317C13.7917 8.33317 14.1667 8.70817 14.1667 9.1665C14.1667 9.62484 13.8 9.99984 13.3333 9.99984Z" fill="#546880"/>
<path d="M14.1667 21.6665H5.83333C3.53333 21.6665 1.66667 23.5248 1.66667 25.8165V30.7998V31.6332C1.66667 33.9248 3.53333 35.7832 5.83333 35.7832H7.08333C7.30833 35.7832 7.60833 35.9332 7.75 36.1165L9 37.7748C9.55 38.5082 10.45 38.5082 11 37.7748L12.25 36.1165C12.4083 35.9082 12.6583 35.7832 12.9167 35.7832H14.1667C16.4667 35.7832 18.3333 33.9248 18.3333 31.6332V25.8165C18.3333 23.5248 16.4667 21.6665 14.1667 21.6665ZM6.66667 29.9998C6.2 29.9998 5.83333 29.6248 5.83333 29.1665C5.83333 28.7082 6.20833 28.3332 6.66667 28.3332C7.125 28.3332 7.5 28.7082 7.5 29.1665C7.5 29.6248 7.13333 29.9998 6.66667 29.9998ZM10 29.9998C9.53333 29.9998 9.16667 29.6248 9.16667 29.1665C9.16667 28.7082 9.54167 28.3332 10 28.3332C10.4583 28.3332 10.8333 28.7082 10.8333 29.1665C10.8333 29.6248 10.4667 29.9998 10 29.9998ZM13.3333 29.9998C12.8667 29.9998 12.5 29.6248 12.5 29.1665C12.5 28.7082 12.875 28.3332 13.3333 28.3332C13.7917 28.3332 14.1667 28.7082 14.1667 29.1665C14.1667 29.6248 13.8 29.9998 13.3333 29.9998Z" fill="#1C85FB"/>
</g>
<defs>
<clipPath id="clip0_2012_1040">
<rect width="20" height="40" fill="white"/>
</clipPath>
</defs>
</svg>
