<svg width="48" height="48" viewBox="0 0 48 48" fill="none" xmlns="http://www.w3.org/2000/svg">
<g clip-path="url(#clip0_1_904)">
<path d="M24 48C37.2548 48 48 37.2548 48 24C48 10.7452 37.2548 0 24 0C10.7452 0 0 10.7452 0 24C0 37.2548 10.7452 48 24 48Z" fill="#5741D9"/>
<path d="M12.0066 27.3947C12.0066 26.9377 12.0145 26.4811 12.0038 26.0241C11.9824 25.1419 12.0463 24.2596 12.1945 23.3897C12.4477 21.93 12.9075 20.5519 13.6594 19.2774C14.9203 17.1366 16.6983 15.5625 18.9375 14.5074C19.9264 14.0344 20.9794 13.7089 22.0627 13.5413C22.6294 13.455 23.1985 13.3847 23.7755 13.3899C26.227 13.4081 28.5099 14.0138 30.5724 15.3661C32.5931 16.6922 34.11 18.4467 35.0213 20.7C35.4419 21.7588 35.7211 22.8683 35.8519 24C36.0061 25.2506 36.0136 26.5064 35.9925 27.765C35.9794 28.4438 35.9822 29.1244 35.9714 29.8013C35.9663 30.0961 35.956 30.3914 35.8777 30.6811C35.572 31.8061 34.2877 32.318 33.3464 31.6941C32.9245 31.4175 32.7174 31.0102 32.6433 30.5222C32.5911 30.1959 32.5649 29.8659 32.565 29.5355V25.4391C32.565 24.9038 32.3981 24.4284 32.0325 24.0328C31.3927 23.3461 30.4111 23.3199 29.693 23.9545C29.2908 24.3122 29.108 24.7664 29.0691 25.2886C29.0536 25.4845 29.048 25.68 29.048 25.8759C29.0452 27.3825 29.0508 28.8863 29.04 30.3928C29.032 31.2464 28.3838 31.8994 27.5128 31.9594C27.1119 31.9894 26.7141 31.8688 26.3974 31.6211C26.0806 31.3734 25.8676 31.0165 25.8 30.6202C25.7631 30.3924 25.7456 30.1619 25.748 29.9311C25.748 28.4166 25.7508 26.9025 25.748 25.388C25.755 24.8898 25.5643 24.4091 25.2178 24.0511C24.4997 23.2964 23.4188 23.3199 22.7217 24.0956C22.3795 24.4744 22.231 24.9155 22.231 25.4194C22.231 26.9156 22.2281 28.4142 22.231 29.91C22.231 30.2963 22.1841 30.675 22.0247 31.0299C21.8973 31.3258 21.6824 31.5756 21.409 31.746C21.1355 31.9163 20.8165 31.999 20.4947 31.9828C19.8549 31.9617 19.3144 31.5609 19.0692 30.9174C18.9742 30.6645 18.9266 30.3962 18.9286 30.1261C18.9311 28.677 18.9302 27.228 18.9258 25.7789C18.9258 25.4578 18.9127 25.1339 18.8161 24.8231C18.5967 24.1102 18.1214 23.6559 17.3878 23.5359C16.6411 23.4131 16.0875 23.7656 15.6727 24.3661C15.4744 24.6534 15.4088 24.9755 15.4088 25.3191C15.4088 26.6941 15.4097 28.0691 15.4116 29.4441C15.4116 29.8486 15.4195 30.2536 15.3281 30.653C15.1767 31.3163 14.5397 32.0395 13.5764 31.9688C12.9131 31.9191 12.2761 31.3706 12.091 30.6684C12.0284 30.4201 11.9979 30.1647 12 29.9086C12.008 29.0649 12.008 28.23 12.0052 27.3942L12.0066 27.3947Z" fill="white"/>
</g>
<defs>
<clipPath id="clip0_1_904">
<rect width="48" height="48" fill="white"/>
</clipPath>
</defs>
</svg>
