<svg width="20" height="40" viewBox="0 0 20 40" fill="none" xmlns="http://www.w3.org/2000/svg">
<g clip-path="url(#clip0_2012_1040)">
<path d="M1.66667 7.49997H4.16667V17.5H1.66667C1.20643 17.5 0.833333 17.1269 0.833333 16.6667V8.33331C0.833333 7.87307 1.20643 7.49997 1.66667 7.49997ZM6.07741 6.42257L11.4112 1.08884C11.5578 0.942216 11.7899 0.925724 11.9558 1.05013L12.6663 1.583C13.0702 1.88593 13.2522 2.40211 13.1276 2.89138L12.1665 6.66664H17.5C18.4205 6.66664 19.1667 7.41283 19.1667 8.33331V10.0869C19.1667 10.3047 19.124 10.5202 19.0412 10.7215L16.4625 16.9839C16.3339 17.2962 16.0296 17.5 15.6919 17.5H6.66667C6.20643 17.5 5.83333 17.1269 5.83333 16.6667V7.01182C5.83333 6.79081 5.92113 6.57885 6.07741 6.42257Z" fill="#546880"/>
<path d="M1.66667 27.5H4.16667V37.5H1.66667C1.20643 37.5 0.833333 37.1269 0.833333 36.6667V28.3333C0.833333 27.8731 1.20643 27.5 1.66667 27.5ZM6.07741 26.4226L11.4112 21.0888C11.5578 20.9422 11.7899 20.9257 11.9558 21.0501L12.6663 21.583C13.0702 21.8859 13.2522 22.4021 13.1276 22.8914L12.1665 26.6666H17.5C18.4205 26.6666 19.1667 27.4128 19.1667 28.3333V30.0869C19.1667 30.3047 19.124 30.5202 19.0412 30.7215L16.4625 36.9839C16.3339 37.2962 16.0296 37.5 15.6919 37.5H6.66667C6.20643 37.5 5.83333 37.1269 5.83333 36.6667V27.0118C5.83333 26.7908 5.92113 26.5788 6.07741 26.4226Z" fill="#1C85FB"/>
</g>
<defs>
<clipPath id="clip0_2012_1040">
<rect width="20" height="40" fill="white"/>
</clipPath>
</defs>
</svg>
