<svg width="325" height="30" viewBox="0 0 325 30" fill="none" xmlns="http://www.w3.org/2000/svg">
<g clip-path="url(#clip0_53_3369)">
<mask id="mask0_53_3369" style="mask-type:luminance" maskUnits="userSpaceOnUse" x="0" y="7" width="47" height="17">
<path d="M46.4286 7.71802H0V23.1373H46.4286V7.71802Z" fill="white"/>
</mask>
<g mask="url(#mask0_53_3369)">
<path d="M13.204 7.9917L9.52539 18.1741L9.13013 16.1033C8.34201 13.9329 6.40445 11.9367 4.22925 11.0208L7.28957 22.9032L11.2665 22.9007L17.1859 7.9917H13.204Z" fill="#6D76F8"/>
<path d="M16.3562 22.9156L18.706 7.97925H22.4647L20.1126 22.9156H16.3562Z" fill="#6D76F8"/>
<path d="M33.7459 8.34524C33.0039 8.04407 31.8326 7.71802 30.3776 7.71802C26.6625 7.71802 24.046 9.74654 24.0242 12.6487C24.0024 14.7942 25.8914 15.9939 27.3173 16.7058C28.7819 17.4375 29.2742 17.9055 29.267 18.5601C29.2572 19.5606 28.0981 20.0186 27.0166 20.0186C25.5131 20.0186 24.7128 19.7921 23.4761 19.2346L22.9911 18.9956L22.4648 22.3384C23.3403 22.754 24.9651 23.1149 26.6528 23.1348C30.6031 23.1348 33.1687 21.1312 33.1978 18.0324C33.21 16.3299 32.2108 15.0382 30.0405 13.9729C28.7262 13.2784 27.9211 12.8205 27.9307 12.1186C27.9307 11.4988 28.6122 10.8343 30.0842 10.8343C31.3136 10.8144 32.2036 11.1056 32.8971 11.4092L33.2342 11.581L33.7459 8.34524Z" fill="#6D76F8"/>
<path d="M43.3854 7.99414H40.4827C39.5806 7.99414 38.9065 8.25797 38.5136 9.23117L32.9314 22.9205H36.8792C36.8792 22.9205 37.5243 21.0787 37.6697 20.673C38.1015 20.673 41.9353 20.6829 42.4834 20.6829C42.5949 21.2031 42.9417 22.9205 42.9417 22.9205H46.4288L43.3854 7.99414ZM38.7489 17.6215C39.0617 16.7628 40.2451 13.4475 40.2451 13.4475C40.2233 13.4873 40.5531 12.5813 40.7447 12.0213L40.9993 13.3106C40.9993 13.3106 41.7195 16.8748 41.8698 17.6215C41.2854 17.6215 39.4836 17.6215 38.7489 17.6215Z" fill="#6D76F8"/>
<path d="M6.10851 7.98169H0.0509245L0 8.29281C4.16853 9.37054 7.5829 11.7002 9.13004 16.1082L7.81327 9.24361C7.58775 8.2953 6.92816 8.01654 6.10851 7.98169Z" fill="#F79E1B"/>
</g>
<path d="M69.3731 29.2407V27.3305C69.3731 26.5981 68.9249 26.1209 68.1553 26.1209C67.7713 26.1209 67.3537 26.2485 67.066 26.6619C66.8411 26.3124 66.5213 26.1209 66.0409 26.1209C65.7196 26.1209 65.3999 26.2166 65.1429 26.5662V26.1847H64.4697V29.2407H65.1429V27.5539C65.1429 27.0129 65.4321 26.7576 65.8803 26.7576C66.3286 26.7576 66.5535 27.0448 66.5535 27.5539V29.2407H67.2266V27.5539C67.2266 27.0129 67.5479 26.7576 67.964 26.7576C68.4123 26.7576 68.6372 27.0448 68.6372 27.5539V29.2407H69.3731ZM79.342 26.1847H78.2527V25.2608H77.5795V26.1847H76.9705V26.7895H77.5795V28.1906C77.5795 28.8911 77.8686 29.3045 78.6367 29.3045C78.9257 29.3045 79.2455 29.2087 79.4705 29.0811L79.2776 28.5082C79.0849 28.6358 78.8615 28.6678 78.7009 28.6678C78.3796 28.6678 78.2527 28.4763 78.2527 28.1587V26.7895H79.342V26.1847ZM85.0484 26.1209C84.6644 26.1209 84.4073 26.3124 84.2468 26.5662V26.1847H83.5736V29.2407H84.2468V27.522C84.2468 27.0129 84.4717 26.7257 84.8878 26.7257C85.0163 26.7257 85.1769 26.7576 85.304 26.7895L85.4967 26.1528C85.3682 26.1209 85.1755 26.1209 85.0484 26.1209ZM76.4244 26.4385C76.1033 26.2152 75.6549 26.1195 75.1745 26.1195C74.405 26.1195 73.8925 26.5009 73.8925 27.1072C73.8925 27.6162 74.2765 27.9034 74.9496 27.9991L75.2709 28.031C75.6228 28.0949 75.8156 28.1906 75.8156 28.3501C75.8156 28.5735 75.5585 28.7316 75.1103 28.7316C74.662 28.7316 74.3086 28.572 74.0852 28.4125L73.7639 28.9216C74.1158 29.1768 74.5977 29.303 75.0782 29.303C75.9762 29.303 76.4887 28.8897 76.4887 28.3153C76.4887 27.7743 76.0725 27.4872 75.4316 27.3914L75.1103 27.3595C74.8211 27.3276 74.5977 27.2638 74.5977 27.0724C74.5977 26.849 74.8226 26.7228 75.1745 26.7228C75.5585 26.7228 75.9441 26.8824 76.1368 26.9781L76.4244 26.4385ZM94.312 26.1209C93.9279 26.1209 93.6709 26.3124 93.5103 26.5662V26.1847H92.8371V29.2407H93.5103V27.522C93.5103 27.0129 93.7351 26.7257 94.1514 26.7257C94.2798 26.7257 94.4404 26.7576 94.5675 26.7895L94.7602 26.1528C94.6318 26.1209 94.4404 26.1209 94.312 26.1209ZM85.7216 27.712C85.7216 28.6358 86.3626 29.3045 87.357 29.3045C87.8053 29.3045 88.1265 29.2087 88.4463 28.9549L88.1251 28.4139C87.8681 28.6054 87.6126 28.7011 87.3234 28.7011C86.7788 28.7011 86.3933 28.3197 86.3933 27.7134C86.3933 27.1405 86.7773 26.7576 87.3234 26.7257C87.6126 26.7257 87.8681 26.8214 88.1251 27.0129L88.4463 26.4719C88.1251 26.2166 87.8053 26.1224 87.357 26.1224C86.3626 26.1209 85.7216 26.7895 85.7216 27.712ZM91.9391 27.712V26.1833H91.2659V26.5647C91.0411 26.2775 90.7213 26.1195 90.3037 26.1195C89.4378 26.1195 88.7646 26.7881 88.7646 27.712C88.7646 28.6358 89.4378 29.3045 90.3037 29.3045C90.752 29.3045 91.0732 29.1449 91.2659 28.8592V29.2407H91.9391V27.712ZM89.4714 27.712C89.4714 27.171 89.8233 26.7243 90.4015 26.7243C90.9462 26.7243 91.3317 27.1376 91.3317 27.712C91.3317 28.253 90.9476 28.6997 90.4015 28.6997C89.8247 28.6678 89.4714 28.2544 89.4714 27.712ZM81.4257 26.1209C80.5277 26.1209 79.8866 26.7576 79.8866 27.7134C79.8866 28.6692 80.5277 29.3059 81.4578 29.3059C81.906 29.3059 82.3558 29.1783 82.7077 28.8926L82.3865 28.4154C82.1295 28.6068 81.8097 28.7345 81.4884 28.7345C81.0723 28.7345 80.6546 28.543 80.5583 28.002H82.8348V27.7468C82.8684 26.7576 82.2915 26.1209 81.4257 26.1209ZM81.4257 26.6938C81.8418 26.6938 82.131 26.9491 82.1952 27.4262H80.5919C80.6561 27.0114 80.9453 26.6938 81.4257 26.6938ZM98.126 27.712V24.9751H97.4529V26.5676C97.228 26.2805 96.9082 26.1224 96.4906 26.1224C95.6247 26.1224 94.9515 26.791 94.9515 27.7149C94.9515 28.6387 95.6247 29.3074 96.4906 29.3074C96.9389 29.3074 97.2601 29.1478 97.4529 28.8621V29.2436H98.126V27.712ZM95.6582 27.712C95.6582 27.171 96.0101 26.7243 96.5885 26.7243C97.1331 26.7243 97.5186 27.1376 97.5186 27.712C97.5186 28.253 97.1345 28.6997 96.5885 28.6997C96.0101 28.6678 95.6582 28.2544 95.6582 27.712ZM73.1551 27.712V26.1833H72.4819V26.5647C72.2571 26.2775 71.9373 26.1195 71.5197 26.1195C70.6538 26.1195 69.9806 26.7881 69.9806 27.712C69.9806 28.6358 70.6538 29.3045 71.5197 29.3045C71.9679 29.3045 72.2892 29.1449 72.4819 28.8592V29.2407H73.1551V27.712ZM70.6552 27.712C70.6552 27.171 71.0071 26.7243 71.5854 26.7243C72.13 26.7243 72.5155 27.1376 72.5155 27.712C72.5155 28.253 72.1315 28.6997 71.5854 28.6997C71.0085 28.6678 70.6552 28.2544 70.6552 27.712Z" fill="#C9C9C9"/>
<path d="M86.2988 2.9729H76.2014V20.9937H86.2988V2.9729Z" fill="#FF5F00"/>
<path d="M76.8424 11.9845C76.8424 8.32231 78.5727 5.07493 81.2332 2.97335C79.278 1.4461 76.8103 0.522217 74.1177 0.522217C67.738 0.522217 62.5776 5.64783 62.5776 11.9845C62.5776 18.3211 67.738 23.4467 74.1177 23.4467C76.8103 23.4467 79.278 22.5229 81.2332 20.9956C78.5727 18.9259 76.8424 15.6452 76.8424 11.9845Z" fill="#EB001B"/>
<path d="M99.9224 11.9843C99.9224 18.3209 94.7623 23.4465 88.3826 23.4465C85.69 23.4465 83.2223 22.5227 81.2671 20.9954C83.9597 18.8938 85.6579 15.6464 85.6579 11.9843C85.6579 8.32207 83.9261 5.07469 81.2656 2.9731C83.2208 1.44586 85.69 0.521973 88.3826 0.521973C94.7608 0.521973 99.9224 5.67949 99.9224 11.9843Z" fill="#F79E1B"/>
<path d="M139.085 20.9945H129.289V2.97192H139.085V20.9945Z" fill="#7673C0"/>
<path d="M129.911 11.9848C129.911 8.32816 131.584 5.07279 134.188 2.97353C132.283 1.43784 129.879 0.522217 127.268 0.522217C121.084 0.522217 116.072 5.65374 116.072 11.9848C116.072 18.3159 121.084 23.4474 127.268 23.4474C129.879 23.4474 132.284 22.5318 134.188 20.9961C131.584 18.8969 129.911 15.64 129.911 11.9848Z" fill="#EB001B"/>
<path d="M152.303 11.9846C152.303 18.3157 147.29 23.4472 141.106 23.4472C138.495 23.4472 136.091 22.5316 134.186 20.9959C136.79 18.8967 138.463 15.6398 138.463 11.9846C138.463 8.32937 136.792 5.07109 134.187 2.97328C136.092 1.43759 138.495 0.521973 141.106 0.521973C147.29 0.521973 152.303 5.6535 152.303 11.9846Z" fill="#00A1DF"/>
<path d="M142.401 26.0883C142.531 26.0883 142.718 26.1144 142.861 26.1709L142.661 26.7953C142.524 26.7374 142.388 26.7185 142.257 26.7185C141.834 26.7185 141.622 26.9982 141.622 27.5009V29.2075H140.975V26.1637H141.617V26.5331C141.785 26.2665 142.029 26.0883 142.401 26.0883ZM140.01 26.7692H138.953V28.1441C138.953 28.4498 139.058 28.6541 139.382 28.6541C139.551 28.6541 139.761 28.5961 139.953 28.4817L140.141 29.0482C139.936 29.1945 139.613 29.2843 139.333 29.2843C138.567 29.2843 138.301 28.8642 138.301 28.1572V26.7692H137.696V26.1651H138.301V25.2422H138.953V26.1651H140.01V26.7692ZM131.732 27.4183C131.802 26.9793 132.062 26.6794 132.522 26.6794C132.938 26.6794 133.206 26.9474 133.275 27.4183H131.732ZM133.947 27.6863C133.94 26.7374 133.368 26.0883 132.534 26.0883C131.664 26.0883 131.055 26.7374 131.055 27.6863C131.055 28.6526 131.688 29.2843 132.578 29.2843C133.026 29.2843 133.437 29.1698 133.797 28.8584L133.48 28.3672C133.231 28.5715 132.914 28.686 132.616 28.686C132.199 28.686 131.819 28.4889 131.726 27.9413H133.934C133.94 27.8573 133.947 27.7747 133.947 27.6863ZM136.789 26.9416C136.609 26.8272 136.243 26.6794 135.864 26.6794C135.509 26.6794 135.297 26.8142 135.297 27.0358C135.297 27.2386 135.521 27.2966 135.801 27.3343L136.105 27.3792C136.752 27.4748 137.144 27.7559 137.144 28.2904C137.144 28.87 136.646 29.2843 135.788 29.2843C135.303 29.2843 134.855 29.1568 134.501 28.8888L134.804 28.373C135.022 28.5454 135.347 28.6918 135.794 28.6918C136.236 28.6918 136.472 28.5585 136.472 28.3223C136.472 28.1514 136.304 28.0543 135.95 28.005L135.646 27.9601C134.98 27.8645 134.62 27.5588 134.62 27.0619C134.62 26.4578 135.105 26.0869 135.858 26.0869C136.33 26.0869 136.759 26.1955 137.071 26.4056L136.789 26.9416ZM144.765 26.7171C144.633 26.7171 144.509 26.7417 144.395 26.7881C144.281 26.8359 144.182 26.9025 144.099 26.9895C144.015 27.0764 143.951 27.1792 143.902 27.2995C143.854 27.4197 143.832 27.553 143.832 27.6965C143.832 27.8413 143.855 27.9732 143.902 28.0934C143.951 28.2137 144.015 28.3165 144.099 28.4035C144.182 28.4904 144.281 28.557 144.395 28.6048C144.509 28.6526 144.633 28.6758 144.765 28.6758C144.899 28.6758 145.024 28.6526 145.137 28.6048C145.251 28.557 145.351 28.4904 145.434 28.4035C145.519 28.318 145.583 28.2137 145.631 28.0934C145.68 27.9732 145.703 27.8413 145.703 27.6965C145.703 27.5516 145.679 27.4197 145.631 27.2995C145.583 27.1792 145.519 27.0764 145.434 26.9895C145.351 26.904 145.251 26.8359 145.137 26.7881C145.022 26.7403 144.899 26.7171 144.765 26.7171ZM144.765 26.0883C144.996 26.0883 145.21 26.1289 145.407 26.2115C145.604 26.2926 145.774 26.4056 145.916 26.549C146.061 26.6925 146.172 26.862 146.253 27.0576C146.334 27.2531 146.375 27.4661 146.375 27.6965C146.375 27.9268 146.334 28.1383 146.253 28.3354C146.172 28.5309 146.061 28.7019 145.916 28.8453C145.774 28.9888 145.604 29.1018 145.407 29.1829C145.21 29.264 144.996 29.306 144.765 29.306C144.535 29.306 144.322 29.2655 144.124 29.1829C143.928 29.1003 143.759 28.9888 143.617 28.8453C143.473 28.7019 143.361 28.5309 143.281 28.3354C143.2 28.1398 143.159 27.9268 143.159 27.6965C143.159 27.4661 143.2 27.2546 143.281 27.0576C143.361 26.862 143.473 26.6925 143.617 26.549C143.759 26.4056 143.928 26.2926 144.124 26.2115C144.322 26.1289 144.535 26.0883 144.765 26.0883ZM127.953 27.6863C127.953 27.1517 128.296 26.7113 128.855 26.7113C129.39 26.7113 129.751 27.1314 129.751 27.6863C129.751 28.2397 129.39 28.6599 128.855 28.6599C128.296 28.6599 127.953 28.2209 127.953 27.6863ZM130.36 27.6863V26.1651H129.714V26.5345C129.509 26.2607 129.197 26.0883 128.776 26.0883C127.942 26.0883 127.289 26.7562 127.289 27.6863C127.289 28.615 127.942 29.2843 128.776 29.2843C129.199 29.2843 129.509 29.1119 129.714 28.8381V29.2075H130.36V27.6863ZM126.717 29.2075V27.298C126.717 26.5795 126.269 26.0956 125.547 26.0883C125.168 26.0811 124.776 26.2028 124.503 26.6302C124.297 26.2926 123.973 26.0883 123.519 26.0883C123.203 26.0883 122.89 26.1839 122.649 26.5403V26.1651H122.002V29.2075H122.655V27.5212C122.655 26.9924 122.94 26.7127 123.382 26.7127C123.81 26.7127 124.028 26.9996 124.028 27.5154V29.2075H124.681V27.5212C124.681 26.9924 124.98 26.7127 125.409 26.7127C125.85 26.7127 126.063 26.9996 126.063 27.5154V29.2075H126.717Z" fill="#C9C9C9"/>
<mask id="mask1_53_3369" style="mask-type:luminance" maskUnits="userSpaceOnUse" x="168" y="4" width="79" height="23">
<path d="M246.274 4.63379H168.556V26.2208H246.274V4.63379Z" fill="white"/>
</mask>
<g mask="url(#mask1_53_3369)">
<path d="M198.013 13.2384C197.778 14.8435 196.603 14.8435 195.467 14.8435H194.821L195.275 11.8458C195.3 11.6644 195.452 11.5307 195.627 11.5307H195.924C196.699 11.5307 197.428 11.5307 197.806 11.9906C198.031 12.2673 198.099 12.674 198.013 13.2384ZM197.519 9.04785H193.233C192.94 9.04785 192.691 9.26957 192.644 9.57191L190.911 21.0442C190.877 21.2696 191.045 21.4748 191.265 21.4748H193.31C193.603 21.4748 193.852 21.2531 193.898 20.949L194.365 17.8541C194.411 17.5518 194.66 17.3282 194.953 17.3282H196.31C199.134 17.3282 200.765 15.9026 201.189 13.0753C201.38 11.8385 201.198 10.8673 200.643 10.1875C200.034 9.44364 198.954 9.04785 197.519 9.04785Z" fill="#C9C9C9"/>
<path d="M207.471 17.3558C207.272 18.5798 206.342 19.4007 205.155 19.4007C204.558 19.4007 204.082 19.201 203.777 18.8235C203.473 18.4479 203.359 17.9128 203.454 17.3191C203.638 16.1061 204.584 15.2577 205.753 15.2577C206.337 15.2577 206.81 15.4593 207.123 15.8404C207.437 16.2271 207.56 16.7639 207.471 17.3558ZM210.332 13.1872H208.28C208.104 13.1872 207.953 13.3209 207.926 13.5023L207.835 14.1015L207.692 13.8835C207.247 13.211 206.255 12.9856 205.267 12.9856C202.999 12.9856 201.061 14.7795 200.685 17.2935C200.489 18.5486 200.768 19.747 201.451 20.5844C202.075 21.354 202.971 21.6746 204.036 21.6746C205.864 21.6746 206.877 20.4488 206.877 20.4488L206.785 21.0443C206.75 21.2715 206.919 21.4767 207.139 21.4767H208.987C209.28 21.4767 209.53 21.255 209.575 20.9509L210.684 13.6178C210.718 13.3924 210.551 13.1872 210.332 13.1872Z" fill="#C9C9C9"/>
<path d="M221.263 13.1873H219.201C219.004 13.1873 218.82 13.2899 218.707 13.4603L215.864 17.8341L214.657 13.6307C214.581 13.3668 214.349 13.1873 214.085 13.1873H212.059C211.814 13.1873 211.641 13.4383 211.72 13.6802L213.992 20.6394L211.856 23.7874C211.687 24.0348 211.857 24.3756 212.146 24.3756H214.206C214.401 24.3756 214.585 24.2767 214.696 24.1081L221.557 13.7718C221.722 13.5244 221.553 13.1873 221.263 13.1873Z" fill="#C9C9C9"/>
<path d="M228.588 13.2384C228.355 14.8435 227.179 14.8435 226.043 14.8435H225.397L225.852 11.8458C225.878 11.6644 226.027 11.5307 226.204 11.5307H226.502C227.275 11.5307 228.006 11.5307 228.383 11.9906C228.606 12.2673 228.674 12.674 228.588 13.2384ZM228.093 9.04785H223.806C223.513 9.04785 223.263 9.26957 223.218 9.57191L221.485 21.0442C221.45 21.2696 221.619 21.4748 221.839 21.4748H224.038C224.241 21.4748 224.417 21.3191 224.448 21.1065L224.94 17.8541C224.986 17.5518 225.235 17.3282 225.529 17.3282H226.885C229.71 17.3282 231.339 15.9026 231.764 13.0753C231.958 11.8385 231.771 10.8673 231.217 10.1875C230.608 9.44364 229.528 9.04785 228.093 9.04785Z" fill="#179BD7"/>
<path d="M238.043 17.3558C237.847 18.5798 236.914 19.4007 235.728 19.4007C235.132 19.4007 234.655 19.201 234.35 18.8235C234.046 18.4479 233.931 17.9128 234.029 17.3191C234.214 16.1061 235.159 15.2577 236.328 15.2577C236.911 15.2577 237.385 15.4593 237.698 15.8404C238.01 16.2271 238.135 16.7639 238.043 17.3558ZM240.905 13.1872H238.855C238.679 13.1872 238.528 13.3209 238.502 13.5023L238.411 14.1015L238.266 13.8835C237.823 13.211 236.832 12.9856 235.842 12.9856C233.574 12.9856 231.638 14.7795 231.26 17.2935C231.065 18.5486 231.342 19.747 232.024 20.5844C232.65 21.354 233.544 21.6746 234.61 21.6746C236.437 21.6746 237.45 20.4488 237.45 20.4488L237.359 21.0443C237.324 21.2715 237.492 21.4767 237.712 21.4767H239.56C239.853 21.4767 240.102 21.255 240.149 20.9509L241.258 13.6178C241.292 13.3924 241.125 13.1872 240.905 13.1872Z" fill="#179BD7"/>
<path d="M243.324 9.36314L241.565 21.0444C241.53 21.2697 241.699 21.475 241.918 21.475H243.686C243.979 21.475 244.23 21.2532 244.274 20.9491L246.008 9.47675C246.044 9.24953 245.875 9.04614 245.656 9.04614H243.677C243.501 9.04798 243.352 9.18174 243.324 9.36314Z" fill="#179BD7"/>
<path d="M173.11 23.7048L173.439 21.5317L172.709 21.5134H169.222L171.644 5.4784C171.651 5.43076 171.676 5.38495 171.713 5.35197C171.748 5.31898 171.793 5.30249 171.843 5.30249H177.72C179.673 5.30249 181.019 5.72577 181.723 6.56315C182.053 6.95528 182.262 7.36572 182.364 7.81648C182.471 8.29106 182.473 8.85543 182.369 9.54622L182.362 9.5957V10.0373L182.692 10.2315C182.97 10.3855 183.191 10.5614 183.359 10.7629C183.642 11.0982 183.824 11.5252 183.9 12.0309C183.979 12.5513 183.953 13.1706 183.822 13.8706C183.672 14.6768 183.43 15.3786 183.102 15.9522C182.799 16.4817 182.415 16.9196 181.957 17.2605C181.521 17.583 181.001 17.8285 180.415 17.9861C179.848 18.14 179.201 18.2188 178.49 18.2188H178.031C177.704 18.2188 177.387 18.3415 177.138 18.5614C176.888 18.7868 176.721 19.0946 176.67 19.43L176.635 19.626L176.056 23.4556L176.03 23.5967C176.022 23.6407 176.011 23.6627 175.993 23.6792C175.977 23.6939 175.955 23.7012 175.933 23.7012H173.11V23.7048Z" fill="#C9C9C9"/>
<path d="M183.001 9.64893C182.983 9.7662 182.964 9.8853 182.942 10.008C182.165 14.162 179.514 15.5985 176.126 15.5985H174.402C173.988 15.5985 173.638 15.9119 173.574 16.3388L172.691 22.184L172.442 23.8405C172.399 24.1208 172.606 24.3737 172.876 24.3737H175.937C176.298 24.3737 176.608 24.0988 176.664 23.7269L176.693 23.5638L177.269 19.7488L177.306 19.5399C177.362 19.1661 177.671 18.8913 178.032 18.8913H178.491C181.454 18.8913 183.775 17.6361 184.453 14.0007C184.736 12.4817 184.589 11.2137 183.84 10.3232C183.612 10.0538 183.33 9.83033 183.001 9.64893Z" fill="#179BD7"/>
<path d="M182.189 9.31185C182.073 9.27521 181.949 9.24405 181.825 9.2129C181.698 9.18359 181.57 9.15793 181.436 9.13595C180.972 9.05715 180.462 9.02051 179.916 9.02051H175.308C175.194 9.02051 175.087 9.04799 174.99 9.09563C174.778 9.20191 174.62 9.41263 174.581 9.66916L173.602 16.1502L173.573 16.3389C173.638 15.912 173.988 15.5987 174.402 15.5987H176.126C179.515 15.5987 182.165 14.1621 182.942 10.0081C182.964 9.88538 182.984 9.76628 183 9.64901C182.804 9.5409 182.592 9.44745 182.363 9.36866C182.307 9.3485 182.249 9.33018 182.189 9.31185Z" fill="#222D65"/>
<path d="M174.582 9.67093C174.621 9.4144 174.779 9.20368 174.991 9.0974C175.088 9.04976 175.195 9.02228 175.309 9.02228H179.917C180.463 9.02228 180.972 9.05892 181.438 9.13771C181.571 9.1597 181.699 9.18536 181.826 9.21467C181.95 9.24399 182.073 9.27697 182.191 9.31362C182.251 9.33194 182.309 9.35027 182.365 9.37042C182.592 9.44921 182.805 9.54266 183.002 9.65077C183.232 8.11526 183 7.07082 182.205 6.12349C181.329 5.07905 179.747 4.63379 177.721 4.63379H171.842C171.428 4.63379 171.074 4.94712 171.011 5.37406L168.564 21.5757C168.516 21.8964 168.752 22.1859 169.062 22.1859H172.691L173.602 16.1519L174.582 9.67093Z" fill="#253B80"/>
</g>
<mask id="mask2_53_3369" style="mask-type:luminance" maskUnits="userSpaceOnUse" x="262" y="4" width="63" height="23">
<path d="M325 4.63379H262.422V26.2208H325V4.63379Z" fill="white"/>
</mask>
<g mask="url(#mask2_53_3369)">
<path fill-rule="evenodd" clip-rule="evenodd" d="M272.176 25.6596L278.402 19.8275C278.861 19.3973 279.124 18.7758 279.127 18.1248V7.84463C279.127 6.71554 278.346 5.75946 277.299 5.60011L271.073 4.65769C270.875 4.6281 270.674 4.6281 270.477 4.65769L264.251 5.60011C263.202 5.75718 262.422 6.71554 262.422 7.84463V18.1248C262.422 18.7758 262.686 19.3973 263.145 19.8275L269.371 25.6596C270.173 26.4108 271.374 26.4108 272.176 25.6596ZM265.85 15.1304L269.36 18.5109C269.577 18.7203 269.916 18.7203 270.135 18.5109L276.151 12.7129C276.39 12.483 276.39 12.0937 276.151 11.8638L275.13 10.8781C274.913 10.6687 274.573 10.6687 274.356 10.8781L270.131 14.946C269.914 15.1555 269.574 15.1555 269.357 14.946L267.645 13.2957C267.428 13.0862 267.089 13.0862 266.871 13.2957L265.85 14.2813C265.611 14.5113 265.611 14.9005 265.85 15.1304Z" fill="#B7D039"/>
<path d="M285.315 12.4259C285.04 12.3189 284.794 12.2005 284.575 12.0708C284.356 11.941 284.169 11.7885 284.017 11.6087C283.864 11.4311 283.744 11.2171 283.657 10.9667C283.571 10.7163 283.532 10.4181 283.532 10.0698C283.532 9.64643 283.602 9.2731 283.744 8.94758C283.886 8.62433 284.086 8.35117 284.345 8.13036C284.604 7.90955 284.914 7.74337 285.279 7.63183C285.643 7.52029 286.053 7.46338 286.505 7.46338C286.917 7.46338 287.302 7.4998 287.663 7.57492C288.023 7.65004 288.402 7.75703 288.798 7.89817C288.749 8.38076 288.621 8.85425 288.411 9.31863C288.288 9.26855 288.166 9.21847 288.041 9.16839C287.914 9.11831 287.781 9.07733 287.639 9.04319C287.498 9.00904 287.338 8.984 287.161 8.96124C286.983 8.94075 286.78 8.92937 286.554 8.92937C286.416 8.92937 286.276 8.94303 286.135 8.96579C285.993 8.99083 285.867 9.03636 285.754 9.10237C285.641 9.16839 285.548 9.26627 285.475 9.39603C285.401 9.52578 285.366 9.69423 285.366 9.90139C285.366 10.0676 285.394 10.2064 285.45 10.318C285.505 10.4295 285.583 10.5251 285.68 10.6048C285.778 10.6845 285.886 10.7505 286.008 10.8051C286.131 10.8597 286.253 10.9121 286.372 10.9599L287.101 11.2467C287.409 11.3719 287.688 11.4994 287.938 11.6337C288.189 11.7657 288.402 11.9319 288.575 12.1254C288.747 12.3212 288.884 12.5579 288.98 12.8356C289.077 13.1134 289.126 13.4571 289.126 13.8646C289.126 14.288 289.051 14.675 288.903 15.0232C288.751 15.3715 288.536 15.672 288.253 15.9201C287.97 16.1683 287.619 16.364 287.203 16.5052C286.787 16.6463 286.308 16.7169 285.765 16.7169C285.498 16.7169 285.26 16.7078 285.049 16.6918C284.839 16.6759 284.639 16.6486 284.449 16.6099C284.258 16.5735 284.07 16.5257 283.883 16.4665C283.698 16.4096 283.502 16.3367 283.301 16.2548C283.326 16.0135 283.37 15.7631 283.434 15.5013C283.498 15.2395 283.576 14.9754 283.664 14.7091C284.003 14.8502 284.324 14.9572 284.624 15.0278C284.923 15.0984 285.242 15.1348 285.583 15.1348C286.092 15.1348 286.494 15.0369 286.784 14.8411C287.074 14.6454 287.221 14.3494 287.221 13.9488C287.221 13.7485 287.185 13.5823 287.117 13.4503C287.048 13.3182 286.959 13.2044 286.85 13.1134C286.741 13.0223 286.618 12.9449 286.48 12.8834C286.343 12.822 286.201 12.7605 286.055 12.7036L285.315 12.4259Z" fill="#C9C9C9"/>
<path d="M290.398 7.61353H295.348C295.397 7.86393 295.421 8.11661 295.421 8.37384C295.421 8.64701 295.397 8.90879 295.348 9.15919H292.168V11.1032H294.692C294.741 11.3695 294.765 11.6268 294.765 11.8772C294.765 12.1435 294.741 12.4053 294.692 12.6625H292.168V15.0299H295.432C295.481 15.2804 295.505 15.533 295.505 15.7903C295.505 16.0634 295.481 16.3252 295.432 16.5756H290.398V7.61353Z" fill="#C9C9C9"/>
<path d="M302.604 14.882C302.709 15.1142 302.797 15.3532 302.866 15.599C302.935 15.8449 302.986 16.0907 303.016 16.3411C302.595 16.4982 302.217 16.6029 301.882 16.653C301.545 16.7031 301.184 16.7281 300.796 16.7281C300.11 16.7281 299.507 16.6143 298.988 16.3844C298.47 16.1568 298.035 15.8358 297.683 15.4238C297.331 15.0117 297.067 14.5246 296.887 13.96C296.71 13.3955 296.619 12.7809 296.619 12.1162C296.619 11.4515 296.712 10.8346 296.899 10.2655C297.085 9.69635 297.353 9.20465 297.705 8.78807C298.058 8.37149 298.49 8.04824 299.004 7.81605C299.518 7.58386 300.103 7.46777 300.756 7.46777C301.144 7.46777 301.503 7.49281 301.831 7.54289C302.159 7.59297 302.513 7.69768 302.892 7.85475C302.877 8.10515 302.828 8.34645 302.746 8.58319C302.664 8.81994 302.575 9.05896 302.478 9.30025C302.194 9.20009 301.944 9.12953 301.727 9.08855C301.507 9.04758 301.251 9.02709 300.951 9.02709C300.175 9.02709 299.578 9.2866 299.161 9.80561C298.744 10.3247 298.536 11.0964 298.536 12.1184C298.536 14.1467 299.373 15.1597 301.048 15.1597C301.348 15.1597 301.612 15.1392 301.838 15.0982C302.066 15.0504 302.321 14.9799 302.604 14.882Z" fill="#C9C9C9"/>
<path d="M304.29 7.61371C304.442 7.58867 304.594 7.57273 304.74 7.56363C304.886 7.55452 305.035 7.55225 305.19 7.55225C305.327 7.55225 305.469 7.5568 305.615 7.56363C305.761 7.57273 305.909 7.58867 306.065 7.61371V12.2621C306.065 12.7698 306.082 13.2023 306.121 13.5642C306.158 13.9262 306.229 14.2244 306.339 14.4611C306.448 14.6979 306.603 14.8731 306.8 14.9847C306.997 15.0962 307.255 15.1531 307.572 15.1531C307.886 15.1531 308.141 15.0962 308.336 14.9847C308.531 14.8731 308.681 14.6979 308.79 14.4611C308.898 14.2244 308.972 13.9262 309.009 13.5642C309.046 13.2023 309.065 12.7675 309.065 12.2621V7.61371C309.226 7.58867 309.379 7.57273 309.526 7.56363C309.672 7.55452 309.813 7.55225 309.951 7.55225C310.097 7.55225 310.243 7.5568 310.394 7.56363C310.543 7.57273 310.695 7.58867 310.848 7.61371V12.6491C310.848 13.2569 310.799 13.8101 310.702 14.3131C310.605 14.8162 310.432 15.2465 310.182 15.6039C309.931 15.9613 309.594 16.2367 309.175 16.4325C308.755 16.6282 308.221 16.7261 307.574 16.7261C306.927 16.7261 306.392 16.6282 305.971 16.4325C305.551 16.2367 305.216 15.9613 304.966 15.6039C304.715 15.2465 304.541 14.8162 304.445 14.3131C304.347 13.8101 304.299 13.2546 304.299 12.6491V7.61371H304.29Z" fill="#C9C9C9"/>
<path d="M312.564 7.61362C312.92 7.57265 313.252 7.53622 313.565 7.50663C313.877 7.47704 314.223 7.46338 314.602 7.46338C315.047 7.46338 315.486 7.50435 315.918 7.58858C316.35 7.67281 316.74 7.81849 317.088 8.0302C317.436 8.2419 317.717 8.52873 317.932 8.89067C318.147 9.25262 318.254 9.71245 318.254 10.2679C318.254 10.6002 318.213 10.8939 318.131 11.1466C318.049 11.3992 317.947 11.6223 317.822 11.8135C317.695 12.0048 317.56 12.1687 317.416 12.3052C317.27 12.4418 317.132 12.5534 317.004 12.6353L316.798 12.7719L318.92 16.5621C318.758 16.578 318.588 16.5962 318.411 16.6122C318.233 16.6281 318.049 16.6372 317.866 16.6372C317.558 16.6372 317.254 16.6122 316.955 16.5621L314.675 12.3986L314.965 12.2483C315.078 12.1914 315.216 12.1163 315.377 12.023C315.539 11.9319 315.694 11.8181 315.845 11.6792C315.993 11.5427 316.122 11.3765 316.226 11.1807C316.33 10.9849 316.383 10.755 316.383 10.4887C316.383 9.96513 316.237 9.58042 315.946 9.33457C315.657 9.08872 315.28 8.96579 314.819 8.96579C314.641 8.96579 314.48 8.97717 314.334 9.00221V16.5689C314.188 16.5849 314.043 16.6008 313.897 16.6122C313.751 16.6258 313.609 16.6304 313.472 16.6304C313.335 16.6304 313.188 16.6258 313.035 16.619C312.883 16.6099 312.723 16.594 312.561 16.5689V7.61362H312.564Z" fill="#C9C9C9"/>
<path d="M319.89 7.61353H324.84C324.889 7.86393 324.914 8.11661 324.914 8.37384C324.914 8.64701 324.889 8.90879 324.84 9.15919H321.661V11.1032H324.184C324.233 11.3695 324.258 11.6268 324.258 11.8772C324.258 12.1435 324.233 12.4053 324.184 12.6625H321.661V15.0299H324.924C324.974 15.2804 324.998 15.533 324.998 15.7903C324.998 16.0634 324.974 16.3252 324.924 16.5756H319.89V7.61353Z" fill="#C9C9C9"/>
<path d="M284.297 21.6387C284.174 21.5887 284.061 21.5363 283.961 21.4771C283.861 21.4179 283.777 21.3496 283.706 21.2677C283.635 21.1857 283.582 21.0878 283.542 20.9763C283.504 20.8625 283.484 20.7259 283.484 20.5688C283.484 20.3753 283.518 20.2069 283.582 20.0589C283.646 19.911 283.737 19.788 283.855 19.6879C283.971 19.5877 284.114 19.5126 284.28 19.4602C284.446 19.4102 284.632 19.3828 284.838 19.3828C285.027 19.3828 285.202 19.3988 285.366 19.4329C285.53 19.4671 285.702 19.5171 285.882 19.5809C285.86 19.7994 285.8 20.0157 285.704 20.2274C285.649 20.2046 285.594 20.1818 285.537 20.1591C285.479 20.1363 285.419 20.1181 285.355 20.1022C285.29 20.0862 285.217 20.0749 285.137 20.0657C285.055 20.0566 284.964 20.0521 284.86 20.0521C284.798 20.0521 284.734 20.0589 284.67 20.068C284.606 20.0794 284.548 20.0999 284.497 20.1295C284.446 20.1591 284.403 20.2046 284.371 20.2638C284.338 20.323 284.322 20.3981 284.322 20.4937C284.322 20.5688 284.336 20.6326 284.359 20.6826C284.386 20.7327 284.419 20.7783 284.463 20.8124C284.509 20.8488 284.557 20.8784 284.613 20.9035C284.668 20.9285 284.723 20.9513 284.779 20.974L285.11 21.1038C285.251 21.1607 285.376 21.2199 285.491 21.2791C285.605 21.3405 285.702 21.4134 285.782 21.5021C285.862 21.5909 285.924 21.6979 285.966 21.8254C286.011 21.9529 286.032 22.1077 286.032 22.2943C286.032 22.4878 285.999 22.6631 285.93 22.8225C285.862 22.9818 285.764 23.1184 285.636 23.2299C285.507 23.3437 285.348 23.4325 285.158 23.4963C284.967 23.56 284.75 23.5919 284.504 23.5919C284.382 23.5919 284.273 23.5873 284.178 23.5805C284.082 23.5737 283.992 23.56 283.906 23.5441C283.819 23.5281 283.733 23.5054 283.648 23.478C283.564 23.4507 283.476 23.4189 283.382 23.3824C283.393 23.2732 283.414 23.1594 283.442 23.0387C283.471 22.9203 283.507 22.7997 283.546 22.679C283.701 22.7428 283.846 22.7906 283.983 22.8247C284.118 22.8566 284.264 22.8725 284.419 22.8725C284.652 22.8725 284.834 22.8293 284.967 22.7382C285.1 22.6494 285.166 22.5151 285.166 22.333C285.166 22.242 285.151 22.1669 285.119 22.1054C285.089 22.0439 285.049 21.9938 284.997 21.9529C284.949 21.9119 284.891 21.8755 284.83 21.8482C284.768 21.8208 284.703 21.7935 284.636 21.7662L284.297 21.6387Z" fill="#C9C9C9"/>
<path d="M287.196 21.6361C287.071 21.586 286.958 21.5336 286.859 21.4744C286.759 21.4152 286.675 21.3469 286.604 21.265C286.533 21.183 286.48 21.0852 286.44 20.9736C286.403 20.8598 286.383 20.7232 286.383 20.5661C286.383 20.3727 286.416 20.2042 286.48 20.0562C286.544 19.9083 286.635 19.7853 286.752 19.6852C286.87 19.585 287.012 19.5099 287.178 19.4575C287.344 19.4075 287.53 19.3801 287.736 19.3801C287.925 19.3801 288.099 19.3961 288.263 19.4302C288.427 19.4644 288.6 19.5145 288.78 19.5782C288.758 19.7967 288.698 20.013 288.603 20.2247C288.547 20.2019 288.492 20.1792 288.434 20.1564C288.376 20.1336 288.317 20.1154 288.253 20.0995C288.189 20.0836 288.115 20.0722 288.036 20.0631C287.953 20.054 287.863 20.0494 287.759 20.0494C287.697 20.0494 287.632 20.0562 287.568 20.0653C287.503 20.0767 287.446 20.0972 287.395 20.1268C287.344 20.1564 287.302 20.2019 287.269 20.2611C287.235 20.3203 287.221 20.3954 287.221 20.491C287.221 20.5661 287.233 20.6299 287.258 20.68C287.284 20.73 287.318 20.7756 287.362 20.8097C287.406 20.8461 287.455 20.8757 287.51 20.9008C287.566 20.9258 287.621 20.9486 287.676 20.9713L288.009 21.1011C288.149 21.158 288.275 21.2172 288.39 21.2764C288.503 21.3378 288.6 21.4107 288.681 21.4995C288.76 21.5882 288.822 21.6952 288.864 21.8227C288.908 21.9502 288.931 22.105 288.931 22.2916C288.931 22.4851 288.898 22.6604 288.829 22.8198C288.76 22.9791 288.663 23.1157 288.534 23.2272C288.406 23.3411 288.246 23.4298 288.055 23.4936C287.865 23.5573 287.648 23.5892 287.402 23.5892C287.28 23.5892 287.172 23.5846 287.076 23.5778C286.981 23.571 286.89 23.5573 286.803 23.5414C286.717 23.5255 286.631 23.5027 286.547 23.4754C286.463 23.4481 286.374 23.4162 286.281 23.3798C286.292 23.2705 286.311 23.1567 286.341 23.036C286.369 22.9177 286.405 22.797 286.445 22.6764C286.6 22.7401 286.743 22.7879 286.881 22.822C287.016 22.8539 287.163 22.8699 287.318 22.8699C287.551 22.8699 287.732 22.8266 287.865 22.7355C287.998 22.6468 288.064 22.5125 288.064 22.3303C288.064 22.2393 288.048 22.1642 288.018 22.1027C287.987 22.0412 287.947 21.9912 287.896 21.9502C287.847 21.9092 287.789 21.8728 287.727 21.8455C287.665 21.8182 287.602 21.7908 287.535 21.7635L287.196 21.6361Z" fill="#C9C9C9"/>
<path d="M289.509 19.4462C289.644 19.4235 289.774 19.4121 289.901 19.4121C290.03 19.4121 290.165 19.4235 290.305 19.4462V22.8107H291.68C291.691 22.8745 291.698 22.9359 291.703 22.9951C291.707 23.0543 291.707 23.1089 291.707 23.1636C291.707 23.225 291.705 23.2842 291.703 23.3411C291.698 23.4003 291.691 23.4618 291.68 23.5255H289.511V19.4462H289.509Z" fill="#C9C9C9"/>
<path d="M293.447 19.4463H295.7C295.722 19.5601 295.733 19.6762 295.733 19.7923C295.733 19.9175 295.722 20.0359 295.7 20.1497H294.253V21.0352H295.4C295.423 21.1559 295.434 21.2742 295.434 21.388C295.434 21.5087 295.423 21.6293 295.4 21.7454H294.253V22.8244H295.737C295.76 22.9383 295.771 23.0544 295.771 23.1704C295.771 23.2957 295.76 23.414 295.737 23.5278H293.447V19.4463Z" fill="#C9C9C9"/>
<path d="M296.377 19.4462C296.493 19.4235 296.599 19.4121 296.703 19.4121C296.814 19.4121 296.927 19.4235 297.047 19.4462L298.582 22.0436V19.4462C298.715 19.4235 298.842 19.4121 298.964 19.4121C299.077 19.4121 299.188 19.4235 299.294 19.4462V23.5255C299.176 23.5483 299.07 23.5596 298.973 23.5596C298.868 23.5596 298.757 23.5483 298.636 23.5255L297.089 20.9327V23.5255C296.971 23.5483 296.852 23.5596 296.73 23.5596C296.608 23.5596 296.49 23.5483 296.377 23.5255V19.4462Z" fill="#C9C9C9"/>
<path d="M302.69 22.7539C302.739 22.8609 302.776 22.9679 302.81 23.0794C302.841 23.191 302.863 23.3025 302.879 23.4163C302.688 23.4892 302.515 23.5347 302.362 23.5575C302.21 23.5802 302.046 23.5916 301.868 23.5916C301.556 23.5916 301.281 23.5392 301.046 23.4345C300.812 23.3298 300.612 23.1841 300.452 22.9975C300.293 22.8108 300.171 22.5877 300.091 22.3305C300.01 22.0732 299.969 21.7933 299.969 21.4905C299.969 21.1877 300.011 20.9077 300.096 20.6482C300.18 20.3887 300.302 20.1656 300.463 19.9767C300.623 19.7878 300.821 19.6398 301.055 19.5351C301.29 19.4281 301.556 19.3757 301.852 19.3757C302.03 19.3757 302.192 19.3871 302.342 19.4099C302.491 19.4326 302.653 19.4804 302.826 19.551C302.819 19.6648 302.797 19.7741 302.759 19.8834C302.721 19.9904 302.681 20.0996 302.637 20.2089C302.508 20.1634 302.393 20.1315 302.293 20.1133C302.194 20.0951 302.076 20.086 301.939 20.086C301.586 20.086 301.314 20.2043 301.124 20.4411C300.933 20.6778 300.84 21.0284 300.84 21.4928C300.84 22.4147 301.221 22.8768 301.983 22.8768C302.119 22.8768 302.238 22.8677 302.342 22.8495C302.447 22.8313 302.561 22.7994 302.69 22.7539Z" fill="#C9C9C9"/>
<path d="M303.519 19.4462C303.681 19.428 303.834 19.412 303.975 19.3984C304.117 19.3847 304.275 19.3779 304.447 19.3779C304.649 19.3779 304.85 19.3961 305.045 19.4348C305.243 19.4735 305.42 19.5395 305.578 19.6351C305.735 19.7307 305.863 19.8628 305.961 20.0267C306.058 20.1906 306.107 20.4 306.107 20.6527C306.107 20.8029 306.089 20.9372 306.051 21.0533C306.014 21.1694 305.967 21.2696 305.909 21.3561C305.852 21.4426 305.79 21.5177 305.726 21.5792C305.659 21.6406 305.597 21.6907 305.537 21.7294L305.444 21.7909L306.41 23.5164C306.338 23.5232 306.26 23.5323 306.178 23.5391C306.096 23.5459 306.014 23.5505 305.929 23.5505C305.79 23.5505 305.652 23.5391 305.515 23.5164L304.476 21.6224L304.608 21.5541C304.66 21.5268 304.722 21.4927 304.797 21.4517C304.871 21.4107 304.941 21.3583 305.01 21.2946C305.079 21.2331 305.137 21.1557 305.183 21.067C305.232 20.9782 305.254 20.8735 305.254 20.7528C305.254 20.5138 305.187 20.3385 305.054 20.227C304.922 20.1154 304.751 20.0585 304.54 20.0585C304.458 20.0585 304.386 20.0654 304.319 20.0745V23.5186C304.252 23.5255 304.185 23.5323 304.12 23.5391C304.053 23.5459 303.989 23.5482 303.926 23.5482C303.864 23.5482 303.798 23.5459 303.727 23.5437C303.656 23.5391 303.585 23.5323 303.512 23.5209V19.4462H303.519Z" fill="#C9C9C9"/>
<path d="M307.65 22.0686L306.412 19.4485C306.567 19.4257 306.723 19.4143 306.876 19.4143C307.015 19.4143 307.155 19.4257 307.295 19.4485L308.079 21.2969L308.852 19.4485C308.99 19.4257 309.129 19.4143 309.271 19.4143C309.404 19.4143 309.546 19.4257 309.697 19.4485L308.46 22.0686V23.5323C308.387 23.5437 308.316 23.5505 308.249 23.5551C308.183 23.5596 308.117 23.5619 308.05 23.5619C307.988 23.5619 307.921 23.5596 307.855 23.5551C307.786 23.5505 307.718 23.5437 307.65 23.5323V22.0686Z" fill="#C9C9C9"/>
<path d="M310.139 19.4302C310.307 19.4143 310.48 19.4029 310.653 19.3938C310.826 19.3847 311.002 19.3801 311.178 19.3801C311.363 19.3801 311.548 19.3984 311.739 19.4371C311.929 19.4758 312.1 19.5463 312.253 19.6488C312.406 19.7535 312.53 19.8969 312.626 20.0836C312.721 20.2679 312.77 20.5092 312.77 20.8052C312.77 21.1011 312.721 21.3401 312.626 21.5222C312.53 21.7066 312.406 21.85 312.255 21.957C312.105 22.064 311.936 22.1346 311.75 22.1733C311.564 22.212 311.381 22.2302 311.201 22.2302C311.152 22.2302 311.108 22.2302 311.065 22.2279C311.023 22.2256 310.984 22.2234 310.946 22.2188V23.53C310.875 23.5414 310.808 23.5482 310.742 23.5528C310.676 23.5573 310.612 23.5573 310.549 23.5573C310.489 23.5573 310.425 23.555 310.356 23.5528C310.286 23.5482 310.215 23.5414 310.141 23.53V19.4302H310.139ZM310.946 21.5291C310.99 21.5359 311.032 21.5404 311.07 21.5404C311.108 21.5404 311.157 21.5404 311.212 21.5404C311.303 21.5404 311.393 21.5291 311.482 21.504C311.571 21.479 311.649 21.438 311.717 21.3811C311.786 21.3242 311.839 21.2491 311.878 21.158C311.919 21.0647 311.938 20.9509 311.938 20.8143C311.938 20.6754 311.919 20.557 311.878 20.4592C311.839 20.3635 311.783 20.2862 311.717 20.227C311.649 20.1678 311.571 20.1268 311.482 20.1018C311.393 20.0767 311.303 20.0653 311.212 20.0653C311.172 20.0653 311.134 20.0653 311.099 20.0676C311.063 20.0699 311.012 20.0744 310.946 20.0813V21.5291Z" fill="#C9C9C9"/>
<path d="M314.132 20.1497H313.144C313.121 20.0359 313.111 19.9175 313.111 19.7923C313.111 19.6739 313.121 19.5601 313.144 19.4463H315.933C315.955 19.5601 315.967 19.6762 315.967 19.7923C315.967 19.9175 315.955 20.0359 315.933 20.1497H314.945V23.5256C314.879 23.5324 314.812 23.5392 314.745 23.5461C314.68 23.5529 314.615 23.5552 314.553 23.5552C314.491 23.5552 314.422 23.5529 314.352 23.5506C314.28 23.5461 314.207 23.5392 314.134 23.5278V20.1497H314.132Z" fill="#C9C9C9"/>
<path d="M316.489 19.4462C316.625 19.4235 316.76 19.4121 316.893 19.4121C317.025 19.4121 317.161 19.4235 317.3 19.4462V23.5255C317.161 23.5483 317.025 23.5596 316.898 23.5596C316.76 23.5596 316.625 23.5483 316.489 23.5255V19.4462Z" fill="#C9C9C9"/>
<path d="M319.691 23.5938C319.393 23.5938 319.135 23.5414 318.918 23.4344C318.7 23.3297 318.522 23.1817 318.382 22.9951C318.242 22.8084 318.138 22.5876 318.069 22.3304C318 22.0754 317.968 21.7954 317.968 21.4926C317.968 21.1899 318 20.9099 318.069 20.6504C318.138 20.3909 318.242 20.1678 318.382 19.9789C318.522 19.7899 318.7 19.642 318.918 19.5372C319.135 19.4302 319.393 19.3779 319.691 19.3779C319.991 19.3779 320.248 19.4302 320.465 19.5372C320.682 19.6442 320.862 19.7899 321.001 19.9789C321.14 20.1678 321.245 20.3932 321.313 20.6504C321.382 20.9099 321.415 21.1899 321.415 21.4926C321.415 21.7954 321.382 22.0731 321.313 22.3304C321.245 22.5853 321.14 22.8061 321.001 22.9951C320.862 23.1817 320.682 23.3297 320.465 23.4344C320.248 23.5414 319.991 23.5938 319.691 23.5938ZM319.691 22.9017C320.263 22.9017 320.546 22.4328 320.546 21.4949C320.546 21.026 320.478 20.6732 320.34 20.4387C320.203 20.2042 319.989 20.0858 319.698 20.0858C319.12 20.0858 318.832 20.5548 318.832 21.4926C318.832 22.4328 319.118 22.9017 319.691 22.9017Z" fill="#C9C9C9"/>
<path d="M322.084 19.4462C322.199 19.4235 322.308 19.4121 322.41 19.4121C322.521 19.4121 322.634 19.4235 322.754 19.4462L324.288 22.0436V19.4462C324.422 19.4235 324.548 19.4121 324.67 19.4121C324.783 19.4121 324.894 19.4235 325 19.4462V23.5255C324.882 23.5483 324.776 23.5596 324.679 23.5596C324.575 23.5596 324.464 23.5483 324.342 23.5255L322.796 20.9327V23.5255C322.678 23.5483 322.558 23.5596 322.436 23.5596C322.315 23.5596 322.197 23.5483 322.084 23.5255V19.4462Z" fill="#C9C9C9"/>
</g>
</g>
<defs>
<clipPath id="clip0_53_3369">
<rect width="325" height="30" fill="white"/>
</clipPath>
</defs>
</svg>
