<svg width="48" height="48" viewBox="0 0 48 48" fill="none" xmlns="http://www.w3.org/2000/svg">
<g clip-path="url(#clip0_1_907)">
<path d="M24 48C37.2548 48 48 37.2548 48 24C48 10.7452 37.2548 0 24 0C10.7452 0 0 10.7452 0 24C0 37.2548 10.7452 48 24 48Z" fill="#068485"/>
<path d="M20.0719 13.7625L27.0844 24L19.725 34.2375H13.7578L20.8875 24.0188L14.0812 13.7625H20.0719ZM28.4344 25.8891L34.2422 34.2328H28.2656L25.3641 30.1781L28.4344 25.8891ZM33.9328 13.7578L28.4437 22.05L25.3594 17.5359L27.9375 13.7578H33.9328Z" fill="white"/>
<path d="M28.4344 25.8891L34.2422 34.2328H28.2656L25.3641 30.1781L28.4344 25.8891ZM33.9328 13.7578L28.4437 22.05L25.3594 17.5359L27.9375 13.7578H33.9328Z" fill="#70B6BE"/>
</g>
<defs>
<clipPath id="clip0_1_907">
<rect width="48" height="48" fill="white"/>
</clipPath>
</defs>
</svg>
