<svg width="86" height="86" viewBox="0 0 86 86" fill="none" xmlns="http://www.w3.org/2000/svg">
<rect width="86" height="86" rx="10" fill="#F79E1B"/>
<g clip-path="url(#clip0_2002_1030)">
<path d="M56.8319 21.4535V21.1666C56.8319 19.35 55.3591 17.8774 53.5427 17.8774H36.4574C34.6407 17.8774 33.1681 19.35 33.1681 21.1666V21.4535C33.1681 23.2701 31.6954 24.7427 29.8788 24.7427C28.0622 24.7427 26.5896 26.2154 26.5896 28.032V47.1261C26.5896 54.0263 30.5119 60.3263 36.7038 63.3715L42.9133 66.4254C43.4863 66.7072 44.1157 66.8554 44.7543 66.8588C45.3928 66.8622 46.0237 66.7207 46.5997 66.4451L53.1237 63.3218C59.4098 60.3124 63.4104 53.9619 63.4104 46.9926V28.032C63.4104 26.2154 61.9377 24.7427 60.1212 24.7427C58.3046 24.7427 56.8319 23.2701 56.8319 21.4535Z" stroke="white" stroke-width="1.5" stroke-miterlimit="10" stroke-linecap="round" stroke-linejoin="round"/>
<path d="M59.7307 36.7409V46.9926C59.7307 49.717 58.9632 52.3756 57.5108 54.6809C56.0614 56.9837 53.9894 58.8289 51.5347 60.0028L45.0108 63.1262C44.9377 63.1612 44.8578 63.1794 44.7767 63.1793C44.6929 63.1793 44.6123 63.1604 44.5372 63.1235L38.3274 60.0696C35.9088 58.8809 33.8719 57.0379 32.4482 54.7497C31.0233 52.4622 30.2682 49.821 30.2689 47.126V28.4114C33.8969 28.2104 36.7933 25.2217 36.8467 21.5569H53.1528C53.2064 25.2217 56.1028 28.2104 59.7307 28.4114V33.0339" stroke="white" stroke-width="1.5" stroke-miterlimit="10" stroke-linecap="round" stroke-linejoin="round"/>
<path d="M46.8967 30.9556C52.1466 31.8559 56.1417 36.4297 56.1417 41.9366C56.1417 48.0902 51.1534 53.0786 44.9999 53.0786C38.8464 53.0786 33.858 48.0902 33.858 41.9366C33.858 36.4023 37.8931 31.8103 43.182 30.9424" stroke="white" stroke-width="1.5" stroke-miterlimit="10" stroke-linecap="round" stroke-linejoin="round"/>
<path d="M43.912 42.1911L41.796 40.0752C41.3895 39.6685 40.7303 39.6685 40.3238 40.0752L38.9421 41.4566C38.5356 41.8633 38.5356 42.5224 38.9421 42.929L42.4818 46.4686C43.2154 47.2022 44.4048 47.2022 45.1384 46.4686L52.0599 39.547C52.4664 39.1404 52.4664 38.4813 52.0599 38.0748L50.7802 36.7951C50.3737 36.3886 49.7146 36.3886 49.308 36.7951L43.912 42.1911Z" stroke="white" stroke-width="1.5" stroke-miterlimit="10" stroke-linecap="round" stroke-linejoin="round"/>
<path d="M65.4643 54.8372L70.7795 60.1519C71.5041 60.8763 71.2795 62.1019 70.3461 62.5237L68.8706 63.1883L66.2075 64.3885C65.8815 64.5356 65.6205 64.7966 65.4734 65.1226L64.2732 67.7857L63.6088 69.26C63.1879 70.1945 61.9624 70.418 61.2378 69.6935L54.2674 62.7241" stroke="white" stroke-width="1.5" stroke-miterlimit="10" stroke-linecap="round" stroke-linejoin="round"/>
<path d="M57.1625 60.675L64.2732 67.7857L65.4734 65.1226C65.6205 64.7966 65.8815 64.5356 66.2075 64.3885L68.8706 63.1883L61.2505 55.5682" stroke="white" stroke-width="1.5" stroke-miterlimit="10" stroke-linecap="round" stroke-linejoin="round"/>
<path d="M27.2833 52.0897L19.2203 60.1518C18.4957 60.8763 18.7204 62.1019 19.6538 62.5237L21.1293 63.1882L23.7923 64.3884C24.1182 64.5361 24.3787 64.7955 24.5264 65.1225L25.7266 67.7856L26.3911 69.26C26.8119 70.1945 28.0374 70.418 28.762 69.6935L35.648 62.8074" stroke="white" stroke-width="1.5" stroke-miterlimit="10" stroke-linecap="round" stroke-linejoin="round"/>
<path d="M28.7029 55.6145V55.6156L21.1292 63.1883L23.7923 64.3884C24.1182 64.5361 24.3787 64.7955 24.5264 65.1225L25.7266 67.7856L30.15 63.3622" stroke="white" stroke-width="1.5" stroke-miterlimit="10" stroke-linecap="round" stroke-linejoin="round"/>
<path d="M44.7774 25.6083V17.8768" stroke="white" stroke-width="1.5" stroke-miterlimit="10" stroke-linecap="round" stroke-linejoin="round"/>
<path d="M44.7774 66.8596V58.3596" stroke="white" stroke-width="1.5" stroke-miterlimit="10" stroke-linecap="round" stroke-linejoin="round"/>
</g>
<defs>
<clipPath id="clip0_2002_1030">
<rect width="54" height="54" fill="white" transform="translate(18 17)"/>
</clipPath>
</defs>
</svg>
