<svg width="86" height="86" viewBox="0 0 86 86" fill="none" xmlns="http://www.w3.org/2000/svg">
<rect width="86" height="86" rx="10" fill="#F79E1B"/>
<path d="M49.9833 28.1496H46.5597C43.677 28.1496 41.3312 30.495 41.3312 33.3781V36.8013C41.3312 37.7011 42.0631 38.4333 42.963 38.4333H46.3863C49.2694 38.4333 51.6148 36.0877 51.6148 33.2047V29.7814C51.6148 28.8818 50.8832 28.1496 49.9834 28.1496H49.9833ZM50.0327 33.2047C50.0327 35.2156 48.3972 36.8512 46.3862 36.8512H43.9864L47.0095 33.8281C47.083 33.7546 47.1413 33.6674 47.1811 33.5715C47.2208 33.4755 47.2413 33.3726 47.2413 33.2688C47.2413 33.1649 47.2208 33.062 47.1811 32.9661C47.1413 32.8701 47.083 32.7829 47.0095 32.7095C46.9361 32.636 46.8489 32.5777 46.7529 32.538C46.657 32.4982 46.5541 32.4777 46.4503 32.4777C46.3464 32.4777 46.2435 32.4982 46.1476 32.538C46.0516 32.5777 45.9644 32.636 45.891 32.7095L42.9132 35.6874V33.3781C42.9132 31.3677 44.5491 29.7317 46.5597 29.7317H49.9832C50.0105 29.7317 50.0328 29.7538 50.0328 29.7814L50.0327 33.2047ZM61.6301 43.0075C61.5262 43.0075 61.4233 43.0279 61.3274 43.0677C61.2314 43.1074 61.1441 43.1657 61.0707 43.2391C60.9972 43.3126 60.939 43.3998 60.8992 43.4958C60.8595 43.5918 60.8391 43.6947 60.8391 43.7986V54.9593C60.8391 55.3964 61.1931 55.7503 61.6301 55.7503C61.8399 55.7503 62.0411 55.6669 62.1894 55.5186C62.3378 55.3702 62.4211 55.169 62.4211 54.9593V43.7986C62.4211 43.5888 62.3378 43.3876 62.1894 43.2392C62.0411 43.0909 61.8399 43.0075 61.6301 43.0075Z" fill="white"/>
<path d="M61.6301 57.7732C61.5263 57.7731 61.4234 57.7936 61.3274 57.8333C61.2314 57.873 61.1442 57.9313 61.0707 58.0048C60.9973 58.0782 60.939 58.1654 60.8993 58.2614C60.8595 58.3574 60.8391 58.4603 60.8391 58.5642V61.7801H35.6251C35.7297 61.2927 35.7826 60.7956 35.7829 60.297V53.561H36.8594V55.0038C36.8594 56.0213 37.6876 56.8495 38.7051 56.8495H54.2407C55.2585 56.8495 56.0864 56.0213 56.0864 55.0038V52.4062C56.0864 51.3886 55.2585 50.5605 54.2407 50.5605H41.5092C41.6342 50.1844 41.7069 49.7929 41.7255 49.397H55.4617C56.4793 49.397 57.3074 48.5689 57.3074 47.5513V44.9538C57.3074 43.9362 56.4793 43.1081 55.4617 43.1081H37.4846C36.4669 43.1081 35.6389 43.9362 35.6389 44.9538V46.284H33.0199C32.708 46.284 32.4035 46.3137 32.1072 46.3681V31.8806C32.1072 31.4434 31.753 31.0896 31.3162 31.0896C30.8795 31.0896 30.5252 31.4434 30.5252 31.8806V38.8489H28.1269C24.197 38.8489 21 42.046 21 45.9754V70.1562C21 70.5929 21.3544 70.9473 21.791 70.9473C22.2277 70.9473 22.582 70.5929 22.582 70.1562V45.9754C22.582 42.9181 25.0696 40.4309 28.1269 40.4309H30.5251V46.9457C28.9996 47.8159 27.9679 49.4572 27.9679 51.3359V56.8227C27.9679 57.2593 28.3223 57.6137 28.7589 57.6137C29.1956 57.6137 29.5499 57.2593 29.5499 56.8227V51.3359C29.5499 49.4227 31.1064 47.8661 33.0197 47.8661H39.8851C40.0305 47.8661 40.1488 47.9843 40.1488 48.1297V49.1886C40.1488 50.7274 38.8971 51.9789 37.3584 51.9789H34.9919C34.7821 51.9789 34.5809 52.0623 34.4326 52.2106C34.2842 52.3589 34.2009 52.5601 34.2009 52.7699V60.2973C34.2009 63.3201 31.7595 65.7796 28.7589 65.7796C28.5491 65.7796 28.3479 65.863 28.1996 66.0113C28.0512 66.1596 27.9679 66.3608 27.9679 66.5706V70.1566C27.9679 70.5934 28.3223 70.9476 28.7589 70.9476C29.1956 70.9476 29.5499 70.5934 29.5499 70.1566V67.3168C29.8975 67.2774 30.2415 67.2115 30.5791 67.1199C30.919 69.3146 32.8211 71 35.1097 71H57.8361C60.3642 71 62.4212 68.9434 62.4212 66.415V58.5642C62.4212 58.3544 62.3378 58.1532 62.1895 58.0048C62.0411 57.8565 61.8399 57.7732 61.6301 57.7732ZM39.8852 46.284H37.2209V44.9534C37.2209 44.8084 37.3395 44.6898 37.4846 44.6898H55.4617C55.607 44.6898 55.7254 44.8084 55.7254 44.9534V47.5514C55.7254 47.6969 55.607 47.8151 55.4617 47.8151H41.7018C41.5519 46.9471 40.795 46.2841 39.885 46.2841L39.8852 46.284ZM40.579 52.1425H54.2409C54.3863 52.1425 54.5046 52.2607 54.5046 52.4062V55.0038C54.5046 55.1492 54.3863 55.2674 54.2409 55.2674H38.7054C38.6354 55.2674 38.5684 55.2396 38.519 55.1901C38.4695 55.1407 38.4417 55.0737 38.4417 55.0038V53.425C39.2754 53.2116 40.0137 52.758 40.579 52.1425ZM57.8362 69.418H35.1098C33.4836 69.418 32.1557 68.1182 32.1092 66.5028C33.4039 65.7913 34.4443 64.6933 35.085 63.3622H60.8387V66.415C60.8391 68.0708 59.4919 69.418 57.8362 69.418ZM57.8362 17H35.1098C32.5817 17 30.5251 19.0566 30.5251 21.585V28.2757C30.5251 28.7128 30.879 29.0667 31.3161 29.0667C31.5259 29.0667 31.7271 28.9833 31.8754 28.835C32.0238 28.6867 32.1071 28.4855 32.1071 28.2757V25.3761H60.8391V40.1936C60.8391 40.6308 61.1931 40.9846 61.6301 40.9846C61.8399 40.9846 62.0411 40.9013 62.1895 40.753C62.3378 40.6046 62.4212 40.4034 62.4212 40.1936V21.585C62.4212 19.0566 60.3641 17 57.8362 17ZM32.1071 23.7941V21.585C32.1071 19.9292 33.454 18.582 35.1098 18.582H57.8362C59.492 18.582 60.8391 19.9292 60.8391 21.585V23.7941H32.1071Z" fill="white"/>
<path d="M46.4143 63.8339C45.0214 63.8339 43.888 64.9673 43.888 66.3602C43.888 67.7535 45.0214 68.8865 46.4143 68.8865C47.8072 68.8865 48.9406 67.7536 48.9406 66.3602C48.9406 64.9673 47.8072 63.8339 46.4143 63.8339ZM46.4143 67.3045C45.8935 67.3045 45.4701 66.8809 45.4701 66.3602C45.4701 65.8395 45.8935 65.416 46.4143 65.416C46.9351 65.416 47.3586 65.8394 47.3586 66.3602C47.3586 66.881 46.935 67.3045 46.4143 67.3045ZM47.8386 20.7969H44.7544C44.5447 20.7969 44.3435 20.8802 44.1951 21.0286C44.0468 21.1769 43.9634 21.3781 43.9634 21.5879C43.9634 21.7977 44.0468 21.9989 44.1951 22.1472C44.3435 22.2956 44.5447 22.3789 44.7544 22.3789H47.8386C48.2752 22.3789 48.6296 22.0245 48.6296 21.5879C48.6296 21.1512 48.2752 20.7969 47.8386 20.7969ZM51.2218 20.8018L50.2726 20.7919H50.2639C50.0556 20.792 49.8556 20.8743 49.7076 21.021C49.5596 21.1676 49.4754 21.3668 49.4733 21.5751C49.4722 21.679 49.4916 21.782 49.5304 21.8784C49.5691 21.9748 49.6265 22.0625 49.6992 22.1367C49.7719 22.2109 49.8585 22.27 49.9541 22.3108C50.0496 22.3515 50.1523 22.3729 50.2561 22.3739L51.2053 22.3839H51.2136C51.4234 22.385 51.625 22.3027 51.7741 22.1551C51.9232 22.0075 52.0076 21.8067 52.0087 21.597C52.0098 21.3872 51.9275 21.1855 51.7799 21.0364C51.6323 20.8873 51.4316 20.8029 51.2218 20.8018ZM41.6645 20.7969C41.2274 20.7993 40.8751 21.1602 40.8776 21.597C40.8788 21.806 40.9626 22.0061 41.1108 22.1535C41.259 22.301 41.4596 22.3837 41.6686 22.3838H41.6728C41.8825 22.3826 42.0832 22.2983 42.2308 22.1492C42.3783 22.0001 42.4606 21.7985 42.4596 21.5887V21.5788C42.4571 21.1422 42.102 20.7952 41.6645 20.7969ZM36.7455 42.0805H38.8783C39.088 42.0805 39.2892 41.9971 39.4376 41.8488C39.5859 41.7004 39.6693 41.4992 39.6693 41.2894C39.6693 41.0797 39.5859 40.8785 39.4376 40.7301C39.2892 40.5818 39.088 40.4984 38.8783 40.4984H36.7454C36.5356 40.4984 36.3344 40.5818 36.186 40.7301C36.0377 40.8785 35.9543 41.0797 35.9543 41.2894C35.9543 41.4992 36.0377 41.7004 36.186 41.8488C36.3344 41.9971 36.5357 42.0805 36.7455 42.0805ZM50.9544 41.2894C50.9544 41.4992 51.0378 41.7004 51.1861 41.8488C51.3345 41.9971 51.5357 42.0805 51.7454 42.0805H56.4207C56.6305 42.0805 56.8316 41.9971 56.98 41.8488C57.1283 41.7004 57.2117 41.4992 57.2117 41.2894C57.2117 41.0797 57.1283 40.8785 56.98 40.7301C56.8316 40.5818 56.6305 40.4984 56.4207 40.4984H51.7454C51.6416 40.4984 51.5387 40.5188 51.4427 40.5586C51.3467 40.5983 51.2595 40.6566 51.186 40.73C51.1126 40.8035 51.0543 40.8907 51.0146 40.9867C50.9748 41.0827 50.9544 41.1856 50.9544 41.2894Z" fill="white"/>
</svg>
