<svg width="86" height="86" viewBox="0 0 86 86" fill="none" xmlns="http://www.w3.org/2000/svg">
<rect width="86" height="86" rx="10" fill="#F79E1B"/>
<g clip-path="url(#clip0_2002_1029)">
<path d="M30.2925 53.5656C24.2848 53.2342 19.5786 48.2568 19.5785 42.2342C19.5785 39.2361 20.7315 36.4106 22.8251 34.2781C22.8977 34.2042 22.955 34.1167 22.9938 34.0206C23.0326 33.9244 23.0521 33.8216 23.0511 33.718C23.0502 33.6144 23.0288 33.5119 22.9882 33.4166C22.9477 33.3212 22.8888 33.2347 22.8148 33.1621C22.7408 33.0895 22.6533 33.0322 22.5572 32.9934C22.4611 32.9546 22.3583 32.9352 22.2547 32.9361C22.151 32.9371 22.0486 32.9584 21.9532 32.999C21.8578 33.0396 21.7714 33.0985 21.6988 33.1725C19.3135 35.6016 18 38.8198 18 42.2342C18.0001 49.0945 23.3614 54.7642 30.2054 55.1416C30.4144 55.1531 30.6194 55.0812 30.7753 54.9416C30.9313 54.8019 31.0253 54.6061 31.0369 54.3971C31.0426 54.2936 31.0279 54.19 30.9936 54.0923C30.9593 53.9945 30.906 53.9044 30.8369 53.8272C30.7678 53.7499 30.6841 53.6871 30.5907 53.6422C30.4973 53.5973 30.3959 53.5713 30.2925 53.5656ZM68.4377 43.8485C68.3896 43.8281 68.3463 43.7978 68.3106 43.7597C68.275 43.7215 68.2477 43.6762 68.2307 43.6268C68.2135 43.5773 68.2069 43.5247 68.2113 43.4724C68.2157 43.4201 68.2311 43.3694 68.2565 43.3235C68.9963 41.9589 69.3697 40.4123 69.3365 38.8507C69.2359 34.1344 65.4669 30.2746 60.756 30.0634C59.7948 30.0193 58.8328 30.1299 57.9067 30.391C57.7948 30.4223 57.7024 30.39 57.6446 30.3573C57.5995 30.3317 57.56 30.2973 57.5284 30.2562C57.4968 30.2151 57.4737 30.168 57.4605 30.1179C55.9582 24.5349 50.8666 20.6358 45.0786 20.6358C39.6596 20.6358 34.8023 24.066 32.9918 29.1713C32.9342 29.3336 32.7714 29.4357 32.604 29.4141C32.0119 29.3369 31.4152 29.3009 30.8181 29.3063C28.6164 29.325 26.4477 29.9049 24.5463 30.9834C24.4561 31.0346 24.3769 31.1029 24.3132 31.1847C24.2495 31.2664 24.2025 31.3599 24.1749 31.4598C24.1473 31.5597 24.1396 31.6641 24.1524 31.767C24.1652 31.8698 24.198 31.9692 24.2492 32.0593C24.3525 32.2414 24.5239 32.375 24.7256 32.4307C24.9274 32.4864 25.143 32.4597 25.3251 32.3564C26.9935 31.4099 28.8976 30.901 30.8314 30.8848C31.3556 30.8807 31.8833 30.9124 32.4007 30.9794C33.3002 31.0968 34.1748 30.5578 34.4793 29.699C36.067 25.2221 40.3264 22.2142 45.0786 22.2142C50.1542 22.2142 54.619 25.633 55.9363 30.5282C56.0725 31.0341 56.4111 31.4722 56.8653 31.73C57.3169 31.9866 57.839 32.0505 58.3356 31.9102C59.0994 31.6952 59.8927 31.6041 60.6854 31.6404C64.5686 31.8144 67.6756 34.9966 67.7585 38.8846C67.786 40.1725 67.4784 41.4474 66.869 42.5713C66.7397 42.81 66.6614 43.073 66.639 43.3437C66.6167 43.6143 66.6508 43.8866 66.7392 44.1433C66.8284 44.3996 66.9699 44.6345 67.1546 44.8333C67.3393 45.032 67.5633 45.1902 67.8124 45.2978C69.381 45.9749 70.4052 47.5152 70.4214 49.2221C70.4323 50.3556 69.9874 51.4347 69.1691 52.2611C68.3364 53.1017 67.1879 53.5839 66.018 53.5839H59.7512C59.3152 53.5839 58.962 53.9372 58.962 54.3731C58.962 54.8091 59.3152 55.1624 59.7512 55.1624H66.018C67.6061 55.1624 69.1635 54.5098 70.2906 53.3718C71.4078 52.244 72.0148 50.7649 72 49.2071C71.9775 46.876 70.5793 44.7727 68.4377 43.8485Z" fill="white"/>
<path d="M55.0854 47.4231V44.74C55.0854 43.1566 54.728 41.6396 54.0232 40.2314C53.9286 40.0459 53.7644 39.9053 53.5666 39.8403C53.3688 39.7753 53.1532 39.7911 52.967 39.8843C52.7808 39.9775 52.6389 40.1405 52.5723 40.3378C52.5058 40.5351 52.5199 40.7508 52.6116 40.9377C53.2058 42.1247 53.5069 43.404 53.5069 44.7399V47.4031H51.0866V44.7399C51.0866 41.3837 48.3561 38.6533 45 38.6533C41.6437 38.6533 38.9133 41.3837 38.9133 44.7399V47.4031H36.493V44.7399C36.493 40.0491 40.3093 36.2328 45 36.2328C47.1397 36.2328 49.1848 37.0306 50.7588 38.4791C50.9133 38.6176 51.1162 38.6897 51.3235 38.6797C51.5308 38.6698 51.7259 38.5786 51.8664 38.4259C52.007 38.2732 52.0817 38.0713 52.0745 37.8639C52.0673 37.6564 51.9787 37.4602 51.8279 37.3177C49.9617 35.6003 47.5369 34.6543 45.0001 34.6543C39.4389 34.6543 34.9147 39.1787 34.9147 44.7399V47.423C33.6218 47.5801 32.6167 48.6836 32.6167 50.0181V63.3745C32.6167 65.5744 34.4066 67.3642 36.6066 67.3642H53.3935C55.5935 67.3642 57.3833 65.5744 57.3833 63.3745V61.69C57.3833 61.254 57.03 60.9008 56.594 60.9008C56.158 60.9008 55.8048 61.254 55.8048 61.69V63.3745C55.8048 64.7041 54.7231 65.7857 53.3935 65.7857H36.6065C35.2768 65.7857 34.1951 64.7041 34.1951 63.3745V50.0182C34.1951 49.4466 34.6601 48.9816 35.2318 48.9816H54.7681C55.3398 48.9816 55.8048 49.4466 55.8048 50.0182V58.3267C55.8048 58.7627 56.158 59.1159 56.594 59.1159C57.03 59.1159 57.3833 58.7627 57.3833 58.3267V50.0182C57.3833 48.6837 56.3782 47.5802 55.0854 47.4231ZM40.4917 44.74C40.4917 42.2542 42.5142 40.2318 45 40.2318C47.4858 40.2318 49.5081 42.2542 49.5081 44.74V47.4032H40.4917V44.74Z" fill="white"/>
<path d="M41.9271 61.0401C42.0763 61.2432 42.2712 61.4084 42.4959 61.5223C42.7207 61.6363 42.969 61.6959 43.221 61.6963H46.7403C46.9923 61.6959 47.2407 61.6363 47.4654 61.5223C47.6902 61.4084 47.885 61.2432 48.0343 61.0401C48.1828 60.8366 48.2814 60.601 48.3222 60.3523C48.363 60.1037 48.3449 59.8489 48.2692 59.6085L47.5902 57.4641C48.1084 56.8176 48.3666 56.0063 48.3176 55.1743C48.2188 53.491 46.8752 52.1427 45.1925 52.0384C44.2571 51.9791 43.3707 52.3001 42.6915 52.9385C42.3594 53.2516 42.0947 53.6291 41.9135 54.048C41.7323 54.4669 41.6384 54.9183 41.6376 55.3747C41.6381 56.1342 41.8968 56.871 42.3711 57.4642L41.692 59.6084C41.6164 59.8488 41.5983 60.1036 41.6391 60.3523C41.68 60.6009 41.7786 60.8365 41.9271 61.0401ZM43.197 60.085L43.893 57.8868C44.0444 57.4087 43.9415 56.8885 43.6177 56.4952C43.355 56.1763 43.2162 55.7888 43.2162 55.3747C43.2162 54.8826 43.4138 54.4259 43.7726 54.0886C44.0989 53.78 44.5314 53.6087 44.9805 53.6102C45.0184 53.6102 45.0565 53.6114 45.0947 53.6137C45.9672 53.6679 46.6907 54.394 46.7419 55.2668C46.7683 55.7157 46.6265 56.1524 46.3425 56.4965C46.0193 56.8887 45.9167 57.4083 46.0683 57.8865L46.7644 60.0849C46.7665 60.0912 46.7683 60.0971 46.7607 60.1074C46.7533 60.1179 46.747 60.1179 46.7404 60.1179H43.2212C43.2145 60.1179 43.2083 60.1179 43.2008 60.1074C43.1931 60.0972 43.195 60.0912 43.197 60.085Z" fill="white"/>
</g>
<defs>
<clipPath id="clip0_2002_1029">
<rect width="54" height="54" fill="white" transform="translate(18 17)"/>
</clipPath>
</defs>
</svg>
