<svg width="62" height="50" viewBox="0 0 62 50" fill="none" xmlns="http://www.w3.org/2000/svg">
<path fill-rule="evenodd" clip-rule="evenodd" d="M61.284 50H32.4532V25.8051C32.4063 18.4987 34.7322 12.5826 39.6321 8.37431L39.6343 8.37246C43.5784 4.99429 48.7465 2.40145 55.0406 0.52632L56.7823 0.00743465L62 11.117L59.833 11.9234C54.1692 14.0309 51.5832 16.2716 50.8508 18.2353L50.8427 18.257L50.8341 18.2784C50.6092 18.8437 50.4397 19.5015 50.3394 20.2622H61.284V50ZM48.122 21.5312C48.115 21.8117 48.115 22.0987 48.122 22.3922H59.1655V47.87H34.5716V25.7983C34.5264 18.9861 36.6719 13.7179 41.008 9.99391C44.6666 6.86027 49.5448 4.38516 55.6424 2.56856L59.0978 9.92578C58.4065 10.183 57.7491 10.4458 57.1254 10.7143C52.5733 12.6734 49.8206 14.9311 48.8672 17.4874C48.539 18.3124 48.3185 19.2373 48.2056 20.2622C48.1607 20.6694 48.1328 21.0924 48.122 21.5312ZM28.8308 50H0V25.7983C0 18.4921 2.34979 12.58 7.24672 8.37431L7.24888 8.37246C11.1902 4.99665 16.3332 2.40347 22.5833 0.527551L24.341 0L29.4443 11.0834L27.35 11.9089C21.764 14.1106 19.1913 16.3499 18.4574 18.2563L18.4531 18.2674L18.4487 18.2784C18.2225 18.847 18.047 19.5052 17.9338 20.2622H28.8308V50ZM15.6688 22.3922C15.6688 21.6398 15.711 20.9298 15.7953 20.2622C15.9248 19.2373 16.1536 18.3124 16.4818 17.4874C17.4343 15.0134 20.1475 12.7674 24.6216 10.7492C25.2397 10.4704 25.8915 10.1959 26.5769 9.92578L23.1893 2.56856C17.1368 4.38516 12.2812 6.86027 8.6226 9.99391C4.28647 13.7179 2.11841 18.9861 2.11841 25.7983V47.87H26.7124V22.3922H15.6688Z" fill="#F79E1B"/>
</svg>
