<svg width="108" height="20" viewBox="0 0 108 20" fill="none" xmlns="http://www.w3.org/2000/svg">
<path d="M4.81109 17.595C5.10359 17.8083 5.44526 17.9167 5.78942 17.9167C6.05109 17.9167 6.31359 17.8542 6.55692 17.7275L9.60109 16.1492C9.72025 16.0875 9.86275 16.0875 9.98192 16.1492L13.0261 17.7267C13.5919 18.0217 14.2594 17.9708 14.7719 17.595C15.2778 17.2258 15.5253 16.615 15.4186 15.9992L14.8378 12.6567C14.8161 12.5333 14.8578 12.4075 14.9494 12.3192L17.4128 9.9525C17.8661 9.51833 18.0294 8.87667 17.8378 8.28083C17.6444 7.67833 17.1328 7.2475 16.5019 7.1575L13.0953 6.66667C12.9644 6.64833 12.8519 6.5675 12.7944 6.45167L11.2711 3.40917C10.9903 2.84833 10.4236 2.5 9.79192 2.5C9.16025 2.5 8.59359 2.84833 8.31276 3.40917L6.79026 6.4525C6.73359 6.5675 6.62025 6.64833 6.48859 6.66667L3.08192 7.1575C2.45109 7.2475 1.93942 7.67833 1.74609 8.28083C1.55442 8.87667 1.71692 9.51833 2.17026 9.9525L4.63359 12.3192C4.72526 12.4075 4.76776 12.5333 4.74609 12.6575L4.16609 15.9992C4.05859 16.6142 4.30609 17.225 4.81109 17.595Z" fill="#FCC02A"/>
<path d="M26.8111 17.595C27.1036 17.8083 27.4453 17.9167 27.7894 17.9167C28.0511 17.9167 28.3136 17.8542 28.5569 17.7275L31.6011 16.1492C31.7203 16.0875 31.8628 16.0875 31.9819 16.1492L35.0261 17.7267C35.5919 18.0217 36.2594 17.9708 36.7719 17.595C37.2778 17.2258 37.5253 16.615 37.4186 15.9992L36.8378 12.6567C36.8161 12.5333 36.8578 12.4075 36.9494 12.3192L39.4128 9.9525C39.8661 9.51833 40.0294 8.87667 39.8378 8.28083C39.6444 7.67833 39.1328 7.2475 38.5019 7.1575L35.0953 6.66667C34.9644 6.64833 34.8519 6.5675 34.7944 6.45167L33.2711 3.40917C32.9903 2.84833 32.4236 2.5 31.7919 2.5C31.1603 2.5 30.5936 2.84833 30.3128 3.40917L28.7903 6.4525C28.7336 6.5675 28.6203 6.64833 28.4886 6.66667L25.0819 7.1575C24.4511 7.2475 23.9394 7.67833 23.7461 8.28083C23.5544 8.87667 23.7169 9.51833 24.1703 9.9525L26.6336 12.3192C26.7253 12.4075 26.7678 12.5333 26.7461 12.6575L26.1661 15.9992C26.0586 16.6142 26.3061 17.225 26.8111 17.595Z" fill="#FCC02A"/>
<path d="M48.8111 17.595C49.1036 17.8083 49.4453 17.9167 49.7894 17.9167C50.0511 17.9167 50.3136 17.8542 50.5569 17.7275L53.6011 16.1492C53.7203 16.0875 53.8628 16.0875 53.9819 16.1492L57.0261 17.7267C57.5919 18.0217 58.2594 17.9708 58.7719 17.595C59.2778 17.2258 59.5253 16.615 59.4186 15.9992L58.8378 12.6567C58.8161 12.5333 58.8578 12.4075 58.9494 12.3192L61.4128 9.9525C61.8661 9.51833 62.0294 8.87667 61.8378 8.28083C61.6444 7.67833 61.1328 7.2475 60.5019 7.1575L57.0953 6.66667C56.9644 6.64833 56.8519 6.5675 56.7944 6.45167L55.2711 3.40917C54.9903 2.84833 54.4236 2.5 53.7919 2.5C53.1603 2.5 52.5936 2.84833 52.3128 3.40917L50.7903 6.4525C50.7336 6.5675 50.6203 6.64833 50.4886 6.66667L47.0819 7.1575C46.4511 7.2475 45.9394 7.67833 45.7461 8.28083C45.5544 8.87667 45.7169 9.51833 46.1703 9.9525L48.6336 12.3192C48.7253 12.4075 48.7678 12.5333 48.7461 12.6575L48.1661 15.9992C48.0586 16.6142 48.3061 17.225 48.8111 17.595Z" fill="#FCC02A"/>
<path d="M70.8111 17.595C71.1036 17.8083 71.4453 17.9167 71.7894 17.9167C72.0511 17.9167 72.3136 17.8542 72.5569 17.7275L75.6011 16.1492C75.7203 16.0875 75.8628 16.0875 75.9819 16.1492L79.0261 17.7267C79.5919 18.0217 80.2594 17.9708 80.7719 17.595C81.2778 17.2258 81.5253 16.615 81.4186 15.9992L80.8378 12.6567C80.8161 12.5333 80.8578 12.4075 80.9494 12.3192L83.4128 9.9525C83.8661 9.51833 84.0294 8.87667 83.8378 8.28083C83.6444 7.67833 83.1328 7.2475 82.5019 7.1575L79.0953 6.66667C78.9644 6.64833 78.8519 6.5675 78.7944 6.45167L77.2711 3.40917C76.9903 2.84833 76.4236 2.5 75.7919 2.5C75.1603 2.5 74.5936 2.84833 74.3128 3.40917L72.7903 6.4525C72.7336 6.5675 72.6203 6.64833 72.4886 6.66667L69.0819 7.1575C68.4511 7.2475 67.9394 7.67833 67.7461 8.28083C67.5544 8.87667 67.7169 9.51833 68.1703 9.9525L70.6336 12.3192C70.7253 12.4075 70.7678 12.5333 70.7461 12.6575L70.1661 15.9992C70.0586 16.6142 70.3061 17.225 70.8111 17.595Z" fill="#FCC02A"/>
<path d="M92.8111 17.595C93.1036 17.8083 93.4453 17.9167 93.7894 17.9167C94.0511 17.9167 94.3136 17.8542 94.5569 17.7275L97.6011 16.1492C97.7203 16.0875 97.8628 16.0875 97.9819 16.1492L101.026 17.7267C101.592 18.0217 102.259 17.9708 102.772 17.595C103.278 17.2258 103.525 16.615 103.419 15.9992L102.838 12.6567C102.816 12.5333 102.858 12.4075 102.949 12.3192L105.413 9.9525C105.866 9.51833 106.029 8.87667 105.838 8.28083C105.644 7.67833 105.133 7.2475 104.502 7.1575L101.095 6.66667C100.964 6.64833 100.852 6.5675 100.794 6.45167L99.2711 3.40917C98.9903 2.84833 98.4236 2.5 97.7919 2.5C97.1603 2.5 96.5936 2.84833 96.3128 3.40917L94.7903 6.4525C94.7336 6.5675 94.6203 6.64833 94.4886 6.66667L91.0819 7.1575C90.4511 7.2475 89.9394 7.67833 89.7461 8.28083C89.5544 8.87667 89.7169 9.51833 90.1703 9.9525L92.6336 12.3192C92.7253 12.4075 92.7678 12.5333 92.7461 12.6575L92.1661 15.9992C92.0586 16.6142 92.3061 17.225 92.8111 17.595Z" fill="#FCC02A"/>
</svg>
