<svg width="36" height="36" viewBox="0 0 36 36" fill="none" xmlns="http://www.w3.org/2000/svg">
<path d="M35.4574 22.3543C33.0534 31.9972 23.2866 37.8658 13.6425 35.4611C4.0025 33.0571 -1.86601 23.2897 0.539074 13.6476C2.94205 4.00354 12.7088 -1.86541 22.3499 0.538622C31.9933 2.94265 37.8615 12.7111 35.4572 22.3545L35.4573 22.3543H35.4574Z" fill="#50AF95"/>
<path fill-rule="evenodd" clip-rule="evenodd" d="M20.2778 20.0408C20.1505 20.0503 19.4929 20.0896 18.026 20.0896C16.8593 20.0896 16.031 20.0546 15.7404 20.0408C11.2316 19.8424 7.86619 19.0576 7.86619 18.1178C7.86619 17.1781 11.2316 16.3943 15.7404 16.1928V19.2591C16.0352 19.2803 16.8795 19.3301 18.0462 19.3301C19.4462 19.3301 20.1473 19.2718 20.2735 19.2601V16.1949C24.7727 16.3954 28.1307 17.1802 28.1307 18.1178C28.1307 19.0554 24.7738 19.8403 20.2735 20.0397L20.2778 20.0408ZM20.2778 15.8778V13.1339H26.5567V8.94971H9.46139V13.1339H15.7393V15.8767C10.6366 16.1111 6.79919 17.1219 6.79919 18.3332C6.79919 19.5444 10.6366 20.5541 15.7393 20.7896V29.5823H20.2767V20.7864C25.3677 20.552 29.1988 19.5423 29.1988 18.3321C29.1988 17.1219 25.3709 16.1122 20.2767 15.8767L20.2778 15.8778Z" fill="white"/>
</svg>
