<?xml version="1.0" encoding="utf-8"?>
<!-- Generator: Adobe Illustrator 24.1.0, SVG Export Plug-In . SVG Version: 6.00 Build 0)  -->
<svg version="1.1" id="Capa_1" xmlns="http://www.w3.org/2000/svg" xmlns:xlink="http://www.w3.org/1999/xlink" x="0px" y="0px" viewBox="0 0 230 60" style="enable-background:new 0 0 230 60;" xml:space="preserve">
	<style type="text/css">
	.st0{fill:#FFFFFF;}
	.st1{fill:none;stroke:#FFFFFF;stroke-width:0.5;stroke-miterlimit:10;}
	</style>
	<g>
		<g>
			<g>
				<path class="st0" d="M113.99,38.09l0.06-7.48l-3.41,7.48h-1.11l-3.4-7.48l0.06,7.48h-1.11v-8.71h1.63l3.4,7.38l3.4-7.38h1.6v8.71
				L113.99,38.09L113.99,38.09z" />
				<path class="st0" d="M128.34,36.25c-0.65,1.65-2.5,2.05-4.01,2.05c-0.4,0-1.92,0.01-3.1-0.85c-0.5-0.36-0.72-0.74-0.84-0.96
				c-0.33-0.64-0.35-1.28-0.35-1.99v-5.12h1.19v5.17c0,0.1-0.01,0.47,0.05,0.81c0.12,0.8,0.51,1.09,0.8,1.28
				c0.41,0.27,1.1,0.58,2.27,0.58c0.15,0,1.56,0,2.36-0.62c0.28-0.22,0.45-0.52,0.5-0.63c0.19-0.41,0.19-0.81,0.19-1.27v-5.33h1.19
				v5.24C128.58,35.2,128.56,35.69,128.34,36.25z" />
				<path class="st0" d="M133.53,38.09v-8.71h1.18v7.65h5.53v1.06C140.25,38.09,133.53,38.09,133.53,38.09z" />
				<path class="st0" d="M146.99,30.41v7.67h-1.18v-7.67h-3.4v-1.04h7.99v1.04L146.99,30.41L146.99,30.41z" />
				<path class="st0" d="M154.97,38.09v-8.71h1.2v8.71L154.97,38.09L154.97,38.09z" />
				<path class="st0" d="M170.23,38.09l0.06-7.48l-3.41,7.48h-1.11l-3.4-7.48l0.06,7.48h-1.11v-8.71h1.63l3.4,7.38l3.4-7.38h1.6v8.71
				L170.23,38.09L170.23,38.09z" />
				<path class="st0" d="M176.52,38.09v-8.71h7.68v1.07h-6.5v2.59h6.34v1.04h-6.34v2.94h6.81v1.07L176.52,38.09L176.52,38.09z" />
				<path class="st0" d="M196.32,37.05c-1.13,1-2.58,1.04-3.98,1.04h-3.33v-8.71h4.14c0.24,0,0.46,0,0.7,0.01
				c0.38,0.01,1.27,0.09,2.16,0.69c1.17,0.8,1.71,2.15,1.71,3.59C197.73,34.93,197.27,36.22,196.32,37.05z M194.45,30.52
				c-0.4-0.11-0.87-0.12-1.29-0.12h-2.95v6.64h2.43c0.22,0,0.44-0.01,0.65-0.02c0.35-0.01,1.38-0.04,2.23-0.81
				c0.94-0.88,1-2.16,1-2.58C196.51,32.19,195.83,30.91,194.45,30.52z" />
				<path class="st0" d="M202.01,38.09v-8.71h1.2v8.71L202.01,38.09L202.01,38.09z" />
				<path class="st0" d="M216.46,36.82c-0.58,0.63-1.85,1.5-3.94,1.5c-0.21,0-0.7-0.01-1.27-0.11c-0.57-0.09-2.25-0.41-3.22-2.04
				c-0.57-0.96-0.6-1.95-0.6-2.34c0-1,0.25-2,0.84-2.78c0.12-0.16,0.27-0.35,0.6-0.63c0.57-0.49,1.71-1.26,3.59-1.26
				c0.38,0,1.51,0.04,2.58,0.56c0.68,0.33,1.34,0.88,1.78,1.53c0.68,1.04,0.73,2.18,0.73,2.6
				C217.54,34.36,217.47,35.72,216.46,36.82z M216.04,32.22c-0.9-2.01-3.27-2-3.74-1.99c-0.35,0.01-1.85,0.1-2.82,1.11
				c-0.17,0.17-0.5,0.56-0.7,1.17c-0.13,0.4-0.19,0.85-0.19,1.27c0,0.32,0.04,1.26,0.6,2.06c0.12,0.16,0.3,0.38,0.66,0.65
				c0.48,0.36,1.3,0.75,2.68,0.75c0.22,0,0.78,0,1.4-0.17c1.17-0.32,2.02-1.14,2.3-2.37c0.04-0.17,0.11-0.53,0.11-0.97
				C216.35,32.99,216.16,32.47,216.04,32.22z" />
				<path class="st0" d="M229.16,36.92c-0.74,1.09-2.15,1.26-2.45,1.3c-0.19,0.02-0.67,0.09-1.2,0.09c-0.24,0-1.26-0.02-2.15-0.26
				c-0.19-0.05-0.48-0.12-0.9-0.31c-0.44-0.2-0.73-0.42-0.87-0.53c-0.45-0.36-0.65-0.68-0.78-0.88l1.1-0.47
				c0.06,0.07,0.11,0.14,0.18,0.21c0.18,0.19,0.57,0.51,1.14,0.75c0.96,0.41,2.09,0.42,2.36,0.42c0.21,0,1.46,0.04,2.27-0.59
				c0.5-0.4,0.57-0.94,0.57-1.17c0-0.51-0.27-0.88-0.71-1.07c-0.61-0.28-2.05-0.37-2.71-0.43c-1.59-0.14-2.37-0.22-2.99-0.81
				c-0.57-0.54-0.59-1.16-0.59-1.46c0-1.22,0.8-1.78,1.16-1.97c0.5-0.28,1.4-0.57,2.75-0.57c1.65,0,2.64,0.42,3.25,0.83
				c0.14,0.1,0.26,0.19,0.38,0.3c0.27,0.23,0.47,0.54,0.54,0.63l-1.09,0.46c-0.06-0.06-0.27-0.28-0.51-0.46
				c-0.46-0.33-1.25-0.73-2.56-0.73c-0.85,0-1.51,0.16-1.82,0.28c-0.72,0.28-0.92,0.8-0.92,1.17c0,0.19,0.05,0.38,0.14,0.54
				c0.3,0.49,0.89,0.54,1.37,0.61c0.92,0.12,1.84,0.17,2.76,0.28c1.29,0.16,1.88,0.51,2.28,1.02c0.41,0.56,0.44,1.11,0.44,1.37
				C229.58,36.2,229.32,36.68,229.16,36.92z" />
				<g>
					<g>
						<path class="st0" d="M160.8,41.74v-0.83h10.93v0.83H160.8z" />
					</g>
				</g>
			</g>
			<g>
				<path class="st0" d="M136.92,16.24v3.23c0,0.38,0.07,0.69,0.21,0.95c0.21,0.38,0.57,0.57,1.08,0.57c0.6,0,1.01-0.21,1.23-0.62
				c0.12-0.22,0.18-0.52,0.18-0.9v-3.23h0.71v2.93c0,0.64-0.09,1.14-0.26,1.48c-0.32,0.63-0.92,0.95-1.8,0.95s-1.48-0.31-1.8-0.95
				c-0.17-0.35-0.26-0.84-0.26-1.48v-2.93H136.92z" />
				<path class="st0" d="M141.41,16.24h0.83l2.6,4.22v-4.22h0.67v5.22h-0.79l-2.64-4.21v4.21h-0.68V16.24z" />
				<path class="st0" d="M148.19,16.24h0.8l1.89,5.22h-0.77l-0.54-1.56h-2.05l-0.57,1.56h-0.73L148.19,16.24z M149.36,19.32
				l-0.8-2.31l-0.83,2.31H149.36z" />
				<path class="st0" d="M153.21,16.24H157v0.64h-3.1v1.58h2.86v0.6h-2.86v1.77h3.15v0.62h-3.84V16.24z" />
				<path class="st0" d="M157.98,16.24h1.01l1.5,4.41l1.49-4.41h1.01v5.22h-0.68v-3.08c0-0.11,0-0.28,0.01-0.53s0.01-0.51,0.01-0.79
				l-1.49,4.4h-0.7l-1.5-4.4v0.16c0,0.13,0,0.32,0.01,0.58c0.01,0.26,0.01,0.45,0.01,0.58v3.08h-0.68V16.24z" />
				<path class="st0" d="M164.13,16.24h2.34c0.46,0,0.83,0.13,1.12,0.39c0.28,0.26,0.43,0.63,0.43,1.1c0,0.41-0.13,0.76-0.38,1.06
				c-0.25,0.3-0.64,0.45-1.16,0.45h-1.63v2.21h-0.71V16.24z M166.87,16.96c-0.16-0.07-0.37-0.11-0.64-0.11h-1.4v1.81h1.4
				c0.31,0,0.57-0.07,0.77-0.2s0.29-0.37,0.29-0.71C167.29,17.35,167.15,17.09,166.87,16.96z" />
				<path class="st0" d="M169,16.24h2.37c0.39,0,0.71,0.06,0.97,0.17c0.48,0.22,0.72,0.63,0.72,1.23c0,0.31-0.06,0.57-0.19,0.77
				c-0.13,0.2-0.31,0.36-0.54,0.48c0.2,0.08,0.36,0.19,0.46,0.33c0.1,0.13,0.16,0.35,0.17,0.66l0.02,0.7
				c0.01,0.2,0.02,0.35,0.05,0.44c0.04,0.17,0.12,0.27,0.23,0.32v0.12h-0.87c-0.02-0.05-0.04-0.1-0.06-0.17
				c-0.01-0.07-0.03-0.21-0.04-0.41L172.26,20c-0.02-0.34-0.14-0.57-0.37-0.69c-0.13-0.06-0.34-0.1-0.62-0.1h-1.56v2.24H169V16.24z
				 M171.29,18.63c0.32,0,0.58-0.07,0.77-0.2c0.19-0.13,0.28-0.37,0.28-0.72c0-0.37-0.13-0.63-0.39-0.76
				c-0.14-0.07-0.33-0.11-0.56-0.11h-1.68v1.78H171.29z" />
				<path class="st0" d="M174.23,16.24h3.79v0.64h-3.1v1.58h2.86v0.6h-2.86v1.77h3.15v0.62h-3.84V16.24z" />
				<path class="st0" d="M179.48,19.77c0.02,0.3,0.08,0.54,0.2,0.72c0.23,0.35,0.62,0.52,1.2,0.52c0.25,0,0.49-0.04,0.7-0.11
				c0.41-0.15,0.61-0.41,0.61-0.79c0-0.28-0.08-0.49-0.26-0.61c-0.17-0.12-0.45-0.22-0.82-0.31l-0.69-0.16
				c-0.45-0.1-0.76-0.22-0.95-0.34c-0.32-0.22-0.48-0.54-0.48-0.98c0-0.47,0.16-0.85,0.47-1.16c0.32-0.3,0.76-0.45,1.34-0.45
				c0.53,0,0.98,0.13,1.36,0.4s0.56,0.69,0.56,1.27h-0.67c-0.03-0.28-0.11-0.5-0.22-0.64c-0.21-0.27-0.56-0.41-1.05-0.41
				c-0.4,0-0.69,0.09-0.86,0.26c-0.17,0.18-0.26,0.38-0.26,0.61c0,0.26,0.1,0.44,0.31,0.56c0.13,0.08,0.44,0.17,0.92,0.28l0.71,0.17
				c0.34,0.08,0.61,0.19,0.79,0.33c0.32,0.24,0.48,0.6,0.48,1.06c0,0.58-0.21,0.99-0.62,1.24c-0.41,0.25-0.89,0.37-1.43,0.37
				c-0.63,0-1.13-0.17-1.49-0.5c-0.36-0.33-0.53-0.78-0.53-1.34H179.48z" />
				<path class="st0" d="M185.4,16.24h0.8l1.89,5.22h-0.77l-0.54-1.56h-2.05l-0.57,1.56h-0.73L185.4,16.24z M186.57,19.32l-0.8-2.31
				l-0.83,2.31H186.57z" />
				<path class="st0" d="M190.38,16.24h2.09c0.71,0,1.26,0.25,1.65,0.76c0.35,0.46,0.52,1.05,0.52,1.77c0,0.55-0.1,1.05-0.31,1.5
				c-0.36,0.79-0.98,1.19-1.87,1.19h-2.08V16.24z M192.33,20.85c0.23,0,0.42-0.02,0.58-0.07c0.27-0.09,0.49-0.27,0.66-0.53
				c0.14-0.21,0.23-0.48,0.29-0.81c0.04-0.2,0.05-0.38,0.05-0.55c0-0.65-0.13-1.15-0.38-1.51c-0.25-0.36-0.66-0.54-1.21-0.54h-1.23
				v4.01H192.33z" />
				<path class="st0" d="M195.67,16.24h3.79v0.64h-3.1v1.58h2.86v0.6h-2.86v1.77h3.15v0.62h-3.84V16.24z" />
			</g>
		</g>
		<path class="st1" d="M87.89,30c0,16.57,0,30,0,30S87.89,46.57,87.89,30s0-30,0-30S87.89,13.43,87.89,30z" />
		<g>
			<path class="st0" d="M65.51,13.66h0.72c0.47,0,0.8-0.07,0.8-0.56c0-0.43-0.47-0.51-0.84-0.51h-0.68L65.51,13.66L65.51,13.66z
			 M64.71,11.96h1.54c1.02,0,1.6,0.32,1.6,1.21c0,0.75-0.48,1.04-1.07,1.09l1.09,1.78h-0.85l-0.99-1.74h-0.5v1.74H64.7L64.71,11.96
			L64.71,11.96z M66.15,16.87c1.51,0,2.74-1.21,2.74-2.87c0-1.65-1.23-2.85-2.74-2.85c-1.53,0-2.74,1.2-2.74,2.85
			C63.41,15.66,64.63,16.87,66.15,16.87 M66.15,10.37c1.98,0,3.74,1.42,3.74,3.63c0,2.22-1.76,3.65-3.74,3.65
			c-1.98,0-3.74-1.43-3.74-3.65C62.42,11.79,64.18,10.37,66.15,10.37" />
			<path class="st0" d="M30.22,0.19C13.76,0.19,0.42,13.54,0.42,30c0,16.46,13.34,29.81,29.81,29.81c16.46,0,29.81-13.35,29.81-29.81
			C60.03,13.54,46.69,0.19,30.22,0.19z M53.02,46.22c-0.85,0-4.57-0.08-7.15-0.18c-1.06,0.02-4.08,0.16-5.45,0.16
			c-0.45,0-0.82-0.09-0.82-0.5c0-0.23,0.28-0.32,0.72-0.32c0.37,0,0.68,0,1.37-0.14c1.27-0.27,1.51-1.56,1.37-3.38l0,0.01
			l-2.58-18.87H40.3l-9.91,20.62c-1.04,2.14-1.27,2.55-1.68,2.55c-0.4,0-0.86-0.92-1.59-2.28c-1.09-2.09-4.68-9.04-5.23-10.31
			c-0.41-0.95-3.13-6.68-4.73-10.08h-0.18l-2.36,18.08c-0.09,0.82-0.13,1.42-0.13,2.14c0,0.86,0.59,1.27,1.36,1.45
			c0.82,0.19,1.45,0.23,1.91,0.23c0.36,0,0.68,0.09,0.68,0.32c0,0.41-0.41,0.5-1.09,0.5c-1.91,0-3.95-0.14-4.77-0.14
			c-0.86,0-3.04,0.14-4.5,0.14c-0.45,0-0.82-0.09-0.82-0.5c0-0.23,0.27-0.32,0.73-0.32c0.36,0,0.68,0,1.36-0.14
			c1.27-0.27,1.63-2.04,1.86-3.58l4.5-29.62c0.14-0.77,0.41-1.18,0.77-1.18c0.37,0,0.63,0.22,1.22,1.41l12.4,25.61l12.36-25.94
			c0.36-0.73,0.6-1.09,1-1.09c0.41,0,0.69,0.46,0.82,1.41l4.13,28.07c0.41,2.86,0.86,4.18,2.23,4.59c1.32,0.41,2.23,0.45,2.82,0.45
			c0.41,0,0.72,0.05,0.73,0.32C54.2,46.09,53.66,46.22,53.02,46.22z" />
		</g>
	</g>
</svg>