<svg width="16" height="16" viewBox="0 0 16 16" fill="none" xmlns="http://www.w3.org/2000/svg">
<path d="M14.525 15.75L9.0125 10.2375C8.575 10.5875 8.0719 10.8646 7.5031 11.0687C6.9344 11.2729 6.3292 11.375 5.6875 11.375C4.0979 11.375 2.7528 10.8243 1.652 9.723C0.551301 8.6217 0.00060049 7.2765 4.89751e-07 5.6875C-0.00059951 4.0985 0.550101 2.7533 1.652 1.652C2.7539 0.5507 4.0991 0 5.6875 0C7.2759 0 8.6214 0.5507 9.7239 1.652C10.8264 2.7533 11.3768 4.0985 11.375 5.6875C11.375 6.3292 11.2729 6.9344 11.0688 7.5031C10.8646 8.0719 10.5875 8.575 10.2375 9.0125L15.75 14.525L14.525 15.75ZM5.6875 9.625C6.7813 9.625 7.7111 9.2423 8.477 8.477C9.2429 7.7117 9.6256 6.7818 9.625 5.6875C9.6244 4.5932 9.2418 3.6636 8.477 2.8989C7.7123 2.1341 6.7824 1.7512 5.6875 1.75C4.5926 1.7488 3.663 2.1318 2.8989 2.8989C2.1347 3.666 1.7518 4.5955 1.75 5.6875C1.7483 6.7795 2.1312 7.7093 2.8989 8.477C3.6665 9.2447 4.5961 9.6273 5.6875 9.625Z" fill="#e11229"/>
<line x1="5.5" y1="3" x2="5.5" y2="8" stroke="#e11229"/>
<line x1="3" y1="5.5" x2="8" y2="5.5" stroke="#e11229"/>
</svg>
