<svg id="Favicon" xmlns="http://www.w3.org/2000/svg" width="16" height="16" viewBox="0 0 16 16">
  <defs>
    <style>
      .cls-1 {
        fill-rule: evenodd;
      }
    </style>
  </defs>
  <path class="cls-1" d="M8,10.859A2.859,2.859,0,1,0,5.14,8,2.859,2.859,0,0,0,8,10.859H8Zm-3.3,0a2.86,2.86,0,1,1,0-5.719v5.719h0Zm6.6,3.155V11.3h2.714A2.712,2.712,0,0,1,11.3,14.013h0ZM4.7,1.984V4.7H1.98A2.718,2.718,0,0,1,4.7,1.984m0,12.031V11.3H1.981A2.714,2.714,0,0,0,4.7,14.015h0ZM14.6,10.456l0-4.913a2.858,2.858,0,0,1,0,4.913h0ZM5.543,1.4h4.914a2.86,2.86,0,0,0-4.914,0h0ZM10.42,14.6H5.506a2.859,2.859,0,0,0,4.914,0h0Zm0.437-3.3a2.859,2.859,0,1,1-5.718,0h5.718Zm0.444-.443a2.86,2.86,0,1,0,0-5.719v5.719h0ZM10.857,4.7a2.859,2.859,0,1,0-5.718,0h5.718ZM1.4,10.456V5.544a2.859,2.859,0,0,0,0,4.913h0ZM14.015,4.7H11.3V1.986A2.715,2.715,0,0,1,14.015,4.7"/>
</svg>
