<svg width="34" height="41" viewBox="0 0 34 41" fill="none" xmlns="http://www.w3.org/2000/svg">
<path d="M0 29.5906V7L7.59191 11.8144V25.3317L17.1281 31.4422V40.3303L0 29.5906Z" fill="#1C85FB"/>
<path d="M34 29.5V7L26.5 12V25.5L17 31.4422V40.3303L34 29.5Z" fill="#F79E1B"/>
<path d="M7.5 12L0 7L17.3133 0L34 7L26.5 12L17.3133 8.05483L7.5 12Z" fill="#44ADFF"/>
<rect x="9.37488" y="17.0591" width="4.26479" height="5.9707" fill="#1C85FB"/>
<rect x="11.0808" y="15.3533" width="0.852957" height="5.9707" fill="#1C85FB"/>
<rect x="17.0515" y="19.6179" width="0.852957" height="5.9707" fill="#44ADFF"/>
<rect x="23.0222" y="15.3533" width="0.852957" height="8.52957" fill="#1C85FB"/>
<rect x="21.3163" y="18.7651" width="4.26479" height="4.26479" fill="#1C85FB"/>
<rect x="15.3456" y="11.9414" width="4.26479" height="7.67661" fill="#44ADFF"/>
</svg>
