<svg width="49" height="51" viewBox="0 0 49 51" fill="none" xmlns="http://www.w3.org/2000/svg">
<path d="M11.5002 31.6431C11.5002 32.6096 10.7167 33.3931 9.75024 33.3931C8.78375 33.3931 8.00024 32.6096 8.00024 31.6431C8.00024 30.6766 8.78375 29.8931 9.75024 29.8931C10.7167 29.8931 11.5002 30.6766 11.5002 31.6431Z" fill="#07B59B"/>
<path d="M23.7502 22.8931C23.7502 23.8596 22.9667 24.6431 22.0002 24.6431C21.0337 24.6431 20.2502 23.8596 20.2502 22.8931C20.2502 21.9266 21.0337 21.1431 22.0002 21.1431C22.9667 21.1431 23.7502 21.9266 23.7502 22.8931Z" fill="#07B59B"/>
<path d="M43.2641 49.4201V23.5932C43.2641 23.393 43.1768 23.202 43.0232 23.0619C42.8686 22.9209 42.6324 22.844 42.4189 22.844V22.8932C42.4189 22.844 42.4189 22.844 42.4188 22.844H42.4184H42.4177H42.4167H42.4155H42.414H42.4122H42.4102H42.4079H42.4053H42.4025H42.3994H42.396H42.3924H42.3885H42.3844H42.38H42.3753H42.3704H42.3652H42.3598H42.3541H42.3482H42.342H42.3355H42.3288H42.3219H42.3147H42.3073H42.2996H42.2917H42.2836H42.2752H42.2665H42.2577H42.2485H42.2392H42.2296H42.2198H42.2097H42.1994H42.1889H42.1781H42.1671H42.1559H42.1445H42.1328H42.1209H42.1088H42.0965H42.0839H42.0711H42.0581H42.0449H42.0314H42.0178H42.0039H41.9898H41.9755H41.961H41.9463H41.9313H41.9162H41.9008H41.8853H41.8695H41.8535H41.8373H41.8209H41.8044H41.7876H41.7706H41.7534H41.736H41.7184H41.7006H41.6827H41.6645H41.6462H41.6276H41.6089H41.5899H41.5708H41.5515H41.532H41.5124H41.4925H41.4725H41.4522H41.4318H41.4112H41.3905H41.3695H41.3484H41.3271H41.3057H41.284H41.2622H41.2402H41.2181H41.1958H41.1733H41.1506H41.1278H41.1048H41.0817H41.0584H41.0349H41.0112H40.9875H40.9635H40.9394H40.9151H40.8907H40.8661H40.8414H40.8165H40.7915H40.7663H40.741H40.7155H40.6899H40.6641H40.6382H40.6122H40.586H40.5596H40.5331H40.5065H40.4798H40.4529H40.4258H40.3987H40.3714H40.344H40.3164H40.2887H40.2609H40.2329H40.2049H40.1767H40.1483H40.1199H40.0913H40.0626H40.0338H40.0048H39.9758H39.9466H39.9173H39.8879H39.8584H39.8288H39.799H39.7691H39.7392H39.7091H39.6789H39.6486H39.6182H39.5877H39.5571H39.5264H39.4956H39.4647H39.4337H39.4026H39.3713H39.34H39.3086H39.2771H39.2456H39.2139H39.1821H39.1503H39.1183H39.0863H39.0541H39.0219H38.9896H38.9573H38.9248H38.8923H38.8596H38.8269H38.7942H38.7613H38.7284H38.6954H38.6623H38.6291H38.5959H38.5626H38.5293H38.4958H38.4623H38.4287H38.3951H38.3614H38.3277H38.2938H38.26H38.226H38.192H38.1579H38.1238H38.0897H38.0554H38.0211H37.9868H37.9524H37.918H37.8835H37.849H37.8144H37.7798H37.7451H37.7104H37.6756H37.6408H37.606H37.5711H37.5362H37.5012H37.4662H37.4312H37.3961H37.361H37.3259H37.2907H37.2556H37.2203H37.1851H37.1498H37.1145H37.0792H37.0438H37.0085H36.9731H36.9377H36.9022H36.8668H36.8313H36.7958H36.7603H36.7248H36.6893H36.6537H36.6182H36.5826H36.5471H36.5115H36.4759H36.4403H36.4047H36.3691H36.3335H36.2979H36.2623H36.2267H36.1911H36.1555H36.12H36.0844H36.0488H36.0132H35.9777H35.9421H35.9066H35.871H35.8355H35.8H35.7645H35.729H35.6936H35.6581H35.6227H35.5873H35.552H35.5166H35.4813H35.4459H35.4107H35.3754H35.3402H35.305H35.2698H35.2347H35.1996H35.1645H35.1294H35.0944H35.0595H35.0245H34.9896H34.9548H34.92H34.8852H34.8505H34.8158H34.7811H34.7465H34.712H34.6775H34.643H34.6086H34.5743H34.54H34.5057H34.4715H34.4374H34.4033H34.3693H34.3353H34.3014H34.2676H34.2338H34.2001H34.1664H34.1328H34.0993H34.0658H34.0324H33.9991H33.9659H33.9327H33.8996H33.8666H33.8336H33.8007H33.7679H33.7352H33.7025H33.67H33.6375H33.6051H33.5727H33.5405H33.5083H33.4763H33.4443H33.4124H33.3806H33.3489H33.3173H33.2857H33.2543H33.223H33.1917H33.1606H33.1295H33.0986H33.0677H33.037H33.0063H32.9758H32.9454H32.915H32.8848H32.8547H32.8247H32.7948H32.765H32.7353H32.7058H32.6763H32.647H32.6178H32.5887H32.5597H32.5308H32.5021H32.4734H32.445H32.4166H32.3883H32.3602H32.3322H32.3043H32.2766H32.249H32.2215H32.1942H32.167H32.1399H32.1129H32.0861H32.0595H32.0329H32.0065H31.9803H31.9542H31.9282H31.9024H31.8767H31.8512H31.8258H31.8006H31.7755H31.7506H31.7258H31.7012H31.6767H31.6524H31.6282H31.6042H31.5803H31.5566H31.5331H31.5097H31.4865H31.4635H31.4406H31.4179H31.3953H31.373H31.3507H31.3287H31.3068H31.2851H31.2636H31.2422H31.2211H31.2001H31.1792H31.1586H31.1381H31.1178H31.0977H31.0778H31.0581H31.0385H31.0191H30.9999H30.9809H30.9621H30.9435H30.9251H30.9069H30.8888H30.871H30.8533H30.8359H30.8186H30.8015H30.7847H30.768H30.7516H30.7353H30.7193H30.7034H30.6878H30.6723H30.6571H30.6421H30.6273H30.6127H30.5983H30.5842H30.5702H30.5565H30.5429H30.5296H30.5166H30.5037H30.491H30.4786H30.4664H30.4544H30.4427H30.4312H30.4199H30.4088H30.398H30.3874H30.377H30.3668H30.3569H30.3472H30.3378H30.3286H30.3196H30.3109H30.3024H30.2942H30.2862H30.2784H30.2709H30.2636H30.2566H30.2498H30.2433H30.237H30.231H30.2252H30.2197H30.2145H30.2094H30.2047H30.2002H30.1959H30.192H30.1882H30.1848H30.1816H30.1787H30.176H30.1736H30.1715H30.1696H30.168H30.1667C29.9514 22.844 29.7442 22.922 29.5908 23.0619C29.4372 23.202 29.35 23.393 29.35 23.5932V28.8884C29.35 29.0296 29.2355 29.144 29.0943 29.144H17.886C17.6707 29.144 17.4635 29.222 17.3101 29.3619C17.1565 29.502 17.0693 29.693 17.0693 29.8932V36.5883C17.0693 36.7296 16.9548 36.844 16.8136 36.844H5.60526C5.39005 36.844 5.18284 36.922 5.02941 37.0619C4.87582 37.202 4.78857 37.393 4.78857 37.5932V49.3104C4.78857 49.3842 4.72875 49.444 4.65497 49.444H1.7C1.28626 49.444 0.950847 49.7794 0.950847 50.1932C0.950847 50.6069 1.28625 50.9423 1.7 50.9423H44.05C44.4637 50.9423 44.7991 50.6069 44.7991 50.1932C44.7991 49.7794 44.4637 49.444 44.05 49.444H43.288C43.2748 49.444 43.2641 49.4333 43.2641 49.4201ZM6.67765 38.3423H16.8136C16.9548 38.3423 17.0693 38.4568 17.0693 38.598V49.1884C17.0693 49.3296 16.9548 49.444 16.8136 49.444H6.67765C6.53643 49.444 6.42196 49.3296 6.42196 49.1884V38.598C6.42196 38.4568 6.53643 38.3423 6.67765 38.3423ZM18.7027 37.5932V30.898C18.7027 30.7568 18.8171 30.6423 18.9583 30.6423H29.0943C29.2355 30.6423 29.35 30.7568 29.35 30.898V49.1884C29.35 49.3296 29.2355 49.444 29.0943 49.444H18.9583C18.8171 49.444 18.7027 49.3296 18.7027 49.1884V37.5932ZM30.9834 49.1884V24.598C30.9834 24.4568 31.0978 24.3423 31.239 24.3423H41.375C41.5162 24.3423 41.6307 24.4568 41.6307 24.598V49.1884C41.6307 49.3296 41.5162 49.444 41.375 49.444H31.239C31.0978 49.444 30.9834 49.3296 30.9834 49.1884Z" fill="#2D4356" stroke="#2D4356" stroke-width="0.0983051"/>
<path d="M47.3788 49.3688H46.0724C45.8414 49.3688 45.6199 49.4491 45.4565 49.592C45.2932 49.7349 45.2014 49.9288 45.2014 50.1309C45.2014 50.333 45.2932 50.5268 45.4565 50.6698C45.6199 50.8127 45.8414 50.893 46.0724 50.893H47.3788C47.6098 50.893 47.8314 50.8127 47.9947 50.6698C48.158 50.5268 48.2498 50.333 48.2498 50.1309C48.2498 49.9288 48.158 49.7349 47.9947 49.592C47.8314 49.4491 47.6098 49.3688 47.3788 49.3688Z" fill="#2D4356"/>
<path d="M9.91907 34.1269C10.4577 34.1279 10.9794 33.9383 11.3916 33.5915C11.8039 33.2448 12.0801 32.7634 12.1714 32.2325C12.2626 31.7016 12.1631 31.1555 11.8903 30.691C11.6176 30.2265 11.1892 29.8735 10.6812 29.6946V23.4576H19.1725C19.3057 23.9776 19.5742 24.4531 19.9507 24.8359C20.3272 25.2186 20.7983 25.4949 21.316 25.6366C21.8338 25.7784 22.3799 25.7807 22.8989 25.6431C23.4178 25.5056 23.8911 25.2332 24.2707 24.8536C24.6504 24.474 24.9228 24.0007 25.0603 23.4817C25.1978 22.9628 25.1956 22.4167 25.0538 21.8989C24.912 21.3811 24.6357 20.91 24.253 20.5336C23.8703 20.1571 23.3948 19.8886 22.8747 19.7553V12.7882H27.4923C27.687 14.5304 28.5415 16.1318 29.8801 17.2637C31.2188 18.3956 32.94 18.9719 34.6903 18.8744C36.4406 18.7768 38.0871 18.0128 39.2917 16.7392C40.4963 15.4656 41.1675 13.7791 41.1675 12.0261C41.1675 10.2731 40.4963 8.58661 39.2917 7.31302C38.0871 6.03943 36.4406 5.27541 34.6903 5.17787C32.94 5.08033 31.2188 5.65667 29.8801 6.78853C28.5415 7.92039 27.687 9.52185 27.4923 11.264H22.1126C21.9105 11.264 21.7167 11.3443 21.5737 11.4872C21.4308 11.6302 21.3505 11.824 21.3505 12.0261V19.7553C20.8268 19.8922 20.3489 20.1662 19.9661 20.549C19.5834 20.9318 19.3094 21.4096 19.1725 21.9334H9.91907C9.71695 21.9334 9.52311 22.0137 9.38019 22.1566C9.23727 22.2995 9.15697 22.4933 9.15697 22.6955V29.6946C8.6489 29.8735 8.22055 30.2265 7.9478 30.691C7.67505 31.1555 7.5755 31.7016 7.66678 32.2325C7.75806 32.7634 8.03428 33.2448 8.44652 33.5915C8.85875 33.9383 9.3804 34.1279 9.91907 34.1269ZM34.3062 6.69144C35.3613 6.69144 36.3927 7.00431 37.27 7.59049C38.1472 8.17668 38.831 9.00984 39.2348 9.98462C39.6385 10.9594 39.7442 12.032 39.5383 13.0669C39.3325 14.1017 38.8244 15.0522 38.0784 15.7983C37.3323 16.5444 36.3817 17.0524 35.3469 17.2583C34.3121 17.4641 33.2395 17.3585 32.2647 16.9547C31.2899 16.5509 30.4567 15.8672 29.8705 14.9899C29.2844 14.1126 28.9715 13.0812 28.9715 12.0261C28.9731 10.6118 29.5357 9.25581 30.5358 8.25571C31.5359 7.25561 32.8918 6.69305 34.3062 6.69144ZM22.1126 21.1713C22.4141 21.1713 22.7088 21.2607 22.9594 21.4281C23.2101 21.5956 23.4054 21.8337 23.5208 22.1122C23.6362 22.3907 23.6663 22.6972 23.6075 22.9928C23.5487 23.2885 23.4036 23.5601 23.1904 23.7732C22.9772 23.9864 22.7056 24.1316 22.41 24.1904C22.1143 24.2492 21.8078 24.219 21.5293 24.1036C21.2508 23.9883 21.0128 23.7929 20.8453 23.5423C20.6778 23.2916 20.5884 22.9969 20.5884 22.6955C20.5884 22.2912 20.749 21.9035 21.0349 21.6177C21.3207 21.3319 21.7084 21.1713 22.1126 21.1713ZM9.91907 31.0785C10.0698 31.0785 10.2171 31.1232 10.3425 31.207C10.4678 31.2907 10.5655 31.4097 10.6232 31.549C10.6808 31.6882 10.6959 31.8415 10.6665 31.9893C10.6371 32.1371 10.5645 32.2729 10.458 32.3795C10.3514 32.4861 10.2156 32.5587 10.0677 32.5881C9.91992 32.6175 9.76668 32.6024 9.62743 32.5447C9.48817 32.487 9.36915 32.3894 9.28541 32.264C9.20167 32.1387 9.15697 31.9914 9.15697 31.8406C9.15697 31.6385 9.23727 31.4447 9.38019 31.3017C9.52311 31.1588 9.71695 31.0785 9.91907 31.0785Z" fill="#2D4356"/>
<circle cx="36.311" cy="10.6431" r="9.625" fill="#07B59B" stroke="#2D4356" stroke-width="1.75"/>
<path d="M40.6091 7.93651H39.1226C38.9875 7.46355 38.7172 6.99059 38.447 6.5852H40.6091C41.0145 6.5852 41.2847 6.31493 41.2847 5.90954C41.2847 5.50415 41.0145 5.23389 40.6091 5.23389H33.1769C32.7715 5.23389 32.5012 5.50415 32.5012 5.90954C32.5012 6.31493 32.7715 6.5852 33.1769 6.5852H35.5417C36.42 6.5852 37.2984 7.12572 37.6362 7.93651H33.1769C32.7715 7.93651 32.5012 8.20677 32.5012 8.61216C32.5012 9.01755 32.7715 9.28782 33.1769 9.28782H37.8389C37.7038 10.4364 36.6903 11.3148 35.5417 11.3148H33.1769H33.1093C33.0417 11.3148 33.0417 11.3148 32.9742 11.3148C32.9066 11.3148 32.9066 11.3823 32.839 11.3823C32.839 11.3823 32.7715 11.3823 32.7715 11.4499C32.7039 11.5175 32.6364 11.585 32.6364 11.6526C32.6364 11.7202 32.6364 11.7202 32.6364 11.7877V11.9229V11.9904C32.6364 12.058 32.7039 12.1931 32.7039 12.2607C32.7039 12.2607 32.7039 12.3283 32.7715 12.3283L36.8254 17.0578C37.0957 17.3281 37.5011 17.3957 37.7713 17.1254C38.0416 16.8551 38.1092 16.4498 37.8389 16.1795L34.6633 12.6661H35.5417C37.4335 12.6661 39.0551 11.1796 39.2578 9.28782H40.6091C41.0145 9.28782 41.2847 9.01755 41.2847 8.61216C41.2847 8.20677 41.0145 7.93651 40.6091 7.93651Z" fill="white"/>
</svg>
