<svg xmlns="http://www.w3.org/2000/svg" width="360" height="204" fill-rule="evenodd" xmlns:v="https://vecta.io/nano"><path fill="#fff" d="M0 0h360v204H0z"/><path fill="#f6f6f6" d="M0 0h360v204H0z"/><path fill="#fff" d="M195.558 64.452c10.945 0 19.99 3.551 27.135 10.654s10.714 16.126 10.708 27.071c0 10.902-3.569 19.931-10.708 27.087s-16.184 10.735-27.135 10.735a40.6 40.6 0 0 1-12.687-1.921c-3.925-1.271-7.597-3.221-10.846-5.763a35.6 35.6 0 0 1-10.684-13.124c-2.518-5.316-3.797-11.133-3.739-17.014 0-10.945 3.572-19.968 10.717-27.071s16.224-10.654 27.24-10.654zM92.996 64a8.15 8.15 0 0 1 1.292.92 5.75 5.75 0 0 0 3.569.952h44.417c1.833-.088 3.596-.729 5.055-1.84.185-.008.366.059.501.186.147.173.247.382.291.605l5.475 24.827v.315a1.12 1.12 0 0 1-.291.807.88.88 0 0 1-.662.315c-.63 0-1.341-1.076-2.132-3.228a31.05 31.05 0 0 0-2.6-5.529 32.06 32.06 0 0 0-8.843-9.338 30.02 30.02 0 0 0-11.581-4.762v57.515c-.1 2.062.113 4.127.63 6.126.39 1.139 1.175 2.101 2.213 2.712a10.86 10.86 0 0 0 4.337 1.154c1.987.21 2.98.718 2.98 1.525.041.367-.12.728-.42.944a2.81 2.81 0 0 1-1.421.266h-31.996c-.523.044-1.049-.048-1.526-.266a1.01 1.01 0 0 1-.428-.944c0-.807.913-1.308 2.738-1.501 1.38-.093 2.74-.384 4.038-.864a4.94 4.94 0 0 0 2.608-2.688c.506-1.227.759-3.379.759-6.457V68.237c-4.137.743-8.07 2.352-11.54 4.722a32.51 32.51 0 0 0-8.883 9.363c-1.063 1.756-1.943 3.617-2.625 5.553-.775 2.12-1.478 3.18-2.108 3.18a.76.76 0 0 1-.581-.315 1.18 1.18 0 0 1-.258-.807v-.315l6.154-24.884c.046-.197.157-.374.315-.5a.81.81 0 0 1 .525-.234zm180.518 2.187a1.18 1.18 0 0 1 .476 1.057c0 .662-.678 1.122-2.027 1.364-1.048.147-2.069.449-3.028.896a5.54 5.54 0 0 0-2.584 2.736c-.485 1.154-.735 3.333-.735 6.522v46.878c0 3.228.25 5.375.735 6.546a5.49 5.49 0 0 0 2.633 2.76 12.12 12.12 0 0 0 2.923.807c1.389.266 2.084.734 2.084 1.396.052.394-.096.788-.396 1.049-.559.231-1.166.323-1.769.266h-27.999a3.7 3.7 0 0 1-1.841-.291c-.309-.246-.47-.633-.428-1.025 0-.662.678-1.13 2.027-1.396a12.33 12.33 0 0 0 2.98-.864 5.54 5.54 0 0 0 2.633-2.76c.525-1.211.808-3.382.808-6.497V76.075a8.19 8.19 0 0 0-1.05-4.318 6.32 6.32 0 0 0-3.053-2.575c-.668-.22-1.355-.38-2.051-.476-1.51-.282-2.269-.807-2.269-1.469a1.16 1.16 0 0 1 .501-1.057c.546-.247 1.146-.353 1.744-.307h27.999a3.23 3.23 0 0 1 1.688.315zm-77.955.525c-6.805 0-12.017 3.035-15.635 9.104s-5.427 14.856-5.427 26.361 1.809 20.288 5.427 26.353 8.83 9.099 15.635 9.104c6.767 0 11.941-3.035 15.522-9.104s5.37-14.854 5.37-26.353c0-11.51-1.798-20.296-5.395-26.361s-8.762-9.099-15.497-9.104z"/></svg>