<svg xmlns="http://www.w3.org/2000/svg" xmlns:xlink="http://www.w3.org/1999/xlink" width="500" height="2500" xmlns:v="https://vecta.io/nano"><style><![CDATA[.B{fill:#fff}.C{fill:#000}.D{stroke:#000}.E{fill-rule:nonzero}.F{fill:#e21b22}]]></style><defs><path d="M47.194 27.828c.411 0 .75.304.8.698l.006.1v13.577a.8.8 0 0 1-.705.792l-.101.006H23.249c-.411 0-.75-.304-.8-.698l-.006-.1v-.661a.54.54 0 0 1 .541-.541.54.54 0 0 1 .534.454l.007.088v.387h23.391V28.899h-2.382c-.296 0-.536-.24-.536-.536 0-.266.194-.487.449-.529l.087-.007h2.658zm-7.467-8.8c.207-.055.427-.026.612.08a.8.8 0 0 1 .341.385l.034.1 3.812 14.08c.106.39-.1.79-.466.942l-.104.035-23.129 6.133c-.069.018-.139.027-.209.027-.14 0-.279-.036-.403-.107a.8.8 0 0 1-.341-.385l-.034-.1-3.812-14.08c-.106-.39.1-.79.466-.942l.104-.035 23.129-6.133z" id="A"/><filter x="-3.1%" y="-4.2%" width="106.2%" height="108.3%" id="B"><feGaussianBlur stdDeviation=".5" in="SourceAlpha"/><feOffset dy="1"/><feComposite in2="SourceAlpha" operator="arithmetic" k2="-1" k3="1"/><feColorMatrix values="0 0 0 0 0.101960784   0 0 0 0 0.101960784   0 0 0 0 0.101960784  0 0 0 0.12 0"/></filter><linearGradient x1="-0.494455852%" y1="50.0647273%" x2="100.203285%" y2="50.0647273%" id="C"><stop stop-color="#fbb400" offset="0%"/><stop stop-color="#fcd100" offset="100%"/></linearGradient><linearGradient x1="-0.259958932%" y1="50.0647273%" x2="100.437988%" y2="50.0647273%" id="D"><stop stop-color="#fbb400" offset="0%"/><stop stop-color="#fcd100" offset="100%"/></linearGradient><path id="E" d="M2.546 1240.584h-.013c-.838 0-1.526.703-1.533 1.566-.007.87.675 1.585 1.52 1.592h.013c.838 0 1.526-.703 1.533-1.566.007-.87-.675-1.585-1.52-1.592h0zm-.012 2.575h-.008c-.533-.005-.963-.455-.96-1.004s.438-.988.966-.988h.008c.533.005.963.455.96 1.004s-.438.988-.966.988z"/><path id="F" d="M42.285 1094.353H38.47c-.325.001-.613-.208-.713-.517l-1.18-3.63a.3.3 0 0 0-.57 0l-1.18 3.63a.76.76 0 0 1-.713.517h-3.812a.3.3 0 0 0-.176.542l3.086 2.242a.75.75 0 0 1 .272.838l-1.18 3.628a.3.3 0 0 0 .462.335l3.086-2.242c.262-.192.618-.192.88 0l3.086 2.242a.3.3 0 0 0 .462-.335l-1.18-3.628a.75.75 0 0 1 .272-.838l3.086-2.242a.3.3 0 0 0-.176-.542h.003 0z"/><path id="G" d="M12.784 1153.327l-10.514-7.2c-.327-.24-1.2-.24-1.27.67v14.382a.81.81 0 0 0 1.27.67l10.514-7.2c.272-.163.646-.833 0-1.34v-.002.02z"/><path id="H" d="M59.001 1146.805c.07-.9.942-.9 1.27-.67l10.514 7.2c.646.506.272 1.175 0 1.34l-10.514 7.2c-.304.257-1.2.24-1.27-.67v-14.38-.02zm1 1.53v11.326c.06.717.76.73 1 .527l8.28-5.663a.64.64 0 0 0 0-1.054l-8.28-5.663c-.257-.2-.944-.2-1 .527z"/></defs><g transform="translate(16 13)" fill="none" fill-rule="evenodd"><g class="E"><path d="M17.024 70.24l-.76.76-5.285-5.285c-2.56 1.864-6.135 1.385-8.114-1.088s-1.663-6.065.717-8.155a5.93 5.93 0 0 1 8.18.345c2.197 2.282 2.208 5.9.027 8.186l5.235 5.235v.002h0zM7.498 56.028a4.91 4.91 0 0 0-4.909 4.909 4.91 4.91 0 0 0 4.909 4.909 4.91 4.91 0 0 0 4.909-4.909 4.91 4.91 0 0 0-4.909-4.909h0 0z" class="C"/><path d="M50.024 70.24l-.76.76-5.285-5.285c-2.56 1.864-6.135 1.385-8.114-1.088s-1.663-6.065.717-8.155a5.93 5.93 0 0 1 8.18.345c2.197 2.282 2.208 5.9.027 8.186l5.235 5.235v.002h0zm-9.526-14.212a4.91 4.91 0 0 0-4.909 4.909 4.91 4.91 0 0 0 4.909 4.909 4.91 4.91 0 0 0 4.909-4.909 4.91 4.91 0 0 0-4.909-4.909h0 0zm-24.497 46.736a7.9 7.9 0 0 1-3.891 6.739c-2.388 1.403-5.334 1.445-7.76.11L.001 111l1.418-4.197a7.76 7.76 0 0 1-1.126-4.038C.357 98.458 3.855 95 8.147 95a7.87 7.87 0 0 1 7.854 7.764h0zm-7.854-6.577a6.6 6.6 0 0 0-6.605 6.577 6.52 6.52 0 0 0 1.258 3.855l-.825 2.443 2.537-.81a6.55 6.55 0 0 0 7.664-.239 6.61 6.61 0 0 0 2.219-7.366 6.57 6.57 0 0 0-6.25-4.46h.002zm3.966 8.378a.98.98 0 0 0-.369-.224c-.193-.096-1.14-.56-1.316-.623a.3.3 0 0 0-.434.095c-.128.192-.497.624-.6.752s-.287.15-.415.048a5.26 5.26 0 0 1-1.548-.952 5.76 5.76 0 0 1-1.07-1.328c-.042-.063-.056-.14-.04-.213s.06-.138.125-.177c.087-.086.193-.224.29-.336a1.29 1.29 0 0 0 .193-.32.35.35 0 0 0-.016-.336c-.048-.095-.433-1.04-.593-1.423s-.32-.32-.433-.32-.24-.015-.37-.015a.71.71 0 0 0-.513.238c-.44.414-.684.994-.674 1.6a3.72 3.72 0 0 0 .786 1.983c.096.127 1.332 2.126 3.29 2.894s1.956.51 2.31.48a1.95 1.95 0 0 0 1.3-.911 1.6 1.6 0 0 0 .108-.91h0l-.011-.002z" class="B"/><rect x="1.001" width="30" height="30" rx="2" class="F"/><path d="M6.095 10.566h5.77c.205 0 .366-.04.482-.12l.174-.12c.027 0 .05.008.065.024s.028.042.038.08l.7 3.227v.04a.15.15 0 0 1-.038.103.11.11 0 0 1-.085.04c-.082 0-.174-.14-.277-.417s-.215-.517-.338-.718a4.16 4.16 0 0 0-1.148-1.213 3.89 3.89 0 0 0-1.504-.619v7.472c0 .378.027.644.082.796a.66.66 0 0 0 .287.352c.118.073.306.123.564.15s.386.093.386.198c0 .06-.018.1-.055.123s-.098.034-.185.034H6.857c-.096 0-.162-.01-.198-.034s-.055-.064-.055-.123c0-.105.118-.17.355-.195s.412-.063.526-.113a.64.64 0 0 0 .338-.349c.066-.16.1-.44.1-.84v-7.472a3.86 3.86 0 0 0-1.504.615 4.06 4.06 0 0 0-1.148 1.217 3.83 3.83 0 0 0-.342.72c-.1.275-.2.414-.273.414-.027 0-.052-.014-.075-.04s-.034-.062-.034-.103v-.04l.8-3.233c.005-.023.018-.044.04-.065s.046-.03.068-.03a1.07 1.07 0 0 1 .167.12c.103.08.256.12.46.12l.003-.001h.01zm12.188.1c-.884 0-1.56.394-2.03 1.183s-.704 1.93-.704 3.425.235 2.636.704 3.425 1.146 1.183 2.03 1.183 1.552-.394 2.017-1.183.697-1.93.697-3.425-.234-2.636-.7-3.425-1.138-1.183-2.013-1.183h-.001 0zm0-.294c1.422 0 2.597.46 3.524 1.384s1.4 2.095 1.4 3.517-.464 2.6-1.4 3.52-2.102 1.395-3.524 1.395c-.588 0-1.137-.083-1.647-.25a4.61 4.61 0 0 1-1.408-.749 4.64 4.64 0 0 1-1.388-1.706 5.06 5.06 0 0 1-.485-2.211c0-1.422.464-2.594 1.4-3.517s2.107-1.384 3.538-1.384v.001h-.01zm5.77.185h3.637c.105 0 .178.014.22.04s.062.073.062.137c0 .087-.088.146-.263.178s-.306.07-.393.116c-.16.087-.27.205-.335.355s-.096.433-.096.848v6.1c0 .415.032.698.096.85s.178.272.342.36c.073.036.2.072.38.106s.27.095.27.18c0 .068-.017.114-.05.137s-.1.034-.23.034h-3.642c-.123 0-.203-.013-.24-.038s-.055-.07-.055-.133c0-.087.088-.147.263-.18a1.61 1.61 0 0 0 .386-.113c.16-.082.273-.202.342-.36s.103-.44.103-.844V11.9c0-.223-.046-.4-.137-.56a.82.82 0 0 0-.396-.335 1.62 1.62 0 0 0-.267-.062c-.196-.036-.294-.1-.294-.2 0-.064.022-.1.065-.137s.12-.04.23-.04l.002.001v-.01z" class="B"/><path d="M21.081 141.53l-7.467-6.4c-.157-.135-.38-.166-.57-.08a.52.52 0 0 0-.3.484v3.74c-5.96.166-8.835 3.116-10.202 5.602a12.92 12.92 0 0 0-1.515 5.18c-.01.137-.017.274-.017.41v.036l.001.005v.01h.001v.01l.001.004c.034.266.258.47.53.47.294 0 .533-.238.533-.532a4.25 4.25 0 0 1 .005-.195c.233-4.435 8.427-5.44 10.662-5.634v3.694a.54.54 0 0 0 .3.484c.18.087.4.056.57-.08l7.467-6.4a.53.53 0 0 0 0-.809l.001-.001v.002zm-7.28 5.646v-3.107a.53.53 0 0 0-.533-.533h-.025c-.376.017-7.1.364-10.427 3.216 1.097-2.894 3.8-6.417 10.45-6.417h.003a.53.53 0 0 0 .533-.533v-3.107l6.114 5.24-6.115 5.24v.001z" class="C"/><path d="M.497 177.07v9.25a.5.5 0 0 0 .793.405l6.876-4.976-6.872-5.08a.5.5 0 0 0-.797.402v-.001zm14.85 4.71l6.87 4.95a.5.5 0 0 0 .792-.406v-9.222a.5.5 0 0 0-.797-.402l-6.865 5.08h0zm-6.443.5l1.757 1.3c.68.46 1.57.46 2.25 0h0l1.703-1.26 7.14 5.14a.5.5 0 0 1-.292.906h0H2.048a.5.5 0 0 1-.293-.905h0l7.148-5.17.001-.011zM21.461 175a.5.5 0 0 1 .292.906l-7.14 5.14-1.703 1.305c-.9.65-.9 1.15-2.25 0l-1.757-1.275-7.148-5.17a.5.5 0 0 1 .293-.905h19.413V175z" class="B"/></g><g transform="matrix(0 1 -1 0 17.501 213.5)" stroke="#fff"><circle cx="1.5" cy="1.5" r="1.5"/><circle cx="1.5" cy="8.5" r="1.5"/><circle cx="1.5" cy="15.5" r="1.5"/></g><g transform="matrix(0 1 -1 0 59.501 213.5)" class="D"><circle cx="1.5" cy="1.5" r="1.5"/><circle cx="1.5" cy="8.5" r="1.5"/><circle cx="1.5" cy="15.5" r="1.5"/></g><g class="E"><g class="C"><path d="M4.711 271.138l3.3-3.527h19.503a1 1 0 0 0 1-1v-3.745a1 1 0 0 0-1-1H9.938a1 1 0 0 1-1-1V249.46a1 1 0 0 0-1-1H1.001a1 1 0 0 0-1 1v17.15a1 1 0 0 0 1 1h1.98v2.844a1 1 0 0 0 1.73.683v.001z" opacity=".4"/><path d="M31.251 260.802l3.394 3.752a1 1 0 0 0 1.742-.671v-3.082h2.192a1 1 0 0 0 1-1v-17.788a1 1 0 0 0-1-1H11.001a1 1 0 0 0-1 1v17.788a1 1 0 0 0 1 1h20.25v.001zm-12.525-8.758a1.2 1.2 0 1 1 0-2.4 1.2 1.2 0 0 1 1.039 1.8 1.2 1.2 0 0 1-1.039.6zm5.507 0a1.2 1.2 0 1 1 0-2.4 1.2 1.2 0 0 1 1.039 1.8 1.2 1.2 0 0 1-1.039.6h0zm5.507 0a1.2 1.2 0 1 1 0-2.4l.065.003a1.2 1.2 0 0 1 1.135 1.197 1.2 1.2 0 0 1-1.135 1.197l-.065.003z" opacity=".2"/><path d="M13.155 299.6h-2.967a.371.371 0 1 0 0 .742h2.072l-2.708 2.7.524.524 2.708-2.7v2.07a.371.371 0 1 0 .742 0v-2.966a.37.37 0 0 0-.371-.371v.001zm-6.627 6.6l-3.195 3.195v-2.215c0-.202-.164-.366-.366-.366s-.366.164-.366.366v2.925c0 .202.164.366.366.366h2.925c.202 0 .366-.164.366-.366s-.164-.366-.366-.366h-1.87l3.022-3.022-.517-.517h.001zm8.473-9.2a1 1 0 0 1 1 1v14a1 1 0 0 1-1 1h-14a1 1 0 0 1-1-1v-14a1 1 0 0 1 1-1h14zm-.8.8h-12.4a1 1 0 0 0-1 1h0v12.4a1 1 0 0 0 1 1h12.4a1 1 0 0 0 1-1h0v-12.4a1 1 0 0 0-1-1h0 0z"/></g><circle fill="#ffdc32" cx="15.001" cy="352" r="14.991"/><path d="M7.125 359.876c-5.393-5.393-5.818-13.872-1.275-19.752a15.13 15.13 0 0 0-1.449 1.276c-5.854 5.854-5.854 15.346 0 21.2s15.346 5.854 21.2 0a15.14 15.14 0 0 0 1.275-1.449c-5.88 4.543-14.36 4.118-19.75-1.275h-.001z" opacity=".1" class="C"/><path d="M7.444 352.782h15.113a7.55 7.55 0 0 1-.398 2.426H7.841a7.55 7.55 0 0 1-.398-2.426h.001z" class="B"/><path d="M7.841 355.207h14.32a7.57 7.57 0 0 1-2.734 3.7c-.53-.89-1.5-1.488-2.613-1.488a3.02 3.02 0 0 0-1.812.6c-.506-.377-1.134-.6-1.813-.6-1.11 0-2.084.597-2.612 1.488a7.57 7.57 0 0 1-2.734-3.7h-.002z" fill="#c83250"/><path d="M19.487 359.014l-.06-.107c-.53-.89-1.5-1.488-2.613-1.488a3.02 3.02 0 0 0-1.812.6c-.506-.377-1.134-.6-1.813-.6-1.11 0-2.084.597-2.612 1.488l-.06.107v.376c0 2.477 2.008 4.486 4.486 4.486h0c2.477 0 4.486-2.008 4.486-4.486v-.376h-.002z" fill="#ff646e"/><g class="C"><path d="M19.426 358.907c-.53-.89-1.5-1.488-2.613-1.488a3.02 3.02 0 0 0-1.812.6c-.506-.377-1.134-.6-1.813-.6-1.11 0-2.084.597-2.612 1.488l-.06.107v.376c0 .418.058.822.165 1.206a3.03 3.03 0 0 1 2.508-1.324c.68 0 1.307.223 1.813.6a3.02 3.02 0 0 1 1.812-.6c1.042 0 1.962.525 2.508 1.324a4.49 4.49 0 0 0 .165-1.206v-.376l-.06-.107h-.001z" opacity=".1"/><path d="M22.558 352.226H7.445c-.307 0-.556.25-.556.556 0 .9.144 1.766.427 2.604.504 1.487 1.414 2.776 2.643 3.75v.254a5.05 5.05 0 0 0 5.042 5.041 5.05 5.05 0 0 0 5.042-5.042v-.253c1.23-.974 2.14-2.264 2.644-3.75.283-.837.427-1.713.427-2.604 0-.307-.25-.556-.556-.556h0zm-.577 1.1c-.035.446-.113.885-.23 1.315H8.253a6.98 6.98 0 0 1-.231-1.315h13.96-.001zm-3.05 6.052c0 2.167-1.763 3.93-3.93 3.93s-3.93-1.763-3.93-3.93v-.227a2.49 2.49 0 0 1 2.117-1.188 2.46 2.46 0 0 1 1.257.343v2.02c0 .307.25.556.556.556a.56.56 0 0 0 .556-.556v-2.02a2.46 2.46 0 0 1 1.256-.343c.86 0 1.67.454 2.118 1.188v.227h0zm.605-1.274a3.61 3.61 0 0 0-2.723-1.252 3.56 3.56 0 0 0-1.812.49 3.56 3.56 0 0 0-1.813-.49 3.61 3.61 0 0 0-2.722 1.252 6.95 6.95 0 0 1-1.8-2.352h12.673c-.424.904-1.035 1.702-1.802 2.352h-.001zm1.953-11.347a2.06 2.06 0 0 0-2.056 2.056 2.06 2.06 0 0 0 2.056 2.056 2.06 2.06 0 0 0 2.056-2.056 2.06 2.06 0 0 0-2.056-2.056zM7.501 349.8a2.23 2.23 0 0 1 1.931-1.096 2.23 2.23 0 0 1 1.931 1.096c.104.174.288.27.478.27.097 0 .195-.025.284-.08.263-.157.35-.5.192-.762a3.33 3.33 0 0 0-2.885-1.637 3.33 3.33 0 0 0-2.885 1.637c-.157.263-.07.605.192.762a.56.56 0 0 0 .762-.192v.002z"/></g><g class="B"><circle cx="21.854" cy="348.612" r="1"/><path d="M58.081 141.53l-7.467-6.4c-.157-.135-.38-.166-.57-.08a.52.52 0 0 0-.3.484v3.74c-5.96.166-8.835 3.116-10.202 5.602a12.92 12.92 0 0 0-1.515 5.18c-.01.137-.017.274-.017.41v.036l.001.005v.01h.001v.013c.034.266.258.47.53.47.294 0 .533-.238.533-.532a4.25 4.25 0 0 1 .005-.195c.233-4.435 8.427-5.44 10.662-5.634v3.694a.54.54 0 0 0 .3.484c.18.087.4.056.57-.08l7.467-6.4a.53.53 0 0 0 0-.809l.002-.001v.003zm-7.28 5.646v-3.107a.53.53 0 0 0-.533-.533h-.025c-.376.017-7.1.364-10.427 3.216 1.097-2.894 3.8-6.417 10.45-6.417h.003a.53.53 0 0 0 .533-.533v-3.107l6.114 5.24-6.115 5.24v.001z"/><path d="M1.575 698.105c-.317 0-.574.257-.574.574V710a1 1 0 0 0 1 1h15.29c.296 0 .535-.24.535-.535s-.24-.535-.535-.535H2.151v-11.25c0-.317-.257-.574-.574-.574l-.002-.001zm3.6-3.105a1 1 0 0 0-1 1v10.847a1 1 0 0 0 1 1h14.826a1 1 0 0 0 1-1V696a1 1 0 0 0-1-1H5.177h-.002zm.052 1.07h14.72v10.706H5.227V696.07h0z"/></g><path d="M37.575 698.105c-.317 0-.574.257-.574.574V710a1 1 0 0 0 1 1h15.29c.296 0 .535-.24.535-.535s-.24-.535-.535-.535h-15.14v-11.25c0-.317-.257-.574-.574-.574l-.002-.001zm3.6-3.105a1 1 0 0 0-1 1v10.847a1 1 0 0 0 1 1h14.826a1 1 0 0 0 1-1V696a1 1 0 0 0-1-1H41.177h-.002zm.052 1.07h14.72v10.706h-14.72V696.07z" class="F"/><path d="M102.575 698.105c-.317 0-.574.257-.574.574V710a1 1 0 0 0 1 1h15.29c.296 0 .535-.24.535-.535s-.24-.535-.535-.535h-15.14v-11.25c0-.317-.257-.574-.574-.574l-.002-.001zm3.602-3.105a1 1 0 0 0-1 1v10.847a1 1 0 0 0 1 1h14.824a1 1 0 0 0 1-1V696a1 1 0 0 0-1-1h-14.824zm.052 1.07h14.72v10.706h-14.72V696.07z" class="C"/><path d="M73.406 699.956c-.223 0-.404.18-.404.404l.002 6.84.004.066a.84.84 0 0 0 .836.736h8.83a.42.42 0 1 0 0-.842l-8.864-.001-.001-6.798c0-.223-.18-.404-.404-.404l.001-.001zm2.5-1.956a1 1 0 0 0-1 1v6.096a1 1 0 0 0 1 1h8.095a1 1 0 0 0 1-1V699a1 1 0 0 0-1-1h-8.095zm.225.776h7.64a.5.5 0 0 1 .492.41l.008.1v5.544a.5.5 0 0 1-.41.492l-.1.008h-7.64a.5.5 0 0 1-.492-.41l-.008-.1v-5.544a.5.5 0 0 1 .5-.5h.01z" class="F"/><g class="C"><path d="M1.085 821.797l5.4-5.4c.225-.225.588-.225.813-.001a.57.57 0 0 1 .002.81L2.503 822l4.787 4.783a.57.57 0 0 1 0 .81c-.224.223-.6.225-.814 0l-5.4-5.4c-.054-.054-.084-.127-.084-.203s.03-.15.084-.203h-.001l.01.01z"/><path d="M2.001 821.5h16.5a.5.5 0 1 1 0 1h-16.5v-1z"/></g><g class="B"><path d="M35.085 821.797l5.4-5.4c.225-.225.588-.225.813-.001a.57.57 0 0 1 .002.81L36.503 822l4.787 4.783a.57.57 0 0 1 0 .81c-.224.223-.6.225-.814 0l-5.4-5.4c-.054-.054-.084-.127-.084-.203s.03-.15.084-.203h-.001l.01.01z"/><path d="M36.001 821.5h16.5a.5.5 0 1 1 0 1h-16.5v-1z"/></g><path d="M1.905 1126.126l5.096 5.094 5.096-5.095a.5.5 0 0 1 .638-.058l.07.058.07.07a.5.5 0 0 1 0 .707h0L7.781 1132l5.095 5.096a.5.5 0 0 1 0 .707l-.07.07a.5.5 0 0 1-.707 0l-5.098-5.093-5.096 5.095a.5.5 0 0 1-.638.058l-.07-.058-.07-.07a.5.5 0 0 1 0-.707h0L6.221 1132l-5.095-5.096a.5.5 0 0 1 0-.707l.07-.07a.5.5 0 0 1 .707 0l.002-.001z" class="C"/><path d="M37.905 1126.126l5.096 5.094 5.096-5.095a.5.5 0 0 1 .638-.058l.07.058.07.07a.5.5 0 0 1 0 .707h0L43.781 1132l5.095 5.096a.5.5 0 0 1 0 .707l-.07.07a.5.5 0 0 1-.707 0l-5.098-5.093-5.096 5.095a.5.5 0 0 1-.638.058l-.07-.058-.07-.07a.5.5 0 0 1 0-.707h0l5.094-5.098-5.095-5.096a.5.5 0 0 1 0-.707l.07-.07a.5.5 0 0 1 .707 0l.002-.001z" class="B"/><g class="C"><path d="M5.237 1205.386l-.66.6a6.11 6.11 0 0 0 .684.662l.56-.687a5.11 5.11 0 0 1-.582-.564l-.002-.01v-.001zm-.87-1.372l-.8.35a5.92 5.92 0 0 0 .445.846l.744-.475a5.04 5.04 0 0 1-.378-.72l-.01-.001h-.001zm7.645-7.2a5.91 5.91 0 0 0-2.984-.807 5.97 5.97 0 0 0-5.895 5.196l-1.5-1.52-.623.627 2.516 2.53 2.516-2.53-.623-.627-1.364 1.37c.518-2.765 3.167-4.583 5.916-4.062s4.558 3.185 4.04 5.95-3.167 4.583-5.916 4.062c-.564-.107-1.105-.3-1.6-.598l-.443.767c2.844 1.658 6.487.684 8.136-2.176s.68-6.523-2.164-8.18l-.012-.002h0zm-3.645 1.188v4.878l1.94 1.463.53-.7-1.587-1.197v-4.434l-.883-.01h0z"/><g stroke-width=".3" class="D"><path d="M18.171 1232.472a1.5 1.5 0 0 0-1.08-.472h-.013c-.838 0-1.526.703-1.533 1.566-.003.422.153.82.44 1.12a1.5 1.5 0 0 0 1.08.472h.013c.838 0 1.526-.703 1.533-1.566.003-.422-.153-.82-.44-1.12h0 0zm-1.093 2.103h-.008c-.258-.002-.5-.108-.68-.297s-.28-.44-.277-.707c.004-.545.438-.988.966-.988h.008c.258.002.5.108.68.297s.28.44.277.707c-.004.545-.438.988-.966.988z"/><use xlink:href="#E"/><use xlink:href="#E" x="3.651" y="-5.944"/><use xlink:href="#E" x="7.817" y="-1.652"/><path d="M11.031 1239.395l4.955-5.118.5.514-4.955 5.118-.5-.514zm-4.163-2.058l.5-.514 2.4 2.473-.5.514-2.4-2.473zm-4.23 3.75l2.822-4.1.575.422-2.822 4.1-.575-.422z"/></g><path d="M9.001 1275.1l-.9.9-5.85-5.85v4.776h-1.25V1268h6.925v1.26H3.151zm0-369.1a8 8 0 1 1 0 16 8 8 0 1 1 0-16zm0 1a7 7 0 1 0 0 14 7 7 0 1 0 0-14h0z"/><path d="M8.883 915.954l-3.65-3.32c-.117-.106-.125-.287-.02-.404l.02-.02c.13-.12.332-.12.464 0l3.304 3.01 3.305-3.008c.13-.12.332-.12.464 0 .117.107.125.287.018.404l-.02.02-3.65 3.32c-.032.03-.074.046-.118.046s-.086-.016-.118-.046l.001-.002z" stroke-width=".5" class="D"/><path d="M45.001 922a8 8 0 1 0 0-16 8 8 0 1 0 0 16zm0-1a7 7 0 1 1 0-14 7 7 0 1 1 0 14h0z"/><path d="M44.883 912.046l-3.65 3.32c-.117.106-.125.287-.02.404l.02.02c.13.12.332.12.464 0l3.304-3.01 3.305 3.008c.13.12.332.12.464 0 .117-.107.125-.287.018-.404l-.02-.02-3.65-3.32c-.032-.03-.074-.046-.118-.046s-.086.016-.118.046l.001.002z" stroke-width=".5" class="D"/><path d="M12.001 950.004v17.86a2.03 2.03 0 0 1-.784 1.59l-8 6.133c-.604.464-1.42.543-2.1.206a2.01 2.01 0 0 1-1.116-1.796v-23.994a2 2 0 0 1 2-2.004h8a2 2 0 0 1 2 2.004v.001zm16 0v17.86a2.03 2.03 0 0 1-.784 1.59l-8 6.133c-.604.464-1.42.543-2.1.206a2.01 2.01 0 0 1-1.116-1.796v-23.994a2 2 0 0 1 2-2.004h8a2 2 0 0 1 2 2.004v.001z"/></g><path d="M70.001 948a2 2 0 0 1 2 2.004v17.86a2.03 2.03 0 0 1-.784 1.59l-8 6.133c-.604.464-1.42.543-2.1.206a2.01 2.01 0 0 1-1.116-1.796v-23.994a2 2 0 0 1 2-2.004h8V948zm-16 0a2 2 0 0 1 2 2.004v17.86a2.03 2.03 0 0 1-.784 1.59l-8 6.133c-.604.464-1.42.543-2.1.206a2.01 2.01 0 0 1-1.116-1.796v-23.994a2 2 0 0 1 2-2.004h8V948z" class="B"/></g><g transform="translate(1 1002)"><circle fill="#f6f6f6" cx="32" cy="32" r="32"/><g class="E"><use fill="#ccc" xlink:href="#A"/><use filter="url(#B)" xlink:href="#A" class="C"/></g></g><g class="E"><path d="M9.523 1168.565v3.175H1.191v-8.333h3.175c.603 0 .603-1.19 0-1.19H1.094a1.09 1.09 0 0 0-1.093 1.093v8.527a1.09 1.09 0 0 0 1.092 1.092H9.62a1.09 1.09 0 0 0 1.092-1.092v-3.272c0-.603-1.19-.603-1.19 0h.001zm1.362-7.565a1 1 0 0 1 1 1v2.76a1 1 0 0 1-1 1h-2.76a1 1 0 0 1-1-1V1162a1 1 0 0 1 1-1h2.76zm-.09 1.09h-2.58v2.58h2.58v-2.58h0z" fill="#0091ff"/><path d="M13.284 1094.353H9.469c-.325.001-.613-.208-.713-.517l-1.18-3.63a.3.3 0 0 0-.57 0l-1.18 3.63a.76.76 0 0 1-.713.517H1.301a.3.3 0 0 0-.176.542l3.086 2.242a.75.75 0 0 1 .272.838l-1.18 3.628a.3.3 0 0 0 .462.335l3.086-2.242c.262-.192.618-.192.88 0l3.086 2.242a.3.3 0 0 0 .462-.335l-1.18-3.628a.75.75 0 0 1 .272-.838l3.086-2.242a.3.3 0 0 0-.176-.542h.003 0z" fill="#e11f26"/><use xlink:href="#F" fill="#e2e2e2" fill-opacity=".9"/><use xlink:href="#F" class="C"/><path d="M9.334 1305.718H6.336v-1.428s-.167-1.36.804-1.36h1.974V1300h-3.36s-2.814-.012-2.814 2.75l-.007 2.965H1.001v2.358h1.926L2.901 1316h3.433v-7.927h2.267l.733-2.355h0zm10.82 34.577a8.16 8.16 0 0 1-2.568.981c-1.252-1.333-3.242-1.66-4.855-.797a4.04 4.04 0 0 0-2.03 4.48 11.48 11.48 0 0 1-8.33-4.222 4.05 4.05 0 0 0 1.25 5.394 4.04 4.04 0 0 1-1.83-.508v.05c.001 1.924 1.356 3.58 3.24 3.963a4.01 4.01 0 0 1-1.826.068 4.05 4.05 0 0 0 3.774 2.808 8.11 8.11 0 0 1-5.018 1.729c-.322 0-.644-.02-.964-.056a11.49 11.49 0 0 0 11.714.402c3.684-2.018 5.976-5.883 5.975-10.084l-.013-.524a8.13 8.13 0 0 0 2.019-2.089 8.06 8.06 0 0 1-2.32.637 4.07 4.07 0 0 0 1.779-2.234l.003.002h0zm-2.417 49.505v6.2h-3.586v-5.772c0-1.45-.52-2.44-1.817-2.44a1.96 1.96 0 0 0-1.84 1.312 2.47 2.47 0 0 0-.12.874V1396H6.786v-10.8h3.587v1.53c-.007.012-.016.024-.023.035h.023v-.038a3.56 3.56 0 0 1 3.233-1.782c2.36 0 4.13 1.54 4.13 4.855h.001 0zm-14.703-9.803a1.87 1.87 0 0 0-1.778 2.819 1.87 1.87 0 0 0 1.73.909h.015a1.87 1.87 0 0 0 1.761-2.831 1.87 1.87 0 0 0-1.737-.897h.01-.001zm-1.817 16h3.586v-10.8H1.217v10.8zm10.184 25.703c-2.084-2.28-5.6-2.126-7.94-.368-1.994 1.5-3.402 4.83-1.727 7.098a2.28 2.28 0 0 0 1.4.861c.138.034.278-.046.32-.183a3.38 3.38 0 0 0 .258-.912.19.19 0 0 0-.052-.142c-.036-.038-.087-.058-.14-.057-1.52-1.68-.487-3.768.993-5.06 1.3-1.142 3.712-2.212 5.25-.896 1.062.908 1.143 2.605 1.092 3.887-.062 1.608-.62 3.302-2.282 3.815a1.37 1.37 0 0 1-1.541-.383 2.04 2.04 0 0 1-.124-1.81c.24-.928.807-2.242.27-3.16-.65-1.113-1.958-.1-2.336.648-.23.456-.645 1.916-.033 2.3-.636 1.687-1.1 3.435-1.385 5.216a7.12 7.12 0 0 0-.108 2.435c.076.304.2.596.344.87-.026.15.194.204.28.086a9.56 9.56 0 0 0 1.542-2.54 12.49 12.49 0 0 0 .346-1.6c.073-.37.224-.792.263-1.188h.007a4.67 4.67 0 0 0 1.826.857 4.05 4.05 0 0 0 2.892-.72 2.94 2.94 0 0 0 .358-.297 3.79 3.79 0 0 0 .98-.96c1.636-2.3 1.08-5.78-.753-7.787h0v-.01zm-8.225 6.677c.013.013.026.025.04.035l-.027.058-.062-.076a.18.18 0 0 0 0-.073l.048.055.001.001h0zm-1.014-4.552a5.72 5.72 0 0 0-.389.824 5.07 5.07 0 0 1 .34-.885c.02.01.044.015.066.018l-.018.043h.001 0zm9.3-1.14a.31.31 0 0 0-.085-.076c-.008-.01-.016-.018-.024-.027l-.034-.1.264.37-.122-.167h.001 0z" class="B"/><path d="M59.001 1466.794c-.023 2.43-1.316 4.67-3.405 5.897s-4.667 1.264-6.8.096L45.001 1474l1.24-3.672a6.79 6.79 0 0 1-.985-3.533c.056-3.77 3.116-6.794 6.872-6.794s6.816 3.025 6.872 6.794l.001-.001zm-6.872-5.755c-3.178-.01-5.764 2.566-5.78 5.755a5.71 5.71 0 0 0 1.1 3.373l-.722 2.137 2.22-.708a5.73 5.73 0 0 0 6.706-.209 5.78 5.78 0 0 0 1.942-6.445 5.75 5.75 0 0 0-5.468-3.903h.002zm3.47 7.33a.86.86 0 0 0-.323-.196l-1.15-.545a.26.26 0 0 0-.208-.042c-.072.016-.134.06-.172.125-.112.168-.435.546-.534.658a.26.26 0 0 1-.363.042 4.6 4.6 0 0 1-1.354-.833 5.06 5.06 0 0 1-.937-1.162c-.037-.055-.05-.122-.035-.187s.053-.12.11-.155c.076-.075.17-.196.253-.294a1.13 1.13 0 0 0 .169-.28c.046-.094.04-.205-.014-.294-.042-.083-.38-.91-.52-1.245s-.28-.28-.38-.28-.21-.014-.323-.014a.62.62 0 0 0-.449.208c-.384.362-.6.87-.6 1.4.055.634.294 1.237.688 1.735.084.11 1.165 1.86 2.878 2.532s1.71.448 2.022.42c.475-.092.888-.382 1.137-.797a1.4 1.4 0 0 0 .094-.796h0 .011z" fill="#25d366"/><path d="M45.001 1422.33v11.37a.5.5 0 0 0 .808.394l7.7-6.014-7.706-6.14a.5.5 0 0 0-.812.391l.01-.001zm16.49 5.786l7.702 5.982a.5.5 0 0 0 .807-.395v-11.336a.5.5 0 0 0-.812-.391l-7.697 6.14h0zm-7.155.61l1.95 1.544a2.1 2.1 0 0 0 2.5 0h0l1.89-1.508 8.175 6.342a.5.5 0 0 1-.306.895h0-22.082a.5.5 0 0 1-.307-.894h0l8.18-6.378v-.001zm14.21-8.726a.5.5 0 0 1 .306.895l-8.175 6.342-1.89 1.562c-1 .778-1 1.377-2.5 0l-1.95-1.526-8.18-6.378a.5.5 0 0 1 .307-.894h22.082V1420z" fill="#ef6c00"/><g transform="translate(0 391)"><path d="M57.608 993.953c2.358 0 4.127 1.54 4.127 4.852h.001V1005h-3.585v-5.768c0-1.45-.52-2.438-1.816-2.438a1.96 1.96 0 0 0-1.839 1.311 2.47 2.47 0 0 0-.12.873V1005h-3.585v-10.793h3.585v1.526a3.56 3.56 0 0 1 3.231-1.781l.001.001zm-8.797.252v10.793h-3.584v-10.793h3.574.01zM46.881 989l.158.007.156-.004a1.87 1.87 0 0 1 1.486.767l.09.134a1.87 1.87 0 0 1-1.76 2.829h0-.015a1.87 1.87 0 0 1-1.704-2.862 1.87 1.87 0 0 1 1.752-.864l-.163-.007z" fill="#0e76a8"/><path d="M50.133 914.718v-1.428s-.16-1.36.772-1.36H52.8V909h-3.225s-2.7-.012-2.7 2.75l-.007 2.965h-1.867v2.358h1.85L46.826 925h3.295v-7.927h2.176l.705-2.355h-2.88.011z" fill="#3b5998"/><path d="M64.461 949.295c-.807.47-1.688.802-2.608.98-1.27-1.333-3.292-1.66-4.93-.797s-2.483 2.7-2.06 4.48a11.72 11.72 0 0 1-8.459-4.222c-1.086 1.847-.53 4.206 1.27 5.394a4.15 4.15 0 0 1-1.858-.508v.05c.001 1.924 1.377 3.58 3.3 3.963-.605.163-1.24.186-1.854.068.538 1.646 2.077 2.773 3.832 2.808-1.454 1.123-3.248 1.732-5.096 1.73a8.93 8.93 0 0 1-.98-.056 11.82 11.82 0 0 0 11.895.402c3.741-2.018 6.07-5.883 6.068-10.084l-.013-.524a8.19 8.19 0 0 0 2.05-2.089c-.75.327-1.543.542-2.356.637a4.08 4.08 0 0 0 1.807-2.234l.003.002h-.011z" fill="#56acee"/><path d="M21.369 1069.5c.98.263 1.75 1.036 2.014 2.014.415 1.517.465 4.43.47 5.28v.33c-.004.585-.044 3.783-.47 5.404-.264.98-1.036 1.75-2.014 2.014-1.594.42-7.45.465-8.704.47h-.464c-1.25-.005-7.094-.053-8.705-.5-.98-.263-1.75-1.036-2.014-2.014-.397-1.493-.46-4.38-.47-5.245v-.5c.01-.862.072-3.738.47-5.247a2.92 2.92 0 0 1 2.014-2.033c1.555-.4 7.167-.463 8.605-.47h.675c1.438.007 7.05.063 8.605.488l-.002-.001-.01.01zm-11.22 4.085v6.852l5.95-3.426-5.95-3.426h0z" class="B"/><path d="M21.641 1121c.48 0 .48 1 0 1h0H.361c-.48 0-.48-1 0-1h0 21.28zm0-6c.48 0 .48 1 0 1h0H.361c-.48 0-.48-1 0-1h0 21.28zm0-6c.48 0 .48 1 0 1h0H.361c-.48 0-.48-1 0-1h0 21.28z" class="C"/><use xlink:href="#G" class="B"/><use xlink:href="#G" x="29" fill="#e11f26"/><use xlink:href="#H" class="C"/><use xlink:href="#H" x="55" class="B"/><path d="M96.144 1149a1 1 0 0 1 1 1v8a1 1 0 0 1-1 1h-8a1 1 0 0 1-1-1v-8a1 1 0 0 1 1-1h8zm0 1h-8v8h8v-8zm-1.818 3.8l-3.286-2.247c-.102-.075-.375-.075-.396.2v4.494c.024.285.302.3.396.2l3.286-2.247c.085-.05.202-.26 0-.418v-.002.02z" class="F"/><path d="M9.801 1189.838v9.9h-6.18l-2.595-6.8 3.135 2.144a2.43 2.43 0 0 0 3.604-1l2.036-4.252v.008h0zm0 12.072h-6.18v-1.26h6.18v1.26zm0-15.856v2.577l-1.045.486.108-1.1-.703-.793 1.027-.234.613-.936h0z" stroke="url(#C)" fill="#fcc600"/><path d="M10.801 1199.748v-9.9l2.036 4.252c.613 1.387 2.36 1.856 3.604 1l3.135-2.144-2.595 6.8h-6.18v-.008h0zm0 .9h6.18v1.26h-6.18v-1.26zm0-12.018v-2.577l.613.937 1.027.234-.703.793.108 1.1-1.045-.486h0v-.001z" stroke="url(#D)" fill="#fcac16"/><path d="M12.488 1238.633a.97.97 0 0 1-.824.46H1.971a.97.97 0 0 1-.867-1.406c.487-1 .907-2.012 1.255-3.06v-2.715c.002-2.43 1.948-4.412 4.378-4.46h-.892v-.485a.97.97 0 1 1 1.94 0v.485h-.887c2.43.047 4.376 2.03 4.378 4.46v2.715a24.15 24.15 0 0 0 1.255 3.06.97.97 0 0 1-.042.944l-.001.002h0zm-2.1-3.966v-2.787a3.58 3.58 0 1 0-7.16 0v2.787c-.415 1.255-.914 2.48-1.493 3.67h10.133c-.58-1.187-1.074-2.413-1.48-3.67zM6.815 1242a1.94 1.94 0 0 1-1.939-1.939h3.88A1.94 1.94 0 0 1 6.817 1242h-.002 0zm-5.8 24v1.724c4 0 7.257 3.26 7.257 7.265H10A9 9 0 0 0 1.015 1266h0 0zm-.003 3.053v1.723c1.122 0 2.176.44 2.97 1.234s1.23 1.852 1.23 2.98h1.73c0-3.273-2.662-5.935-5.933-5.935l.003-.002zm1.197 3.537a1.2 1.2 0 0 0-1.197 1.194c0 .66.537 1.193 1.197 1.193s1.198-.533 1.198-1.193a1.2 1.2 0 0 0-1.198-1.194h0 0z" class="B"/><path d="M14.95 0c.221 0 .421.167.463.371l.008.078L15.42 4h.918c.814 0 1.497.861 1.636 1.6L18 11.398c0 .824-.671 1.506-1.518 1.575l-.143.006h-.918l.001 2.572c0 .184-.134.353-.311.419l-.078.022-.082.008H3.05c-.221 0-.421-.167-.463-.371l-.008-.078-.001-2.572h-.916c-.814 0-1.497-.566-1.636-1.305l-.019-.14L0 11.398V5.6C0 4.776.671 4.07 1.518 4h1.059L2.579.448c0-.184.134-.353.311-.419l.078-.022L3.05 0H14.95zm-.53 10H3.58v5h10.84v-5zm1.88-5H1.72c-.372 0-.673.251-.72.59v5.71c0 .354.364.636.72.68h.858l.001-2.54c0-.21.176-.4.389-.44H14.95c.221 0 .421.157.463.36l.007 2.62h.88c.372 0 .653-.341.7-.68V5.684c0-.386-.295-.684-.7-.684zM2.5 6.025a.47.47 0 0 1 .475.475.47.47 0 0 1-.475.475.47.47 0 0 1-.475-.475.47.47 0 0 1 .475-.475zM14.42 1H3.576v3H14.42V1z" fill="#1a1a1a"/><path d="M.151 45.5a.54.54 0 0 1-.15-.35.54.54 0 0 1 .15-.35l.7-.7c.2-.2.5-.2.7 0l.05.05 2.75 2.95c.1.1.25.1.35 0l6.7-6.95h.05c.2-.2.5-.2.7 0l.7.7c.2.2.2.5 0 .7h0l-8 8.3c-.1.1-.2.15-.35.15s-.25-.05-.35-.15l-3.9-4.2-.1-.15h0zm.713 37.07v1.722H.001v-3.58h3.453v.898H1.426a5 5 0 0 0 4.725 3.58c2.298 0 4.165-1.655 4.648-4.116a.43.43 0 0 1 .509-.35.45.45 0 0 1 .337.527c-.566 2.9-2.773 4.835-5.494 4.835A5.84 5.84 0 0 1 .864 82.57h0zm-.12-3.666a.45.45 0 0 1-.294-.554A5.96 5.96 0 0 1 6.15 74a5.65 5.65 0 0 1 5.071 3.271v-1.93h.863v3.58H8.631v-.896h1.976a4.83 4.83 0 0 0-4.459-3.132 5.15 5.15 0 0 0-4.872 3.706c-.05.188-.22.32-.414.322-.04 0-.08-.006-.12-.018h0l.002.001z" class="B"/><g class="C"><path d="M37.864 82.57v1.722h-.863v-3.58h3.453v.898h-2.028a5 5 0 0 0 4.725 3.58c2.298 0 4.165-1.655 4.648-4.116a.43.43 0 0 1 .509-.35.45.45 0 0 1 .337.527c-.566 2.89-2.773 4.835-5.494 4.835a5.84 5.84 0 0 1-5.287-3.516h0zm-.12-3.666a.45.45 0 0 1-.294-.554 5.96 5.96 0 0 1 5.7-4.35 5.65 5.65 0 0 1 5.071 3.271v-1.93h.863v3.58h-3.453v-.896h1.976a4.83 4.83 0 0 0-4.459-3.132 5.15 5.15 0 0 0-4.872 3.706c-.05.188-.22.32-.414.322-.04 0-.08-.006-.12-.018h0l.002.001z"/><path d="M7.253 111.105a.78.78 0 0 0-.79.01.2.2 0 0 0-.033.024l-3.46 2.927H.255c-.14 0-.255.114-.255.255v4.85c0 .068.027.133.075.18a.26.26 0 0 0 .18.075l2.71-.001 3.458 3.176a.25.25 0 0 0 .041.031.78.78 0 0 0 .404.114c.132 0 .264-.034.385-.103.255-.144.407-.407.407-.703v-10.13a.8.8 0 0 0-.407-.704v-.001zm-.103 10.837c0 .1-.055.207-.148.26a.27.27 0 0 1-.255.007l-3.427-3.148v-1.163c0-.14-.114-.255-.255-.255s-.255.114-.255.255v1.02l-2.298.001v-4.34H2.81v1.02c0 .14.114.255.255.255s.255-.114.255-.255v-1.158l3.423-2.895c.118-.062.22-.018.26.005.092.052.148.15.148.26v10.133l-.001-.002z" stroke="#030303"/><path d="M10.907 112.038c-.134-.045-.28.026-.324.16s.026.28.16.324c1.813.616 3.03 2.314 3.03 4.226s-1.216 3.6-3.025 4.227a.26.26 0 0 0-.16.324c.036.106.135.173.242.173.027 0 .055-.004.082-.014 2.016-.688 3.37-2.58 3.37-4.7s-1.357-4.024-3.377-4.7l.002-.02zm1.08 4.7a3.44 3.44 0 0 0-2.5-3.3c-.136-.04-.277.04-.316.175s.04.277.175.316a2.95 2.95 0 0 1 2.12 2.819 2.95 2.95 0 0 1-2.12 2.819c-.136.04-.214.18-.175.316.032.112.134.185.245.185.024 0 .048-.003.071-.01a3.47 3.47 0 0 0 2.5-3.3v-.02z" class="D"/></g></g><path d="M80.001 537.975l-2.93 3.014-.725-.73 1.698-1.724h-5.48v5.527l1.7-1.714.725.73-2.952 2.92-2.952-2.92.725-.73 1.7 1.714v-5.527h-5.48l1.698 1.724-.725.73-3.002-3.014 3.025-2.942.725.73-1.698 1.724h5.48v-5.527l-1.7 1.714-.725-.73 2.95-2.944 2.943 2.944-.725.73-1.7-1.714v5.527h5.48l-1.698-1.724.725-.73 2.918 2.942zm-32 2.692V546h-5.333v-5.333h5.333zm0-10.667v8.533h-1.067v-7.467H33.068v13.867h7.467V546h-8.534v-16h16zm-1.067 11.733h-3.2v3.2h3.2v-3.2zm-11.36-8.907l4.96 4.95v-2.443h1.067v4.267h-4.267v-1.067h2.443l-4.95-4.96.747-.747h0zm-19.573 7.841V546h-5.333v-5.333h5.333zm0-10.667v8.533h-1.067v-7.467H1.068v13.867h7.467V546H.001v-16h16zm-1.067 11.733h-3.2v3.2h3.2v-3.2zM7.467 533.2v1.067H5.024l4.95 4.96-.747.747-4.96-4.95v2.443H3.201V533.2h4.267-.001z" class="B"/><path d="M6.501 1850c-3.033 0-5.5 2.6-5.5 5.795 0 3.965 4.922 9.786 5.132 10.032a.48.48 0 0 0 .737 0c.2-.246 5.132-6.067 5.132-10.032 0-3.195-2.467-5.795-5.5-5.795h-.001 0zm0 8.7c-1.526 0-2.767-1.308-2.767-2.915s1.24-2.915 2.767-2.915 2.767 1.308 2.767 2.915-1.24 2.915-2.767 2.915z" class="C"/></g></g></svg>