<?xml version="1.0" encoding="UTF-8"?>
<svg width="40px" height="12px" viewBox="0 0 40 12" version="1.1" xmlns="http://www.w3.org/2000/svg" xmlns:xlink="http://www.w3.org/1999/xlink">
    <title>toi+</title>
    <g id="toi+" stroke="none" stroke-width="1" fill="none" fill-rule="evenodd">
        <g transform="translate(-0.000000, 0.000000)" fill-rule="nonzero">
            <path d="M17.0840891,0.0713724174 C18.7906672,0.0713724174 20.2017038,0.632155697 21.3152087,1.75372226 C22.4287136,2.87528882 22.9859636,4.29967835 22.9849698,6.02791045 C22.9849698,7.74900532 22.4287136,9.17543406 21.3152087,10.3051575 C20.2017038,11.4348809 18.7916623,11.9997426 17.0840891,11.9997426 C16.4124039,12.0058602 15.744699,11.90288 15.1058517,11.6969196 C14.4938718,11.4960572 13.9207003,11.1881362 13.4141999,10.7864115 C12.7027111,10.2409223 12.1305347,9.53025694 11.7484204,8.71355256 C11.3560711,7.87548007 11.1565809,6.95635441 11.1652981,6.02689085 C11.1652981,4.29865874 11.7225481,2.87426921 12.836053,1.75270265 C13.9495579,0.631136091 15.366565,0.0703528115 17.0840891,0.0703528115 L17.0840891,0.0713724174 Z M1.09001924,0 C1.16166567,0.0418038445 1.22933174,0.0907449307 1.29202236,0.144784047 C1.42307116,0.233190297 1.57428988,0.285189779 1.73085673,0.295685729 L8.7750937,0.295685729 C9.06029999,0.2820311 9.33490194,0.180781432 9.5632044,0.00509802982 C9.59206199,0.00407842385 9.61992449,0.0142744835 9.64082137,0.0346666027 C9.66370842,0.0621959638 9.67962985,0.0948233546 9.68659547,0.130509563 L10.5403821,4.05089449 L10.5403821,4.10085518 C10.5423722,4.14775706 10.5264508,4.19363933 10.494608,4.22830593 C10.4687356,4.25889411 10.4309222,4.27724702 10.3911187,4.27826662 C10.2926048,4.27826662 10.1821499,4.10799243 10.0587589,3.76846364 C9.95228431,3.46462106 9.81595708,3.17199415 9.65276244,2.89568094 C9.29500759,2.31376948 8.82582604,1.81221707 8.2735687,1.42133071 C7.73024996,1.04509611 7.11528479,0.789175016 6.46748167,0.669881118 L6.46748167,9.75253104 C6.45202266,10.0783252 6.48524407,10.4046269 6.56599551,10.7201371 C6.62711905,10.9007672 6.74970031,11.0527919 6.91129149,11.1483716 C7.12217248,11.256304 7.35253927,11.3184387 7.58795219,11.3308811 C7.89742496,11.3645281 8.05265889,11.4440573 8.05265889,11.5715081 C8.05862942,11.6296256 8.03375219,11.6867236 7.98698299,11.7203705 C7.91832183,11.7540175 7.84169996,11.768292 7.76507809,11.7621744 L2.77570047,11.7621744 C2.69410315,11.7693116 2.61250583,11.7550372 2.53787413,11.7203705 C2.49010985,11.6867236 2.46423753,11.6296256 2.47120315,11.5715081 C2.47120315,11.4440573 2.61350092,11.3645281 2.89809645,11.3339399 C3.11331292,11.3191731 3.32539315,11.2731716 3.52798796,11.1973127 C3.71269577,11.1160967 3.858862,10.9637661 3.93497947,10.7731566 C4.01359153,10.5794315 4.0533951,10.2399027 4.0533951,9.75355064 L4.0533951,0.670900724 C3.40857725,0.78815541 2.79460717,1.04203729 2.2532786,1.41623268 C1.69971437,1.80917255 1.22870149,2.31189916 0.868114333,2.89466133 C0.702520996,3.17164861 0.565458148,3.46551282 0.459132642,3.77152246 C0.33773175,4.10595321 0.22827193,4.2741882 0.130753182,4.2741882 C0.0949299678,4.27214899 0.0610969326,4.25379608 0.0402000578,4.22422751 C0.0113424689,4.1885413 -0.00258878093,4.14265903 0.000396486891,4.09677676 L0.000396486891,4.04681607 L0.959662546,0.117254686 C0.966900411,0.0862387172 0.984066146,0.0585993961 1.00842192,0.0387450266 C1.03031388,0.0163136954 1.05917147,0.00305881789 1.09001924,0.00203921193 L1.09001924,0 Z M29.2420899,0.345646422 C29.2938345,0.384391448 29.3226921,0.447607018 29.3167216,0.5128618 C29.3167216,0.616861608 29.2112421,0.690273237 29.0002832,0.727998658 C28.8367934,0.751217664 28.6775302,0.798971356 28.5276158,0.869723887 C28.3480024,0.961006685 28.2053701,1.11400933 28.1246046,1.30203682 C28.0489778,1.48454628 28.0101693,1.82815349 28.0101693,2.33183884 L28.0101693,9.73417813 C28.0101693,10.2439811 28.0489778,10.5824903 28.1246046,10.7680586 C28.2052068,10.9587249 28.351485,11.1126854 28.5355765,11.2044499 C28.6818546,11.2656263 28.8350984,11.3084497 28.9913274,11.3319007 C29.2082568,11.3737045 29.3167216,11.4481358 29.3167216,11.5521356 C29.3246823,11.6143315 29.3017952,11.6765275 29.255026,11.7183313 C29.1677514,11.7547283 29.0732089,11.7690667 28.9793863,11.7601352 L24.6129346,11.7601352 C24.5154158,11.7703312 24.4159069,11.7540175 24.3253538,11.7142529 C24.2775895,11.6755079 24.2517172,11.6143315 24.2586828,11.5521356 C24.2586828,11.4481358 24.3641623,11.3737045 24.5751212,11.3319007 C24.7349764,11.3063861 24.89109,11.2604876 25.0398279,11.1952735 C25.2231124,11.1045223 25.3688231,10.9497991 25.4507997,10.7588821 C25.5323971,10.5682158 25.5771761,10.2246086 25.5771761,9.73315852 L25.5771761,1.90768276 C25.5861319,1.66909496 25.5294118,1.43356598 25.4129863,1.22556637 C25.3012637,1.04107114 25.13446,0.89840494 24.9373337,0.818743588 C24.8328493,0.784076986 24.7263747,0.758586837 24.61791,0.743292747 C24.3820739,0.698430085 24.2636582,0.615842002 24.2636582,0.511842194 C24.258182,0.445835503 24.2878464,0.381927442 24.3412752,0.344626816 C24.3979953,0.318117061 24.4586957,0.302822971 24.5203913,0.296705335 L28.9793863,0.295685729 C29.0700678,0.287811681 29.1611473,0.305067722 29.243085,0.345646422 L29.243085,0.345646422 L29.2420899,0.345646422 Z M17.0850842,0.428234505 C16.0243191,0.428234505 15.2113311,0.907449307 14.6471155,1.86587891 C14.0828999,2.82430852 13.8002945,4.21199223 13.8002945,6.02791045 C13.8002945,7.84382868 14.0828999,9.23151239 14.6471155,10.1889224 C15.2113311,11.1463324 16.0243191,11.6255472 17.0850842,11.6265668 C18.1408739,11.6265668 18.9468962,11.147352 19.5061364,10.1889224 C20.0653766,9.23049279 20.3440016,7.84382868 20.3440016,6.02791045 C20.3440016,4.21199223 20.0633864,2.82328891 19.5031512,1.86587891 C18.9429159,0.908468913 18.1368936,0.429254111 17.0860793,0.428234505 L17.0860793,0.428234505 L17.0850842,0.428234505 Z" id="Shape" fill="#1A1A1A"></path>
            <polygon id="Path" fill="#EC2227" points="34.2254969 10.3153535 34.2254969 7.52877043 31.4760653 7.52877043 31.4760653 4.46587412 34.2254969 4.46587412 34.2254969 1.68948708 37.2406174 1.68948708 37.2406174 4.46587412 40 4.46587412 40 7.52877043 37.2406174 7.52877043 37.2406174 10.3153535"></polygon>
            <polygon id="Path" fill="#FFFFFF" points="35.5111523 9.01331671 35.5111523 6.22571401 32.7637108 6.22571401 32.7637108 5.76791093 35.5111523 5.76791093 35.5111523 2.9925435 35.953967 2.9925435 35.953967 5.76791093 38.7133496 5.76791093 38.7133496 6.22571401 35.953967 6.22571401 35.953967 9.01331671"></polygon>
        </g>
    </g>
</svg>