<?xml version="1.0" encoding="utf-8"?>
<!-- Generator: Adobe Illustrator 23.0.0, SVG Export Plug-In . SVG Version: 6.00 Build 0)  -->
<svg version="1.1" id="Capa_1" xmlns="http://www.w3.org/2000/svg" xmlns:xlink="http://www.w3.org/1999/xlink" x="0px" y="0px"
	 viewBox="0 0 142.7 24.6" style="enable-background:new 0 0 142.7 24.6;" xml:space="preserve">
<style type="text/css">
	.st0{fill:#4285F4;}
	.st1{fill:#EA4335;}
	.st2{fill:#FBBC05;}
	.st3{fill:#34A853;}
	.st4{fill:#5F6368;}
</style>
<g>
	<g transform="translate(-20.000000, -464.000000)">
		<g transform="translate(20.000000, 464.000000)">
			<g transform="translate(28.500000, 13.000000)">
				<g>
					<path id="Path" class="st0" d="M-18.3-4.3v2.6h6.3c-0.2,1.5-0.7,2.6-1.4,3.3c-0.9,0.9-2.3,1.9-4.8,1.9c-3.9,0-6.9-3.1-6.9-7
						s3-7,6.9-7c2.1,0,3.6,0.8,4.7,1.9l1.8-1.8c-1.6-1.5-3.7-2.7-6.6-2.7c-5.3,0-9.8,4.3-9.8,9.6s4.5,9.6,9.8,9.6
						c2.9,0,5-0.9,6.7-2.7c1.7-1.7,2.3-4.2,2.3-6.1c0-0.6,0-1.2-0.1-1.6H-18.3z"/>
					<path id="Shape" class="st1" d="M-1.4-6.4c-3.4,0-6.2,2.6-6.2,6.2C-7.7,3.4-4.9,6-1.4,6s6.2-2.6,6.2-6.2C4.8-3.8,2-6.4-1.4-6.4
						z M-1.4,3.6c-1.9,0-3.5-1.5-3.5-3.8c0-2.2,1.6-3.8,3.5-3.8s3.5,1.5,3.5,3.8C2.1,2,0.4,3.6-1.4,3.6z"/>
					<path class="st0" d="M29.1-5L29.1-5c-0.7-0.7-1.9-1.4-3.4-1.4c-3.1,0-5.8,2.7-5.8,6.2c0,3.5,2.7,6.2,5.8,6.2
						c1.5,0,2.7-0.7,3.3-1.4h0.1v0.9c0,2.4-1.3,3.6-3.3,3.6c-1.7,0-2.7-1.2-3.1-2.2l-2.4,1c0.7,1.6,2.5,3.7,5.5,3.7
						c3.2,0,5.9-1.9,5.9-6.5V-6.1h-2.6V-5z M26,3.6c-1.9,0-3.3-1.6-3.3-3.8c0-2.2,1.4-3.8,3.3-3.8c1.9,0,3.3,1.6,3.3,3.8
						C29.3,2,27.8,3.6,26,3.6z"/>
					<path class="st2" d="M12.4-6.4C9-6.4,6.2-3.8,6.2-0.2C6.2,3.4,9,6,12.4,6s6.2-2.6,6.2-6.2C18.7-3.8,15.9-6.4,12.4-6.4z
						 M12.4,3.6c-1.9,0-3.5-1.5-3.5-3.8c0-2.2,1.6-3.8,3.5-3.8s3.5,1.5,3.5,3.8C15.9,2,14.3,3.6,12.4,3.6z"/>
					<polygon class="st3" points="33.8,-12.7 36.5,-12.7 36.5,6 33.8,6 					"/>
					<path class="st1" d="M44.8,3.6c-1.4,0-2.4-0.6-3-1.9L50-1.7l-0.3-0.7c-0.5-1.4-2.1-4-5.3-4c-3.2,0-5.9,2.5-5.9,6.2
						c0,3.5,2.6,6.2,6.2,6.2c2.8,0,4.5-1.7,5.2-2.7l-2.1-1.4C47.1,2.9,46.1,3.6,44.8,3.6z M44.6-4.1c1.1,0,2,0.6,2.3,1.4l-5.6,2.3
						C41.3-3,43.2-4.1,44.6-4.1L44.6-4.1z"/>
				</g>
				<path id="News" class="st4" d="M57.8,6.2v-17h2.7l8.3,13.2h0.1l-0.1-3.3v-10h2.2v17h-2.3L60-7.7h-0.1L60-4.4V6.2H57.8z
					 M79.2,6.5c-1.8,0-3.2-0.6-4.3-1.8c-1.1-1.2-1.7-2.7-1.7-4.4c0-1.7,0.5-3.2,1.6-4.4C76-5.2,77.3-5.9,79-5.9
					c1.7,0,3.1,0.6,4.1,1.7c1,1.1,1.6,2.6,1.6,4.5l0,0.4h-9.2c0.1,1.2,0.5,2.1,1.2,2.8c0.7,0.7,1.6,1,2.5,1c1.6,0,2.6-0.7,3.2-2
					l1.9,0.8c-0.4,0.9-1,1.7-1.9,2.3C81.6,6.2,80.5,6.5,79.2,6.5z M82.4-1.1c0-0.7-0.4-1.3-0.9-1.9c-0.6-0.6-1.4-0.9-2.5-0.9
					c-0.8,0-1.5,0.3-2.1,0.8s-1,1.2-1.2,2H82.4z M99.4,6.2h-2.2l-2.9-8.9l-2.9,8.9h-2.2L85.4-5.5h2.3l2.6,8.8h0l2.9-8.8h2.3l2.9,8.8
					h0l2.6-8.8h2.2L99.4,6.2z M108.9,6.5c-1.3,0-2.4-0.3-3.2-1c-0.8-0.6-1.5-1.4-1.9-2.4l1.9-0.8c0.6,1.5,1.7,2.2,3.2,2.2
					c0.7,0,1.2-0.2,1.7-0.5c0.4-0.3,0.7-0.7,0.7-1.2c0-0.8-0.5-1.3-1.6-1.5l-2.4-0.6c-0.7-0.2-1.4-0.6-2.1-1.1c-0.7-0.5-1-1.2-1-2.1
					c0-1,0.5-1.9,1.4-2.5s2-1,3.2-1c1,0,1.9,0.2,2.8,0.7c0.8,0.5,1.4,1.1,1.7,2l-1.9,0.8c-0.4-1-1.3-1.5-2.7-1.5
					c-0.6,0-1.2,0.1-1.6,0.4c-0.4,0.3-0.7,0.6-0.7,1.1c0,0.7,0.5,1.1,1.5,1.4l2.3,0.5c1.1,0.3,1.9,0.7,2.4,1.3
					c0.5,0.6,0.8,1.3,0.8,2.1c0,1-0.4,1.9-1.3,2.6C111.4,6.2,110.3,6.5,108.9,6.5z"/>
			</g>
		</g>
	</g>
</g>
</svg>
