<?xml version="1.0" encoding="utf-8"?>
<!-- Generator: Adobe Illustrator 26.0.2, SVG Export Plug-In . SVG Version: 6.00 Build 0)  -->
<svg version="1.1" id="Capa_1" xmlns="http://www.w3.org/2000/svg" xmlns:xlink="http://www.w3.org/1999/xlink" x="0px" y="0px"
	 viewBox="0 0 270 137" style="enable-background:new 0 0 270 137;" xml:space="preserve">
<g>
	<path fill="#bf9000ff" d="M201.5,137H68.5C30.7,137,0,106.3,0,68.5l0,0C0,30.7,30.7,0,68.5,0h132.9C239.3,0,270,30.7,270,68.5l0,0
		C270,106.3,239.3,137,201.5,137z"/>
	<path fill="white" d="M157.7,107.4c-1.4,0-3.4-0.1-6.4-1.1c-3.1-0.9-4.2-4-5.1-10.6l-9.5-64.5c-0.3-2.1-1-3.2-1.9-3.2
		s-1.5,0.9-2.2,2.5L104.3,90L75.9,31.2c-1.4-2.7-2-3.2-2.8-3.2s-1.5,1-1.8,2.7l-10.4,68c-0.5,3.5-1.4,7.6-4.3,8.2
		c-1.6,0.3-2.3,0.3-3.1,0.3c-1.1,0-1.7,0.2-1.7,0.8c0,1,0.9,1.2,1.9,1.2c3.3,0,8.3-0.3,10.4-0.3c1.9,0,6.5,0.3,10.9,0.3
		c1.6,0,2.5-0.2,2.5-1.2c0-0.5-0.8-0.8-1.6-0.8c-1.1,0-2.5-0.1-4.4-0.5c-1.8-0.4-3.1-1.4-3.1-3.3c0-1.7,0.1-3,0.3-4.9L74.2,57h0.4
		c3.7,7.8,10,20.9,10.8,23.2c1.3,2.9,9.5,18.9,12,23.6c1.7,3.1,2.7,5.2,3.6,5.2c1,0,1.5-1,3.8-5.9l22.8-47.3h0.4l6,43.3l0,0
		c0.3,4.2-0.2,7.1-3.1,7.7c-1.6,0.3-2.2,0.3-3.1,0.3c-1.1,0-1.7,0.2-1.7,0.8c0,1,0.9,1.2,1.9,1.2c3.1,0,10.1-0.3,12.5-0.4
		c6,0.2,14.5,0.4,16.4,0.4c1.5,0,2.7-0.3,2.7-1.2C159.2,107.6,158.6,107.4,157.7,107.4"/>
	<polygon fill="white" points="221,58.1 199.3,58.1 199.3,36.4 187.6,36.4 187.6,58.1 165.9,58.1 165.9,69.8 187.6,69.8 187.6,91.5 
		199.3,91.5 199.3,69.8 221,69.8 	"/>
</g>
</svg>
