<svg width="80" height="75" viewBox="0 0 80 75" fill="none" xmlns="http://www.w3.org/2000/svg">
<g clip-path="url(#clip0_22_2)">
<path d="M72.0701 37.5C72.0701 56.96 56.2901 72.74 36.8301 72.74C17.3701 72.74 1.59009 56.96 1.59009 37.5C1.59009 18.04 17.3701 2.26001 36.8301 2.26001C56.2901 2.26001 72.0701 18.04 72.0701 37.5Z" fill="#D51317"/>
<path d="M64.3101 55.71C63.6101 55.71 62.5401 55.66 60.9801 55.17C59.3701 54.69 58.8301 53.12 58.3501 49.75L53.4601 16.56C53.3001 15.44 52.9701 14.89 52.4901 14.89C52.0101 14.89 51.7301 15.32 51.3101 16.18L36.7001 46.84L22.0401 16.56C21.3501 15.15 21.0301 14.89 20.6001 14.89C20.1701 14.89 19.8501 15.37 19.6901 16.28L14.3701 51.3C14.1001 53.12 13.6701 55.22 12.1701 55.54C11.3601 55.7 10.9801 55.7 10.5601 55.7C10.0201 55.7 9.70007 55.81 9.70007 56.08C9.70007 56.56 10.1301 56.67 10.6701 56.67C12.4001 56.67 14.9701 56.51 15.9901 56.51C17.0101 56.51 19.3701 56.67 21.6301 56.67C22.4301 56.67 22.9201 56.57 22.9201 56.08C22.9201 55.81 22.5401 55.7 22.1201 55.7C21.5801 55.7 20.8301 55.65 19.8601 55.43C18.9401 55.21 18.2501 54.73 18.2501 53.71C18.2501 52.86 18.3001 52.16 18.4101 51.18L21.2001 29.81H21.4101C23.3001 33.83 26.5201 40.6 27.0001 41.73C27.6501 43.24 31.8901 51.45 33.1801 53.92C34.0401 55.53 34.5801 56.61 35.0601 56.61C35.5401 56.61 35.8101 56.12 37.0401 53.6L48.7501 29.22H48.9701L52.0201 51.53C52.1901 53.68 51.9001 55.2 50.4001 55.52C49.5901 55.68 49.2201 55.68 48.7801 55.68C48.2501 55.68 47.9201 55.79 47.9201 56.06C47.9201 56.54 48.3501 56.65 48.8901 56.65C50.5201 56.65 54.0801 56.49 55.3401 56.46C58.3901 56.58 62.7901 56.67 63.8001 56.67C64.5501 56.67 65.1901 56.51 65.1901 56.08C65.1901 55.76 64.8101 55.7 64.3301 55.7" fill="white"/>
<path d="M73.2301 12.86H74.0801C74.6301 12.86 75.0201 12.78 75.0201 12.19C75.0201 11.69 74.4701 11.59 74.0301 11.59H73.2301V12.85V12.86ZM72.2801 10.85H74.1001C75.3101 10.85 75.9901 11.23 75.9901 12.28C75.9901 13.17 75.4301 13.51 74.7301 13.57L76.0201 15.67H75.0201L73.8401 13.61H73.2401V15.67H72.2901V10.85H72.2801ZM73.9901 16.66C75.7701 16.66 77.2301 15.23 77.2301 13.27C77.2301 11.31 75.7701 9.90001 73.9901 9.90001C72.2101 9.90001 70.7501 11.31 70.7501 13.27C70.7501 15.23 72.1901 16.66 73.9901 16.66ZM73.9901 8.98001C76.3201 8.98001 78.4101 10.66 78.4101 13.27C78.4101 15.88 76.3301 17.58 73.9901 17.58C71.6501 17.58 69.5701 15.89 69.5701 13.27C69.5701 10.65 71.6501 8.98001 73.9901 8.98001Z" fill="#D51317"/>
</g>
<defs>
<clipPath id="clip0_22_2">
<rect width="80" height="75" fill="white"/>
</clipPath>
</defs>
</svg>
