<svg width="376" height="460" viewBox="0 0 376 460" fill="none" xmlns="http://www.w3.org/2000/svg">
<g clip-path="url(#clip0_634_11531)">
<path d="M6.21582 33.8791C4.26388 30.756 -0.453281 28.9992 -2.56787 28.5112V-7.94971L376.771 -3.34649V313.165C372.769 323.497 363.736 346.415 359.62 355.432C354.538 366.562 347.083 375.941 339.531 385.441L339.245 385.801C331.595 395.424 318.764 401.223 310.868 402.334C302.972 403.444 288.043 400.483 279.53 398.879C271.017 397.275 266.452 402.827 261.27 402.334C256.088 401.84 249.055 400.36 244.12 403.691C239.185 407.022 237.951 408.379 234.003 415.659C230.055 422.938 228.081 437.373 225.49 449.588C223.417 459.359 223.358 459.016 222.988 459.525H184.593C184.967 456.678 185.468 453.149 187.539 446.593C190.127 438.398 192.37 428.477 195.303 419.764C198.236 411.052 200.651 390.693 200.91 384.654C201.169 378.616 201.773 370.334 207.38 361.535C212.987 352.736 219.371 337.553 217.559 332.981C215.748 328.409 213.936 330.652 210.399 325.217C206.862 319.782 207.121 317.971 205.741 311.932C204.361 305.893 208.588 303.219 208.415 299.768C208.243 296.318 205.913 295.628 205.741 293.557C205.568 291.487 205.655 287.605 209.882 282.947C214.109 278.288 217.585 276.166 233.769 264.607C249.952 253.047 239.46 248.779 261.868 245.044C284.275 241.309 284.453 250.557 309.351 244.155C334.249 237.753 335.25 231.525 340.835 222.762C346.419 213.998 345.732 203.259 346.591 193.55C347.451 183.841 344.022 180.533 338.125 172.509C332.227 164.484 325.363 161.584 312.795 158.007C300.226 154.43 300.251 155.046 287.544 147.821C274.836 140.595 269.106 139.765 260.053 137.771C251 135.778 250.668 137.938 242.861 135.612C235.054 133.287 227.828 129.134 221.184 123.902C214.54 118.669 204.029 112.581 193.671 109.818C183.312 107.056 178.248 113.386 172.723 115.573C167.199 117.76 149.002 116.125 136.31 111.189C123.618 106.253 111.278 96.1462 96.353 82.8664C81.4279 69.5866 64.6225 61.5952 57.5713 58.5397C50.5201 55.4842 30.8591 47.7868 26.9552 47.2988C23.0513 46.8108 8.65574 37.7831 6.21582 33.8791Z" fill="#FFCDB4"/>
<mask id="mask0_634_11531" style="mask-type:alpha" maskUnits="userSpaceOnUse" x="-3" y="-8" width="380" height="468">
<path d="M6.21582 33.8791C4.26388 30.756 -0.453281 28.9992 -2.56787 28.5112V-7.94971L376.771 -3.34649V313.165C372.769 323.497 363.736 346.415 359.62 355.432C354.538 366.562 347.083 375.941 339.531 385.441L339.245 385.801C331.595 395.424 318.764 401.223 310.868 402.334C302.972 403.444 288.043 400.483 279.53 398.879C271.017 397.275 266.452 402.827 261.27 402.334C256.088 401.84 249.055 400.36 244.12 403.691C239.185 407.022 237.951 408.379 234.003 415.659C230.055 422.938 228.081 437.373 225.49 449.588C223.417 459.359 223.358 459.016 222.988 459.525H184.593C184.967 456.678 185.468 453.149 187.539 446.593C190.127 438.398 192.37 428.477 195.303 419.764C198.236 411.052 200.651 390.693 200.91 384.654C201.169 378.616 201.773 370.334 207.38 361.535C212.987 352.736 219.371 337.553 217.559 332.981C215.748 328.409 213.936 330.652 210.399 325.217C206.862 319.782 207.121 317.971 205.741 311.932C204.361 305.893 208.588 303.219 208.415 299.768C208.243 296.318 205.913 295.628 205.741 293.557C205.568 291.487 205.655 287.605 209.882 282.947C214.109 278.288 217.585 276.166 233.769 264.607C249.952 253.047 239.46 248.779 261.868 245.044C284.275 241.309 284.453 250.557 309.351 244.155C334.249 237.753 335.25 231.525 340.835 222.762C346.419 213.998 345.732 203.259 346.591 193.55C347.451 183.841 344.022 180.533 338.125 172.509C332.227 164.484 325.363 161.584 312.795 158.007C300.226 154.43 300.251 155.046 287.544 147.821C274.836 140.595 269.106 139.765 260.053 137.771C251 135.778 250.668 137.938 242.861 135.612C235.054 133.287 227.828 129.134 221.184 123.902C214.54 118.669 204.029 112.581 193.671 109.818C183.312 107.056 178.248 113.386 172.723 115.573C167.199 117.76 149.002 116.125 136.31 111.189C123.618 106.253 111.278 96.1462 96.353 82.8664C81.4279 69.5866 64.6225 61.5952 57.5713 58.5397C50.5201 55.4842 30.8591 47.7868 26.9552 47.2988C23.0513 46.8108 8.65574 37.7831 6.21582 33.8791Z" fill="#FFCDB4"/>
</mask>
<g mask="url(#mask0_634_11531)">
<path fill-rule="evenodd" clip-rule="evenodd" d="M237.795 -1.07053C239.217 0.955516 243.304 6.99915 248.27 14.9654C254.477 24.9232 262.625 33.8463 272.195 41.347C279.326 46.9368 285.237 49.1509 292.71 51.9503L292.711 51.9503L292.711 51.9506L292.712 51.9508C295.266 52.9076 298.003 53.9327 301.033 55.1844C312.931 60.0986 325.216 69.0219 333.105 76.5225C339.778 82.8672 342.564 87.1762 345.3 91.4063C345.798 92.177 346.295 92.945 346.813 93.7223C349.503 97.7571 355.866 112.043 358.711 118.681L372.678 166.66C372.634 160.194 372.264 146.201 371.126 141.959C369.703 136.657 361.815 109.37 355.348 99.6711C353.808 97.3605 352.312 94.9398 350.789 92.4772C345.922 84.6027 340.789 76.2997 333.105 69.7978C323.018 61.2625 301.68 47.5544 292.369 44.0627C283.058 40.5711 274.91 37.2086 267.927 26.087C264.706 20.9582 262.284 16.1868 260.1 11.8871L260.1 11.887L260.1 11.8869C257.549 6.86309 255.325 2.48324 252.538 -1.07056C248.399 -6.34689 240.985 -3.26901 237.795 -1.07053ZM94.0591 -0.772149C96.7169 2.87456 104.406 11.2064 113.9 15.3599C118.042 17.1721 120.354 17.6967 122.169 18.1084C125.555 18.8764 127.21 19.2519 135.78 26.8564C140.379 30.9371 143.281 34.226 145.68 36.9441C150.147 42.0072 152.868 45.0905 161.555 47.6242C174.905 51.5182 201.051 55.5976 205.872 54.1141L205.909 54.1027C207.794 53.5227 208.846 53.199 208.851 52.861C208.856 52.4341 207.192 51.9844 203.426 50.9668L203.425 50.9663L203.419 50.9647C202.605 50.7448 201.694 50.4985 200.68 50.2202C198.117 49.5168 195.106 48.7862 191.936 48.0173C183.408 45.9484 173.738 43.6023 168.601 40.7634C161.555 36.8694 151.727 29.8232 144.681 23.8896C142.682 22.2063 140.892 20.6574 139.247 19.2342L139.247 19.234C135.095 15.6406 131.869 12.8494 128.549 10.7243C124.84 8.3508 117.979 2.07105 115.013 -0.772149H94.0591ZM316.072 7.75554C313.343 3.91492 310.555 0.428047 309.502 -0.835314L329.11 -3.11169C332.302 -0.108191 339.689 7.15742 343.699 12.1919C345.86 14.9051 347.035 16.7144 348.062 18.296L348.062 18.2962C349.417 20.3829 350.515 22.0735 353.281 24.921C358.144 29.9268 362.435 36.0768 368.013 45.2303C372.475 52.5532 375.504 59.9141 376.46 62.6792C377.429 75.45 378.785 98.7933 376.46 90.0003C374.114 81.123 368.223 72.7401 363.381 65.8502L363.381 65.8494L363.378 65.8451L363.375 65.8418C362.225 64.2042 361.133 62.6511 360.163 61.1957C358.575 58.8136 356.401 55.4709 353.997 51.7753C348.751 43.7106 342.411 33.9651 338.686 28.8537C335.697 24.7522 330.183 20.23 325.26 16.1921C321.236 12.8916 317.606 9.91469 316.072 7.75554ZM229.571 265.862C232.236 267.165 238.669 270.02 243.076 271.016C248.585 272.259 262.09 271.726 269.02 267.284C275.951 262.841 288.212 257.155 293.365 255.2C294.797 254.657 296.709 253.963 298.826 253.194C304.331 251.197 311.225 248.694 314.69 247.026C316.456 246.175 318.487 245.135 320.391 244.159L320.391 244.159C323.658 242.485 326.55 241.004 327.088 241.004C327.103 241.004 327.119 241.004 327.137 241.003C327.165 241.003 327.195 241.002 327.228 241L327.323 240.996C328.466 240.948 331.269 240.829 321.809 246.453C311.591 252.527 296.378 258.6 287.069 262.233L286.048 262.631L285.934 262.676C277.191 266.084 270.612 268.648 266.891 272.442C265.495 273.865 264.306 275.997 262.981 278.373C260.62 282.605 257.827 287.613 252.661 290.781C245.892 294.932 245.613 294.943 241.222 295.113L241.22 295.113C240.379 295.146 239.388 295.184 238.171 295.259C234.514 295.482 231.649 294.805 228.655 294.097C225.45 293.339 222.097 292.546 217.462 292.786C210.291 293.157 202.832 292.94 199.999 292.786C202.059 287.363 207.695 275.702 213.753 272.442C219.811 269.183 226.822 266.697 229.571 265.862ZM351.595 147.645C348.592 139.825 341.571 123.834 338.436 116.815C340.691 120.273 345.524 127.189 346.813 127.189C347.996 127.189 356.952 144.486 364.267 158.613C366.918 163.733 369.354 168.436 371.126 171.749C377.785 184.2 373.991 207.246 371.373 223.144V223.144L371.372 223.151C369.278 235.869 357.833 254.818 352.372 262.702C352.566 262.217 353.206 260.492 354.214 257.467C354.872 255.494 355.794 253.335 356.801 250.978L356.801 250.977L356.802 250.975C357.724 248.817 358.716 246.493 359.643 243.993C361.207 239.768 362.596 234.462 364.359 227.729L364.36 227.724L364.364 227.708C364.784 226.105 365.225 224.422 365.694 222.653C368.138 213.442 368.514 198.966 365.694 188.063C362.874 177.16 355.348 157.421 351.595 147.645ZM375.727 226.391C373.18 233.733 366.84 250.099 361.848 256.821C355.609 265.225 345.041 279.231 340.33 282.541C336.561 285.19 330.866 289.138 328.489 290.781C333.115 289.363 343.641 285.12 348.734 279.485C355.1 272.442 374.708 249.244 376.491 243.993C377.917 239.791 376.576 230.507 375.727 226.391ZM351.662 297.184C356.628 292.855 363.631 282.541 371.143 271.082C375.983 263.7 377.074 260.941 376.983 260.213C377.724 262.511 378.651 268.429 376.745 274.931C374.855 281.381 367.533 294.193 362.824 302.432L362.824 302.433C361.471 304.801 360.334 306.79 359.603 308.143C356.331 314.204 347.421 324.628 342.391 328.446C337.361 332.265 327.785 336.446 318.573 337.901C311.734 338.981 306.732 342.633 303.642 344.889C302.569 345.672 301.727 346.287 301.118 346.568C300.111 347.033 299.247 347.101 298.352 347.172C297.147 347.268 295.887 347.368 294.148 348.447C291.118 350.325 284.451 353.598 280.633 352.022C276.815 350.447 270.815 349.901 266.997 350.143C263.178 350.386 257.603 350.143 261.845 347.174C263.473 346.034 264.521 344.591 265.578 343.136C267.275 340.799 268.995 338.429 273.179 337.234C277.963 335.867 278.442 335.343 279.624 334.049C280.118 333.508 280.736 332.831 281.845 331.901C282.547 331.312 283.063 330.84 283.491 330.447L283.493 330.446L283.493 330.446C285.359 328.737 285.58 328.535 292.33 326.81C297.799 325.413 303.584 324.436 309.442 323.447L309.443 323.447L309.445 323.447L309.447 323.446L309.448 323.446L309.461 323.444C312.49 322.933 315.539 322.418 318.573 321.84C326.548 320.321 332.046 315.257 334.502 312.995C334.79 312.73 335.036 312.503 335.24 312.325C335.974 311.683 337.795 309.976 340.043 307.869L340.044 307.869L340.05 307.863L340.052 307.861L340.055 307.858C343.744 304.402 348.58 299.871 351.662 297.184ZM376.935 260.069C376.951 260.115 376.967 260.163 376.983 260.213C376.975 260.151 376.958 260.103 376.935 260.069ZM375.718 301.877C374.173 306.126 370.24 315.741 366.869 320.207C362.655 325.791 349.543 342.121 342.391 344.647C340.597 345.281 338.93 345.824 337.432 346.313L337.431 346.313L337.431 346.313L337.43 346.313L337.43 346.313C332.958 347.771 329.997 348.736 329.682 350.143C329.26 352.022 336.336 351.84 340.33 350.143C344.325 348.447 360.548 336.483 365.499 329.162C369.46 323.305 375.437 313.518 377.93 309.357L375.718 301.877ZM357.204 350.143C364.217 344.799 368.789 335.388 370.199 331.35C368.377 337.049 364.155 349.709 361.845 354.761C358.957 361.076 349.469 367.447 346.169 368.684C342.869 369.922 338.64 372.191 336.062 374.872C333.484 377.553 318.014 376.935 313.064 374.872C310.491 373.8 308.81 373.787 307.354 373.775C306.009 373.764 304.856 373.755 303.369 372.912C300.275 371.159 300.585 370.644 307.185 369.612C311.633 368.917 314.067 367.848 317.138 366.498C318.625 365.845 320.26 365.126 322.346 364.353C323.555 363.904 324.447 363.566 325.16 363.296L325.163 363.295L325.171 363.292C326.116 362.934 326.744 362.696 327.379 362.478C328.632 362.048 329.911 361.695 333.705 360.65L333.708 360.649C334.178 360.52 334.687 360.38 335.24 360.227C335.699 360.101 336.146 359.978 336.582 359.858C344.659 357.642 348.887 356.482 357.204 350.143ZM203.502 369.778C203.37 371.132 202.967 376.494 202.413 387.111C202.145 392.244 202.262 396.28 202.363 399.77C202.523 405.305 202.644 409.467 201.125 414.448C200.843 415.372 200.599 416.177 200.383 416.889C199.604 419.451 199.194 420.799 198.744 422.134C198.245 423.614 197.696 425.077 196.539 428.164L196.538 428.165L196.371 428.611C193.697 435.743 189.042 444.657 187.061 448.024C185.476 450.718 184.287 455.552 183.891 457.632L191.617 397.61L203.502 369.778ZM201.719 438.615C193.875 445.112 189.867 456.509 188.844 461.396L199.741 466.68C200.025 466.113 200.957 463.743 202.413 458.805C203.619 454.715 206.867 451.746 209.633 449.218C211.041 447.93 212.325 446.758 213.15 445.609C214.537 443.68 214.967 442.434 215.583 440.652C216.054 439.289 216.633 437.611 217.833 435.073C220.6 429.22 226.24 422.966 230.072 419.003C233.136 415.833 234.967 415.199 235.499 415.278L304.461 409.744L337.452 397.186C342.135 391.865 348.818 382.287 338.09 386.544C325 391.739 321.037 390.747 310.163 388.023L309.356 387.821C306.403 387.083 303.828 386.302 301.377 385.559L301.377 385.559L301.376 385.559C294.29 383.41 288.232 381.573 277.004 381.968C264.954 382.392 260.753 385.862 256.524 389.354L256.523 389.355C255.449 390.242 254.373 391.131 253.165 391.972C249.461 394.552 245.562 398.974 242.475 402.474L242.475 402.474C240.597 404.604 239.019 406.393 237.97 407.218C237.047 407.943 235.08 409.591 232.706 411.58C227.951 415.565 221.563 420.918 218.656 422.966C216.65 424.38 214.979 426.087 212.804 428.311C210.254 430.917 207.01 434.233 201.719 438.615ZM218.601 402.064C218.477 398.631 219.351 390.211 223.845 383.993C225.251 382.049 226.907 379.929 228.631 377.721C233.795 371.108 239.572 363.712 241.073 357.898C243.076 350.143 247.252 337.594 257.124 326.81C258.434 325.379 259.771 323.897 261.124 322.396C269.974 312.581 279.549 301.961 287.069 299.742C294.006 297.695 313.119 292.915 321.809 290.781L343.141 273.832C344.857 271.122 348.522 264.778 349.458 261.082C350.628 256.461 351.213 253.77 349.458 253.829C348.054 253.876 343.102 258.683 340.802 261.082C334.377 266.198 321.098 277.041 319.377 279.485C317.226 282.541 311.224 287.666 306.355 288.799C303.924 289.364 299.972 289.535 295.545 289.725C291.104 289.917 286.185 290.129 281.845 290.781C274.912 291.822 261.099 298.273 255.059 301.368C252.908 301.443 248.129 302.523 246.227 306.237C244.325 309.951 238.942 319.033 236.489 323.109L221.315 337.901L217.833 352.022L209.539 361.836L207.161 395.127L218.601 402.064ZM144.618 114.898C139.655 108.368 129.259 94.4463 127.379 90.9985C127.038 90.3745 126.505 89.4547 125.849 88.3231C121.973 81.6395 113.811 67.5653 115.821 63.377C117.226 60.4498 117.511 60.6718 119.856 62.4953C121.434 63.7228 123.945 65.6759 128.359 67.8826C133.39 70.3983 138.998 73.0376 144.427 75.5926C150.836 78.6086 156.995 81.507 161.661 83.9463C170.281 88.4519 203.387 105.299 216.317 108.825C221.58 110.261 228.531 111.404 235.875 112.612C246.573 114.371 258.104 116.268 266.466 119.404C280.571 124.693 291.152 130.656 299.583 137.988C308.014 145.319 320.477 157.233 324.143 164.198C327.076 169.769 205.682 133.653 144.618 114.898Z" fill="#FFC1A1"/>
<path fill-rule="evenodd" clip-rule="evenodd" d="M119.52 -3.4721C123.611 0.800978 133.403 10.6836 139.84 16.0294C147.886 22.7116 162.478 33.2123 174.069 38.6673C185.661 44.1222 208.708 48.6225 222.209 49.8499C223.024 49.9239 223.808 49.992 224.564 50.0578C236.353 51.082 241.628 51.5403 255.212 65.1237C260.554 70.4661 265.077 75.2683 269.331 79.7851C276.587 87.4899 283.062 94.364 291.487 101.672C295.76 105.378 298.876 107.871 301.334 109.838C306.564 114.023 308.816 115.825 312.898 121.855C314.917 124.838 316.488 127.667 318.069 130.512C321.186 136.123 324.34 141.799 331.035 148.857C334.72 152.74 338.495 155.97 341.963 158.936C347.994 164.094 353.095 168.458 355.173 174.086C358.446 182.95 362.947 200.133 362.81 205.997C362.785 207.078 362.789 208.08 362.793 209.03C362.81 213.233 362.823 216.404 360.282 220.759C360.074 221.117 359.861 221.486 359.641 221.868C356.576 227.186 352.257 234.678 342.709 239.556C341.87 239.985 341.011 240.421 340.138 240.865C330.356 245.839 318.757 251.736 313.346 257.352C313.045 257.664 312.758 257.961 312.484 258.245C307.376 263.528 306.729 264.198 307.784 269.476C308.398 272.544 309.723 273.31 311.105 274.109C312.228 274.758 313.388 275.428 314.235 277.373C316.126 281.71 315.459 284.046 311.01 286.048C306.592 288.036 299.214 288.379 294.428 288.601L294.326 288.606C289.544 288.829 278.755 289.718 272.526 291.164C270.093 291.729 267.982 291.938 265.922 292.141C262.709 292.458 259.619 292.763 255.62 294.39C249.632 296.826 248.09 299.169 245.161 303.617C244.88 304.043 244.587 304.489 244.275 304.956C243.164 306.623 242.79 307.834 242.389 309.135C241.504 312.001 240.484 315.302 231.151 324.865C220.295 335.988 218.768 338.842 219.361 338.88C219.324 340.251 218.894 343.684 217.47 346.443C216.717 347.902 215.785 349.062 214.808 350.278C213.477 351.935 212.063 353.694 210.908 356.453C210.576 357.247 210.265 357.962 209.97 358.64C208.487 362.045 207.406 364.53 206.014 371.579C205.842 372.45 205.68 373.253 205.528 374.002C204.207 380.53 203.693 383.066 204.791 392.045C205.22 395.557 205.636 397.974 205.97 399.92C206.589 403.52 206.931 405.509 206.57 409.841C206.064 415.916 201.779 424.387 199.252 429.382C199.003 429.874 198.772 430.332 198.562 430.751C197.569 432.736 196.135 435.405 194.668 438.134C192.683 441.824 190.64 445.624 189.553 447.99C187.662 452.106 185.883 457.111 185.327 461.337C184.882 464.719 186.847 463.488 187.885 462.45C187.291 462.375 186.795 460.803 189.553 455.109C193.001 447.99 197.228 441.095 201.899 435.533C206.57 429.972 215.691 419.962 224.144 414.178C224.51 413.928 224.884 413.673 225.264 413.413C233.648 407.691 245.034 399.919 247.056 392.045C247.23 391.365 247.408 390.681 247.586 389.993C249.569 382.353 251.663 374.283 250.949 367.242C250.853 366.295 250.758 365.429 250.671 364.631C250.053 358.959 249.805 356.683 251.95 352.783C253.161 350.58 255.49 348.95 257.83 347.312C260.217 345.642 262.615 343.963 263.851 341.66C266.298 337.1 271.414 333.874 274.64 333.318C275.938 333.094 276.335 332.492 276.934 331.584C277.823 330.236 279.156 328.214 284.539 325.755C290.794 322.898 299.086 321.971 305.098 321.299C307.745 321.003 309.95 320.756 311.344 320.416L311.399 320.403C315.946 319.294 321.071 318.044 333.588 309.071C346.157 300.062 361.394 280.487 363.396 277.373C364.998 274.881 373.926 259.503 378.189 252.125L377.299 249.678H375.742C375.112 251.754 372.294 258.153 366.066 267.14C365.041 268.618 364.115 270.015 363.228 271.354C357.37 280.191 353.196 286.487 333.588 296.726C321.023 303.287 314.417 305.301 308.326 307.158C303.472 308.638 298.946 310.018 291.991 313.52C285.873 316.601 281.494 318.293 278.046 319.625C272.654 321.709 269.536 322.914 265.606 327.172C262.377 330.669 261.575 333.035 260.795 335.335C260.018 337.626 259.263 339.852 256.154 343.068C249.925 349.512 247.056 352.734 247.056 358.212C247.056 359.803 247.262 361.312 247.472 362.855C247.986 366.627 248.528 370.602 246.166 376.47C245.64 377.776 245.208 378.864 244.844 379.782C242.902 384.677 242.893 384.701 240.903 386.781C239.834 387.899 238.808 388.291 237.469 388.803C235.848 389.423 233.767 390.219 230.592 392.688C228.635 394.211 227.155 395.635 225.879 396.862C223.375 399.273 221.659 400.924 218.67 401.066C214.159 401.281 212.061 394.837 210.908 389.144C209.756 383.452 208.896 370.241 211.904 364.226C213.691 360.652 216.541 357.837 218.897 355.51C220.506 353.92 221.884 352.558 222.537 351.338C223.628 349.296 223.237 346.413 222.874 343.73C222.702 342.461 222.537 341.237 222.537 340.168C222.537 336.838 224.47 335.227 232.31 332.112C239.074 329.426 241.905 320.728 243.562 315.638C243.826 314.828 244.06 314.109 244.275 313.52C245.843 309.235 249.961 305.51 256.906 304.956C263.851 304.402 274.735 299.676 278.28 296.669C281.824 293.662 285.476 291.164 296.001 291.164C306.527 291.164 313.723 290.439 317.482 284.854C319.539 281.798 322.272 280.573 325.662 279.053C328.467 277.795 331.723 276.336 335.419 273.47C343.581 267.14 347.555 260.353 348.2 257.352C348.844 254.352 349.274 249.411 343.474 254.352C337.674 259.292 329.511 264.34 323.819 263.696C318.127 263.051 318.664 261.818 325.323 255.748C331.982 249.678 341.111 242.967 345.407 240.819C349.703 238.671 359.555 230.666 362.81 220.759C366.066 210.853 365.599 199.79 361.088 184.002C356.577 168.213 351.637 162.222 345.407 155.54C343.696 153.703 342.073 152.13 340.497 150.602C336.339 146.57 332.507 142.855 328.223 135.455C326.404 132.314 324.88 129.32 323.427 126.464C320.158 120.042 317.241 114.31 312.112 109.141C308.753 105.756 303.696 101.667 298.49 97.4573C292.208 92.3783 285.71 87.124 281.716 82.7194C279.49 80.2633 276.764 77.0783 273.849 73.6728C267.204 65.9092 259.578 56.9998 254.651 52.9684C253.386 51.9334 252.124 50.8575 250.85 49.7704C244.981 44.7652 238.837 39.524 230.807 36.9651C226.666 35.6454 223.508 35.3669 220.206 35.0757C215.715 34.6796 210.957 34.2601 203.096 31.1653C189.456 25.795 179.467 19.673 171.412 11.5103C164.968 4.98008 156.913 -6.17566 153.69 -10.9373L119.52 -3.4721ZM280.489 20.2633C268.239 8.38532 262.24 0.320809 260.771 -2.22669C263.428 -6.77149 269.456 -13.8054 272.308 -5.58279C274.885 1.84515 278.996 6.42475 284.403 12.4484C286.478 14.7599 288.744 17.284 291.187 20.2633C297.689 28.1921 302.591 31.8249 307.833 35.7096C309.694 37.0886 311.598 38.4993 313.631 40.1452C314.611 40.9385 315.618 41.7422 316.646 42.5625C323.756 48.2385 331.865 54.711 339.012 64.058C347.193 74.7558 352.128 82.0975 362.506 100.347C370.808 114.946 375.253 127.406 376.438 131.811V148.172C375.43 143.837 371.651 130.972 364.603 114.191C357.774 97.9312 350.441 86.9651 344.753 78.4593L344.753 78.4592L344.753 78.4591L344.753 78.4589L344.753 78.4587L344.751 78.4559C343.102 75.99 341.591 73.7308 340.271 71.6094C334.398 62.1702 322.651 50.6333 309.436 43.2916C297.182 36.4839 295.93 35.2673 283.604 23.2882C282.637 22.3487 281.603 21.3431 280.489 20.2633ZM337.686 -0.677467C339.812 1.32835 345.364 7.09708 350.563 14.1255C355.762 21.1539 371.905 45.2959 379.327 56.4884L376.438 33.8628C374.914 31.0948 370.878 24.4996 366.931 20.2633C365.75 18.9967 364.749 17.8679 363.799 16.796L363.799 16.7959C360.775 13.3865 358.262 10.5539 352.128 5.70107C345.677 0.598241 339.812 -0.677467 337.686 -0.677467ZM247.157 271.602C241.944 271.305 232.449 267.506 228.353 265.645L240.641 250.564C243.557 254.102 252.072 261.363 262.796 262.107C271.89 262.739 277.128 259.772 282.87 256.519C285.591 254.977 288.427 253.371 291.839 252.054C302.452 247.958 330.192 237.718 330.192 239.394C330.192 240.541 325.04 242.649 319.88 244.761L319.879 244.761C317.504 245.733 315.127 246.705 313.25 247.585C311.118 248.584 306.366 250.513 300.688 252.817C290.496 256.952 277.325 262.297 270.988 265.645C261.12 270.858 253.673 271.975 247.157 271.602ZM365.855 307.471C369.785 301.026 374.698 289.72 376.663 284.873L378.431 289.393C373.715 298.301 363.262 317.65 359.174 323.781C354.065 331.444 343.847 337.929 339.328 340.09C334.808 342.252 321.053 343.824 322.232 341.269C322.897 339.828 326.939 338.7 332.135 337.249L332.136 337.249C336.151 336.128 340.855 334.815 345.223 333.016C353.372 329.661 358.662 320.199 362.996 312.449C363.992 310.668 364.937 308.977 365.855 307.471ZM233.679 -5.58279C234.457 -5.35485 238.163 -1.58251 246.758 11.6834C249.832 16.428 251.739 19.5793 253.126 21.8702L253.126 21.8704C256.586 27.5861 256.805 27.9468 263.807 34.3383C266.343 36.6526 268.301 38.8122 270.162 40.8643C275.5 46.7512 280.037 51.7544 295.104 56.9931C314.682 63.8002 321.478 69.7304 326.528 74.1366C326.719 74.3034 326.908 74.4681 327.095 74.6305C332.215 79.0827 345.237 91.2151 353.14 106.687C354.023 108.414 354.854 110.026 355.639 111.551L355.641 111.554C361.893 123.683 365.287 130.269 368.946 145.199C372.24 158.644 375.313 170.539 376.438 174.806L375.847 210.646C375.587 212.539 374.377 218.327 371.617 226.341C371.035 228.029 370.457 229.791 369.864 231.597C366.939 240.501 363.664 250.474 357.926 258.063L357.607 258.485C350.809 267.477 343.893 276.625 336.222 282.105C333.926 283.745 332.036 285.22 330.404 286.494C326.497 289.545 324.067 291.442 321.084 291.677L320.897 291.692H320.897C319.827 291.777 319.26 291.822 319.208 291.679C319.15 291.519 319.741 291.122 320.995 290.279C322.749 289.1 325.802 287.048 330.192 283.552C340.674 275.204 356.813 256.171 359.039 250.828C359.398 249.968 359.903 248.785 360.504 247.379L360.504 247.378C363.637 240.046 369.365 226.637 370.393 221.22C371.617 214.765 372.619 204.191 370.393 192.949C368.166 181.707 361.599 159.112 356.702 150.541C354.186 146.139 352.023 142.177 349.549 137.645C347.206 133.354 344.584 128.552 341.119 122.381C337.823 116.509 334.097 110.638 331.002 105.759L331.002 105.758L331.001 105.758L331.001 105.758C327.407 100.093 324.662 95.7668 324.423 94.3317C323.978 91.6603 324.757 90.3247 330.656 96.2239C335.83 101.398 339.891 110.082 342.538 115.743L342.538 115.743L342.538 115.744L342.539 115.745L342.539 115.746C342.91 116.539 343.253 117.272 343.568 117.929C346.128 123.271 348.354 125.72 349.356 124.05C350.357 122.381 348.465 114.255 346.017 110.248C345.407 109.251 344.625 107.533 343.658 105.41L343.657 105.409L343.657 105.409C340.74 99.0036 336.139 88.9014 329.505 83.6889C320.671 76.748 310.733 70.7536 296.694 65.3902C293.281 64.0865 290.129 62.9133 287.164 61.8094C277.929 58.3718 270.501 55.6064 262.62 51.6661C254.964 47.8381 249.952 44.2661 246.268 41.6399C244.942 40.6947 243.787 39.872 242.744 39.204C241.385 38.3346 240.438 37.1656 239.291 35.7487C237.107 33.0525 234.197 29.4585 226.338 25.3222C224.756 24.4895 223.336 23.7448 222.048 23.0694L222.045 23.068L222.042 23.0663C213.577 18.6264 210.833 17.1874 205.357 13.4911C200.309 10.0838 192.106 0.187721 188.636 -4.33438L233.679 -5.58279Z" fill="#FFDCCA"/>
</g>
</g>
<defs>
<clipPath id="clip0_634_11531">
<rect width="375" height="460" fill="white" transform="translate(0.5)"/>
</clipPath>
</defs>
</svg>
