<svg width="376" height="460" viewBox="0 0 376 460" fill="none" xmlns="http://www.w3.org/2000/svg">
<g clip-path="url(#clip0_634_11544)">
<path d="M6.64551 33.8791C4.69357 30.756 -0.0235934 28.9992 -2.13818 28.5112V-7.94971L377.201 -3.34649V313.165C373.199 323.497 364.166 346.415 360.049 355.432C354.968 366.562 347.512 375.941 339.96 385.441L339.675 385.801C332.025 395.424 319.194 401.223 311.297 402.334C303.401 403.444 288.472 400.483 279.959 398.879C271.446 397.275 266.881 402.827 261.699 402.334C256.517 401.84 249.485 400.36 244.55 403.691C239.615 407.022 238.381 408.379 234.433 415.659C230.485 422.938 228.51 437.373 225.92 449.588C223.847 459.359 223.787 459.016 223.417 459.525H185.023C185.396 456.678 185.898 453.149 187.968 446.593C190.556 438.398 192.799 428.477 195.732 419.764C198.665 411.052 201.081 390.693 201.34 384.654C201.598 378.616 202.202 370.334 207.81 361.535C213.417 352.736 219.801 337.553 217.989 332.981C216.177 328.409 214.366 330.652 210.829 325.217C207.292 319.782 207.551 317.971 206.171 311.932C204.79 305.893 209.017 303.219 208.845 299.768C208.672 296.318 206.343 295.628 206.171 293.557C205.998 291.487 206.084 287.605 210.311 282.947C214.538 278.288 218.015 276.166 234.198 264.607C250.382 253.047 239.889 248.779 262.297 245.044C284.705 241.309 284.883 250.557 309.781 244.155C334.678 237.753 335.68 231.525 341.265 222.762C346.849 213.998 346.162 203.259 347.021 193.55C347.88 183.841 344.452 180.533 338.554 172.509C332.657 164.484 325.793 161.584 313.224 158.007C300.656 154.43 300.68 155.046 287.973 147.821C275.266 140.595 269.535 139.765 260.483 137.771C251.43 135.778 251.098 137.938 243.291 135.612C235.484 133.287 228.258 129.134 221.614 123.902C214.97 118.669 204.459 112.581 194.1 109.818C183.742 107.056 178.677 113.386 173.153 115.573C167.628 117.76 149.432 116.125 136.74 111.189C124.047 106.253 111.708 96.1462 96.7827 82.8664C81.8576 69.5866 65.0522 61.5952 58.001 58.5397C50.9498 55.4842 31.2888 47.7868 27.3849 47.2988C23.481 46.8108 9.08543 37.7831 6.64551 33.8791Z" fill="#594032"/>
<mask id="mask0_634_11544" style="mask-type:alpha" maskUnits="userSpaceOnUse" x="-3" y="-8" width="381" height="468">
<path d="M6.64551 33.8791C4.69357 30.756 -0.0235934 28.9992 -2.13818 28.5112V-7.94971L377.201 -3.34649V313.165C373.199 323.497 364.166 346.415 360.049 355.432C354.968 366.562 347.512 375.941 339.96 385.441L339.675 385.801C332.025 395.424 319.194 401.223 311.297 402.334C303.401 403.444 288.472 400.483 279.959 398.879C271.446 397.275 266.881 402.827 261.699 402.334C256.517 401.84 249.485 400.36 244.55 403.691C239.615 407.022 238.381 408.379 234.433 415.659C230.485 422.938 228.51 437.373 225.92 449.588C223.847 459.359 223.787 459.016 223.417 459.525H185.023C185.396 456.678 185.898 453.149 187.968 446.593C190.556 438.398 192.799 428.477 195.732 419.764C198.665 411.052 201.081 390.693 201.34 384.654C201.598 378.616 202.202 370.334 207.81 361.535C213.417 352.736 219.801 337.553 217.989 332.981C216.177 328.409 214.366 330.652 210.829 325.217C207.292 319.782 207.551 317.971 206.171 311.932C204.79 305.893 209.017 303.219 208.845 299.768C208.672 296.318 206.343 295.628 206.171 293.557C205.998 291.487 206.084 287.605 210.311 282.947C214.538 278.288 218.015 276.166 234.198 264.607C250.382 253.047 239.889 248.779 262.297 245.044C284.705 241.309 284.883 250.557 309.781 244.155C334.678 237.753 335.68 231.525 341.265 222.762C346.849 213.998 346.162 203.259 347.021 193.55C347.88 183.841 344.452 180.533 338.554 172.509C332.657 164.484 325.793 161.584 313.224 158.007C300.656 154.43 300.68 155.046 287.973 147.821C275.266 140.595 269.535 139.765 260.483 137.771C251.43 135.778 251.098 137.938 243.291 135.612C235.484 133.287 228.258 129.134 221.614 123.902C214.97 118.669 204.459 112.581 194.1 109.818C183.742 107.056 178.677 113.386 173.153 115.573C167.628 117.76 149.432 116.125 136.74 111.189C124.047 106.253 111.708 96.1462 96.7827 82.8664C81.8576 69.5866 65.0522 61.5952 58.001 58.5397C50.9498 55.4842 31.2888 47.7868 27.3849 47.2988C23.481 46.8108 9.08543 37.7831 6.64551 33.8791Z" fill="#583B30"/>
</mask>
<g mask="url(#mask0_634_11544)">
<path fill-rule="evenodd" clip-rule="evenodd" d="M238.225 -1.07053C239.647 0.955516 243.734 6.99915 248.7 14.9654C254.907 24.9232 263.054 33.8463 272.624 41.347C279.756 46.9368 285.667 49.1509 293.14 51.9503L293.14 51.9503L293.141 51.9506L293.142 51.9508C295.696 52.9076 298.433 53.9327 301.463 55.1844C313.361 60.0986 325.646 69.0219 333.535 76.5225C340.208 82.8672 342.994 87.1762 345.73 91.4063C346.228 92.177 346.725 92.945 347.243 93.7223C349.933 97.7571 356.295 112.043 359.141 118.681L373.107 166.66C373.064 160.194 372.693 146.201 371.555 141.959C370.133 136.657 362.244 109.37 355.778 99.6711C354.238 97.3605 352.741 94.9398 351.219 92.4772C346.351 84.6027 341.219 76.2997 333.535 69.7978C323.448 61.2625 302.11 47.5544 292.798 44.0627C283.487 40.5711 275.34 37.2086 268.357 26.087C265.136 20.9582 262.713 16.1868 260.53 11.8871L260.53 11.887L260.53 11.8869C257.979 6.86309 255.755 2.48324 252.967 -1.07056C248.829 -6.34689 241.415 -3.26901 238.225 -1.07053ZM94.4888 -0.772149C97.1466 2.87456 104.836 11.2064 114.33 15.3599C118.472 17.1721 120.784 17.6967 122.599 18.1084C125.984 18.8764 127.64 19.2519 136.21 26.8564C140.809 30.9371 143.711 34.226 146.109 36.9441C150.577 42.0072 153.297 45.0905 161.984 47.6242C175.335 51.5182 201.48 55.5976 206.301 54.1141L206.339 54.1027C208.224 53.5227 209.276 53.199 209.28 52.861C209.286 52.4341 207.622 51.9844 203.856 50.9668L203.854 50.9663L203.848 50.9647C203.035 50.7448 202.123 50.4985 201.109 50.2202C198.547 49.5168 195.535 48.7862 192.366 48.0173C183.838 45.9484 174.168 43.6023 169.031 40.7634C161.984 36.8694 152.157 29.8232 145.111 23.8896C143.112 22.2063 141.322 20.6574 139.677 19.2342L139.677 19.234C135.524 15.6406 132.299 12.8494 128.978 10.7243C125.27 8.3508 118.409 2.07105 115.442 -0.772149H94.4888ZM316.502 7.75554C313.773 3.91492 310.985 0.428047 309.932 -0.835314L329.54 -3.11169C332.732 -0.108191 340.118 7.15742 344.129 12.1919C346.29 14.9051 347.465 16.7144 348.492 18.296L348.492 18.2962C349.847 20.3829 350.945 22.0735 353.711 24.921C358.574 29.9268 362.865 36.0768 368.443 45.2303C372.905 52.5532 375.934 59.9141 376.89 62.6792C377.859 75.45 379.215 98.7933 376.89 90.0003C374.543 81.123 368.653 72.7401 363.811 65.8502L363.81 65.8494L363.807 65.8451L363.805 65.8418C362.654 64.2042 361.563 62.6511 360.593 61.1957C359.005 58.8136 356.83 55.4709 354.426 51.7753C349.18 43.7106 342.841 33.9651 339.116 28.8537C336.126 24.7522 330.613 20.23 325.689 16.1921C321.665 12.8916 318.036 9.91469 316.502 7.75554ZM230 265.862C232.666 267.165 239.099 270.02 243.506 271.016C249.014 272.259 262.52 271.726 269.45 267.284C276.38 262.841 288.642 257.155 293.795 255.2C295.227 254.657 297.139 253.963 299.256 253.194C304.76 251.197 311.654 248.694 315.119 247.026C316.886 246.175 318.917 245.135 320.821 244.159L320.821 244.159C324.088 242.485 326.979 241.004 327.517 241.004C327.533 241.004 327.549 241.004 327.566 241.003C327.595 241.003 327.625 241.002 327.658 241L327.753 240.996C328.896 240.948 331.699 240.829 322.238 246.453C312.021 252.527 296.808 258.6 287.499 262.233L286.478 262.631L286.364 262.676C277.621 266.084 271.042 268.648 267.321 272.442C265.925 273.865 264.736 275.997 263.41 278.373C261.05 282.605 258.256 287.613 253.091 290.781C246.322 294.932 246.043 294.943 241.651 295.113L241.649 295.113C240.809 295.146 239.817 295.184 238.601 295.259C234.944 295.482 232.079 294.805 229.085 294.097C225.88 293.339 222.526 292.546 217.892 292.786C210.721 293.157 203.262 292.94 200.428 292.786C202.489 287.363 208.125 275.702 214.183 272.442C220.241 269.183 227.252 266.697 230 265.862ZM352.024 147.645C349.022 139.825 342 123.834 338.865 116.815C341.121 120.273 345.954 127.189 347.243 127.189C348.425 127.189 357.382 144.486 364.697 158.613C367.348 163.733 369.784 168.436 371.555 171.749C378.215 184.2 374.42 207.246 371.803 223.144V223.144L371.802 223.151C369.708 235.869 358.263 254.818 352.802 262.702C352.996 262.217 353.635 260.492 354.644 257.467C355.302 255.494 356.224 253.335 357.231 250.978L357.231 250.977L357.232 250.975C358.154 248.817 359.146 246.493 360.072 243.993C361.637 239.768 363.026 234.462 364.788 227.729L364.79 227.724L364.794 227.708C365.214 226.105 365.654 224.422 366.124 222.653C368.567 213.442 368.943 198.966 366.124 188.063C363.304 177.16 355.778 157.421 352.024 147.645ZM376.157 226.391C373.61 233.733 367.269 250.099 362.278 256.821C356.039 265.225 345.471 279.231 340.76 282.541C336.991 285.19 331.295 289.138 328.919 290.781C333.545 289.363 344.07 285.12 349.163 279.485C355.53 272.442 375.138 249.244 376.921 243.993C378.347 239.791 377.005 230.507 376.157 226.391ZM352.092 297.184C357.058 292.855 364.061 282.541 371.573 271.082C376.412 263.7 377.503 260.941 377.412 260.213C378.154 262.511 379.081 268.429 377.175 274.931C375.285 281.381 367.963 294.193 363.254 302.432L363.254 302.433C361.901 304.801 360.763 306.79 360.033 308.143C356.76 314.204 347.851 324.628 342.821 328.446C337.79 332.265 328.215 336.446 319.002 337.901C312.163 338.981 307.162 342.633 304.071 344.889C302.999 345.672 302.157 346.287 301.548 346.568C300.541 347.033 299.676 347.101 298.782 347.172C297.577 347.268 296.317 347.368 294.578 348.447C291.548 350.325 284.881 353.598 281.063 352.022C277.245 350.447 271.245 349.901 267.426 350.143C263.608 350.386 258.032 350.143 262.275 347.174C263.903 346.034 264.951 344.591 266.008 343.136C267.705 340.799 269.425 338.429 273.608 337.234C278.393 335.867 278.871 335.343 280.053 334.049C280.548 333.508 281.166 332.831 282.275 331.901C282.977 331.312 283.492 330.84 283.921 330.447L283.922 330.446L283.923 330.446C285.789 328.737 286.01 328.535 292.76 326.81C298.229 325.413 304.014 324.436 309.872 323.447L309.873 323.447L309.875 323.447L309.877 323.446L309.878 323.446L309.891 323.444C312.92 322.933 315.968 322.418 319.002 321.84C326.977 320.321 332.476 315.257 334.932 312.995C335.22 312.73 335.466 312.503 335.669 312.325C336.404 311.683 338.224 309.976 340.473 307.869L340.474 307.869L340.479 307.863L340.482 307.861L340.485 307.858C344.174 304.402 349.01 299.871 352.092 297.184ZM377.364 260.069C377.38 260.115 377.396 260.163 377.412 260.213C377.404 260.151 377.388 260.103 377.364 260.069ZM376.147 301.877C374.602 306.126 370.669 315.741 367.298 320.207C363.084 325.791 349.972 342.121 342.821 344.647C341.027 345.281 339.36 345.824 337.862 346.313L337.861 346.313L337.86 346.313L337.86 346.313L337.86 346.313C333.388 347.771 330.427 348.736 330.111 350.143C329.69 352.022 336.766 351.84 340.76 350.143C344.754 348.447 360.978 336.483 365.929 329.162C369.89 323.305 375.866 313.518 378.36 309.357L376.147 301.877ZM357.634 350.143C364.647 344.799 369.219 335.388 370.628 331.35C368.806 337.049 364.585 349.709 362.275 354.761C359.387 361.076 349.899 367.447 346.599 368.684C343.298 369.922 339.07 372.191 336.492 374.872C333.913 377.553 318.444 376.935 313.493 374.872C310.921 373.8 309.24 373.787 307.784 373.775C306.438 373.764 305.285 373.755 303.799 372.912C300.705 371.159 301.014 370.644 307.615 369.612C312.063 368.917 314.497 367.848 317.568 366.498C319.054 365.845 320.69 365.126 322.775 364.353C323.985 363.904 324.877 363.566 325.589 363.296L325.593 363.295L325.601 363.292C326.546 362.934 327.174 362.696 327.809 362.478C329.062 362.048 330.341 361.695 334.134 360.65L334.137 360.649C334.608 360.52 335.117 360.38 335.669 360.227C336.129 360.101 336.576 359.978 337.012 359.858C345.089 357.642 349.316 356.482 357.634 350.143ZM203.932 369.778C203.8 371.132 203.397 376.494 202.842 387.111C202.574 392.244 202.691 396.28 202.792 399.77C202.953 405.305 203.073 409.467 201.555 414.448C201.273 415.372 201.028 416.177 200.812 416.889C200.034 419.451 199.624 420.799 199.174 422.134C198.675 423.614 198.126 425.077 196.969 428.164L196.968 428.165L196.801 428.611C194.126 435.743 189.471 444.657 187.49 448.024C185.906 450.718 184.717 455.552 184.321 457.632L192.047 397.61L203.932 369.778ZM202.149 438.615C194.305 445.112 190.297 456.509 189.273 461.396L200.171 466.68C200.455 466.113 201.386 463.743 202.842 458.805C204.049 454.715 207.297 451.746 210.063 449.218C211.471 447.93 212.754 446.758 213.58 445.609C214.966 443.68 215.397 442.434 216.012 440.652C216.483 439.289 217.063 437.611 218.263 435.073C221.03 429.22 226.67 422.966 230.501 419.003C233.566 415.833 235.397 415.199 235.929 415.278L304.891 409.744L337.882 397.186C342.564 391.865 349.248 382.287 338.52 386.544C325.429 391.739 321.467 390.747 310.592 388.023L309.786 387.821C306.832 387.083 304.258 386.302 301.807 385.559L301.806 385.559L301.806 385.559C294.72 383.41 288.662 381.573 277.434 381.968C265.383 382.392 261.183 385.862 256.953 389.354L256.953 389.355C255.879 390.242 254.802 391.131 253.595 391.972C249.89 394.552 245.991 398.974 242.905 402.474L242.905 402.474C241.026 404.604 239.449 406.393 238.4 407.218C237.476 407.943 235.51 409.591 233.136 411.58C228.381 415.565 221.993 420.918 219.086 422.966C217.079 424.38 215.409 426.087 213.233 428.311C210.684 430.917 207.44 434.233 202.149 438.615ZM219.031 402.064C218.906 398.631 219.78 390.211 224.275 383.993C225.68 382.049 227.336 379.929 229.06 377.721C234.225 371.108 240.002 363.712 241.503 357.898C243.506 350.143 247.682 337.594 257.554 326.81C258.864 325.379 260.2 323.897 261.554 322.396C270.404 312.581 279.978 301.961 287.499 299.742C294.435 297.695 313.549 292.915 322.238 290.781L343.571 273.832C345.287 271.122 348.952 264.778 349.888 261.082C351.058 256.461 351.643 253.77 349.888 253.829C348.484 253.876 343.532 258.683 341.231 261.082C334.807 266.198 321.528 277.041 319.807 279.485C317.655 282.541 311.654 287.666 306.785 288.799C304.354 289.364 300.401 289.535 295.974 289.725C291.533 289.917 286.615 290.129 282.275 290.781C275.342 291.822 261.529 298.273 255.489 301.368C253.338 301.443 248.559 302.523 246.657 306.237C244.754 309.951 239.372 319.033 236.918 323.109L221.745 337.901L218.263 352.022L209.968 361.836L207.591 395.127L219.031 402.064ZM145.048 114.898C140.085 108.368 129.689 94.4463 127.808 90.9985C127.468 90.3745 126.935 89.4547 126.278 88.3231C122.402 81.6395 114.24 67.5653 116.251 63.377C117.656 60.4498 117.941 60.6718 120.286 62.4953C121.864 63.7228 124.375 65.6759 128.788 67.8826C133.82 70.3983 139.428 73.0376 144.857 75.5926C151.266 78.6086 157.425 81.507 162.091 83.9463C170.71 88.4519 203.817 105.299 216.746 108.825C222.01 110.261 228.961 111.404 236.305 112.612C247.002 114.371 258.533 116.268 266.896 119.404C281.001 124.693 291.581 130.656 300.012 137.988C308.444 145.319 320.907 157.233 324.573 164.198C327.505 169.769 206.111 133.653 145.048 114.898Z" fill="#583322"/>
<path fill-rule="evenodd" clip-rule="evenodd" d="M119.95 -3.4721C124.041 0.800978 133.833 10.6836 140.27 16.0294C148.315 22.7116 162.907 33.2123 174.499 38.6673C186.091 44.1222 209.138 48.6225 222.639 49.8499C223.453 49.9239 224.237 49.992 224.994 50.0578C236.783 51.082 242.058 51.5403 255.641 65.1237C260.984 70.4661 265.507 75.2683 269.76 79.7851C277.017 87.4899 283.491 94.364 291.917 101.672C296.19 105.378 299.306 107.871 301.764 109.838C306.994 114.023 309.245 115.825 313.327 121.855C315.347 124.838 316.918 127.667 318.499 130.512C321.616 136.123 324.769 141.799 331.465 148.857C335.149 152.74 338.924 155.97 342.392 158.936C348.423 164.094 353.525 168.458 355.603 174.086C358.876 182.95 363.376 200.133 363.24 205.997C363.215 207.078 363.219 208.08 363.223 209.03C363.24 213.233 363.252 216.404 360.712 220.759C360.504 221.117 360.29 221.486 360.071 221.868C357.005 227.186 352.687 234.678 343.138 239.556C342.3 239.985 341.441 240.421 340.568 240.865C330.786 245.839 319.187 251.736 313.775 257.352C313.475 257.664 313.188 257.961 312.913 258.245C307.806 263.528 307.159 264.198 308.214 269.476C308.828 272.544 310.153 273.31 311.535 274.109C312.657 274.758 313.818 275.428 314.665 277.373C316.556 281.71 315.889 284.046 311.44 286.048C307.022 288.036 299.644 288.379 294.858 288.601L294.756 288.606C289.973 288.829 279.185 289.718 272.956 291.164C270.523 291.729 268.412 291.938 266.352 292.141C263.139 292.458 260.048 292.763 256.05 294.39C250.062 296.826 248.519 299.169 245.591 303.617C245.31 304.043 245.016 304.489 244.705 304.956C243.594 306.623 243.22 307.834 242.818 309.135C241.933 312.001 240.914 315.302 231.581 324.865C220.725 335.988 219.198 338.842 219.791 338.88C219.754 340.251 219.324 343.684 217.9 346.443C217.147 347.902 216.215 349.062 215.238 350.278C213.906 351.935 212.493 353.694 211.338 356.453C211.005 357.247 210.694 357.962 210.399 358.64C208.917 362.045 207.835 364.53 206.444 371.579C206.272 372.45 206.11 373.253 205.958 374.002C204.636 380.53 204.123 383.066 205.22 392.045C205.65 395.557 206.065 397.974 206.4 399.92C207.019 403.52 207.361 405.509 207 409.841C206.494 415.916 202.208 424.387 199.682 429.382C199.433 429.874 199.201 430.332 198.992 430.751C197.999 432.736 196.564 435.405 195.097 438.134C193.113 441.824 191.07 445.624 189.983 447.99C188.092 452.106 186.312 457.111 185.756 461.337C185.311 464.719 187.276 463.488 188.314 462.45C187.721 462.375 187.224 460.803 189.983 455.109C193.431 447.99 197.657 441.095 202.329 435.533C207 429.972 216.12 419.962 224.573 414.178C224.94 413.928 225.313 413.673 225.693 413.413C234.077 407.691 245.464 399.919 247.486 392.045C247.66 391.365 247.838 390.681 248.016 389.993C249.999 382.353 252.093 374.283 251.378 367.242C251.282 366.295 251.188 365.429 251.101 364.631C250.483 358.959 250.235 356.683 252.38 352.783C253.591 350.58 255.92 348.95 258.259 347.312C260.646 345.642 263.045 343.963 264.28 341.66C266.727 337.1 271.844 333.874 275.069 333.318C276.368 333.094 276.765 332.492 277.364 331.584C278.253 330.236 279.586 328.214 284.968 325.755C291.223 322.898 299.516 321.971 305.528 321.299C308.175 321.003 310.379 320.756 311.773 320.416L311.829 320.403C316.375 319.294 321.501 318.044 334.018 309.071C346.586 300.062 361.824 280.487 363.826 277.373C365.428 274.881 374.355 259.503 378.619 252.125L377.729 249.678H376.172C375.542 251.754 372.724 258.153 366.496 267.14C365.471 268.618 364.545 270.015 363.657 271.354C357.799 280.191 353.626 286.487 334.018 296.726C321.453 303.287 314.847 305.301 308.756 307.158C303.902 308.638 299.375 310.018 292.42 313.52C286.303 316.601 281.924 318.293 278.476 319.625C273.083 321.709 269.966 322.914 266.036 327.172C262.807 330.669 262.005 333.035 261.224 335.335C260.447 337.626 259.692 339.852 256.584 343.068C250.354 349.512 247.486 352.734 247.486 358.212C247.486 359.803 247.691 361.312 247.902 362.855C248.416 366.627 248.958 370.602 246.595 376.47C246.07 377.776 245.638 378.864 245.274 379.782C243.332 384.677 243.322 384.701 241.333 386.781C240.263 387.899 239.238 388.291 237.898 388.803C236.278 389.423 234.197 390.219 231.022 392.688C229.065 394.211 227.584 395.635 226.309 396.862C223.804 399.273 222.089 400.924 219.1 401.066C214.589 401.281 212.49 394.837 211.338 389.144C210.185 383.452 209.326 370.241 212.333 364.226C214.12 360.652 216.97 357.837 219.326 355.51C220.936 353.92 222.314 352.558 222.966 351.338C224.057 349.296 223.667 346.413 223.304 343.73C223.132 342.461 222.966 341.237 222.966 340.168C222.966 336.838 224.9 335.227 232.74 332.112C239.504 329.426 242.335 320.728 243.992 315.638C244.256 314.828 244.49 314.109 244.705 313.52C246.273 309.235 250.391 305.51 257.336 304.956C264.28 304.402 275.165 299.676 278.709 296.669C282.254 293.662 285.905 291.164 296.431 291.164C306.957 291.164 314.153 290.439 317.912 284.854C319.969 281.798 322.701 280.573 326.092 279.053C328.897 277.795 332.152 276.336 335.848 273.47C344.011 267.14 347.985 260.353 348.629 257.352C349.274 254.352 349.704 249.411 343.904 254.352C338.104 259.292 329.941 264.34 324.249 263.696C318.556 263.051 319.093 261.818 325.752 255.748C332.411 249.678 341.541 242.967 345.837 240.819C350.133 238.671 359.984 230.666 363.24 220.759C366.496 210.853 366.029 199.79 361.518 184.002C357.007 168.213 352.066 162.222 345.837 155.54C344.125 153.703 342.503 152.13 340.927 150.602C336.768 146.57 332.936 142.855 328.652 135.455C326.834 132.314 325.31 129.32 323.856 126.464C320.588 120.042 317.671 114.31 312.542 109.141C309.183 105.756 304.126 101.667 298.92 97.4573C292.638 92.3783 286.14 87.124 282.146 82.7194C279.919 80.2633 277.193 77.0783 274.278 73.6728C267.633 65.9092 260.008 56.9998 255.08 52.9684C253.815 51.9334 252.554 50.8575 251.279 49.7704C245.411 44.7652 239.266 39.524 231.236 36.9651C227.095 35.6454 223.937 35.3669 220.635 35.0757C216.144 34.6796 211.387 34.2601 203.526 31.1653C189.886 25.795 179.897 19.673 171.842 11.5103C165.398 4.98008 157.342 -6.17566 154.12 -10.9373L119.95 -3.4721ZM280.919 20.2633C268.669 8.38532 262.669 0.320809 261.201 -2.22669C263.858 -6.77149 269.885 -13.8054 272.738 -5.58279C275.315 1.84515 279.426 6.42475 284.833 12.4484C286.908 14.7599 289.173 17.284 291.617 20.2633C298.118 28.1921 303.021 31.8249 308.263 35.7096C310.124 37.0886 312.028 38.4993 314.061 40.1452C315.041 40.9385 316.048 41.7422 317.076 42.5625C324.186 48.2385 332.294 54.711 339.442 64.058C347.623 74.7558 352.557 82.0975 362.935 100.347C371.238 114.946 375.683 127.406 376.868 131.811V148.172C375.86 143.837 372.081 130.972 365.033 114.191C358.204 97.9312 350.871 86.9651 345.183 78.4593L345.183 78.4592L345.183 78.4591L345.182 78.4589L345.182 78.4587L345.18 78.4559C343.531 75.99 342.021 73.7308 340.701 71.6094C334.827 62.1702 323.081 50.6333 309.866 43.2916C297.612 36.4839 296.36 35.2673 284.034 23.2882C283.067 22.3487 282.032 21.3431 280.919 20.2633ZM338.116 -0.677467C340.242 1.32835 345.794 7.09708 350.993 14.1255C356.192 21.1539 372.335 45.2959 379.756 56.4884L376.868 33.8628C375.344 31.0948 371.308 24.4996 367.36 20.2633C366.18 18.9967 365.179 17.8679 364.228 16.796L364.228 16.7959C361.204 13.3865 358.692 10.5539 352.557 5.70107C346.107 0.598241 340.242 -0.677467 338.116 -0.677467ZM247.586 271.602C242.374 271.305 232.878 267.506 228.783 265.645L241.07 250.564C243.987 254.102 252.502 261.363 263.225 262.107C272.319 262.739 277.557 259.772 283.299 256.519C286.021 254.977 288.856 253.371 292.269 252.054C302.881 247.958 330.622 237.718 330.622 239.394C330.622 240.541 325.47 242.649 320.309 244.761L320.309 244.761C317.934 245.733 315.557 246.705 313.68 247.585C311.548 248.584 306.795 250.513 301.118 252.817C290.926 256.952 277.754 262.297 271.417 265.645C261.55 270.858 254.103 271.975 247.586 271.602ZM366.285 307.471C370.215 301.026 375.128 289.72 377.093 284.873L378.861 289.393C374.145 298.301 363.691 317.65 359.604 323.781C354.495 331.444 344.277 337.929 339.758 340.09C335.238 342.252 321.483 343.824 322.662 341.269C323.327 339.828 327.369 338.7 332.565 337.249L332.565 337.249C336.58 336.128 341.285 334.815 345.653 333.016C353.801 329.661 359.092 320.199 363.426 312.449C364.422 310.668 365.367 308.977 366.285 307.471ZM234.108 -5.58279C234.887 -5.35485 238.593 -1.58251 247.188 11.6834C250.262 16.428 252.169 19.5793 253.556 21.8702L253.556 21.8704C257.016 27.5861 257.235 27.9468 264.237 34.3383C266.773 36.6526 268.731 38.8122 270.592 40.8643C275.93 46.7512 280.466 51.7544 295.533 56.9931C315.111 63.8002 321.908 69.7304 326.957 74.1366C327.149 74.3034 327.337 74.4681 327.524 74.6305C332.644 79.0827 345.667 91.2151 353.57 106.687C354.452 108.414 355.283 110.026 356.069 111.551L356.07 111.554C362.322 123.683 365.717 130.269 369.375 145.199C372.67 158.644 375.743 170.539 376.868 174.806L376.276 210.646C376.016 212.539 374.807 218.327 372.047 226.341C371.465 228.029 370.886 229.791 370.293 231.597C367.369 240.501 364.093 250.474 358.356 258.063L358.037 258.485C351.239 267.477 344.323 276.625 336.651 282.105C334.356 283.745 332.466 285.22 330.834 286.494C326.927 289.545 324.497 291.442 321.514 291.677L321.327 291.692H321.327C320.256 291.777 319.69 291.822 319.638 291.679C319.58 291.519 320.17 291.122 321.425 290.279C323.179 289.1 326.231 287.048 330.622 283.552C341.104 275.204 357.243 256.171 359.469 250.828C359.827 249.968 360.333 248.785 360.934 247.379L360.934 247.378C364.066 240.046 369.795 226.637 370.822 221.22C372.047 214.765 373.048 204.191 370.822 192.949C368.596 181.707 362.029 159.112 357.132 150.541C354.616 146.139 352.453 142.177 349.978 137.645C347.635 133.354 345.013 128.552 341.549 122.381C338.252 116.509 334.527 110.638 331.432 105.759L331.431 105.758L331.431 105.758L331.431 105.758C327.837 100.093 325.092 95.7668 324.853 94.3317C324.408 91.6603 325.187 90.3247 331.086 96.2239C336.26 101.398 340.321 110.082 342.968 115.743L342.968 115.743L342.968 115.744L342.969 115.745L342.969 115.746C343.34 116.539 343.683 117.272 343.997 117.929C346.558 123.271 348.784 125.72 349.785 124.05C350.787 122.381 348.895 114.255 346.446 110.248C345.837 109.251 345.054 107.533 344.087 105.41L344.087 105.409L344.087 105.409C341.17 99.0036 336.569 88.9014 329.935 83.6889C321.101 76.748 311.163 70.7536 297.123 65.3902C293.711 64.0865 290.559 62.9133 287.594 61.8094C278.359 58.3718 270.93 55.6064 263.05 51.6661C255.394 47.8381 250.382 44.2661 246.697 41.6399C245.371 40.6947 244.217 39.872 243.173 39.204C241.815 38.3346 240.868 37.1656 239.721 35.7487C237.537 33.0525 234.627 29.4585 226.768 25.3222C225.186 24.4895 223.766 23.7448 222.478 23.0694L222.475 23.068L222.472 23.0663C214.007 18.6264 211.263 17.1874 205.787 13.4911C200.739 10.0838 192.536 0.187721 189.065 -4.33438L234.108 -5.58279Z" fill="#5A4840"/>
</g>
</g>
<defs>
<clipPath id="clip0_634_11544">
<rect width="375" height="460" fill="white" transform="translate(0.929688)"/>
</clipPath>
</defs>
</svg>
