<svg id="camera" xmlns="http://www.w3.org/2000/svg" width="16.581" height="13.051">
    <defs>
        <style>
            .cls-1{fill:#fff}
        </style>
    </defs>
    <g id="Group_415" data-name="Group 415">
        <g id="Group_414" data-name="Group 414">
            <path id="Path_34" data-name="Path 34" class="cls-1" d="M16.029 46.833a1.783 1.783 0 0 0-1.308-.552H12.1v-.031a1.415 1.415 0 0 0-.426-1.024 1.442 1.442 0 0 0-1.024-.426H5.926a1.453 1.453 0 0 0-1.466 1.45v.032h-2.6a1.783 1.783 0 0 0-1.308.552A1.874 1.874 0 0 0 0 48.141v7.849a1.783 1.783 0 0 0 .552 1.31 1.874 1.874 0 0 0 1.308.552h12.861a1.783 1.783 0 0 0 1.308-.552 1.874 1.874 0 0 0 .552-1.308v-7.851a1.783 1.783 0 0 0-.552-1.308zm-.268 9.157h-.016a1.022 1.022 0 0 1-1.024 1.024H1.86A1.022 1.022 0 0 1 .835 55.99v-7.849a1.022 1.022 0 0 1 1.025-1.024H4.9a.424.424 0 0 0 .426-.426v-.457a.593.593 0 0 1 .615-.615h4.713a.593.593 0 0 1 .615.615v.457a.424.424 0 0 0 .426.426h3.042a1.022 1.022 0 0 1 1.024 1.024z" transform="translate(0 -44.8)"/>
            <path id="Path_35" data-name="Path 35" class="cls-1" d="M115.877 130.8a3.874 3.874 0 1 0 2.742 1.135 3.884 3.884 0 0 0-2.742-1.135zm2.143 6.036a3.044 3.044 0 0 1-4.287 0 3.013 3.013 0 0 1-.883-2.143 3.08 3.08 0 0 1 .883-2.144 3.013 3.013 0 0 1 2.143-.883 3.08 3.08 0 0 1 2.143.883 3.013 3.013 0 0 1 .883 2.144 2.949 2.949 0 0 1-.881 2.143z" transform="translate(-107.587 -127.411)"/>
            <circle id="Ellipse_27" data-name="Ellipse 27" class="cls-1" cx=".772" cy=".772" r=".772" transform="translate(13.129 3.373)"/>
        </g>
    </g>
</svg>
