<svg data-name="Component 61 – 1" xmlns="http://www.w3.org/2000/svg" width="50" height="19" viewBox="0 0 50 19">
    <g data-name="Group 9211">
        <path data-name="Path 28952" d="M7.084-4.194v3.054a4 4 0 0 1-1.224.619 4.8 4.8 0 0 1-1.391.2A4.643 4.643 0 0 1 2.8-.613a3.745 3.745 0 0 1-1.279-.8A3.5 3.5 0 0 1 .7-2.633a4.1 4.1 0 0 1-.287-1.55 4.264 4.264 0 0 1 .276-1.561 3.522 3.522 0 0 1 .786-1.222 3.507 3.507 0 0 1 1.235-.793 4.467 4.467 0 0 1 1.629-.282 4.772 4.772 0 0 1 .859.073 4.347 4.347 0 0 1 .741.2 3.21 3.21 0 0 1 .624.311 3.722 3.722 0 0 1 .517.4l-.4.637a.384.384 0 0 1-.245.185.439.439 0 0 1-.335-.073l-.345-.2a2.223 2.223 0 0 0-.384-.172A3.149 3.149 0 0 0 4.9-6.8a3.5 3.5 0 0 0-.608-.047 2.606 2.606 0 0 0-1.01.188 2.137 2.137 0 0 0-.77.538 2.424 2.424 0 0 0-.491.84 3.293 3.293 0 0 0-.172 1.1 3.365 3.365 0 0 0 .185 1.156 2.432 2.432 0 0 0 .522.861 2.225 2.225 0 0 0 .812.538 2.894 2.894 0 0 0 1.06.185 2.87 2.87 0 0 0 .746-.089 3.67 3.67 0 0 0 .642-.24v-1.369h-.95a.286.286 0 0 1-.211-.076.252.252 0 0 1-.077-.185v-.793zm4.542.491a1.552 1.552 0 0 0-.07-.472 1.123 1.123 0 0 0-.211-.389.983.983 0 0 0-.358-.264 1.227 1.227 0 0 0-.5-.1 1.194 1.194 0 0 0-.88.318 1.562 1.562 0 0 0-.41.9zm-2.459.778a2.537 2.537 0 0 0 .146.713 1.457 1.457 0 0 0 .3.5 1.186 1.186 0 0 0 .446.292 1.622 1.622 0 0 0 .572.1 1.772 1.772 0 0 0 .54-.073 2.533 2.533 0 0 0 .4-.162q.17-.089.3-.162a.5.5 0 0 1 .248-.073.267.267 0 0 1 .24.12l.371.47a2.149 2.149 0 0 1-.48.42 2.693 2.693 0 0 1-.556.271 3.039 3.039 0 0 1-.59.144 4.224 4.224 0 0 1-.582.042A2.861 2.861 0 0 1 9.48-.516a2.325 2.325 0 0 1-.835-.548 2.572 2.572 0 0 1-.559-.9 3.475 3.475 0 0 1-.2-1.24 2.965 2.965 0 0 1 .174-1.029 2.479 2.479 0 0 1 .509-.84 2.4 2.4 0 0 1 .809-.566 2.665 2.665 0 0 1 1.078-.209 2.622 2.622 0 0 1 .934.162 2.036 2.036 0 0 1 .736.472 2.188 2.188 0 0 1 .483.762 2.839 2.839 0 0 1 .175 1.031.837.837 0 0 1-.063.394.259.259 0 0 1-.24.1zm6.316 2.6A1.407 1.407 0 0 1 14.41-.72a1.519 1.519 0 0 1-.373-1.088V-4.8h-.548a.251.251 0 0 1-.177-.068.265.265 0 0 1-.073-.2v-.512l.861-.141.271-1.462a.286.286 0 0 1 .1-.162.3.3 0 0 1 .188-.057h.668v1.686h1.43v.916h-1.43v2.9a.577.577 0 0 0 .123.392.423.423 0 0 0 .337.141.607.607 0 0 0 .2-.029 1.106 1.106 0 0 0 .141-.06q.06-.031.107-.06a.179.179 0 0 1 .094-.029.148.148 0 0 1 .094.029.435.435 0 0 1 .078.086l.386.626a1.952 1.952 0 0 1-.647.355 2.409 2.409 0 0 1-.757.123zm8.478-2.934-.919-2.511q-.068-.167-.141-.4t-.146-.5q-.068.266-.141.5t-.141.4l-.914 2.5zm2.48 2.85h-1.087a.463.463 0 0 1-.3-.091.569.569 0 0 1-.172-.227l-.564-1.54h-3.124L20.63-.728a.5.5 0 0 1-.162.219.452.452 0 0 1-.3.1h-1.1l2.97-7.548h1.43zM28.3-1.8a1.269 1.269 0 0 0 .478.376 1.422 1.422 0 0 0 .561.11 1.232 1.232 0 0 0 .527-.11 1.033 1.033 0 0 0 .4-.334 1.653 1.653 0 0 0 .253-.566 3.236 3.236 0 0 0 .089-.807 3.58 3.58 0 0 0-.076-.8 1.538 1.538 0 0 0-.217-.53.856.856 0 0 0-.342-.3 1.066 1.066 0 0 0-.457-.094 1.3 1.3 0 0 0-.684.17 2.076 2.076 0 0 0-.532.485zm-.068-3.236a2.794 2.794 0 0 1 .746-.6 2.005 2.005 0 0 1 .981-.23 1.756 1.756 0 0 1 .8.183 1.8 1.8 0 0 1 .626.53 2.541 2.541 0 0 1 .407.856 4.308 4.308 0 0 1 .144 1.167 3.669 3.669 0 0 1-.162 1.112 2.721 2.721 0 0 1-.462.887 2.134 2.134 0 0 1-.726.587 2.111 2.111 0 0 1-.953.211 1.92 1.92 0 0 1-.767-.138 1.875 1.875 0 0 1-.566-.382V1.34h-1.291v-7.1h.791a.317.317 0 0 1 .329.235zm6 3.236a1.269 1.269 0 0 0 .478.376 1.422 1.422 0 0 0 .561.11 1.232 1.232 0 0 0 .527-.11 1.033 1.033 0 0 0 .4-.334 1.653 1.653 0 0 0 .253-.566 3.236 3.236 0 0 0 .089-.807 3.58 3.58 0 0 0-.076-.8 1.538 1.538 0 0 0-.217-.53.856.856 0 0 0-.342-.3 1.066 1.066 0 0 0-.457-.094 1.3 1.3 0 0 0-.684.17 2.076 2.076 0 0 0-.532.478zm-.068-3.236a2.794 2.794 0 0 1 .746-.6 2.005 2.005 0 0 1 .981-.23 1.756 1.756 0 0 1 .8.183 1.8 1.8 0 0 1 .626.53 2.541 2.541 0 0 1 .407.856 4.308 4.308 0 0 1 .144 1.167 3.669 3.669 0 0 1-.162 1.112 2.721 2.721 0 0 1-.462.887 2.134 2.134 0 0 1-.726.587 2.111 2.111 0 0 1-.953.211 1.92 1.92 0 0 1-.765-.136 1.875 1.875 0 0 1-.569-.384V1.34h-1.292v-7.1h.788a.317.317 0 0 1 .329.235z" transform="translate(5.859 12.851)" style="fill:#fff"/>
    </g>
    <g data-name="Rectangle 12305" style="stroke:#fff;fill:none">
        <rect width="50" height="19" rx="4" style="stroke:none"/>
        <rect x=".5" y=".5" width="49" height="18" rx="3.5" style="fill:none"/>
    </g>
</svg>
