<svg data-name="Component 11 – 1" xmlns="http://www.w3.org/2000/svg" width="25.161" height="24.578" viewBox="0 0 25.161 24.578">
    <g data-name="Group 9943">
        <g data-name="Group 9941">
            <path data-name="Path 29012" d="M100.911 21.511a1.917 1.917 0 0 1-.495-1.869 1.731 1.731 0 0 0-.165-1.282 1.651 1.651 0 0 0-1.026-.788 1.962 1.962 0 0 1-1.373-1.372 1.694 1.694 0 0 0-2.07-1.191 1.925 1.925 0 0 1-1.869-.513 1.681 1.681 0 0 0-2.382 0 1.938 1.938 0 0 1-1.887.495 1.694 1.694 0 0 0-2.07 1.191 1.962 1.962 0 0 1-1.374 1.372 1.694 1.694 0 0 0-1.191 2.07 1.925 1.925 0 0 1-.513 1.869 1.681 1.681 0 0 0 0 2.382 1.917 1.917 0 0 1 .495 1.869 1.731 1.731 0 0 0 .165 1.282 1.651 1.651 0 0 0 1.026.788 1.962 1.962 0 0 1 1.374 1.374 1.694 1.694 0 0 0 2.07 1.191 1.925 1.925 0 0 1 1.869.513 1.7 1.7 0 0 0 1.191.495 1.663 1.663 0 0 0 1.191-.495 1.917 1.917 0 0 1 1.869-.495 1.694 1.694 0 0 0 2.07-1.191 1.962 1.962 0 0 1 1.374-1.374 1.684 1.684 0 0 0 1.191-2.07 1.959 1.959 0 0 1 .495-1.869 1.649 1.649 0 0 0 .037-2.382z" transform="translate(-84.003 -6.807)" style="fill:#880101"/>
            <g data-name="Group 9940">
                <path data-name="Path 29013" d="M87.894 15.942a1.947 1.947 0 1 0-1.952 1.942 1.945 1.945 0 0 0 1.952-1.942zm-2.682 0a.73.73 0 1 1 .73.73.73.73 0 0 1-.729-.73z" transform="translate(-79.802 -2.611)" style="fill:#fff"/>
                <path data-name="Path 29014" d="M388.342 315.84a1.943 1.943 0 1 0 1.943 1.943 1.945 1.945 0 0 0-1.943-1.943zm0 2.682a.73.73 0 1 1 .73-.73.736.736 0 0 1-.73.73z" transform="translate(-377.085 -299.344)" style="fill:#fff"/>
                <path data-name="Path 29015" d="M125.421 47.916a.612.612 0 0 0-.862 0l-6.642 6.642a.612.612 0 0 0 0 .862.595.595 0 0 0 .853 0l6.642-6.642a.6.6 0 0 0 .01-.862z" transform="translate(-112.97 -35.778)" style="fill:#fff"/>
            </g>
        </g>
        <g data-name="Group 9942">
            <path data-name="Path 29012" d="M100.911 21.511a1.917 1.917 0 0 1-.495-1.869 1.731 1.731 0 0 0-.165-1.282 1.651 1.651 0 0 0-1.026-.788 1.962 1.962 0 0 1-1.373-1.372 1.694 1.694 0 0 0-2.07-1.191 1.925 1.925 0 0 1-1.869-.513 1.681 1.681 0 0 0-2.382 0 1.938 1.938 0 0 1-1.887.495 1.694 1.694 0 0 0-2.07 1.191 1.962 1.962 0 0 1-1.374 1.372 1.694 1.694 0 0 0-1.191 2.07 1.925 1.925 0 0 1-.513 1.869 1.681 1.681 0 0 0 0 2.382 1.917 1.917 0 0 1 .495 1.869 1.731 1.731 0 0 0 .165 1.282 1.651 1.651 0 0 0 1.026.788 1.962 1.962 0 0 1 1.374 1.374 1.694 1.694 0 0 0 2.07 1.191 1.925 1.925 0 0 1 1.869.513 1.7 1.7 0 0 0 1.191.495 1.663 1.663 0 0 0 1.191-.495 1.917 1.917 0 0 1 1.869-.495 1.694 1.694 0 0 0 2.07-1.191 1.962 1.962 0 0 1 1.374-1.374 1.684 1.684 0 0 0 1.191-2.07 1.959 1.959 0 0 1 .495-1.869 1.649 1.649 0 0 0 .037-2.382z" transform="translate(-84.003 -7.807)" style="fill:#f60101"/>
            <g data-name="Group 9940">
                <path data-name="Path 29013" d="M87.894 15.942a1.947 1.947 0 1 0-1.952 1.942 1.945 1.945 0 0 0 1.952-1.942zm-2.682 0a.73.73 0 1 1 .73.73.73.73 0 0 1-.729-.73z" transform="translate(-79.802 -3.611)" style="fill:#fff"/>
                <path data-name="Path 29014" d="M388.342 315.84a1.943 1.943 0 1 0 1.943 1.943 1.945 1.945 0 0 0-1.943-1.943zm0 2.682a.73.73 0 1 1 .73-.73.736.736 0 0 1-.73.73z" transform="translate(-377.085 -300.344)" style="fill:#fff"/>
                <path data-name="Path 29015" d="M125.421 47.916a.612.612 0 0 0-.862 0l-6.642 6.642a.612.612 0 0 0 0 .862.595.595 0 0 0 .853 0l6.642-6.642a.6.6 0 0 0 .01-.862z" transform="translate(-112.97 -36.778)" style="fill:#fff"/>
            </g>
        </g>
    </g>
    <path data-name="Path 29096" d="M0 3.554a5.356 5.356 0 0 0 .655.206 3.049 3.049 0 0 1 2.232 2.414 5.348 5.348 0 0 0 .25.933 5.348 5.348 0 0 0 .25-.933A3.049 3.049 0 0 1 5.618 3.76a5.324 5.324 0 0 0 .655-.206s-.2-.047-.5-.112A3.051 3.051 0 0 1 3.4 1a5.506 5.506 0 0 0-.263-1 5.509 5.509 0 0 0-.262 1A3.053 3.053 0 0 1 .514 3.439 30.83 30.83 0 0 0 0 3.554z" transform="rotate(56 8.645 21.522)" style="fill:#ffba39"/>
    <path data-name="Path 29163" d="M0 2.693a4.054 4.054 0 0 0 .5.156 2.31 2.31 0 0 1 1.687 1.829 4.052 4.052 0 0 0 .189.707 4.052 4.052 0 0 0 .189-.707 2.31 2.31 0 0 1 1.691-1.829 4.03 4.03 0 0 0 .5-.156s-.154-.036-.382-.085A2.311 2.311 0 0 1 2.575.76a4.172 4.172 0 0 0-.2-.76 4.174 4.174 0 0 0-.2.759A2.313 2.313 0 0 1 .389 2.606c-.231.05-.389.087-.389.087z" transform="rotate(98 7.164 16.975)" style="fill:#ffba39"/>
    <path data-name="Path 29164" d="M0 2.815a4.227 4.227 0 0 0 .518.163A2.415 2.415 0 0 1 2.286 4.89a4.234 4.234 0 0 0 .2.739 4.234 4.234 0 0 0 .2-.739 2.415 2.415 0 0 1 1.763-1.912 4.2 4.2 0 0 0 .519-.163s-.161-.037-.4-.088A2.416 2.416 0 0 1 2.692.795 4.361 4.361 0 0 0 2.484 0a4.364 4.364 0 0 0-.207.793 2.418 2.418 0 0 1-1.87 1.931C.165 2.776 0 2.815 0 2.815z" transform="rotate(16 6.311 44.905)" style="fill:#ffba39"/>
</svg>
