<?xml version="1.0" standalone="no"?>
<!DOCTYPE svg PUBLIC "-//W3C//DTD SVG 20010904//EN"
 "http://www.w3.org/TR/2001/REC-SVG-20010904/DTD/svg10.dtd">
<svg version="1.0" xmlns="http://www.w3.org/2000/svg"
 width="600.000000pt" height="600.000000pt" viewBox="0 0 600.000000 600.000000"
 preserveAspectRatio="xMidYMid meet">
<metadata>
Created by potrace 1.11, written by Peter Selinger 2001-2013
</metadata>
<g transform="translate(0.000000,600.000000) scale(0.100000,-0.100000)"
fill="var(--color-black-100)" stroke="none">
<path d="M4080 5837 c-8 -7 -39 -41 -68 -77 -100 -122 -350 -366 -502 -491
-36 -30 -67 -56 -70 -59 -17 -19 -121 -86 -158 -103 -93 -41 -219 -11 -298 70
-51 52 -64 89 -68 190 -3 74 -7 89 -25 104 -27 22 -53 15 -92 -25 -41 -41 -40
-37 -204 -521 -265 -781 -291 -843 -383 -937 -71 -73 -109 -88 -156 -59 -46
29 -87 95 -206 331 -131 260 -197 368 -277 451 -79 82 -133 105 -199 82 -23
-8 -54 -27 -69 -43 -16 -17 -32 -30 -36 -30 -4 0 -46 46 -95 103 -124 145
-327 342 -420 408 -127 91 -197 124 -338 159 -15 3 -26 -24 -26 -69 0 -51 45
-152 89 -198 58 -61 75 -117 75 -248 0 -104 -11 -168 -48 -272 -68 -192 -67
-356 5 -564 39 -116 32 -162 -33 -231 -53 -55 -138 -88 -296 -113 -171 -28
-210 -67 -161 -160 46 -86 119 -167 339 -375 261 -246 397 -384 414 -417 50
-98 16 -197 -88 -258 -75 -44 -156 -52 -431 -42 -74 3 -154 -31 -157 -66 -4
-65 4 -74 101 -106 84 -27 95 -37 166 -146 32 -49 62 -92 65 -95 3 -3 13 -15
21 -27 28 -40 113 -136 175 -195 185 -179 365 -259 564 -252 337 11 426 0 465
-59 95 -146 -232 -653 -565 -875 -111 -74 -200 -105 -295 -103 -53 1 -65 -3
-93 -26 -66 -56 -79 -180 -27 -250 45 -61 86 -92 130 -98 171 -26 377 116 622
430 108 138 213 297 359 540 133 223 157 254 204 264 72 15 140 -34 225 -164
66 -101 92 -132 185 -225 262 -262 609 -454 935 -516 11 -2 31 -7 45 -10 44
-10 363 -13 420 -4 30 5 65 11 78 13 36 5 44 19 31 55 -12 36 -74 84 -164 130
-105 52 -188 165 -187 254 2 110 138 191 372 222 44 6 136 11 371 21 203 8
336 48 477 143 103 70 108 81 66 131 -25 31 -71 56 -155 85 -69 25 -88 81 -48
140 63 92 275 193 599 287 185 53 295 104 309 142 11 29 -4 52 -60 87 -79 52
-96 77 -90 142 2 31 61 87 179 171 222 158 422 389 422 487 0 46 -83 68 -169
45 -27 -7 -90 -31 -139 -54 -111 -51 -187 -61 -282 -37 -110 28 -174 77 -266
201 -99 136 -202 143 -360 25 -76 -57 -171 -113 -239 -141 -86 -35 -214 -35
-265 0 -76 52 -103 93 -129 197 -37 148 -31 205 36 319 63 107 76 128 136 235
126 224 222 455 277 670 47 181 57 292 29 311 -23 16 -99 4 -179 -28 -90 -36
-107 -32 -143 36 -45 84 -82 260 -102 486 -3 39 -8 86 -10 105 -2 19 -7 80
-10 135 -9 158 -16 247 -21 290 -10 72 -46 103 -84 72z"/>
</g>
</svg>
