<svg id="svg" version="1.1" width="4000" height="2480" xmlns="http://www.w3.org/2000/svg"><path d="M3497.204 57.559 C 3494.841 58.410,3490.659 60.432,3487.910 62.053 C 3485.161 63.674,3482.552 65.000,3482.111 65.000 C 3481.670 65.000,3480.453 65.966,3479.405 67.146 C 3478.357 68.327,3475.155 70.804,3472.289 72.652 C 3468.886 74.846,3466.143 77.658,3464.387 80.756 C 3462.907 83.365,3458.615 88.522,3454.848 92.215 C 3451.082 95.909,3448.000 99.557,3448.000 100.323 C 3448.000 101.088,3445.348 104.165,3442.107 107.160 C 3438.866 110.155,3434.065 115.957,3431.437 120.053 C 3428.810 124.149,3425.667 128.706,3424.453 130.181 C 3420.408 135.093,3418.135 141.372,3417.095 150.500 C 3415.747 162.330,3414.659 165.818,3410.369 172.054 C 3405.156 179.632,3403.916 183.279,3402.923 193.942 C 3402.434 199.199,3401.644 204.400,3401.167 205.500 C 3400.691 206.600,3399.241 210.875,3397.945 215.000 C 3395.589 222.499,3392.708 230.037,3391.004 233.157 C 3389.937 235.112,3387.354 248.971,3386.467 257.500 C 3385.225 269.450,3382.974 279.188,3380.465 283.469 C 3379.059 285.868,3377.457 289.332,3376.905 291.166 C 3375.843 294.692,3372.059 328.869,3372.022 335.264 C 3372.010 337.334,3371.591 339.809,3371.091 340.764 C 3370.591 341.719,3369.638 347.450,3368.974 353.500 C 3368.309 359.550,3366.472 371.475,3364.891 380.000 C 3363.309 388.525,3362.012 396.872,3362.008 398.550 C 3362.004 400.227,3361.592 402.027,3361.094 402.550 C 3360.596 403.072,3359.666 411.825,3359.027 422.000 C 3358.388 432.175,3357.491 446.350,3357.034 453.500 C 3356.576 460.650,3355.213 482.700,3354.004 502.500 C 3352.795 522.300,3351.423 539.400,3350.957 540.500 C 3350.158 542.383,3349.630 550.867,3346.883 606.000 C 3346.252 618.656,3346.050 637.031,3346.422 648.000 C 3346.943 663.399,3346.748 669.708,3345.493 678.000 C 3344.157 686.827,3343.908 699.333,3343.929 756.500 C 3343.943 793.900,3343.896 826.975,3343.824 830.000 C 3343.605 839.193,3344.914 894.060,3345.518 901.000 C 3345.830 904.575,3346.713 912.225,3347.482 918.000 C 3348.251 923.775,3349.178 934.992,3349.542 942.927 C 3349.907 950.862,3350.581 958.062,3351.040 958.927 C 3352.181 961.075,3353.970 993.115,3355.036 1030.500 C 3355.522 1047.550,3356.412 1064.650,3357.015 1068.500 C 3357.617 1072.350,3358.249 1087.650,3358.418 1102.500 C 3358.781 1134.289,3359.911 1158.055,3361.135 1159.608 C 3361.616 1160.217,3362.461 1168.317,3363.015 1177.608 C 3364.032 1194.692,3364.350 1196.814,3367.473 1207.365 C 3369.737 1215.015,3369.299 1233.849,3366.745 1238.629 C 3364.228 1243.341,3355.591 1252.399,3347.086 1259.248 C 3342.914 1262.608,3336.327 1268.386,3332.448 1272.089 C 3326.199 1278.056,3324.549 1279.068,3317.948 1280.986 C 3313.852 1282.177,3306.525 1284.692,3301.667 1286.575 C 3296.809 1288.459,3291.993 1290.000,3290.964 1290.000 C 3288.694 1290.000,3284.761 1288.344,3279.770 1285.285 C 3274.498 1282.056,3267.230 1282.131,3263.646 1285.452 C 3257.312 1291.322,3263.040 1308.280,3273.138 1313.557 C 3276.307 1315.213,3296.693 1319.000,3302.440 1319.000 C 3306.876 1319.000,3325.043 1313.244,3331.500 1309.793 C 3333.700 1308.617,3337.975 1305.777,3341.000 1303.481 C 3344.025 1301.185,3347.625 1298.736,3349.000 1298.039 C 3350.375 1297.341,3353.840 1294.497,3356.700 1291.719 C 3362.573 1286.013,3366.568 1285.123,3370.164 1288.719 C 3372.442 1290.997,3374.299 1301.543,3377.965 1333.000 C 3379.086 1342.625,3380.434 1351.400,3380.960 1352.500 C 3383.277 1357.345,3387.003 1385.706,3387.003 1398.500 C 3387.004 1405.650,3387.673 1417.800,3388.491 1425.500 C 3389.309 1433.200,3389.983 1444.311,3389.989 1450.191 C 3389.995 1456.227,3390.435 1461.151,3391.000 1461.500 C 3391.550 1461.840,3392.011 1463.779,3392.024 1465.809 C 3392.036 1467.839,3392.945 1472.875,3394.042 1477.000 C 3396.593 1486.593,3397.813 1493.948,3398.994 1506.863 C 3399.516 1512.562,3400.327 1517.737,3400.796 1518.363 C 3403.175 1521.531,3404.307 1529.624,3404.521 1545.000 C 3404.712 1558.621,3405.226 1563.681,3407.468 1574.000 C 3408.963 1580.875,3410.598 1587.400,3411.103 1588.500 C 3411.960 1590.366,3412.918 1596.774,3416.483 1624.500 C 3417.261 1630.550,3418.348 1643.683,3418.899 1653.684 C 3419.450 1663.686,3420.324 1672.686,3420.842 1673.684 C 3422.295 1676.486,3426.800 1693.743,3427.973 1701.000 C 3428.551 1704.575,3429.279 1716.275,3429.590 1727.000 C 3429.901 1737.725,3430.526 1747.400,3430.977 1748.500 C 3431.946 1750.859,3434.463 1782.158,3434.296 1789.764 C 3434.222 1793.161,3433.428 1796.304,3432.059 1798.624 C 3430.723 1800.888,3430.270 1802.642,3430.835 1803.360 C 3432.625 1805.633,3436.964 1820.687,3438.081 1828.500 C 3438.711 1832.900,3439.443 1841.000,3439.708 1846.500 C 3439.974 1852.000,3440.538 1856.950,3440.962 1857.500 C 3441.387 1858.050,3442.041 1860.975,3442.417 1864.000 C 3442.792 1867.025,3444.427 1874.877,3446.050 1881.448 C 3449.795 1896.616,3450.115 1911.368,3446.958 1923.419 C 3445.013 1930.846,3444.995 1931.421,3446.588 1935.592 C 3447.978 1939.232,3448.127 1941.698,3447.469 1950.234 C 3447.033 1955.881,3446.580 1985.025,3446.462 2015.000 C 3446.261 2065.887,3446.110 2070.118,3444.187 2078.821 C 3443.054 2083.948,3441.678 2088.683,3441.130 2089.343 C 3440.582 2090.004,3439.199 2093.909,3438.057 2098.022 C 3436.015 2105.376,3435.500 2110.857,3432.911 2152.777 C 3432.256 2163.380,3431.334 2172.294,3430.860 2172.586 C 3430.387 2172.879,3430.000 2174.808,3430.000 2176.873 C 3430.000 2187.181,3423.874 2220.792,3421.028 2226.100 C 3419.561 2228.837,3417.103 2247.763,3416.004 2264.786 C 3414.940 2281.269,3412.833 2295.291,3411.109 2297.369 C 3409.383 2299.448,3404.273 2318.373,3402.972 2327.500 C 3402.266 2332.450,3401.344 2336.953,3400.923 2337.508 C 3400.502 2338.062,3399.661 2343.850,3399.054 2350.369 C 3397.892 2362.853,3397.441 2364.292,3392.841 2370.162 C 3391.263 2372.176,3389.264 2375.518,3388.398 2377.590 C 3387.533 2379.661,3384.192 2384.097,3380.975 2387.447 C 3377.758 2390.798,3374.648 2394.797,3374.063 2396.335 C 3372.518 2400.397,3372.742 2414.447,3374.415 2418.452 C 3375.717 2421.566,3378.517 2424.000,3380.799 2424.000 C 3381.311 2424.000,3384.378 2422.201,3387.615 2420.002 C 3390.852 2417.804,3393.950 2415.988,3394.500 2415.966 C 3397.864 2415.837,3404.912 2405.706,3404.978 2400.903 C 3404.990 2400.025,3407.363 2395.750,3410.250 2391.403 C 3417.199 2380.942,3418.391 2378.303,3421.496 2366.500 C 3422.943 2361.000,3425.203 2354.655,3426.518 2352.400 C 3430.190 2346.102,3432.718 2334.199,3434.439 2315.099 C 3435.301 2305.528,3436.390 2297.203,3436.859 2296.599 C 3437.328 2295.994,3437.970 2294.600,3438.287 2293.500 C 3438.604 2292.400,3440.236 2287.513,3441.915 2282.640 C 3443.593 2277.767,3445.260 2270.792,3445.618 2267.140 C 3445.976 2263.488,3446.599 2260.050,3447.002 2259.500 C 3447.405 2258.950,3448.033 2255.077,3448.396 2250.893 C 3448.760 2246.709,3450.159 2237.709,3451.505 2230.893 C 3453.267 2221.977,3453.960 2215.115,3453.977 2206.434 C 3453.999 2194.715,3455.351 2183.536,3456.990 2181.500 C 3458.314 2179.857,3460.902 2170.208,3462.518 2160.897 C 3463.351 2156.096,3464.408 2143.594,3464.868 2133.116 C 3465.334 2122.489,3466.171 2113.496,3466.762 2112.781 C 3467.344 2112.077,3468.152 2109.700,3468.556 2107.500 C 3468.961 2105.300,3469.902 2101.754,3470.648 2099.620 C 3473.026 2092.812,3473.915 2084.136,3475.007 2057.059 C 3475.593 2042.516,3476.471 2030.137,3476.958 2029.551 C 3477.444 2028.965,3477.988 2008.417,3478.166 1983.890 C 3478.429 1947.777,3478.236 1938.990,3477.154 1937.685 C 3476.419 1936.799,3475.568 1933.331,3475.264 1929.978 C 3474.787 1924.717,3475.018 1923.467,3476.951 1920.853 C 3478.738 1918.436,3479.052 1917.085,3478.505 1914.162 C 3478.129 1912.148,3477.473 1910.050,3477.048 1909.500 C 3474.800 1906.589,3472.003 1885.235,3470.958 1863.000 C 3470.362 1850.295,3469.453 1841.409,3468.351 1837.500 C 3466.157 1829.715,3465.396 1811.497,3467.130 1808.256 C 3468.157 1806.338,3468.149 1805.285,3467.086 1802.695 C 3464.164 1795.576,3462.983 1789.374,3463.526 1784.000 C 3463.832 1780.975,3463.634 1765.900,3463.087 1750.500 C 3462.294 1728.199,3461.673 1720.770,3460.035 1714.000 C 3458.904 1709.325,3457.560 1704.600,3457.049 1703.500 C 3455.530 1700.233,3454.276 1692.452,3452.538 1675.500 C 3451.635 1666.700,3450.245 1654.398,3449.448 1648.162 C 3448.652 1641.926,3448.000 1632.840,3448.000 1627.971 C 3448.000 1623.102,3447.619 1618.882,3447.152 1618.594 C 3446.686 1618.306,3446.021 1614.117,3445.675 1609.285 C 3444.425 1591.827,3438.904 1557.098,3436.965 1554.500 C 3434.628 1551.366,3432.720 1535.936,3432.021 1514.500 C 3431.266 1491.366,3429.862 1481.772,3426.478 1476.606 C 3421.998 1469.770,3421.634 1466.763,3421.496 1435.500 C 3421.393 1412.110,3420.991 1403.456,3419.673 1396.223 C 3418.743 1391.120,3417.551 1386.170,3417.023 1385.223 C 3416.495 1384.275,3415.408 1381.475,3414.608 1379.000 C 3413.807 1376.525,3412.155 1372.267,3410.935 1369.537 C 3408.844 1364.856,3408.764 1363.808,3409.528 1351.037 C 3410.791 1329.914,3409.908 1316.445,3407.001 1312.500 C 3406.596 1311.950,3405.742 1307.900,3405.104 1303.500 C 3404.078 1296.430,3403.336 1288.650,3401.328 1263.913 C 3400.656 1255.638,3402.367 1251.962,3411.631 1241.774 C 3415.269 1237.773,3419.761 1232.166,3421.613 1229.314 C 3423.465 1226.461,3425.781 1223.536,3426.760 1222.814 C 3427.738 1222.091,3430.105 1218.868,3432.020 1215.651 C 3433.934 1212.434,3437.195 1208.453,3439.266 1206.805 C 3441.337 1205.156,3445.137 1201.038,3447.710 1197.653 C 3450.283 1194.269,3454.438 1189.202,3456.944 1186.394 C 3459.974 1182.997,3462.122 1179.314,3463.357 1175.394 C 3464.378 1172.152,3466.515 1167.356,3468.107 1164.735 C 3469.698 1162.114,3471.000 1159.788,3471.000 1159.565 C 3471.000 1158.215,3483.019 1134.498,3486.191 1129.586 C 3488.292 1126.334,3490.474 1121.955,3491.039 1119.855 C 3492.246 1115.373,3496.957 1105.184,3500.451 1099.500 C 3501.803 1097.300,3503.893 1092.575,3505.094 1089.000 C 3508.147 1079.914,3511.614 1073.280,3516.154 1067.834 C 3520.791 1062.274,3522.634 1056.741,3524.080 1044.037 C 3525.276 1033.534,3525.795 1032.170,3530.681 1026.706 C 3536.192 1020.544,3538.234 1014.423,3540.043 998.637 C 3540.664 993.213,3542.259 985.146,3543.586 980.711 C 3545.394 974.673,3546.000 970.290,3546.000 963.260 C 3546.000 951.477,3548.265 945.997,3556.991 936.669 C 3560.351 933.077,3563.528 928.645,3564.052 926.819 C 3564.576 924.994,3564.729 920.125,3564.392 916.000 C 3563.784 908.547,3566.037 890.932,3567.902 888.564 C 3568.965 887.214,3570.348 882.500,3572.469 873.000 C 3574.179 865.345,3576.759 857.295,3578.080 855.500 C 3579.580 853.460,3581.249 842.093,3582.043 828.500 C 3585.047 777.093,3584.843 778.567,3589.861 772.106 C 3595.177 765.262,3596.313 760.775,3596.724 745.000 C 3596.932 737.025,3597.520 729.600,3598.032 728.500 C 3599.702 724.910,3601.113 713.794,3601.904 698.000 C 3602.557 684.983,3603.050 681.699,3604.987 677.500 C 3607.328 672.423,3608.283 670.093,3609.492 666.500 C 3609.862 665.400,3610.538 658.200,3610.994 650.500 C 3611.780 637.223,3615.557 618.540,3618.086 615.421 C 3618.567 614.828,3620.157 608.978,3621.620 602.421 C 3623.082 595.865,3624.882 587.800,3625.619 584.500 C 3626.355 581.200,3626.968 575.103,3626.979 570.950 C 3626.991 566.798,3627.379 562.973,3627.842 562.450 C 3628.305 561.928,3629.225 558.967,3629.887 555.871 C 3631.104 550.174,3630.007 541.740,3627.877 540.424 C 3626.300 539.449,3626.956 530.468,3628.898 526.438 C 3631.340 521.372,3634.903 510.495,3635.594 506.000 C 3635.912 503.926,3634.882 496.539,3633.066 487.868 C 3631.380 479.820,3630.000 470.959,3630.000 468.177 C 3630.000 463.666,3630.524 462.436,3634.842 456.802 C 3638.031 452.641,3640.068 448.780,3640.809 445.492 C 3641.480 442.510,3642.047 427.212,3642.217 407.500 C 3642.446 380.797,3642.149 371.256,3640.659 357.500 C 3639.646 348.150,3638.467 340.050,3638.039 339.500 C 3637.611 338.950,3636.745 336.897,3636.115 334.938 C 3635.484 332.978,3633.206 329.654,3631.051 327.550 C 3627.405 323.989,3627.233 323.574,3628.570 321.533 C 3633.793 313.562,3634.824 295.866,3631.107 278.000 C 3629.791 271.675,3628.347 265.600,3627.898 264.500 C 3626.679 261.513,3624.010 242.116,3622.952 228.560 C 3622.092 217.533,3620.936 212.494,3617.416 204.430 C 3616.680 202.741,3615.161 195.541,3614.042 188.430 C 3611.704 173.574,3610.235 168.336,3606.606 161.915 C 3604.000 157.306,3600.781 145.791,3599.501 136.500 C 3599.123 133.750,3598.499 131.050,3598.115 130.500 C 3597.731 129.950,3596.806 127.700,3596.059 125.500 C 3595.312 123.300,3592.740 119.254,3590.343 116.509 C 3587.899 113.709,3584.624 108.222,3582.883 104.009 C 3579.838 96.642,3578.780 95.283,3562.915 78.331 C 3556.425 71.396,3546.111 62.911,3540.257 59.689 C 3534.521 56.532,3534.441 56.519,3518.000 56.266 C 3505.124 56.067,3500.556 56.351,3497.204 57.559 M3528.419 79.975 C 3530.113 81.037,3532.798 83.554,3534.385 85.569 C 3535.972 87.584,3539.347 90.142,3541.885 91.254 C 3546.691 93.359,3549.832 96.180,3556.468 104.352 C 3558.636 107.021,3561.464 109.606,3562.754 110.097 C 3564.953 110.933,3566.410 113.543,3572.752 128.000 C 3573.596 129.925,3575.500 133.075,3576.982 135.000 C 3581.743 141.184,3583.069 145.149,3584.117 156.338 C 3585.198 167.892,3587.258 174.262,3595.323 191.000 C 3599.174 198.992,3599.459 200.202,3600.090 211.254 C 3600.460 217.719,3601.192 223.569,3601.718 224.254 C 3603.712 226.854,3611.000 244.845,3611.000 247.169 C 3611.000 248.506,3611.517 250.117,3612.149 250.749 C 3612.901 251.501,3613.558 259.935,3614.052 275.199 C 3615.003 304.588,3617.392 315.101,3624.453 320.961 C 3626.653 322.786,3626.379 324.978,3623.406 329.354 C 3621.979 331.454,3620.450 334.429,3620.010 335.966 C 3619.217 338.732,3620.893 352.803,3622.424 356.227 C 3623.413 358.439,3622.672 365.496,3620.452 375.000 C 3618.904 381.629,3618.836 383.890,3619.870 394.470 C 3620.514 401.054,3621.481 406.881,3622.020 407.420 C 3623.442 408.842,3623.231 419.369,3621.750 420.850 C 3620.858 421.741,3620.500 426.512,3620.500 437.499 C 3620.500 448.485,3620.858 453.257,3621.750 454.149 C 3623.565 455.965,3623.290 459.023,3620.861 464.052 C 3617.548 470.909,3615.344 479.696,3613.951 491.602 C 3613.250 497.596,3612.299 502.928,3611.838 503.450 C 3610.717 504.721,3610.772 508.367,3611.931 509.550 C 3612.442 510.072,3613.176 516.380,3613.561 523.566 L 3614.262 536.632 3611.310 540.066 C 3604.427 548.073,3603.591 551.437,3606.609 558.981 C 3607.539 561.305,3607.994 564.375,3607.687 566.252 C 3607.177 569.369,3603.086 581.425,3601.834 583.500 C 3601.502 584.050,3600.905 586.525,3600.507 589.000 C 3600.108 591.475,3598.736 598.225,3597.457 604.000 C 3596.178 609.775,3594.612 619.225,3593.978 625.000 C 3593.343 630.775,3592.465 636.400,3592.025 637.500 C 3591.155 639.679,3589.821 646.990,3587.464 662.500 C 3585.426 675.912,3583.109 686.849,3581.532 690.500 C 3578.081 698.491,3577.583 701.891,3577.511 718.000 C 3577.434 735.030,3577.025 737.089,3571.865 746.380 C 3571.290 747.414,3570.423 756.864,3569.938 767.380 C 3568.886 790.194,3567.413 808.605,3566.081 815.595 C 3565.547 818.398,3563.489 823.798,3561.508 827.595 C 3558.952 832.495,3557.485 837.113,3556.456 843.500 C 3554.384 856.354,3552.897 863.348,3551.991 864.500 C 3551.558 865.050,3550.525 867.750,3549.694 870.500 C 3548.864 873.250,3547.509 877.075,3546.683 879.000 C 3545.857 880.925,3544.655 887.852,3544.011 894.392 C 3543.366 900.933,3542.471 907.008,3542.021 907.892 C 3540.709 910.467,3538.034 923.929,3537.428 931.000 C 3536.592 940.771,3536.355 941.421,3531.607 946.984 C 3527.027 952.349,3525.001 958.087,3523.479 970.000 C 3523.092 973.025,3522.435 975.950,3522.018 976.500 C 3521.602 977.050,3520.942 979.264,3520.553 981.419 C 3520.164 983.575,3517.648 989.650,3514.961 994.919 C 3512.274 1000.189,3508.443 1009.225,3506.448 1015.000 C 3504.453 1020.775,3502.243 1026.175,3501.538 1027.000 C 3500.415 1028.315,3499.029 1030.728,3492.925 1042.000 C 3492.180 1043.375,3491.517 1044.725,3491.452 1045.000 C 3491.386 1045.275,3490.808 1046.767,3490.166 1048.315 C 3489.525 1049.863,3489.000 1051.730,3489.000 1052.463 C 3489.000 1053.197,3487.027 1057.780,3484.615 1062.648 C 3482.203 1067.517,3478.838 1076.038,3477.138 1081.584 C 3474.755 1089.352,3473.155 1092.681,3470.169 1096.084 C 3466.134 1100.681,3463.004 1105.967,3462.994 1108.200 C 3462.990 1108.915,3462.302 1110.814,3461.465 1112.420 C 3460.627 1114.026,3458.926 1117.855,3457.685 1120.929 C 3456.443 1124.002,3453.767 1129.018,3451.738 1132.076 C 3449.708 1135.133,3446.874 1140.755,3445.439 1144.568 C 3444.004 1148.380,3441.372 1153.300,3439.590 1155.500 C 3437.808 1157.700,3434.526 1162.200,3432.296 1165.500 C 3430.067 1168.800,3427.288 1172.357,3426.122 1173.405 C 3424.955 1174.453,3424.000 1175.731,3424.000 1176.245 C 3424.000 1176.759,3423.093 1177.927,3421.984 1178.840 C 3420.727 1179.875,3419.006 1184.029,3417.413 1189.877 C 3416.008 1195.035,3414.364 1200.045,3413.761 1201.011 C 3410.366 1206.448,3401.119 1207.654,3395.981 1203.331 L 3392.809 1200.661 3393.480 1191.081 C 3393.907 1184.984,3393.731 1179.681,3392.997 1176.500 C 3391.512 1170.062,3390.170 1150.708,3389.095 1120.246 C 3388.624 1106.907,3387.791 1095.432,3387.245 1094.746 C 3385.409 1092.446,3384.158 1072.657,3384.699 1054.500 C 3385.111 1040.665,3384.761 1031.525,3383.186 1015.000 C 3382.060 1003.175,3380.876 986.750,3380.556 978.500 C 3379.725 957.071,3377.957 933.837,3376.979 931.500 C 3376.127 929.466,3374.428 834.939,3374.588 798.500 C 3374.896 728.214,3375.832 678.768,3376.875 677.725 C 3378.471 676.129,3378.366 658.766,3376.750 657.150 C 3375.138 655.537,3375.357 559.243,3376.976 557.624 C 3377.539 557.061,3378.000 555.299,3378.000 553.710 C 3378.000 552.120,3379.108 543.548,3380.462 534.660 C 3382.737 519.728,3383.960 501.656,3385.617 458.500 C 3385.912 450.800,3386.522 443.600,3386.972 442.500 C 3389.020 437.496,3389.989 428.009,3390.342 409.500 C 3390.666 392.529,3391.138 387.531,3393.456 376.500 C 3394.958 369.350,3396.590 363.010,3397.082 362.412 C 3397.574 361.813,3398.443 354.613,3399.013 346.412 C 3399.583 338.210,3400.526 325.875,3401.108 319.000 C 3401.691 312.125,3402.512 299.005,3402.933 289.845 L 3403.698 273.191 3408.504 264.993 C 3413.358 256.714,3415.956 248.637,3415.984 241.736 C 3415.993 239.666,3416.418 237.191,3416.928 236.236 C 3417.439 235.281,3418.337 232.025,3418.923 229.000 C 3420.383 221.472,3425.266 203.984,3428.278 195.500 C 3429.645 191.650,3431.761 185.179,3432.981 181.119 C 3434.614 175.687,3436.268 172.580,3439.246 169.349 C 3446.056 161.961,3450.161 151.454,3447.000 149.500 C 3446.450 149.160,3446.000 147.360,3446.000 145.500 C 3446.000 143.640,3446.450 141.840,3447.000 141.500 C 3447.550 141.160,3448.000 140.043,3448.000 139.018 C 3448.000 136.012,3452.830 131.131,3457.058 129.865 C 3462.612 128.200,3463.696 126.515,3464.926 117.624 C 3465.921 110.425,3466.361 109.392,3470.039 105.624 C 3472.252 103.356,3475.512 99.390,3477.282 96.812 C 3480.381 92.297,3486.205 88.000,3489.223 88.000 C 3490.021 88.000,3493.320 86.106,3496.553 83.791 C 3499.786 81.476,3504.471 79.003,3506.965 78.297 C 3513.071 76.567,3524.391 77.453,3528.419 79.975 M1619.402 833.270 C 1615.266 837.061,1615.399 835.441,1616.882 864.052 C 1617.846 882.663,1618.303 884.917,1622.840 893.500 C 1623.986 895.667,1624.473 899.694,1624.595 908.000 C 1625.173 947.366,1628.566 986.285,1632.049 993.500 C 1633.152 995.784,1636.173 1009.476,1639.072 1025.324 C 1640.160 1031.278,1641.669 1037.128,1642.423 1038.324 C 1645.620 1043.394,1648.065 1058.868,1649.053 1080.281 C 1649.591 1091.952,1650.508 1103.975,1651.091 1107.000 C 1651.674 1110.025,1652.542 1119.925,1653.020 1129.000 C 1653.498 1138.075,1654.354 1147.300,1654.921 1149.500 C 1655.488 1151.700,1655.974 1160.700,1656.000 1169.500 C 1656.026 1178.300,1656.485 1193.600,1657.019 1203.500 C 1661.149 1280.035,1661.278 1293.875,1657.917 1300.154 C 1657.415 1301.093,1656.132 1306.055,1655.065 1311.181 C 1653.999 1316.306,1651.964 1323.757,1650.543 1327.739 L 1647.960 1334.977 1649.587 1345.739 C 1650.483 1351.657,1651.659 1357.450,1652.202 1358.610 C 1652.744 1359.771,1653.259 1368.851,1653.344 1378.788 C 1653.524 1399.615,1653.908 1400.708,1662.515 1404.865 C 1677.433 1412.071,1688.237 1403.685,1691.025 1382.735 C 1692.601 1370.897,1692.797 1325.649,1691.320 1314.969 C 1689.444 1301.407,1691.613 1288.778,1697.264 1280.369 C 1701.912 1273.452,1706.016 1270.997,1712.898 1271.015 C 1719.441 1271.033,1720.013 1271.320,1723.909 1276.546 C 1725.529 1278.718,1729.025 1281.649,1731.677 1283.059 C 1735.694 1285.194,1737.001 1286.653,1739.500 1291.789 C 1741.150 1295.181,1744.300 1300.082,1746.500 1302.681 C 1751.812 1308.955,1753.360 1311.557,1755.357 1317.570 C 1756.464 1320.903,1758.583 1324.124,1761.597 1327.058 C 1766.655 1331.982,1768.500 1335.020,1770.597 1341.878 C 1771.374 1344.420,1773.580 1348.525,1775.500 1351.000 C 1782.180 1359.613,1784.275 1363.420,1785.649 1369.441 C 1787.742 1378.610,1788.926 1381.095,1793.540 1386.000 C 1795.868 1388.475,1798.899 1392.325,1800.276 1394.555 C 1804.084 1400.724,1821.147 1417.541,1825.956 1419.864 C 1831.825 1422.700,1844.394 1424.357,1855.596 1423.771 C 1866.569 1423.197,1869.840 1421.527,1878.663 1411.998 C 1881.590 1408.836,1885.451 1405.649,1887.243 1404.916 C 1889.034 1404.182,1893.747 1401.012,1897.716 1397.870 C 1901.685 1394.729,1908.536 1390.354,1912.942 1388.149 C 1922.435 1383.398,1927.065 1379.804,1940.666 1366.631 C 1947.896 1359.629,1951.463 1355.352,1952.945 1351.907 C 1955.301 1346.429,1956.026 1345.913,1964.770 1343.474 C 1974.732 1340.696,1975.216 1341.526,1980.001 1369.625 C 1982.618 1384.999,1982.932 1386.000,1986.734 1391.125 C 1988.927 1394.081,1992.022 1398.975,1993.611 1402.000 C 1995.200 1405.025,1996.725 1407.725,1997.000 1408.000 C 1997.275 1408.275,1997.979 1409.400,1998.564 1410.500 C 2000.303 1413.768,2008.746 1417.234,2016.306 1417.783 L 2023.113 1418.277 2027.306 1413.498 C 2029.613 1410.869,2034.021 1406.194,2037.103 1403.109 C 2041.531 1398.676,2043.291 1395.927,2045.493 1390.000 C 2047.026 1385.875,2048.840 1381.825,2049.526 1381.000 C 2050.211 1380.175,2052.039 1377.025,2053.588 1374.000 C 2058.114 1365.160,2057.548 1351.715,2052.510 1348.415 C 2050.206 1346.905,2049.832 1346.941,2046.526 1348.984 C 2044.587 1350.182,2043.000 1351.603,2043.000 1352.141 C 2043.000 1352.679,2040.818 1355.455,2038.151 1358.310 C 2035.484 1361.164,2031.819 1366.317,2030.007 1369.760 C 2022.375 1384.254,2016.613 1384.814,2012.623 1371.450 C 2011.646 1368.177,2010.472 1364.600,2010.013 1363.500 C 2007.793 1358.182,2006.756 1349.025,2007.872 1344.596 C 2009.622 1337.642,2009.248 1334.502,2005.907 1328.129 C 2002.571 1321.764,2002.559 1321.649,2003.133 1301.797 L 2003.500 1289.095 2007.300 1285.204 C 2010.049 1282.389,2011.672 1279.402,2013.166 1274.406 C 2014.301 1270.608,2016.054 1265.879,2017.060 1263.898 C 2018.067 1261.916,2018.639 1259.334,2018.331 1258.159 C 2017.646 1255.537,2012.727 1252.395,2007.909 1251.503 C 2000.313 1250.095,1988.385 1255.935,1986.058 1262.200 C 1985.385 1264.015,1984.470 1266.203,1984.026 1267.061 C 1983.582 1267.920,1982.692 1272.870,1982.047 1278.061 C 1980.231 1292.693,1977.913 1298.680,1971.736 1304.692 C 1968.856 1307.494,1965.052 1310.514,1963.283 1311.402 C 1960.090 1313.005,1955.884 1316.816,1948.826 1324.500 C 1946.805 1326.700,1943.947 1329.604,1942.474 1330.953 C 1941.001 1332.302,1939.410 1334.421,1938.938 1335.662 C 1938.466 1336.903,1935.440 1339.849,1932.212 1342.209 C 1928.984 1344.569,1924.353 1348.805,1921.921 1351.623 C 1917.365 1356.902,1914.959 1358.000,1907.946 1358.000 C 1900.191 1358.000,1898.940 1352.093,1904.400 1341.251 C 1912.582 1325.006,1912.498 1325.288,1912.499 1313.997 L 1912.500 1303.495 1907.750 1296.070 C 1905.138 1291.987,1903.000 1288.079,1903.000 1287.385 C 1903.000 1285.325,1905.840 1273.706,1907.479 1269.061 C 1909.453 1263.466,1909.411 1254.702,1907.368 1245.718 C 1906.103 1240.159,1905.918 1236.620,1906.544 1230.021 C 1907.439 1220.588,1907.457 1214.887,1906.654 1195.058 C 1906.138 1182.326,1905.959 1181.403,1903.263 1177.567 C 1897.707 1169.662,1886.713 1166.450,1881.000 1171.063 C 1879.625 1172.174,1875.800 1174.957,1872.500 1177.248 C 1867.354 1180.821,1853.148 1194.186,1849.252 1199.119 C 1848.566 1199.988,1847.078 1205.380,1845.947 1211.100 C 1843.796 1221.970,1842.314 1225.848,1837.767 1232.500 C 1836.263 1234.700,1833.710 1240.100,1832.093 1244.500 C 1828.114 1255.326,1826.392 1258.513,1823.497 1260.410 C 1819.549 1262.997,1816.846 1270.406,1815.255 1283.000 C 1814.457 1289.325,1813.398 1295.281,1812.902 1296.236 C 1811.668 1298.613,1811.752 1317.729,1813.000 1318.500 C 1813.550 1318.840,1814.000 1321.090,1814.000 1323.500 C 1814.000 1325.910,1813.550 1328.160,1813.000 1328.500 C 1812.450 1328.840,1812.000 1331.016,1812.000 1333.337 C 1812.000 1337.805,1809.817 1342.000,1807.491 1342.000 C 1806.724 1342.000,1804.700 1339.971,1802.994 1337.492 C 1801.289 1335.013,1797.400 1331.142,1794.352 1328.891 C 1788.968 1324.914,1785.075 1318.995,1785.022 1314.710 C 1784.989 1311.992,1781.650 1306.004,1777.092 1300.489 C 1774.841 1297.765,1773.000 1295.012,1773.000 1294.370 C 1773.000 1291.327,1766.311 1281.098,1759.285 1273.396 C 1748.613 1261.698,1741.014 1255.623,1731.000 1250.782 C 1726.325 1248.523,1721.245 1245.804,1719.710 1244.740 C 1717.736 1243.372,1714.183 1242.573,1707.558 1242.005 C 1696.260 1241.037,1693.450 1239.808,1689.679 1234.188 C 1687.059 1230.285,1686.849 1229.363,1687.462 1224.454 C 1687.835 1221.472,1688.558 1218.773,1689.070 1218.457 C 1690.387 1217.643,1690.293 1168.299,1688.973 1167.484 C 1688.409 1167.135,1688.028 1166.321,1688.127 1165.675 C 1688.226 1165.029,1687.542 1162.777,1686.608 1160.672 C 1684.506 1155.939,1683.345 1142.369,1682.527 1113.000 C 1681.844 1088.430,1680.334 1070.166,1678.835 1068.324 C 1678.309 1067.677,1677.977 1066.552,1678.097 1065.824 C 1678.217 1065.096,1678.058 1063.825,1677.743 1063.000 C 1677.188 1061.545,1673.706 1040.429,1670.487 1019.000 C 1669.620 1013.225,1668.490 1007.600,1667.977 1006.500 C 1666.991 1004.388,1664.629 989.925,1663.486 979.000 C 1662.606 970.589,1660.202 958.948,1659.062 957.575 C 1658.571 956.984,1658.137 956.160,1658.096 955.745 C 1658.056 955.330,1657.327 953.325,1656.477 951.290 C 1654.117 945.643,1652.245 935.964,1650.423 920.000 C 1649.513 912.025,1648.393 905.030,1647.933 904.456 C 1647.473 903.882,1646.366 898.482,1645.471 892.456 C 1644.242 884.176,1643.033 879.913,1640.519 875.000 C 1636.238 866.631,1635.895 865.031,1635.089 849.635 L 1634.416 836.769 1630.723 833.385 C 1626.110 829.157,1623.914 829.135,1619.402 833.270 M838.420 963.787 C 831.104 969.129,830.951 970.562,834.921 996.500 C 837.263 1011.796,837.209 1011.603,841.808 1021.000 C 843.558 1024.575,845.502 1029.750,846.129 1032.500 C 846.755 1035.250,847.698 1038.447,848.224 1039.604 C 848.751 1040.761,849.076 1043.011,848.947 1044.604 C 848.818 1046.197,848.963 1048.175,849.268 1049.000 C 849.573 1049.825,850.345 1053.363,850.984 1056.863 C 851.622 1060.362,853.575 1065.913,855.323 1069.197 C 857.070 1072.482,859.257 1076.634,860.183 1078.425 C 861.108 1080.216,863.045 1086.591,864.486 1092.591 C 865.927 1098.591,867.381 1104.175,867.717 1105.000 C 868.053 1105.825,868.404 1106.725,868.497 1107.000 C 868.591 1107.275,869.235 1108.850,869.929 1110.500 C 872.320 1116.187,878.130 1132.504,878.378 1134.230 C 878.514 1135.181,878.935 1136.268,879.313 1136.646 C 879.691 1137.024,880.008 1141.871,880.017 1147.417 C 880.041 1161.324,882.017 1169.852,886.979 1177.469 C 893.629 1187.675,894.674 1199.140,889.405 1204.089 C 887.078 1206.275,886.099 1206.475,878.854 1206.249 C 868.753 1205.933,853.920 1209.457,841.000 1215.244 C 839.075 1216.106,834.924 1217.287,831.775 1217.867 C 825.594 1219.007,821.104 1220.965,819.081 1223.402 C 817.821 1224.920,811.000 1235.989,811.000 1236.515 C 811.000 1236.666,809.650 1238.234,808.000 1240.000 C 806.350 1241.766,804.984 1243.726,804.964 1244.356 C 804.913 1245.990,801.222 1250.056,795.998 1254.234 C 792.781 1256.807,790.214 1260.314,786.998 1266.530 C 784.524 1271.313,780.655 1277.088,778.401 1279.363 C 776.146 1281.638,773.514 1285.655,772.553 1288.289 C 768.694 1298.861,763.460 1301.448,757.038 1295.959 C 755.134 1294.332,753.074 1293.000,752.462 1293.000 C 750.226 1293.000,746.822 1297.907,746.286 1301.903 C 745.839 1305.234,746.233 1306.753,748.382 1310.002 C 749.838 1312.201,751.437 1314.000,751.937 1314.000 C 753.964 1314.000,759.000 1319.302,759.000 1321.435 C 759.000 1327.322,753.693 1334.133,746.424 1337.576 C 743.235 1339.087,740.869 1341.006,740.058 1342.740 C 739.348 1344.258,738.369 1346.281,737.883 1347.236 C 737.397 1348.191,737.000 1353.594,737.000 1359.243 C 737.000 1364.892,736.560 1371.046,736.023 1372.920 C 734.697 1377.542,730.532 1383.355,726.136 1386.718 C 723.134 1389.015,721.577 1389.477,717.205 1389.369 C 710.900 1389.212,704.090 1386.803,701.247 1383.725 C 700.117 1382.501,698.242 1378.350,697.080 1374.500 C 695.918 1370.650,693.624 1365.700,691.983 1363.500 C 688.976 1359.470,684.500 1350.719,683.544 1347.000 C 683.473 1346.725,682.422 1344.305,681.208 1341.623 C 679.994 1338.940,679.000 1336.506,679.000 1336.214 C 679.000 1335.921,677.271 1333.391,675.159 1330.591 C 670.633 1324.594,669.354 1320.961,668.438 1311.500 C 668.037 1307.354,665.559 1297.772,662.361 1288.000 C 658.165 1275.175,655.939 1270.012,652.366 1264.820 C 645.295 1254.543,645.333 1247.591,652.518 1236.500 C 658.148 1227.810,659.444 1215.522,655.141 1211.627 C 654.198 1210.774,651.229 1209.104,648.543 1207.916 C 644.620 1206.180,642.361 1205.849,637.056 1206.228 C 626.694 1206.969,623.974 1209.699,624.031 1219.297 C 624.072 1226.237,625.767 1238.992,626.833 1240.385 C 627.302 1240.998,628.932 1244.650,630.455 1248.500 C 633.038 1255.029,633.180 1256.147,632.575 1265.127 C 632.049 1272.917,632.334 1276.735,634.064 1285.127 C 635.241 1290.832,636.585 1295.969,637.051 1296.542 C 637.518 1297.115,638.846 1302.954,640.003 1309.518 C 641.592 1318.528,642.830 1322.628,645.055 1326.244 C 651.299 1336.391,653.447 1352.171,651.422 1373.003 C 650.669 1380.753,652.252 1387.901,654.789 1388.205 C 655.730 1388.318,660.650 1388.430,665.721 1388.455 C 674.392 1388.497,675.105 1388.662,677.668 1391.219 C 679.167 1392.715,681.561 1396.062,682.990 1398.657 C 684.508 1401.416,687.022 1404.177,689.043 1405.303 C 690.944 1406.363,694.148 1408.716,696.162 1410.533 C 701.241 1415.114,702.982 1415.901,711.788 1417.594 C 719.766 1419.128,724.391 1418.832,731.473 1416.333 C 735.800 1414.807,741.000 1410.429,741.000 1408.313 C 741.000 1407.591,741.400 1407.000,741.890 1407.000 C 743.266 1407.000,746.754 1398.891,748.351 1391.979 C 749.143 1388.552,750.400 1385.361,751.145 1384.889 C 751.890 1384.417,754.697 1384.024,757.382 1384.015 C 761.649 1384.002,762.668 1384.429,765.473 1387.402 C 767.552 1389.607,769.306 1393.039,770.456 1397.152 C 773.116 1406.668,775.061 1409.795,783.432 1418.005 C 791.176 1425.601,798.783 1430.813,805.052 1432.816 C 810.026 1434.406,840.734 1434.612,844.498 1433.081 C 846.146 1432.410,849.746 1430.138,852.498 1428.032 C 857.833 1423.947,870.358 1417.000,872.387 1417.000 C 873.840 1417.000,879.468 1411.196,880.283 1408.856 C 880.598 1407.952,882.983 1406.152,885.584 1404.856 C 888.185 1403.560,892.155 1400.363,894.406 1397.750 C 897.458 1394.210,899.206 1393.001,901.275 1393.000 C 905.707 1393.000,906.378 1396.379,904.421 1408.854 C 902.566 1420.685,902.965 1427.159,906.060 1435.431 C 908.700 1442.488,912.863 1447.016,916.651 1446.952 C 922.281 1446.857,926.037 1443.942,928.830 1437.500 C 931.280 1431.848,931.439 1430.486,931.566 1414.000 C 931.660 1401.885,931.233 1394.112,930.179 1388.741 C 928.891 1382.179,928.826 1378.398,929.759 1364.241 C 930.366 1355.033,930.822 1343.675,930.773 1339.000 C 930.723 1334.325,931.275 1327.800,931.999 1324.500 C 934.253 1314.228,933.819 1299.690,930.999 1291.000 C 927.888 1281.412,927.528 1267.895,930.273 1263.706 C 931.419 1261.956,932.932 1261.000,934.552 1261.000 C 937.643 1261.000,947.842 1266.053,950.345 1268.824 C 953.099 1271.873,954.906 1277.819,954.959 1284.000 C 955.014 1290.348,957.751 1306.993,958.987 1308.488 C 959.447 1309.045,960.250 1311.750,960.772 1314.500 C 963.601 1329.395,968.225 1350.759,968.997 1352.500 C 969.485 1353.600,970.186 1356.075,970.556 1358.000 C 971.410 1362.439,975.671 1372.714,978.042 1376.053 C 979.039 1377.457,981.278 1382.873,983.017 1388.090 C 984.927 1393.820,987.628 1399.497,989.839 1402.433 C 991.853 1405.106,993.949 1408.015,994.497 1408.897 C 998.081 1414.657,1000.224 1416.754,1003.702 1417.902 C 1011.177 1420.369,1019.081 1416.047,1021.472 1408.185 C 1022.498 1404.812,1025.602 1404.086,1031.933 1405.739 C 1038.349 1407.415,1042.382 1409.349,1046.327 1412.641 C 1050.693 1416.285,1057.159 1415.884,1065.677 1411.442 C 1069.430 1409.485,1076.256 1406.557,1080.846 1404.936 C 1087.021 1402.755,1090.587 1400.745,1094.553 1397.211 C 1097.501 1394.583,1103.478 1390.313,1107.833 1387.722 C 1114.041 1384.029,1117.887 1380.632,1125.627 1372.004 C 1135.381 1361.129,1140.417 1357.363,1143.776 1358.429 C 1146.534 1359.304,1150.622 1367.092,1151.399 1372.952 C 1152.252 1379.380,1152.882 1380.656,1158.785 1387.903 C 1161.280 1390.966,1164.155 1395.356,1165.173 1397.659 C 1166.240 1400.070,1168.763 1403.123,1171.123 1404.859 C 1173.377 1406.517,1175.791 1408.970,1176.486 1410.310 C 1179.556 1416.227,1186.612 1424.455,1192.051 1428.459 C 1198.672 1433.333,1204.368 1434.687,1213.162 1433.478 C 1222.416 1432.205,1225.549 1425.730,1221.034 1417.210 C 1217.826 1411.155,1215.864 1409.315,1208.500 1405.455 C 1204.650 1403.436,1200.931 1401.322,1200.235 1400.757 C 1198.730 1399.535,1194.000 1390.347,1194.000 1388.646 C 1194.000 1387.991,1192.735 1385.891,1191.190 1383.978 C 1186.393 1378.042,1184.105 1373.579,1182.445 1366.918 C 1179.681 1355.830,1176.951 1346.590,1175.703 1344.100 C 1173.941 1340.584,1174.056 1312.850,1175.841 1310.694 C 1177.437 1308.768,1179.439 1276.152,1178.585 1266.000 C 1177.811 1256.803,1182.770 1234.277,1187.414 1225.896 C 1188.753 1223.478,1190.167 1219.768,1190.555 1217.650 C 1191.239 1213.914,1191.077 1213.627,1185.088 1207.928 C 1177.055 1200.283,1173.744 1199.332,1162.692 1201.495 C 1158.187 1202.376,1153.600 1203.504,1152.500 1204.000 C 1149.031 1205.565,1136.047 1207.162,1120.000 1207.997 C 1102.636 1208.900,1098.381 1209.858,1093.723 1213.916 C 1089.548 1217.551,1085.682 1219.453,1079.500 1220.910 C 1075.931 1221.752,1072.640 1223.643,1068.000 1227.520 C 1064.425 1230.506,1058.871 1234.807,1055.657 1237.075 C 1046.590 1243.477,1044.932 1250.901,1050.957 1258.118 L 1053.675 1261.373 1058.327 1259.187 C 1060.885 1257.984,1063.446 1257.000,1064.018 1257.000 C 1065.750 1257.000,1082.280 1247.995,1082.833 1246.750 C 1083.017 1246.338,1083.641 1246.000,1084.222 1246.000 C 1084.802 1246.000,1087.229 1244.200,1089.616 1242.000 C 1093.170 1238.723,1094.679 1238.000,1097.955 1238.000 C 1101.149 1238.000,1102.294 1238.519,1103.643 1240.577 C 1106.204 1244.486,1104.542 1247.832,1098.499 1250.934 C 1094.395 1253.041,1092.931 1254.571,1090.320 1259.488 C 1087.253 1265.264,1082.763 1269.985,1080.326 1269.995 C 1079.680 1269.998,1077.880 1272.517,1076.326 1275.593 C 1074.540 1279.128,1071.276 1283.140,1067.456 1286.497 C 1063.146 1290.283,1060.492 1293.694,1058.206 1298.383 C 1056.443 1301.999,1055.000 1305.326,1055.000 1305.776 C 1055.000 1306.226,1053.161 1308.373,1050.914 1310.547 C 1048.666 1312.721,1045.734 1316.636,1044.398 1319.247 C 1043.006 1321.968,1039.908 1325.595,1037.136 1327.747 C 1030.847 1332.630,1028.407 1336.438,1026.607 1344.177 C 1025.798 1347.655,1024.295 1352.373,1023.267 1354.662 C 1021.101 1359.488,1013.821 1366.000,1010.592 1366.000 C 1004.929 1366.000,1000.243 1356.412,997.427 1339.064 C 996.574 1333.804,995.477 1328.600,994.991 1327.500 C 993.229 1323.517,989.010 1309.332,987.407 1302.000 C 986.504 1297.875,985.386 1294.025,984.922 1293.445 C 984.458 1292.865,983.565 1289.076,982.936 1285.027 C 981.482 1275.656,978.055 1264.192,974.242 1255.948 C 972.602 1252.401,970.735 1247.867,970.093 1245.871 C 968.472 1240.834,966.125 1239.043,958.305 1236.875 C 949.087 1234.319,947.446 1234.465,939.629 1238.541 C 935.841 1240.517,932.068 1241.839,931.099 1241.531 C 929.217 1240.934,926.000 1235.026,926.000 1232.166 C 926.000 1231.195,925.579 1229.972,925.065 1229.450 C 924.551 1228.927,923.848 1221.750,923.505 1213.500 C 922.677 1193.656,920.810 1184.098,916.313 1176.693 C 913.468 1172.009,912.536 1169.092,911.490 1161.603 C 910.324 1153.261,907.258 1143.602,904.714 1140.258 C 904.194 1139.575,903.442 1134.850,903.042 1129.758 C 902.441 1122.097,901.497 1118.430,897.569 1108.500 C 893.690 1098.695,892.666 1094.758,891.973 1086.978 C 890.996 1076.025,890.373 1074.052,885.597 1066.801 C 883.409 1063.481,881.077 1057.766,879.353 1051.505 C 877.802 1045.871,875.706 1040.584,874.550 1039.388 C 869.907 1034.583,868.161 1030.662,866.806 1022.000 C 866.247 1018.425,865.339 1014.946,864.788 1014.269 C 863.510 1012.699,862.458 992.770,863.524 990.334 C 863.966 989.325,864.366 988.264,864.414 987.975 C 864.461 987.686,866.188 985.150,868.250 982.341 C 872.632 976.371,873.094 972.349,869.750 969.291 C 866.849 966.639,861.612 964.000,859.250 964.000 C 858.232 964.000,856.972 963.574,856.450 963.052 C 855.928 962.531,852.575 961.813,849.000 961.456 C 842.875 960.844,842.265 960.979,838.420 963.787 M2215.751 980.981 C 2211.666 984.195,2210.095 989.868,2208.891 1005.761 C 2207.749 1020.827,2208.133 1035.200,2209.939 1045.000 C 2210.497 1048.025,2211.650 1056.318,2212.502 1063.429 C 2213.355 1070.540,2214.523 1076.925,2215.098 1077.618 C 2215.691 1078.333,2216.512 1088.310,2216.996 1100.689 C 2217.681 1118.225,2218.372 1124.950,2220.521 1135.000 C 2222.425 1143.906,2223.272 1151.094,2223.466 1160.000 C 2223.724 1171.844,2223.900 1172.789,2226.808 1178.000 C 2231.081 1185.655,2232.032 1190.258,2232.953 1207.751 C 2233.395 1216.139,2234.236 1223.579,2234.821 1224.284 C 2235.406 1224.990,2236.352 1232.077,2236.923 1240.033 C 2237.493 1247.990,2238.725 1259.000,2239.660 1264.500 C 2240.724 1270.754,2241.386 1280.321,2241.430 1290.040 C 2241.508 1307.404,2240.928 1309.359,2234.825 1312.307 C 2228.034 1315.587,2224.984 1323.788,2226.980 1333.402 C 2228.142 1338.999,2229.736 1340.883,2236.428 1344.566 C 2237.489 1345.150,2239.532 1348.530,2240.969 1352.077 C 2243.231 1357.660,2251.895 1370.459,2255.466 1373.492 C 2256.119 1374.046,2258.101 1376.390,2259.871 1378.700 C 2262.101 1381.610,2265.412 1384.066,2270.658 1386.700 C 2274.821 1388.790,2280.874 1392.846,2284.110 1395.713 C 2287.345 1398.580,2290.803 1401.360,2291.795 1401.890 C 2296.798 1404.568,2343.165 1406.775,2357.972 1405.040 C 2367.706 1403.899,2373.337 1401.600,2377.406 1397.104 C 2378.453 1395.947,2379.656 1395.000,2380.079 1395.000 C 2382.041 1395.000,2398.634 1382.101,2401.869 1378.062 C 2408.326 1369.998,2414.502 1364.163,2417.330 1363.453 C 2418.850 1363.072,2420.320 1362.987,2420.598 1363.264 C 2422.068 1364.735,2418.368 1393.244,2416.025 1398.500 C 2414.127 1402.756,2410.000 1421.302,2410.000 1425.573 C 2410.000 1430.501,2413.010 1437.374,2418.617 1445.252 C 2420.478 1447.866,2422.000 1450.448,2422.000 1450.990 C 2422.000 1452.545,2429.992 1457.200,2435.716 1458.978 C 2438.585 1459.870,2441.248 1460.914,2441.633 1461.299 C 2442.555 1462.222,2448.464 1462.203,2449.392 1461.275 C 2449.791 1460.876,2452.697 1460.023,2455.850 1459.380 C 2459.594 1458.616,2464.787 1456.267,2470.826 1452.605 C 2475.910 1449.522,2480.426 1447.000,2480.860 1447.000 C 2481.294 1447.000,2484.540 1444.479,2488.074 1441.398 C 2491.609 1438.318,2496.975 1434.096,2500.000 1432.017 C 2503.025 1429.938,2510.808 1422.777,2517.296 1416.102 C 2523.784 1409.428,2530.833 1402.868,2532.962 1401.524 C 2535.090 1400.180,2537.125 1398.606,2537.484 1398.026 C 2538.450 1396.463,2545.621 1393.000,2547.892 1393.000 C 2550.179 1393.000,2552.992 1396.794,2554.935 1402.500 C 2556.412 1406.836,2559.732 1411.786,2564.306 1416.469 C 2565.901 1418.102,2568.591 1421.477,2570.284 1423.969 C 2571.977 1426.461,2576.093 1431.229,2579.431 1434.564 C 2582.769 1437.899,2586.568 1442.087,2587.873 1443.871 C 2590.723 1447.765,2597.744 1451.319,2607.053 1453.582 C 2616.172 1455.798,2623.895 1455.158,2631.492 1451.554 C 2634.788 1449.991,2639.138 1447.990,2641.159 1447.106 C 2646.307 1444.856,2662.000 1427.976,2662.000 1424.689 C 2662.000 1422.161,2657.058 1416.985,2654.673 1417.015 C 2650.975 1417.060,2640.831 1421.661,2634.808 1426.024 C 2625.997 1432.407,2618.639 1431.008,2607.620 1420.854 C 2600.428 1414.228,2591.000 1401.880,2591.000 1399.088 C 2591.000 1397.235,2588.207 1392.166,2582.705 1384.029 C 2576.534 1374.904,2574.000 1367.214,2574.000 1357.611 C 2574.000 1353.175,2573.519 1349.919,2572.750 1349.151 C 2571.065 1347.466,2570.964 1309.973,2572.639 1307.906 C 2573.265 1307.133,2574.082 1303.125,2574.453 1299.000 C 2574.824 1294.875,2575.999 1288.024,2577.064 1283.776 C 2578.129 1279.529,2579.000 1275.146,2579.000 1274.037 C 2579.000 1272.176,2574.955 1260.600,2573.013 1256.903 C 2571.356 1253.748,2575.055 1245.982,2581.499 1239.086 C 2592.662 1227.138,2596.759 1219.484,2595.170 1213.544 C 2594.282 1210.224,2585.075 1203.947,2578.355 1202.082 C 2571.250 1200.109,2557.169 1201.160,2551.764 1204.066 C 2550.809 1204.580,2547.434 1204.997,2544.264 1204.994 C 2541.094 1204.991,2533.889 1205.522,2528.253 1206.174 C 2518.078 1207.351,2504.482 1206.326,2501.588 1204.163 C 2499.511 1202.611,2492.242 1201.000,2487.318 1201.000 C 2481.594 1201.000,2471.412 1202.640,2468.500 1204.031 C 2467.400 1204.557,2460.875 1205.635,2454.000 1206.427 C 2434.386 1208.688,2430.432 1211.132,2431.209 1220.510 C 2431.717 1226.627,2433.794 1230.213,2438.809 1233.628 C 2442.898 1236.413,2456.048 1237.256,2488.681 1236.826 C 2511.933 1236.519,2512.971 1236.587,2515.681 1238.604 C 2519.725 1241.612,2519.640 1243.998,2515.290 1249.597 C 2513.194 1252.294,2510.609 1256.161,2509.545 1258.190 C 2508.480 1260.220,2502.315 1267.314,2495.843 1273.954 C 2489.372 1280.594,2482.697 1288.033,2481.010 1290.485 C 2479.323 1292.937,2476.043 1296.253,2473.722 1297.854 C 2471.400 1299.456,2467.749 1303.181,2465.608 1306.133 C 2463.467 1309.085,2459.997 1312.850,2457.896 1314.500 C 2455.796 1316.150,2452.869 1319.277,2451.393 1321.448 C 2449.917 1323.620,2446.832 1327.445,2444.537 1329.948 C 2440.628 1334.214,2436.122 1342.303,2434.481 1348.000 C 2433.270 1352.207,2430.172 1358.613,2428.800 1359.747 C 2428.085 1360.338,2425.740 1361.150,2423.589 1361.552 L 2419.677 1362.283 2420.324 1349.511 C 2420.713 1341.845,2421.460 1336.151,2422.194 1335.267 C 2423.788 1333.345,2423.965 1309.901,2422.400 1307.904 C 2421.795 1307.132,2420.733 1303.744,2420.040 1300.376 C 2419.347 1297.008,2417.431 1291.608,2415.781 1288.376 C 2414.131 1285.144,2411.508 1279.977,2409.952 1276.893 C 2408.396 1273.809,2405.639 1269.984,2403.825 1268.393 C 2402.011 1266.802,2398.495 1263.305,2396.013 1260.622 C 2374.325 1237.180,2368.651 1234.374,2345.336 1235.561 C 2334.277 1236.125,2331.653 1235.974,2328.932 1234.616 C 2323.975 1232.143,2320.476 1232.638,2311.626 1237.065 C 2303.524 1241.117,2299.000 1244.446,2299.000 1246.355 C 2299.000 1246.909,2296.541 1250.572,2293.537 1254.495 C 2290.532 1258.418,2287.719 1262.501,2287.287 1263.568 C 2283.490 1272.929,2279.057 1277.727,2275.473 1276.351 C 2273.966 1275.773,2271.599 1270.236,2271.939 1268.086 C 2272.062 1267.309,2271.712 1265.734,2271.162 1264.586 C 2269.142 1260.379,2266.709 1233.290,2267.397 1222.682 C 2267.946 1214.211,2267.728 1211.324,2266.098 1205.500 C 2265.020 1201.650,2263.602 1195.350,2262.946 1191.500 C 2262.291 1187.650,2261.381 1184.030,2260.925 1183.456 C 2258.880 1180.878,2255.921 1162.735,2255.021 1147.249 C 2253.671 1124.027,2251.898 1104.690,2251.011 1103.500 C 2250.601 1102.950,2249.974 1100.250,2249.617 1097.500 C 2249.260 1094.750,2248.022 1088.900,2246.867 1084.500 C 2245.712 1080.100,2244.027 1073.125,2243.122 1069.000 C 2242.218 1064.875,2241.120 1060.938,2240.681 1060.251 C 2240.243 1059.565,2239.262 1044.940,2238.501 1027.751 C 2236.924 992.077,2236.095 987.308,2230.603 982.275 C 2227.703 979.617,2226.204 979.000,2222.650 979.000 C 2219.798 979.000,2217.391 979.691,2215.751 980.981 M397.823 1011.663 C 392.446 1015.813,389.825 1021.021,389.700 1027.810 C 389.601 1033.148,394.056 1054.366,396.088 1058.236 C 397.483 1060.893,397.258 1101.342,395.841 1102.759 C 394.299 1104.301,394.166 1147.270,395.697 1149.179 C 396.777 1150.526,397.923 1179.891,398.596 1223.453 C 398.790 1236.076,399.411 1249.722,399.975 1253.775 C 400.539 1257.828,401.000 1264.121,401.000 1267.758 C 401.000 1271.396,401.725 1277.265,402.612 1280.800 C 404.276 1287.436,404.118 1293.915,402.057 1303.442 C 401.304 1306.925,401.297 1312.245,402.033 1321.459 C 402.970 1333.194,402.868 1335.607,401.041 1345.017 C 398.287 1359.203,398.469 1366.490,401.998 1383.255 C 406.208 1403.261,408.923 1407.957,417.175 1409.505 C 422.021 1410.414,431.654 1407.706,435.011 1404.490 C 440.232 1399.487,441.379 1384.314,437.498 1371.591 C 435.700 1365.699,435.596 1357.763,437.161 1346.004 C 438.496 1335.979,437.075 1309.050,434.505 1295.662 C 433.677 1291.351,433.000 1285.254,433.000 1282.112 C 433.000 1278.970,432.577 1275.972,432.060 1275.450 C 431.544 1274.927,430.846 1265.950,430.511 1255.500 C 430.176 1245.050,429.461 1231.945,428.922 1226.378 C 426.385 1200.147,425.108 1168.959,426.094 1157.290 C 427.396 1141.868,426.261 1093.598,424.405 1085.500 C 423.556 1081.796,423.024 1073.495,423.015 1063.809 C 423.007 1055.179,422.617 1047.881,422.149 1047.592 C 421.681 1047.303,420.981 1041.773,420.594 1035.304 C 419.779 1021.673,418.026 1016.647,412.656 1012.551 C 407.282 1008.452,402.366 1008.158,397.823 1011.663 M255.234 1029.111 C 252.338 1029.593,247.388 1031.059,244.234 1032.367 C 235.218 1036.107,232.404 1036.801,217.608 1038.939 C 202.488 1041.124,199.283 1042.357,189.840 1049.623 C 186.639 1052.086,181.450 1055.238,178.309 1056.627 C 172.870 1059.032,166.769 1063.897,154.162 1075.882 C 151.048 1078.842,146.230 1082.734,143.456 1084.531 C 140.682 1086.328,137.176 1089.582,135.665 1091.763 C 134.068 1094.066,130.735 1096.890,127.708 1098.503 C 121.808 1101.648,117.000 1105.756,117.000 1107.652 C 117.000 1108.355,116.100 1109.411,115.000 1110.000 C 113.900 1110.589,113.000 1111.513,113.000 1112.055 C 113.000 1112.597,111.876 1114.820,110.503 1116.996 C 109.129 1119.172,107.501 1123.100,106.884 1125.726 C 106.268 1128.352,105.367 1131.281,104.882 1132.236 C 104.397 1133.191,104.000 1134.863,104.000 1135.952 C 104.000 1137.040,102.650 1139.468,101.000 1141.347 C 99.350 1143.226,98.000 1145.219,98.000 1145.775 C 98.000 1146.331,97.313 1147.050,96.474 1147.372 C 95.634 1147.694,94.032 1150.092,92.914 1152.701 C 91.796 1155.310,88.494 1159.947,85.577 1163.005 C 82.659 1166.063,79.944 1169.676,79.542 1171.033 C 79.141 1172.390,76.417 1178.450,73.491 1184.500 C 68.066 1195.712,65.235 1205.638,62.365 1223.500 C 61.570 1228.450,60.254 1234.975,59.440 1238.000 C 56.710 1248.150,56.475 1258.843,58.789 1267.635 C 59.928 1271.961,61.344 1280.161,61.937 1285.858 C 62.530 1291.554,63.342 1296.729,63.742 1297.358 C 64.142 1297.986,64.504 1298.725,64.545 1299.000 C 64.587 1299.275,65.382 1301.242,66.311 1303.372 C 67.240 1305.502,68.000 1307.371,68.000 1307.526 C 68.000 1307.681,69.532 1310.519,71.405 1313.832 C 73.278 1317.145,74.597 1320.070,74.336 1320.331 C 74.075 1320.592,74.290 1321.637,74.814 1322.653 C 75.338 1323.669,76.752 1328.100,77.957 1332.500 C 79.162 1336.900,81.244 1341.850,82.585 1343.500 C 83.925 1345.150,86.769 1348.975,88.904 1352.000 C 93.245 1358.150,107.506 1372.139,116.429 1379.000 C 119.648 1381.475,125.930 1385.383,130.390 1387.685 C 134.851 1389.987,140.300 1393.389,142.500 1395.244 C 148.993 1400.719,153.042 1402.754,163.042 1405.568 C 168.244 1407.032,174.300 1409.252,176.500 1410.501 C 181.407 1413.286,192.845 1416.485,203.424 1418.032 C 209.298 1418.890,215.249 1418.911,226.424 1418.113 C 234.716 1417.521,244.425 1416.848,248.000 1416.617 C 254.496 1416.197,264.000 1412.812,264.000 1410.918 C 264.000 1409.467,272.347 1406.111,281.500 1403.883 C 285.900 1402.812,290.400 1401.522,291.500 1401.017 C 292.600 1400.511,298.192 1398.501,303.926 1396.549 C 317.009 1392.095,318.631 1391.014,320.127 1385.754 C 320.793 1383.414,321.711 1381.072,322.169 1380.550 C 323.282 1379.278,323.236 1367.264,322.115 1366.571 C 321.629 1366.271,320.935 1364.055,320.574 1361.648 C 319.576 1354.992,316.364 1352.500,309.000 1352.670 C 305.769 1352.744,302.534 1353.179,301.812 1353.637 C 301.091 1354.095,300.275 1354.485,300.000 1354.504 C 296.830 1354.725,288.000 1364.503,288.000 1367.792 C 288.000 1368.749,276.782 1374.000,274.739 1374.000 C 273.847 1374.000,272.840 1374.450,272.500 1375.000 C 272.160 1375.550,271.071 1376.000,270.080 1376.000 C 269.088 1376.000,264.762 1378.317,260.467 1381.150 C 253.439 1385.783,251.896 1386.379,245.078 1387.096 C 233.939 1388.266,207.662 1388.164,200.082 1386.920 C 196.462 1386.326,191.135 1384.756,188.245 1383.431 C 185.355 1382.105,180.180 1379.880,176.745 1378.485 C 173.310 1377.091,169.694 1375.496,168.709 1374.941 C 167.724 1374.386,166.518 1374.180,166.028 1374.482 C 165.539 1374.785,164.887 1374.626,164.580 1374.130 C 164.273 1373.633,162.460 1372.934,160.550 1372.575 C 158.417 1372.175,155.038 1370.079,151.789 1367.141 C 147.143 1362.940,137.791 1356.000,136.776 1356.000 C 135.682 1356.000,125.184 1345.077,124.011 1342.717 C 123.250 1341.187,119.545 1336.687,115.778 1332.717 C 112.010 1328.748,107.749 1323.475,106.307 1321.000 C 104.866 1318.525,101.912 1314.359,99.743 1311.741 C 94.768 1305.738,93.322 1300.902,92.445 1287.331 C 92.059 1281.374,91.316 1275.960,90.791 1275.300 C 90.267 1274.640,89.937 1272.615,90.058 1270.800 C 90.178 1268.985,89.924 1266.667,89.493 1265.649 C 88.407 1263.086,89.564 1232.726,90.837 1230.395 C 91.406 1229.353,92.551 1224.450,93.381 1219.500 C 94.584 1212.329,95.990 1208.367,100.299 1200.000 C 105.744 1189.431,107.375 1184.235,108.502 1173.866 C 109.162 1167.798,110.956 1164.720,117.578 1158.293 C 120.953 1155.018,121.848 1153.221,123.465 1146.466 C 125.398 1138.391,128.949 1132.000,131.503 1132.000 C 132.273 1132.000,134.362 1129.862,136.144 1127.250 C 137.926 1124.638,141.520 1120.250,144.130 1117.500 C 146.741 1114.750,150.367 1110.510,152.189 1108.077 C 154.010 1105.645,158.094 1101.820,161.265 1099.577 C 164.435 1097.335,168.449 1093.759,170.185 1091.632 C 172.169 1089.200,175.622 1086.740,179.485 1085.007 C 182.864 1083.491,188.075 1080.388,191.064 1078.112 C 194.054 1075.837,198.243 1073.498,200.374 1072.915 C 202.505 1072.333,205.430 1071.364,206.874 1070.762 C 208.318 1070.160,209.725 1069.592,210.000 1069.500 C 212.253 1068.745,217.265 1066.509,221.000 1064.593 C 223.475 1063.323,227.300 1061.711,229.500 1061.012 C 231.700 1060.312,233.950 1059.401,234.500 1058.987 C 237.208 1056.949,251.301 1054.807,262.000 1054.807 C 274.893 1054.807,302.853 1057.675,304.706 1059.188 C 305.370 1059.729,306.351 1059.901,306.887 1059.570 C 307.423 1059.238,308.113 1059.374,308.420 1059.870 C 308.727 1060.367,310.670 1061.084,312.739 1061.463 C 317.185 1062.278,334.719 1067.741,337.291 1069.113 C 338.276 1069.638,339.482 1069.820,339.972 1069.518 C 340.461 1069.215,341.144 1069.425,341.490 1069.984 C 341.835 1070.543,343.087 1071.000,344.272 1071.000 C 345.578 1071.000,348.413 1073.101,351.471 1076.336 C 357.662 1082.882,360.218 1084.331,364.083 1083.482 C 368.111 1082.597,373.002 1078.304,372.992 1075.661 C 372.988 1074.472,371.526 1070.575,369.742 1067.000 C 366.668 1060.837,366.128 1060.319,359.314 1057.000 C 355.362 1055.075,350.346 1052.054,348.168 1050.286 C 342.855 1045.975,335.085 1042.541,326.000 1040.487 C 314.446 1037.876,306.014 1035.172,302.337 1032.899 C 295.576 1028.720,269.951 1026.660,255.234 1029.111 M1443.950 1029.882 C 1435.727 1030.428,1432.640 1031.056,1429.950 1032.733 C 1422.497 1037.380,1417.451 1039.072,1408.168 1040.034 C 1398.589 1041.028,1395.165 1042.369,1388.705 1047.658 C 1387.168 1048.917,1384.018 1050.458,1381.705 1051.083 C 1379.392 1051.709,1376.600 1052.560,1375.500 1052.976 C 1374.400 1053.392,1370.800 1054.761,1367.500 1056.018 C 1364.200 1057.275,1358.800 1060.180,1355.500 1062.473 C 1352.200 1064.767,1346.711 1068.317,1343.301 1070.363 C 1339.892 1072.409,1335.692 1075.864,1333.967 1078.041 C 1332.243 1080.219,1330.359 1082.000,1329.781 1082.000 C 1329.202 1082.000,1327.719 1083.013,1326.484 1084.250 C 1325.249 1085.487,1323.122 1087.262,1321.756 1088.194 C 1320.390 1089.125,1318.340 1091.872,1317.200 1094.297 C 1316.041 1096.763,1312.874 1100.594,1310.016 1102.986 C 1303.209 1108.685,1302.144 1110.761,1293.576 1135.000 C 1292.701 1137.475,1291.515 1140.319,1290.941 1141.319 C 1289.372 1144.053,1288.219 1157.235,1288.564 1168.500 C 1288.733 1174.000,1288.900 1179.676,1288.935 1181.113 C 1288.972 1182.604,1291.147 1186.636,1294.000 1190.500 C 1296.750 1194.225,1299.000 1197.842,1299.000 1198.538 C 1299.000 1200.448,1307.981 1212.000,1309.466 1212.000 C 1310.819 1212.000,1315.193 1217.266,1316.270 1220.192 C 1316.612 1221.122,1318.154 1222.655,1319.696 1223.598 C 1323.184 1225.731,1328.472 1229.308,1332.808 1232.468 C 1334.627 1233.794,1338.227 1235.652,1340.808 1236.597 C 1347.535 1239.059,1353.707 1243.060,1354.935 1245.756 C 1356.968 1250.220,1352.412 1256.702,1344.302 1260.882 C 1343.094 1261.505,1337.919 1262.272,1332.802 1262.586 C 1327.686 1262.900,1322.600 1263.550,1321.500 1264.030 C 1320.400 1264.509,1314.690 1265.390,1308.812 1265.986 C 1295.231 1267.365,1289.412 1269.111,1284.456 1273.296 C 1282.280 1275.134,1278.475 1278.026,1276.000 1279.723 C 1270.196 1283.703,1265.402 1288.760,1264.061 1292.315 C 1262.549 1296.326,1262.749 1303.280,1264.443 1305.559 C 1265.856 1307.461,1265.982 1307.446,1270.770 1304.789 C 1273.456 1303.299,1277.645 1301.775,1280.077 1301.403 C 1282.510 1301.031,1284.950 1300.389,1285.500 1299.977 C 1286.050 1299.564,1288.525 1298.900,1291.000 1298.501 C 1297.550 1297.446,1301.578 1295.541,1306.590 1291.129 C 1311.134 1287.130,1319.752 1282.529,1324.723 1281.448 C 1326.250 1281.116,1328.400 1280.456,1329.500 1279.981 C 1330.600 1279.506,1336.900 1278.942,1343.500 1278.728 C 1358.724 1278.233,1365.041 1276.307,1372.712 1269.821 C 1379.908 1263.736,1382.837 1263.181,1393.843 1265.814 C 1398.604 1266.953,1405.102 1268.170,1408.282 1268.518 C 1411.462 1268.867,1415.287 1269.790,1416.782 1270.570 C 1418.277 1271.350,1419.881 1271.990,1420.346 1271.994 C 1420.811 1271.997,1422.399 1272.860,1423.874 1273.910 C 1428.432 1277.156,1435.840 1280.809,1439.249 1281.492 C 1446.713 1282.988,1458.796 1287.365,1462.865 1290.048 C 1467.475 1293.087,1473.022 1294.958,1484.500 1297.346 C 1488.900 1298.261,1496.329 1301.208,1504.500 1305.281 C 1515.044 1310.536,1519.290 1312.083,1526.977 1313.472 C 1537.421 1315.358,1541.012 1316.826,1545.500 1321.043 C 1547.150 1322.593,1550.778 1324.999,1553.561 1326.389 C 1564.677 1331.939,1569.979 1338.847,1569.994 1347.800 C 1570.001 1351.696,1567.496 1357.000,1565.649 1357.000 C 1563.839 1357.000,1560.582 1360.781,1558.472 1365.331 C 1556.950 1368.614,1547.583 1377.000,1545.440 1377.000 C 1545.084 1377.000,1542.549 1379.019,1539.805 1381.486 C 1535.976 1384.928,1532.918 1386.568,1526.658 1388.537 C 1522.164 1389.950,1516.804 1392.457,1514.725 1394.118 C 1512.648 1395.777,1509.048 1397.962,1506.725 1398.974 C 1502.477 1400.823,1486.097 1404.000,1480.810 1404.000 C 1479.250 1404.000,1477.191 1404.409,1476.236 1404.910 C 1468.336 1409.050,1397.385 1409.055,1392.398 1404.916 C 1391.781 1404.403,1384.127 1403.556,1375.388 1403.033 C 1356.922 1401.928,1352.984 1401.002,1347.398 1396.451 C 1343.214 1393.042,1340.716 1391.765,1330.990 1388.061 C 1327.959 1386.907,1323.209 1384.283,1320.434 1382.231 C 1317.660 1380.179,1313.175 1377.375,1310.468 1376.000 C 1307.445 1374.464,1300.478 1368.486,1292.405 1360.500 C 1285.176 1353.350,1276.960 1345.451,1274.146 1342.948 C 1270.924 1340.081,1268.808 1337.290,1268.432 1335.410 C 1267.096 1328.729,1256.857 1325.738,1255.386 1331.599 C 1253.876 1337.614,1258.881 1354.973,1262.529 1356.373 C 1263.252 1356.650,1265.067 1359.042,1266.562 1361.689 C 1271.966 1371.251,1274.084 1374.028,1277.760 1376.370 C 1279.817 1377.681,1286.996 1384.196,1293.713 1390.848 C 1301.146 1398.209,1307.017 1403.205,1308.713 1403.612 C 1313.058 1404.655,1317.156 1406.964,1321.380 1410.751 C 1326.439 1415.287,1334.509 1418.926,1341.173 1419.675 C 1344.103 1420.005,1346.950 1420.601,1347.500 1421.000 C 1348.050 1421.400,1351.528 1421.995,1355.228 1422.323 C 1361.552 1422.885,1367.955 1425.134,1377.205 1430.042 C 1383.931 1433.611,1394.428 1434.383,1437.000 1434.443 C 1467.400 1434.486,1479.495 1434.152,1485.500 1433.103 C 1489.900 1432.335,1493.950 1431.374,1494.500 1430.966 C 1495.050 1430.559,1497.525 1429.898,1500.000 1429.498 C 1504.110 1428.833,1507.390 1427.510,1522.605 1420.383 C 1525.412 1419.068,1530.262 1417.114,1533.382 1416.041 C 1536.502 1414.967,1540.990 1412.504,1543.354 1410.566 C 1545.718 1408.629,1550.094 1405.903,1553.077 1404.509 C 1556.059 1403.115,1562.325 1399.080,1567.000 1395.542 C 1571.675 1392.004,1577.530 1387.587,1580.011 1385.727 C 1583.659 1382.992,1585.501 1380.348,1589.628 1371.922 C 1592.436 1366.190,1595.299 1359.700,1595.990 1357.500 C 1596.680 1355.300,1597.640 1352.719,1598.123 1351.764 C 1599.311 1349.413,1599.234 1344.263,1598.000 1343.500 C 1597.450 1343.160,1597.000 1341.863,1597.000 1340.617 C 1597.000 1338.054,1592.703 1323.183,1591.094 1320.175 C 1590.005 1318.141,1578.775 1310.000,1577.058 1310.000 C 1576.528 1310.000,1575.342 1308.416,1574.424 1306.480 C 1572.102 1301.587,1568.852 1299.643,1558.878 1297.177 C 1553.881 1295.942,1547.363 1293.402,1543.378 1291.136 C 1539.595 1288.986,1534.700 1286.667,1532.500 1285.983 C 1530.300 1285.299,1528.050 1284.388,1527.500 1283.959 C 1526.950 1283.530,1523.125 1282.462,1519.000 1281.587 C 1506.323 1278.895,1504.645 1278.390,1500.119 1275.905 C 1497.709 1274.582,1494.639 1272.897,1493.295 1272.160 C 1491.952 1271.423,1485.935 1269.503,1479.925 1267.893 C 1472.405 1265.878,1466.634 1263.567,1461.416 1260.482 C 1457.247 1258.017,1453.534 1255.997,1453.167 1255.994 C 1452.800 1255.990,1451.150 1255.279,1449.500 1254.413 C 1447.850 1253.547,1441.708 1251.776,1435.852 1250.476 C 1424.905 1248.046,1421.417 1246.745,1414.500 1242.509 C 1412.300 1241.162,1408.475 1239.777,1406.000 1239.431 C 1397.391 1238.226,1391.247 1235.915,1385.890 1231.864 C 1381.166 1228.292,1369.425 1222.000,1367.483 1222.000 C 1365.868 1222.000,1356.516 1216.744,1352.669 1213.674 C 1350.376 1211.844,1345.880 1209.095,1342.677 1207.564 C 1337.005 1204.853,1332.040 1199.681,1329.943 1194.298 C 1329.472 1193.087,1327.813 1191.438,1326.258 1190.633 C 1322.203 1188.536,1318.000 1179.274,1318.000 1172.433 C 1318.000 1170.610,1317.550 1168.840,1317.000 1168.500 C 1316.450 1168.160,1316.000 1166.135,1316.000 1164.000 C 1316.000 1161.865,1316.450 1159.840,1317.000 1159.500 C 1317.550 1159.160,1318.000 1157.104,1318.000 1154.930 C 1318.000 1150.154,1321.349 1134.703,1323.667 1128.782 C 1324.590 1126.427,1328.166 1120.423,1331.614 1115.441 C 1336.584 1108.259,1338.930 1105.812,1342.934 1103.632 C 1345.713 1102.120,1349.291 1099.784,1350.887 1098.442 C 1352.483 1097.099,1354.174 1095.983,1354.644 1095.962 C 1355.115 1095.941,1357.075 1093.900,1359.000 1091.426 C 1361.075 1088.760,1364.660 1085.829,1367.805 1084.228 C 1370.722 1082.742,1375.151 1079.840,1377.647 1077.777 C 1382.079 1074.115,1384.752 1073.042,1394.649 1070.954 C 1401.885 1069.427,1402.304 1069.326,1404.846 1068.489 C 1406.136 1068.064,1410.861 1065.901,1415.346 1063.682 C 1419.831 1061.463,1423.725 1059.577,1424.000 1059.490 C 1424.275 1059.403,1425.850 1058.765,1427.500 1058.072 C 1431.169 1056.530,1468.938 1054.778,1481.000 1055.589 C 1497.419 1056.694,1500.303 1057.515,1513.000 1064.694 C 1518.957 1068.063,1521.480 1069.424,1522.000 1069.551 C 1522.275 1069.618,1523.175 1069.951,1524.000 1070.290 C 1524.825 1070.630,1528.200 1071.660,1531.500 1072.581 C 1535.152 1073.599,1539.793 1075.969,1543.361 1078.636 C 1546.584 1081.046,1550.409 1083.302,1551.861 1083.651 C 1564.404 1086.660,1575.401 1101.696,1576.250 1117.000 C 1576.473 1121.015,1576.759 1121.500,1578.902 1121.500 C 1580.761 1121.500,1581.911 1120.368,1583.985 1116.500 C 1585.605 1113.480,1589.009 1109.611,1592.583 1106.729 C 1600.698 1100.185,1602.282 1097.123,1601.612 1089.278 C 1601.320 1085.856,1600.406 1081.806,1599.581 1080.278 C 1598.757 1078.750,1593.226 1072.529,1587.291 1066.452 C 1577.935 1056.874,1575.369 1054.855,1568.000 1051.269 C 1563.325 1048.995,1556.575 1046.414,1553.000 1045.533 C 1549.425 1044.652,1545.600 1043.533,1544.500 1043.045 C 1543.400 1042.558,1538.225 1041.402,1533.000 1040.476 C 1521.001 1038.350,1502.814 1034.042,1501.500 1033.015 C 1497.736 1030.074,1466.611 1028.380,1443.950 1029.882 M1983.619 1041.034 C 1979.101 1042.387,1976.138 1045.819,1971.446 1055.133 C 1969.055 1059.881,1965.295 1065.848,1963.092 1068.394 C 1957.105 1075.311,1956.883 1078.504,1961.813 1086.801 C 1965.123 1092.374,1966.051 1095.116,1966.970 1102.048 C 1968.681 1114.957,1969.232 1116.019,1978.797 1124.847 C 1983.584 1129.264,1989.300 1134.715,1991.500 1136.960 C 2010.231 1156.074,2012.283 1157.870,2019.692 1161.630 C 2023.880 1163.756,2028.207 1166.713,2029.307 1168.202 C 2034.845 1175.692,2044.000 1170.653,2044.000 1160.115 C 2044.000 1154.045,2042.506 1151.299,2037.934 1148.966 C 2035.653 1147.802,2031.922 1144.793,2029.643 1142.278 C 2027.364 1139.763,2022.463 1134.656,2018.750 1130.928 C 2015.037 1127.201,2012.000 1123.480,2012.000 1122.661 C 2012.000 1121.841,2009.786 1119.545,2007.081 1117.559 C 2001.446 1113.423,1996.262 1107.819,1995.000 1104.500 C 1994.524 1103.247,1992.191 1100.918,1989.817 1099.325 C 1984.829 1095.978,1983.299 1093.258,1981.767 1085.022 C 1979.706 1073.939,1982.716 1066.564,1991.129 1062.082 C 1995.248 1059.889,1996.970 1056.768,1996.972 1051.500 C 1996.973 1045.426,1996.020 1043.062,1992.923 1041.460 C 1989.793 1039.842,1987.893 1039.755,1983.619 1041.034 M968.806 1134.040 C 965.009 1137.837,965.353 1140.375,970.946 1149.800 C 973.850 1154.694,976.347 1157.444,980.211 1160.000 C 983.120 1161.925,990.000 1168.017,995.500 1173.538 C 1001.000 1179.058,1006.826 1184.233,1008.446 1185.038 C 1010.067 1185.842,1012.406 1187.430,1013.644 1188.566 C 1016.941 1191.592,1022.380 1193.010,1026.414 1191.896 C 1030.604 1190.739,1031.935 1189.178,1032.688 1184.534 C 1033.263 1180.992,1033.002 1180.617,1023.390 1171.179 C 1017.950 1165.838,1011.357 1160.019,1008.738 1158.246 C 1006.119 1156.474,1002.519 1152.916,1000.738 1150.338 C 994.320 1141.051,987.694 1133.770,984.411 1132.398 C 982.570 1131.629,978.990 1131.000,976.455 1131.000 C 972.654 1131.000,971.313 1131.533,968.806 1134.040 M570.291 1184.047 C 567.977 1185.132,563.252 1186.750,559.791 1187.641 C 554.270 1189.063,552.521 1189.099,545.500 1187.932 C 535.432 1186.259,527.432 1186.434,518.500 1188.523 C 506.706 1191.281,502.379 1193.595,500.572 1198.113 C 497.654 1205.405,499.387 1215.336,504.000 1217.763 C 507.655 1219.686,512.979 1218.678,518.049 1215.105 C 523.041 1211.586,530.270 1210.217,536.000 1211.706 C 540.995 1213.004,541.380 1217.550,537.010 1223.636 C 535.284 1226.039,532.566 1230.816,530.970 1234.252 C 527.125 1242.527,525.247 1244.744,518.938 1248.448 C 515.873 1250.248,512.838 1252.993,511.740 1254.959 C 510.695 1256.828,508.355 1260.190,506.539 1262.429 C 504.722 1264.668,502.041 1268.880,500.581 1271.790 C 499.121 1274.699,496.480 1278.979,494.713 1281.299 C 491.707 1285.247,487.345 1294.195,486.571 1298.000 C 486.515 1298.275,486.151 1298.999,485.763 1299.609 C 485.374 1300.219,484.359 1306.375,483.507 1313.288 C 482.655 1320.201,481.238 1327.577,480.360 1329.679 C 479.481 1331.780,478.294 1334.625,477.721 1336.000 C 477.148 1337.375,476.763 1339.029,476.866 1339.675 C 476.969 1340.321,476.591 1341.135,476.027 1341.484 C 473.821 1342.847,474.985 1350.459,478.452 1357.340 C 480.347 1361.103,482.849 1367.040,484.012 1370.535 C 486.840 1379.035,491.625 1383.910,500.063 1386.888 C 503.603 1388.138,507.288 1389.578,508.250 1390.089 C 509.294 1390.642,510.706 1390.655,511.750 1390.120 C 512.712 1389.627,518.563 1388.558,524.750 1387.744 C 533.917 1386.540,536.695 1385.769,539.750 1383.583 C 541.813 1382.108,545.750 1379.368,548.500 1377.494 C 556.520 1372.030,559.000 1369.930,559.000 1368.604 C 559.000 1367.920,560.610 1365.479,562.578 1363.180 C 569.205 1355.437,575.248 1358.600,579.431 1372.000 C 580.376 1375.025,584.507 1384.274,588.612 1392.553 C 595.618 1406.684,596.609 1408.131,604.787 1416.171 C 614.696 1425.911,620.253 1430.000,623.581 1430.000 C 624.846 1430.000,626.160 1430.450,626.500 1431.000 C 627.498 1432.615,630.280 1432.167,635.808 1429.500 C 638.658 1428.125,641.351 1427.000,641.792 1427.000 C 643.281 1427.000,649.993 1419.436,652.004 1415.492 C 654.677 1410.248,654.519 1405.782,651.487 1400.980 C 648.551 1396.329,646.824 1396.076,641.712 1399.549 C 636.797 1402.890,629.010 1403.892,625.555 1401.628 C 624.072 1400.656,621.218 1396.148,618.569 1390.591 C 616.106 1385.424,613.732 1381.040,613.295 1380.848 C 611.423 1380.028,607.842 1369.704,605.940 1359.647 C 604.811 1353.677,603.464 1348.052,602.945 1347.147 C 602.427 1346.241,600.821 1341.450,599.376 1336.500 C 595.763 1324.122,594.985 1306.945,597.572 1296.707 C 600.074 1286.804,599.751 1278.118,596.569 1269.727 C 592.615 1259.303,592.874 1257.684,600.735 1243.698 C 601.415 1242.489,601.977 1240.064,601.985 1238.309 C 601.993 1236.554,602.450 1234.840,603.000 1234.500 C 603.600 1234.129,604.000 1227.374,604.000 1217.595 C 604.000 1199.179,603.655 1197.924,596.798 1191.427 C 587.644 1182.753,586.305 1181.997,580.173 1182.037 C 576.682 1182.059,572.881 1182.832,570.291 1184.047 M2057.205 1199.086 C 2052.579 1201.255,2049.384 1205.500,2048.380 1210.813 C 2047.923 1213.229,2048.508 1215.937,2050.541 1220.813 C 2052.073 1224.491,2053.662 1227.950,2054.072 1228.500 C 2054.481 1229.050,2055.590 1233.775,2056.537 1239.000 C 2058.150 1247.909,2060.801 1256.143,2065.068 1265.500 C 2066.071 1267.700,2068.037 1275.295,2069.436 1282.377 C 2070.835 1289.459,2072.623 1296.542,2073.408 1298.117 C 2074.194 1299.691,2075.154 1302.447,2075.542 1304.240 C 2075.931 1306.033,2077.575 1310.139,2079.196 1313.365 C 2081.588 1318.123,2082.251 1320.954,2082.707 1328.365 C 2083.016 1333.389,2083.693 1338.038,2084.212 1338.695 C 2084.730 1339.353,2085.034 1342.155,2084.887 1344.922 C 2084.740 1347.689,2084.930 1350.264,2085.310 1350.643 C 2086.221 1351.555,2086.204 1367.463,2085.291 1368.376 C 2084.901 1368.766,2084.707 1370.820,2084.860 1372.941 C 2085.013 1375.061,2084.657 1377.094,2084.069 1377.457 C 2082.689 1378.310,2082.682 1382.685,2084.059 1383.536 C 2084.642 1383.896,2084.993 1385.161,2084.840 1386.346 C 2084.687 1387.530,2084.816 1388.950,2085.127 1389.500 C 2085.437 1390.050,2086.261 1392.606,2086.956 1395.179 C 2087.651 1397.753,2089.183 1400.752,2090.360 1401.845 C 2094.811 1405.977,2109.580 1406.471,2115.364 1402.681 C 2119.296 1400.105,2119.988 1395.357,2119.994 1370.950 C 2119.998 1355.830,2120.364 1348.036,2121.105 1347.295 C 2122.516 1345.884,2122.641 1329.487,2121.254 1327.776 C 2119.792 1325.974,2115.000 1307.856,2115.000 1304.134 C 2115.000 1302.430,2115.541 1297.882,2116.202 1294.025 C 2117.324 1287.482,2117.257 1286.710,2115.202 1282.480 C 2113.991 1279.986,2113.000 1276.171,2113.000 1274.002 C 2113.000 1268.118,2117.228 1259.660,2123.411 1253.178 C 2127.676 1248.708,2129.607 1245.582,2132.038 1239.214 C 2136.903 1226.476,2141.508 1224.314,2149.850 1230.850 C 2151.857 1232.423,2154.507 1234.239,2155.738 1234.884 C 2160.130 1237.187,2161.669 1243.137,2163.012 1263.000 C 2163.700 1273.175,2164.653 1281.928,2165.131 1282.450 C 2165.609 1282.973,2166.000 1284.629,2166.000 1286.132 C 2166.000 1287.634,2167.370 1292.580,2169.045 1297.123 C 2171.199 1302.964,2172.400 1308.619,2173.148 1316.441 C 2173.730 1322.523,2174.610 1327.928,2175.103 1328.450 C 2176.436 1329.862,2176.215 1345.385,2174.842 1346.758 C 2174.057 1347.543,2174.006 1348.330,2174.686 1349.208 C 2175.236 1349.918,2176.242 1354.550,2176.920 1359.500 C 2179.945 1381.587,2180.002 1381.813,2183.654 1386.185 C 2189.119 1392.726,2189.828 1394.890,2191.001 1408.602 C 2192.357 1424.464,2192.600 1425.563,2195.799 1430.320 C 2199.127 1435.267,2202.633 1437.000,2209.315 1437.000 C 2219.291 1437.000,2223.578 1430.888,2222.515 1418.182 C 2222.162 1413.957,2221.515 1409.600,2221.077 1408.500 C 2220.639 1407.400,2219.438 1403.800,2218.410 1400.500 C 2217.381 1397.200,2215.706 1392.757,2214.687 1390.627 C 2213.668 1388.497,2212.584 1385.122,2212.278 1383.127 C 2211.973 1381.132,2211.393 1379.050,2210.990 1378.500 C 2210.587 1377.950,2209.951 1371.642,2209.576 1364.481 C 2209.201 1357.321,2208.431 1349.671,2207.866 1347.481 C 2207.300 1345.292,2206.463 1335.850,2206.004 1326.500 C 2205.153 1309.125,2202.776 1290.082,2201.011 1286.500 C 2200.469 1285.400,2198.884 1278.222,2197.488 1270.548 C 2194.449 1253.845,2192.371 1244.657,2191.091 1242.265 C 2190.571 1241.294,2188.761 1237.407,2187.068 1233.627 C 2182.450 1223.315,2175.246 1213.001,2171.597 1211.476 C 2169.894 1210.764,2165.251 1208.341,2161.281 1206.091 C 2154.434 1202.211,2153.634 1202.000,2145.781 1202.006 C 2140.683 1202.010,2136.480 1202.545,2134.847 1203.397 C 2133.387 1204.158,2130.597 1205.308,2128.647 1205.952 C 2124.882 1207.194,2119.000 1213.059,2119.000 1215.569 C 2119.000 1216.394,2115.847 1220.222,2111.994 1224.075 C 2107.844 1228.225,2103.762 1233.510,2101.980 1237.041 C 2099.525 1241.902,2098.516 1243.000,2096.498 1243.000 C 2093.515 1243.000,2090.181 1238.174,2087.520 1230.000 C 2085.032 1222.358,2083.766 1220.078,2077.083 1211.191 C 2070.974 1203.067,2064.789 1196.974,2062.715 1197.037 C 2062.047 1197.057,2059.567 1197.979,2057.205 1199.086 M1886.637 1207.601 C 1892.639 1209.211,1894.560 1228.941,1890.179 1243.980 C 1888.980 1248.094,1888.000 1253.297,1888.000 1255.542 C 1888.000 1260.139,1891.598 1274.811,1893.199 1276.740 C 1893.774 1277.433,1893.910 1278.000,1893.500 1278.000 C 1893.090 1278.000,1893.260 1278.608,1893.876 1279.351 C 1895.756 1281.616,1896.383 1289.425,1894.901 1292.100 C 1894.169 1293.420,1893.539 1294.725,1893.500 1295.000 C 1893.461 1295.275,1892.902 1296.447,1892.257 1297.605 C 1890.165 1301.362,1888.881 1313.179,1889.194 1325.808 C 1889.539 1339.724,1890.663 1337.256,1880.089 1345.806 L 1876.000 1349.113 1876.000 1356.589 C 1876.000 1365.204,1874.318 1370.090,1870.488 1372.600 C 1867.657 1374.455,1863.185 1375.108,1862.368 1373.786 C 1862.101 1373.354,1860.896 1372.997,1859.691 1372.993 C 1856.629 1372.984,1852.188 1369.838,1849.879 1366.042 C 1847.251 1361.719,1844.045 1343.415,1843.110 1327.388 C 1842.495 1316.839,1841.910 1313.418,1840.119 1309.888 C 1838.895 1307.475,1837.635 1303.187,1837.318 1300.361 C 1836.718 1295.000,1836.668 1295.151,1842.762 1284.000 C 1844.416 1280.975,1846.330 1275.418,1847.016 1271.651 C 1848.394 1264.088,1851.322 1257.884,1856.492 1251.575 C 1859.070 1248.429,1860.522 1244.998,1862.467 1237.459 C 1863.880 1231.982,1865.931 1226.375,1867.025 1225.000 C 1868.118 1223.625,1871.029 1219.534,1873.492 1215.909 C 1878.841 1208.039,1881.650 1206.263,1886.637 1207.601 M2832.226 1215.039 C 2828.576 1216.506,2823.075 1221.229,2820.823 1224.828 C 2819.162 1227.482,2818.857 1229.145,2819.318 1233.034 C 2819.635 1235.716,2820.657 1239.074,2821.589 1240.495 C 2822.965 1242.595,2823.172 1244.527,2822.692 1250.790 C 2822.248 1256.586,2822.567 1260.362,2823.979 1266.000 C 2825.012 1270.125,2826.145 1275.750,2826.497 1278.500 C 2826.849 1281.250,2827.529 1284.400,2828.008 1285.500 C 2829.161 1288.148,2832.472 1304.043,2834.453 1316.439 C 2835.327 1321.905,2836.692 1327.680,2837.486 1329.272 C 2839.616 1333.541,2842.817 1350.803,2844.019 1364.500 C 2845.317 1379.289,2846.312 1382.710,2851.622 1390.628 C 2853.928 1394.067,2856.133 1398.370,2856.523 1400.190 C 2856.912 1402.011,2857.590 1403.950,2858.029 1404.500 C 2858.467 1405.050,2859.322 1409.100,2859.927 1413.500 C 2862.573 1432.725,2867.521 1439.000,2880.031 1439.000 C 2884.007 1439.000,2885.889 1438.279,2891.130 1434.750 C 2899.725 1428.961,2900.840 1426.661,2902.554 1411.181 C 2903.341 1404.073,2904.660 1396.963,2905.486 1395.379 C 2906.312 1393.796,2906.992 1392.050,2906.998 1391.500 C 2907.004 1390.950,2908.376 1388.475,2910.048 1386.000 C 2917.053 1375.628,2917.303 1374.447,2916.513 1355.475 C 2915.910 1340.995,2916.073 1337.034,2917.568 1329.920 C 2919.671 1319.915,2920.201 1294.820,2918.349 1292.956 C 2916.556 1291.152,2911.370 1292.784,2907.616 1296.333 C 2903.884 1299.861,2902.819 1303.524,2900.562 1320.603 C 2899.828 1326.160,2898.701 1331.691,2898.057 1332.894 C 2896.224 1336.318,2885.164 1348.842,2882.905 1350.051 C 2881.379 1350.868,2880.474 1350.810,2879.274 1349.819 C 2876.354 1347.408,2873.028 1338.171,2872.402 1330.734 C 2872.067 1326.755,2870.955 1320.012,2869.930 1315.749 C 2868.906 1311.486,2867.587 1303.269,2866.999 1297.490 C 2865.957 1287.243,2865.717 1285.876,2864.331 1282.250 C 2863.963 1281.287,2863.121 1278.700,2862.461 1276.500 C 2858.380 1262.899,2856.053 1258.558,2849.500 1252.319 C 2842.136 1245.308,2841.400 1242.560,2845.000 1235.500 C 2847.589 1230.421,2847.510 1227.638,2844.599 1221.386 C 2842.911 1217.760,2841.485 1216.088,2839.702 1215.640 C 2838.318 1215.293,2836.581 1214.810,2835.843 1214.567 C 2835.104 1214.324,2833.477 1214.536,2832.226 1215.039 M2750.578 1223.156 C 2745.751 1226.353,2738.249 1234.624,2734.128 1241.293 C 2731.371 1245.754,2729.999 1259.168,2729.400 1287.500 C 2729.083 1302.504,2729.350 1308.247,2730.668 1314.807 C 2732.240 1322.635,2732.234 1323.816,2730.554 1335.307 C 2729.574 1342.013,2728.351 1348.022,2727.837 1348.661 C 2727.255 1349.384,2727.266 1350.047,2727.867 1350.418 C 2728.397 1350.745,2729.144 1354.363,2729.528 1358.456 C 2730.143 1365.016,2729.975 1366.305,2728.113 1369.318 C 2726.951 1371.198,2726.000 1373.403,2726.000 1374.218 C 2726.000 1376.562,2720.255 1383.874,2716.720 1386.029 C 2712.721 1388.467,2701.365 1388.757,2697.060 1386.531 C 2695.498 1385.723,2692.127 1382.129,2689.569 1378.544 C 2687.011 1374.959,2684.020 1371.546,2682.922 1370.958 C 2681.824 1370.371,2679.864 1367.487,2678.565 1364.551 C 2677.266 1361.614,2673.975 1355.901,2671.252 1351.856 C 2668.529 1347.810,2665.725 1342.700,2665.020 1340.500 C 2664.316 1338.300,2663.390 1336.050,2662.962 1335.500 C 2662.535 1334.950,2661.697 1331.852,2661.102 1328.616 C 2659.872 1321.938,2655.574 1312.158,2653.523 1311.371 C 2652.771 1311.082,2651.844 1310.093,2651.463 1309.173 C 2650.273 1306.292,2648.556 1282.081,2648.580 1268.500 C 2648.610 1251.702,2650.165 1243.669,2654.591 1237.443 C 2656.466 1234.806,2658.000 1231.882,2658.000 1230.946 C 2658.000 1224.225,2644.876 1227.161,2636.907 1235.665 C 2634.931 1237.774,2632.252 1241.075,2630.955 1243.000 C 2629.658 1244.925,2626.932 1248.525,2624.898 1251.000 C 2622.864 1253.475,2620.410 1257.975,2619.444 1261.000 C 2618.478 1264.025,2617.278 1267.426,2616.778 1268.557 C 2615.252 1272.009,2617.614 1309.321,2619.878 1317.522 C 2620.420 1319.482,2622.491 1323.539,2624.482 1326.538 C 2628.746 1332.963,2629.484 1335.035,2631.053 1345.000 C 2632.452 1353.876,2632.967 1354.976,2638.522 1360.938 C 2640.859 1363.447,2643.493 1367.639,2644.375 1370.252 C 2646.602 1376.853,2650.143 1382.153,2654.782 1385.828 C 2657.115 1387.675,2660.190 1391.736,2662.306 1395.763 C 2665.043 1400.971,2666.736 1402.980,2669.495 1404.296 C 2671.480 1405.243,2675.337 1408.106,2678.066 1410.659 C 2684.246 1416.439,2689.453 1417.988,2705.000 1418.672 L 2716.500 1419.177 2721.000 1416.077 C 2723.475 1414.372,2727.029 1411.858,2728.898 1410.489 C 2732.990 1407.491,2737.360 1407.313,2741.710 1409.965 C 2746.257 1412.737,2749.442 1418.149,2752.501 1428.302 C 2756.242 1440.719,2763.706 1448.362,2778.629 1455.058 C 2788.642 1459.551,2790.923 1459.184,2801.273 1451.417 C 2807.066 1447.069,2810.717 1443.514,2812.026 1440.949 C 2813.116 1438.813,2816.621 1434.238,2819.815 1430.783 C 2827.601 1422.360,2831.391 1414.955,2830.670 1409.574 C 2830.017 1404.709,2827.097 1402.000,2822.505 1402.000 C 2819.897 1402.000,2818.549 1402.825,2815.866 1406.064 C 2807.559 1416.096,2794.791 1427.000,2791.353 1427.000 C 2788.645 1427.000,2783.121 1418.055,2780.269 1409.052 C 2778.954 1404.898,2776.780 1399.531,2775.439 1397.124 C 2773.964 1394.477,2772.428 1389.143,2771.552 1383.624 C 2770.755 1378.606,2769.292 1370.000,2768.302 1364.500 C 2766.988 1357.208,2766.494 1349.355,2766.478 1335.500 C 2766.457 1316.467,2765.603 1306.491,2763.906 1305.442 C 2762.734 1304.718,2762.720 1281.518,2763.891 1279.236 C 2764.943 1277.185,2768.632 1260.440,2769.451 1254.000 C 2769.766 1251.525,2770.092 1244.947,2770.175 1239.382 C 2770.308 1230.475,2770.056 1228.827,2768.074 1225.619 C 2763.934 1218.921,2758.192 1218.113,2750.578 1223.156 M883.500 1230.000 C 883.840 1230.550,884.922 1231.000,885.904 1231.000 C 890.944 1231.000,893.408 1238.433,895.978 1261.386 C 897.080 1271.223,898.472 1279.864,899.072 1280.587 C 899.707 1281.352,900.583 1290.805,901.167 1303.201 C 902.040 1321.747,901.957 1325.534,900.520 1332.500 C 899.613 1336.900,898.450 1343.136,897.935 1346.358 C 896.626 1354.548,893.645 1360.748,888.492 1366.000 C 886.063 1368.475,882.129 1373.425,879.749 1377.000 C 876.963 1381.186,873.727 1384.568,870.659 1386.500 C 868.039 1388.150,863.557 1391.404,860.698 1393.732 C 857.839 1396.059,852.800 1399.884,849.500 1402.232 L 843.500 1406.500 833.380 1406.489 C 827.721 1406.482,822.211 1405.963,820.880 1405.311 C 819.571 1404.669,816.826 1403.869,814.779 1403.532 C 812.733 1403.196,809.729 1401.802,808.105 1400.435 C 803.919 1396.912,794.006 1381.671,792.374 1376.247 C 789.982 1368.300,791.328 1329.459,794.096 1326.550 C 794.593 1326.027,795.008 1324.678,795.018 1323.550 C 795.028 1322.422,797.240 1317.575,799.933 1312.777 C 802.626 1307.979,805.108 1302.786,805.448 1301.237 C 805.788 1299.687,806.945 1296.975,808.019 1295.210 C 810.449 1291.213,813.247 1291.061,819.559 1294.585 C 824.576 1297.386,828.171 1297.269,829.634 1294.259 C 830.103 1293.291,830.490 1285.450,830.494 1276.834 C 830.501 1257.729,830.333 1258.048,845.063 1249.306 C 850.803 1245.900,859.550 1240.385,864.500 1237.050 C 869.450 1233.715,874.486 1230.990,875.691 1230.994 C 876.896 1230.997,878.160 1230.550,878.500 1230.000 C 878.840 1229.450,879.965 1229.000,881.000 1229.000 C 882.035 1229.000,883.160 1229.450,883.500 1230.000 M744.844 1235.255 C 739.363 1239.888,738.850 1243.990,742.039 1257.668 C 744.752 1269.304,749.952 1276.102,754.930 1274.522 C 757.607 1273.673,758.809 1269.767,759.707 1259.000 C 760.953 1244.069,760.455 1241.510,755.337 1236.539 C 751.113 1232.437,748.549 1232.123,744.844 1235.255 M3044.000 1233.971 C 3043.175 1234.441,3039.863 1235.398,3036.641 1236.098 C 3030.484 1237.436,3026.257 1240.612,3023.784 1245.757 C 3023.078 1247.226,3020.557 1249.732,3018.183 1251.325 C 3015.809 1252.918,3013.496 1255.185,3013.044 1256.361 C 3012.591 1257.537,3011.118 1260.975,3009.771 1264.000 C 3008.423 1267.025,3006.557 1271.581,3005.625 1274.125 C 3004.478 1277.256,3001.869 1280.729,2997.552 1284.875 C 2990.768 1291.389,2987.625 1292.453,2984.702 1289.223 C 2982.129 1286.380,2978.274 1277.007,2977.001 1270.500 C 2976.356 1267.200,2975.416 1263.719,2974.914 1262.764 C 2974.411 1261.809,2974.000 1260.383,2974.000 1259.597 C 2974.000 1257.847,2967.423 1245.223,2965.147 1242.605 C 2960.597 1237.369,2943.992 1234.684,2936.186 1237.921 C 2931.604 1239.822,2915.236 1259.227,2914.384 1263.769 C 2912.576 1273.404,2915.908 1287.974,2920.105 1288.782 C 2922.560 1289.254,2928.109 1284.782,2930.379 1280.500 C 2932.818 1275.899,2939.515 1269.000,2941.542 1269.000 C 2942.297 1269.000,2944.690 1270.688,2946.859 1272.751 C 2950.084 1275.819,2950.922 1277.415,2951.458 1281.501 C 2952.715 1291.095,2954.989 1301.556,2957.453 1309.083 C 2959.860 1316.436,2959.944 1317.653,2960.218 1349.173 C 2960.458 1376.885,2960.279 1381.947,2959.000 1383.493 C 2957.157 1385.721,2956.873 1405.340,2958.630 1409.089 C 2959.252 1410.415,2960.573 1413.445,2961.565 1415.823 C 2965.239 1424.624,2971.525 1426.214,2981.609 1420.890 C 2991.837 1415.491,2992.217 1414.893,2994.003 1401.414 C 2996.477 1382.731,2997.063 1380.420,3001.653 1371.199 C 3005.456 1363.562,3006.102 1361.506,3005.264 1359.699 C 3003.633 1356.182,3000.822 1343.975,3000.288 1338.090 L 2999.796 1332.680 3007.246 1325.584 C 3017.165 1316.136,3018.159 1314.002,3019.009 1300.330 L 3019.702 1289.160 3025.584 1281.345 C 3028.820 1277.046,3032.954 1272.224,3034.771 1270.628 C 3036.589 1269.032,3039.233 1265.752,3040.647 1263.340 C 3045.045 1255.835,3048.136 1255.267,3054.272 1260.838 C 3056.598 1262.950,3059.963 1265.522,3061.750 1266.554 C 3063.537 1267.586,3065.000 1268.793,3065.000 1269.235 C 3065.000 1269.678,3066.050 1271.718,3067.334 1273.770 C 3070.670 1279.102,3071.055 1280.940,3071.987 1296.000 C 3072.446 1303.425,3073.366 1310.850,3074.030 1312.500 C 3075.744 1316.756,3079.197 1330.888,3079.471 1334.767 C 3079.597 1336.564,3079.993 1338.327,3080.351 1338.684 C 3080.708 1339.041,3081.000 1340.757,3081.000 1342.497 C 3081.000 1344.237,3081.898 1350.575,3082.995 1356.581 C 3084.092 1362.586,3085.457 1373.923,3086.028 1381.772 C 3087.123 1396.819,3087.783 1399.643,3091.339 1404.496 C 3092.550 1406.148,3094.203 1408.798,3095.012 1410.385 C 3096.506 1413.316,3106.681 1423.000,3108.266 1423.000 C 3108.743 1423.000,3110.566 1424.074,3112.317 1425.387 C 3117.167 1429.025,3124.172 1432.095,3125.412 1431.126 C 3126.011 1430.658,3127.841 1429.954,3129.481 1429.561 C 3133.343 1428.635,3144.278 1420.823,3146.935 1417.092 C 3151.420 1410.793,3148.363 1405.698,3137.786 1401.842 C 3128.320 1398.390,3124.990 1393.601,3118.779 1374.500 C 3117.706 1371.200,3116.438 1367.753,3115.962 1366.840 C 3113.077 1361.312,3110.757 1347.458,3110.045 1331.500 C 3109.496 1319.217,3108.827 1313.461,3107.631 1310.755 C 3106.722 1308.695,3105.944 1306.670,3105.904 1306.255 C 3105.863 1305.840,3105.438 1305.028,3104.959 1304.451 C 3104.481 1303.874,3103.148 1298.024,3101.999 1291.451 C 3099.280 1275.902,3097.698 1271.311,3093.580 1267.026 C 3091.716 1265.087,3088.294 1259.900,3085.974 1255.500 C 3080.523 1245.159,3078.553 1242.443,3075.225 1240.672 C 3073.726 1239.874,3070.717 1238.272,3068.539 1237.111 C 3066.360 1235.950,3063.799 1235.000,3062.848 1235.000 C 3061.896 1235.000,3060.840 1234.550,3060.500 1234.000 C 3059.753 1232.792,3046.114 1232.768,3044.000 1233.971 M1147.464 1242.961 C 1149.525 1245.237,1149.261 1247.708,1146.020 1256.497 C 1143.947 1262.119,1143.853 1263.495,1144.510 1278.497 C 1145.077 1291.424,1144.917 1295.557,1143.682 1300.000 C 1142.841 1303.025,1141.850 1308.200,1141.480 1311.500 C 1141.110 1314.800,1140.459 1317.950,1140.034 1318.500 C 1139.609 1319.050,1138.719 1321.181,1138.057 1323.236 C 1137.396 1325.291,1134.355 1329.566,1131.300 1332.736 C 1128.245 1335.906,1123.440 1341.037,1120.623 1344.139 C 1115.609 1349.657,1102.954 1359.000,1100.494 1359.000 C 1099.811 1359.000,1096.428 1361.520,1092.977 1364.600 C 1089.525 1367.679,1084.856 1370.999,1082.601 1371.976 C 1080.345 1372.953,1076.406 1375.608,1073.847 1377.876 C 1071.287 1380.144,1068.954 1382.000,1068.662 1382.000 C 1068.369 1382.000,1066.863 1382.497,1065.315 1383.104 C 1060.452 1385.011,1053.102 1384.546,1050.738 1382.183 C 1048.068 1379.513,1047.074 1371.996,1048.240 1363.292 C 1049.249 1355.767,1050.821 1352.227,1055.684 1346.527 C 1057.548 1344.342,1059.347 1341.417,1059.680 1340.027 C 1060.990 1334.564,1065.304 1327.773,1073.954 1317.554 C 1078.925 1311.682,1084.316 1305.764,1085.934 1304.402 C 1087.553 1303.040,1090.329 1298.776,1092.103 1294.927 C 1094.628 1289.449,1096.392 1287.149,1100.221 1284.338 C 1106.523 1279.712,1118.364 1265.650,1120.859 1259.828 C 1122.349 1256.352,1123.803 1254.796,1127.149 1253.094 C 1129.542 1251.877,1133.594 1248.658,1136.152 1245.940 C 1141.269 1240.506,1144.478 1239.661,1147.464 1242.961 M2337.685 1255.030 C 2349.090 1256.859,2350.917 1257.447,2356.232 1260.996 C 2359.475 1263.162,2363.743 1265.236,2365.716 1265.607 C 2369.321 1266.283,2379.000 1274.702,2379.000 1277.162 C 2379.000 1277.787,2381.020 1280.751,2383.489 1283.750 C 2390.045 1291.714,2390.514 1294.138,2390.406 1319.500 C 2390.282 1348.771,2389.845 1350.648,2381.216 1359.000 C 2377.522 1362.575,2373.321 1366.860,2371.881 1368.522 C 2368.659 1372.238,2354.152 1379.560,2346.949 1381.104 C 2338.748 1382.863,2323.147 1381.730,2311.500 1378.529 C 2306.000 1377.018,2300.943 1375.330,2300.263 1374.779 C 2299.582 1374.227,2298.359 1374.032,2297.545 1374.344 C 2296.730 1374.657,2295.834 1374.540,2295.553 1374.085 C 2295.272 1373.631,2293.703 1372.991,2292.066 1372.663 C 2287.014 1371.653,2285.511 1368.007,2285.420 1356.534 C 2285.376 1351.015,2284.979 1342.861,2284.538 1338.414 C 2283.518 1328.122,2284.752 1324.200,2291.134 1317.452 C 2297.266 1310.969,2298.781 1306.574,2300.051 1291.586 C 2301.135 1278.797,2302.357 1275.119,2308.050 1267.500 C 2309.694 1265.300,2311.956 1261.780,2313.077 1259.678 C 2315.053 1255.970,2319.421 1253.124,2323.267 1253.039 C 2324.238 1253.018,2330.726 1253.913,2337.685 1255.030 M556.927 1256.635 C 558.674 1258.856,559.000 1260.679,559.000 1268.241 C 559.000 1273.174,559.684 1279.850,560.520 1283.076 C 561.476 1286.767,561.948 1292.378,561.792 1298.220 C 561.656 1303.324,561.938 1310.327,562.418 1313.781 C 563.541 1321.856,561.594 1326.255,554.840 1330.912 C 549.683 1334.467,540.782 1343.002,531.979 1352.834 C 526.961 1358.438,526.093 1359.000,522.463 1359.000 C 517.063 1359.000,512.000 1356.085,509.699 1351.652 C 507.821 1348.033,507.824 1347.854,509.899 1337.545 C 511.054 1331.802,512.000 1325.820,512.000 1324.252 C 512.000 1322.683,512.421 1320.972,512.935 1320.450 C 513.449 1319.928,515.009 1313.763,516.400 1306.750 C 519.026 1293.516,519.704 1291.622,523.712 1286.332 C 525.032 1284.589,526.974 1280.808,528.026 1277.930 C 530.810 1270.312,534.537 1265.477,542.313 1259.392 C 550.294 1253.147,553.681 1252.508,556.927 1256.635 M2535.929 1278.962 C 2538.657 1280.422,2540.424 1285.757,2540.401 1292.466 C 2540.349 1307.732,2538.888 1348.708,2538.332 1350.500 C 2536.917 1355.057,2526.505 1369.956,2520.402 1376.155 C 2516.487 1380.131,2512.730 1385.164,2511.068 1388.655 C 2507.344 1396.479,2503.971 1399.626,2497.918 1400.924 C 2489.957 1402.631,2486.282 1404.590,2480.213 1410.361 C 2477.071 1413.349,2472.671 1416.742,2470.435 1417.902 C 2468.199 1419.061,2463.999 1422.033,2461.101 1424.507 C 2458.203 1426.980,2454.632 1429.266,2453.166 1429.586 C 2451.700 1429.905,2449.990 1430.320,2449.368 1430.507 C 2448.745 1430.694,2446.423 1430.387,2444.208 1429.825 C 2437.742 1428.184,2437.294 1423.256,2442.607 1412.211 C 2444.591 1408.087,2447.418 1399.939,2448.890 1394.106 C 2450.362 1388.273,2451.840 1383.050,2452.175 1382.500 C 2452.511 1381.950,2453.730 1378.312,2454.885 1374.416 C 2456.041 1370.520,2458.712 1364.661,2460.822 1361.396 C 2462.932 1358.132,2465.448 1353.394,2466.413 1350.868 C 2467.377 1348.342,2470.089 1344.076,2472.438 1341.388 C 2474.788 1338.699,2477.740 1334.475,2478.999 1332.000 C 2480.258 1329.525,2482.349 1326.108,2483.644 1324.406 C 2484.940 1322.704,2485.994 1320.904,2485.988 1320.406 C 2485.981 1319.908,2488.235 1317.250,2490.996 1314.500 C 2502.043 1303.499,2509.248 1295.163,2510.937 1291.429 C 2512.812 1287.283,2517.508 1282.023,2519.386 1281.966 C 2519.999 1281.947,2522.300 1281.063,2524.500 1280.000 C 2528.908 1277.871,2533.167 1277.484,2535.929 1278.962 M3854.888 1431.426 C 3847.902 1432.970,3843.007 1435.941,3838.896 1441.132 C 3837.147 1443.340,3833.277 1446.948,3830.297 1449.150 C 3827.317 1451.352,3824.632 1453.794,3824.331 1454.579 C 3821.392 1462.238,3837.747 1470.289,3852.756 1468.572 C 3867.479 1466.887,3876.020 1463.856,3880.955 1458.567 C 3882.989 1456.386,3883.388 1454.996,3883.281 1450.460 C 3883.155 1445.062,3880.092 1438.000,3877.877 1438.000 C 3877.348 1438.000,3875.923 1437.065,3874.708 1435.922 C 3869.786 1431.290,3862.736 1429.691,3854.888 1431.426 " stroke="none" fill="black" fill-rule="evenodd"/></svg>