<svg width="52" height="38" viewBox="0 0 52 38" fill="none" xmlns="http://www.w3.org/2000/svg">
<g id="icon_logo">
<g id="Vector">
<path d="M18.3364 14.0976L14.9802 17.4214C14.3396 18.0559 14.3396 19.0845 14.9802 19.719L18.6771 23.3802C19.3655 24.062 21.1066 23.4163 21.7951 22.7345L24.6495 19.9077C24.9571 19.603 25.1299 19.1898 25.1299 18.7589L25.1299 16.9822C25.1299 14.2904 27.3333 12.1083 30.0513 12.1083L34.8533 12.1083C37.5713 12.1083 39.7747 14.2904 39.7747 16.9821L39.7747 21.7378C39.7747 24.4296 37.5713 26.6117 34.8533 26.6117H33.0594C32.6243 26.6117 32.2071 26.7828 31.8994 27.0875L29.0449 29.9144C28.3565 30.5963 27.7046 32.3205 28.393 33.0024L32.0899 36.6635C32.7305 37.298 33.7692 37.298 34.4098 36.6635L37.977 33.1308C38.3999 32.712 38.5393 32.0997 38.4752 31.5108C38.3018 29.9177 38.8316 28.2637 40.0647 27.0425C41.2979 25.8212 42.968 25.2965 44.5766 25.4683C45.1713 25.5318 45.7895 25.3937 46.2124 24.9749L51.5195 19.719C52.1602 19.0845 52.1602 18.0559 51.5195 17.4214L46.7986 12.7461C46.3562 12.3079 45.7023 12.1798 45.0818 12.26C43.5575 12.457 41.9608 11.9757 40.7897 10.8159C39.6187 9.65612 39.1326 8.07484 39.3316 6.56518C39.4126 5.95069 39.2832 5.30315 38.8407 4.86496L34.4098 0.476819C33.7692 -0.157638 32.7305 -0.157637 32.0899 0.476819L26.9937 5.52379C26.5361 5.97701 26.4124 6.65176 26.5237 7.28315C26.8234 8.98283 26.3105 10.7956 24.985 12.1083C23.6595 13.421 21.8291 13.9289 20.1129 13.6321C19.4753 13.5219 18.794 13.6444 18.3364 14.0976Z" fill="#222222"/>
<path d="M14.234 4.6622L17.5902 1.33841C18.2308 0.703951 19.2695 0.70395 19.9101 1.33841L23.607 4.9996C24.2954 5.68142 23.6435 7.4057 22.9551 8.08752L20.1007 10.9144C19.793 11.219 19.3758 11.3902 18.9407 11.3902L17.1466 11.3902C14.4286 11.3902 12.2253 13.5723 12.2253 16.2641L12.2253 21.0197C12.2253 23.7115 14.4286 25.8936 17.1466 25.8936L21.9486 25.8936C24.6666 25.8936 26.87 23.7115 26.87 21.0197V19.2431C26.87 18.8122 27.0428 18.399 27.3505 18.0943L30.2049 15.2674C30.8934 14.5856 32.6345 13.94 33.3229 14.6218L37.0198 18.283C37.6604 18.9174 37.6604 19.9461 37.0198 20.5806L33.4527 24.1133C33.0298 24.5321 32.4115 24.6702 31.8169 24.6067C30.2082 24.4349 28.5381 24.9596 27.305 26.1809C26.0718 27.4021 25.542 29.0561 25.7154 30.6493C25.7796 31.2382 25.6401 31.8504 25.2172 32.2692L19.9101 37.5251C19.2695 38.1596 18.2308 38.1596 17.5902 37.5251L12.8693 32.8498C12.4268 32.4116 12.2974 31.7641 12.3784 31.1496C12.5774 29.6399 12.0914 28.0586 10.9203 26.8989C9.74922 25.7391 8.15253 25.2577 6.62816 25.4548C6.00768 25.535 5.35384 25.4069 4.91137 24.9687L0.480478 20.5806C-0.16016 19.9461 -0.160159 18.9174 0.480479 18.283L5.57662 13.236C6.03426 12.7828 6.71558 12.6603 7.35313 12.7705C9.06936 13.0673 10.8998 12.5594 12.2253 11.2467C13.5508 9.93396 14.0637 8.12124 13.764 6.42156C13.6526 5.79017 13.7763 5.11542 14.234 4.6622Z" fill="#222222"/>
</g>
</g>
</svg>
