<?xml version="1.0" encoding="utf-8"?>
<!-- Generator: Adobe Illustrator 26.4.0, SVG Export Plug-In . SVG Version: 6.00 Build 0)  -->
<svg version="1.1" id="Layer_2" xmlns="http://www.w3.org/2000/svg" xmlns:xlink="http://www.w3.org/1999/xlink" x="0px" y="0px"
	 viewBox="0 0 373.8 117.9" style="enable-background:new 0 0 373.8 117.9;" xml:space="preserve">
<style type="text/css">
	.st0{fill:#BE6227;}
	.st1{fill:#962B8C;}
	.st2{fill:#1DAEEB;}
	.st3{fill:#F5821F;}
	.st4{fill:#B1D235;}
	.st5{fill:#FFFFFF;}
	.st6{fill:#E7131A;}
</style>
<g>
	<g>
		<circle class="st0" cx="251.5" cy="67.6" r="8.5"/>
		<path class="st1" d="M197.9,25c0-1.3,0.2-2.5,0.7-3.6s1.2-2.1,2.1-3c0.9-0.9,2.1-1.5,3.4-2c1.3-0.5,2.8-0.7,4.4-0.7
			s3.1,0.2,4.4,0.7c1.3,0.5,2.4,1.2,3.4,2s1.7,1.9,2.1,3c0.5,1.1,0.7,2.4,0.7,3.6c0,1.3-0.2,2.5-0.7,3.6s-1.2,2.1-2.1,3
			c-0.9,0.8-2.1,1.5-3.4,2c-1.3,0.5-2.8,0.7-4.4,0.7c-1.6,0-3-0.2-4.3-0.7s-2.4-1.2-3.3-2c-0.9-0.9-1.6-1.9-2.1-3
			C198.2,27.5,197.9,26.3,197.9,25z M199.5,41h17.9v59.6h-17.9V41z"/>
		<path class="st2" d="M172.1,65.9L192.2,41h-20.8l-19.8,25.2V24.5c0-4.9-4-8.9-8.9-8.9s-8.9,4-8.9,8.9v76.2h17.8V86.8l7.8-9.3
			l13.4,23.2H194L172.1,65.9z"/>
		<path class="st3" d="M281,15.6c-4.9,0-8.9,4-8.9,8.9c0,0.3,0,0.6,0.1,0.9v19.1c-2.2-1.6-4.7-2.8-7.5-3.8s-6-1.5-9.6-1.5
			c-4.9,0-9.3,0.8-13.2,2.5s-7.2,4-9.9,6.8c-2.7,2.9-4.8,6.2-6.3,10.1c-1.5,3.8-2.2,8-2.2,12.3c0,4.4,0.7,8.5,2.2,12.3
			s3.6,7.2,6.4,10.1c2.8,2.9,6.1,5.2,10.1,6.8s8.3,2.5,13.2,2.5c3.9,0,7.4-0.7,10.5-2s5.8-3,8-4.9l0.9,4.9h15.1V24.4
			C289.9,19.6,285.9,15.6,281,15.6z M273,69.5c0.2,2.8-0.2,5.6-1.2,8.1c-0.8,2-1.9,3.8-3.4,5.2c-1.4,1.4-3.1,2.5-5.1,3.3
			c-1.9,0.8-4,1.2-6.2,1.2c-2.2,0-4.2-0.4-6.2-1.2c-1.9-0.8-3.6-1.9-5.1-3.4c-1.4-1.5-2.6-3.2-3.4-5.2c-0.8-2-1.2-4.3-1.2-6.8
			c0-2.4,0.4-4.7,1.2-6.7c0.8-2,1.9-3.7,3.3-5.2c1.4-1.4,3.1-2.5,5-3.3s4-1.2,6.2-1.2s4.3,0.4,6.2,1.2c1.9,0.8,3.6,1.9,5.1,3.3
			C271.2,61.7,272.7,65.6,273,69.5z"/>
		<path class="st4" d="M313.3,82c0.1,1.8,1.1,3.3,2.8,4.4c1.7,1.1,3.9,1.7,6.5,1.7c3.4,0,5.8-0.4,7.3-1.3s2.2-2.1,2.2-3.7
			c0-1-0.3-1.7-1-2.3c-0.7-0.6-1.7-1.1-3-1.6s-3-0.9-4.9-1.3s-4.2-0.9-6.8-1.4c-1.1-0.2-2.4-0.5-3.8-0.8s-2.7-0.8-4.1-1.3
			s-2.7-1.2-3.9-2.1c-1.3-0.8-2.4-1.8-3.4-3.1c-1-1.2-1.7-2.7-2.3-4.4c-0.6-1.7-0.9-3.7-0.9-6c0-3,0.5-5.8,1.6-8.2s2.7-4.5,5-6.1
			c2.2-1.7,5-2.9,8.4-3.8c3.4-0.9,7.3-1.3,11.9-1.3c3.7,0,7.1,0.5,10,1.4c3,1,5.5,2.3,7.6,4.1s3.6,3.9,4.7,6.3
			c1.1,2.4,1.6,5.1,1.6,8L331,59.1c-0.1-1.5-0.8-2.7-2.1-3.8c-1.3-1-3-1.6-5.3-1.6c-2.7,0-4.7,0.5-6,1.5s-1.9,2.1-1.9,3.4
			c0,0.8,0.2,1.4,0.7,1.9c0.4,0.5,1.1,1,2.1,1.3c0.9,0.4,2.1,0.7,3.6,0.9c1.4,0.3,3.2,0.5,5.2,0.8c3.1,0.5,6.1,1.2,9,1.9
			c2.8,0.7,5.3,1.8,7.5,3.1c2.2,1.3,3.9,3,5.1,5.2c1.3,2.1,1.9,4.8,1.9,8.1c0,3.6-0.7,6.7-2.1,9.3c-1.4,2.6-3.4,4.8-5.9,6.5
			s-5.6,3-9.1,3.8s-7.4,1.2-11.6,1.2c-4.6,0-8.5-0.6-11.8-1.8c-3.3-1.2-6-2.8-8.1-4.8s-3.7-4.2-4.7-6.7s-1.5-4.9-1.5-7.4L313.3,82z"
			/>
		<circle class="st5" cx="249" cy="66.1" r="3"/>
	</g>
	<g>
		<path class="st6" d="M46.7,77.8c0.4,0,0.6,0.3,0.5,0.7l-2.5,6.3c-0.2,0.4-0.6,0.5-0.8,0.5h-1.1c-14.2,0.3-14.5-8.9-14.5-14V60.2
			c0-0.3-0.2-0.5-0.5-0.5h-4c-0.3,0-0.5-0.2-0.5-0.5v-6.6c0-0.3,0.2-0.5,0.5-0.5h4c0.2,0,0.5-0.2,0.5-0.4v-5.8
			c0-1.4,0.9-2.2,1.5-2.5l6.2-3c0.3-0.1,0.6,0.1,0.6,0.4v11c0,0.3,0.2,0.5,0.5,0.5H44c0.2,0,0.3,0.1,0.4,0.3l2.7,6.7
			c0.1,0.2-0.1,0.6-0.4,0.6h-9.5c-0.2,0-0.5,0.2-0.5,0.5v10.9c0,0.9-0.2,3.7,1.7,5.5C41.1,79,46.7,77.8,46.7,77.8z"/>
		<path class="st6" d="M71.8,53.9l-6.5,17.6c-0.2,0.3-0.7,0.3-0.8,0L58,53.9c-0.4-0.9-1.5-1.7-2.7-1.7h-6.6c-0.4,0-0.5,0.4-0.4,0.6
			l12.9,32.3c0.1,0.2,0.3,0.3,0.4,0.3h6.6c0.2,0,0.4-0.1,0.4-0.3l12.9-32.3c0.1-0.3-0.1-0.6-0.4-0.6h-6.5
			C73.4,52.2,72.3,52.8,71.8,53.9z"/>
		<path class="st6" d="M115.1,68.8c0,9.5-7.8,17.1-17.4,17.1s-17.4-7.7-17.4-17.1s7.8-17.1,17.4-17.1S115.1,59.4,115.1,68.8z
			 M97.7,60.1c-4.8,0-8.4,4.1-8.4,8.7c0,4.7,3.6,8.7,8.4,8.7s8.4-4.1,8.4-8.7C106.1,64.1,102.5,60.1,97.7,60.1z"/>
	</g>
</g>
</svg>
