<?xml version="1.0" encoding="utf-8"?>
<!-- Generator: Adobe Illustrator 27.0.1, SVG Export Plug-In . SVG Version: 6.00 Build 0)  -->
<svg version="1.1" id="Layer_1" xmlns="http://www.w3.org/2000/svg" xmlns:xlink="http://www.w3.org/1999/xlink" x="0px" y="0px"
	 viewBox="0 0 373.8 117.9" style="enable-background:new 0 0 373.8 117.9;" xml:space="preserve">
<style type="text/css">
	.st0{fill:#9B9FAF;}
</style>
<g>
	<g>
		<g>
			<path class="st0" d="M245.7,88.1c-1.1-0.5-1.8-1.3-2.4-2.4c-0.6-1.1-1.1-2.3-1.3-3.5c-0.3-1.4-0.6-8.9-0.6-12
				c0-2.6,0.6-5.4-1.5-5.7c-0.6-0.1-1.3,0.8-1.7,1.2c-0.6,0.7-2.3,3.4-3.1,5c-2.6,4.7-4.7,11.7-8.4,12.2c-3,0.5-4.6-1.4-5.5-4.1
				c-0.5-1.5-0.8-3-1-4.5c-0.3-2-0.3-9.6-0.2-11.8c0-0.7-0.2-1.2-0.6-1.3c-1.1-0.4-2,1.2-2.8,3c-1.6,3.6-4.5,14.8-5.1,19.4
				c-0.1,1.1-0.4,2.2-0.9,3.1c-0.5,0.9-1.3,1.4-2.6,1.5c-0.9,0.1-1.6-0.1-2.2-0.4s-1-0.8-1.3-1.4c-0.4-0.6-0.6-1.3-0.7-2
				c-0.1-0.7-0.3-1.4-0.4-2c-0.3-2-0.4-4.1-0.4-6.3c0-2.2,0.1-4.4,0.3-6.6c0.2-2.2,0.5-4.4,0.9-6.4c0.4-2,0.9-3.9,1.5-5.6
				c0.3-0.8,0.8-1.4,1.5-1.8c0.7-0.4,1.5-0.5,2.3-0.4c0.7,0.1,1.3,0.5,1.8,1.1c0.5,0.6,0.8,1.2,0.8,2c0.1,0.2,0.1,0.6,0,1.1
				c-0.1,0.5-0.1,1-0.1,1.5c-0.1,0.6-0.1,1.1-0.1,1.5c-0.1,0.5-0.1,0.8-0.1,1.1c0.4-0.7,0.8-1.5,1.3-2.4c0.4-0.8,0.9-1.8,1.4-2.6
				c0.5-0.8,1-1.6,1.5-2.4s1.1-1.3,1.6-1.8c1.2-1,2.4-1.5,3.5-1.8c1.1-0.1,2.2,0,3.1,0.4c0.9,0.4,1.7,1.1,2.3,2
				c0.6,0.9,1.1,1.9,1.3,3c0.2,0.9,0.4,1.9,0.5,3c0.1,1.1,0.3,2.2,0.4,3.3c0.1,1.1,0.2,2.2,0.3,3.2s0.1,2,0.2,2.9
				c1.3-2.3,2.5-4.4,3.8-6.5c1.3-2.1,2.9-4,4.7-5.7c0.5-0.5,1-0.9,1.5-1.3c0.6-0.4,1.1-0.8,1.6-1.1c1.5-0.8,2.9-1.1,4.3-0.6
				c1.3,0.4,2.4,1.5,3,3c0.4,0.8,0.7,1.8,0.8,2.7c0.2,0.9,0.7,11.3,0.7,12.2c0.3,6.2,3,10.4,1.5,13.5
				C250.3,87.8,248.1,89.3,245.7,88.1z"/>
		</g>
		<path class="st0" d="M278.4,80.3c-0.1,0.7-3.6,8.7-12.9,7.3c-8.7-1.3-11.3-10.8-10.8-16.7c0.6-6.8,4.1-12,8.1-15.3
			c4.1-3.4,12.8-5.3,17.4-1.3c3.1,2.7,3.7,10.3-1.4,13.4c-5.1,3.3-11.1,2.7-15.5,2.5c0,0-2.4,10,4.2,11.5c4.6,1.1,6.6-2.9,7-3.4
			c0.4-0.9,1.3-1.8,2.8-1.3C279,77.5,278.6,79.5,278.4,80.3z M274.8,58.4c-1.3-1.4-4.4-0.6-6.9,1.8c-1.4,1.3-2.5,3.5-3.5,6.3h0.6
			c2.5-0.1,6.8-1.3,8.7-3C274.8,62.6,276.6,60.2,274.8,58.4z"/>
	</g>
	<g>
		<path class="st0" d="M194,87.2c-2.3,0-4.2-1.8-4.2-4.1s1.8-4.1,4.2-4.1c2.4,0,4.2,1.8,4.2,4.1S196.4,87.2,194,87.2z"/>
		<path class="st0" d="M115.8,79.5c0.4,0,0.7,0.4,0.6,0.8l-2.7,6.7c-0.2,0.4-0.6,0.6-0.8,0.6l-1.2,0.1c-15,0.3-15.3-9.5-15.3-14.8
			V60.8c0-0.3-0.2-0.5-0.5-0.5h-4.3c-0.3,0-0.5-0.2-0.5-0.5v-7c0-0.3,0.2-0.5,0.5-0.5h4.3c0.2,0,0.5-0.2,0.5-0.5v-6.1
			c0-1.5,1-2.3,1.5-2.7l6.5-3.2c0.4-0.1,0.7,0.1,0.7,0.4v11.6c0,0.3,0.2,0.5,0.5,0.5h7.2c0.2,0,0.4,0.1,0.4,0.3l2.8,7.1
			c0.1,0.2-0.1,0.6-0.5,0.6h-10.1c-0.3,0-0.5,0.2-0.5,0.5v11.5c0,1-0.2,3.9,1.8,5.8C109.8,80.7,115.8,79.5,115.8,79.5z"/>
		<path class="st0" d="M142.3,54.2l-6.9,18.6c-0.1,0.4-0.7,0.4-0.9,0l-6.8-18.6c-0.5-1-1.5-1.8-2.9-1.8h-7c-0.4,0-0.6,0.4-0.5,0.7
			l13.6,34.1c0.1,0.2,0.3,0.3,0.5,0.3h7c0.2,0,0.4-0.1,0.5-0.3l13.6-34.1c0.1-0.3-0.1-0.7-0.4-0.7h-6.8
			C143.9,52.4,142.7,53.1,142.3,54.2z"/>
		<path class="st0" d="M188,70c0,10-8.2,18.1-18.4,18.1c-10.1,0-18.4-8.1-18.4-18.1s8.2-18.1,18.4-18.1C179.7,51.9,188,60,188,70z
			 M169.6,60.8c-5.1,0-8.9,4.3-8.9,9.2s3.8,9.2,8.9,9.2c5.1,0,8.9-4.3,8.9-9.2S174.6,60.8,169.6,60.8z"/>
	</g>
</g>
</svg>
