<?xml version="1.0" encoding="utf-8"?>
<!-- Generator: Adobe Illustrator 26.4.0, SVG Export Plug-In . SVG Version: 6.00 Build 0)  -->
<svg version="1.1" id="Layer_1" xmlns="http://www.w3.org/2000/svg" xmlns:xlink="http://www.w3.org/1999/xlink" x="0px" y="0px"
	 viewBox="0 0 373.8 117.9" style="enable-background:new 0 0 373.8 117.9;" xml:space="preserve">
<style type="text/css">
	.st0{display:none;}
	.st1{display:inline;}
	.st2{fill:#9B9FAF;}
	.st3{fill:#989FAF;}
	.st4{display:none;fill:#989FAF;stroke:#2ABC15;stroke-miterlimit:10;}
	.st5{display:inline;fill:#989FAF;}
</style>
<g id="Layer_1_00000030484843692442576880000012656648201142073265_" class="st0">
	<g class="st1">
		<path class="st2" d="M153.3,78.8h26.4v8.1h-37.1V36h10.6L153.3,78.8L153.3,78.8z"/>
		<path class="st2" d="M181.3,68c0-11.3,7.8-19.7,19.9-19.7c12.6,0,19.9,9.1,19.6,22.5h-29.4c0.3,5.6,4.2,9.8,9.7,9.8
			c3.4,0.3,6.6-1.4,8.2-4.3h10.6c-2.5,7.6-10.2,12.4-18.6,12C188.2,88.2,181.3,78.8,181.3,68z M191.7,64.2h18.8
			c-0.3-6.6-4.6-8.7-9.1-8.7C195.9,55.6,191.8,59.5,191.7,64.2z"/>
		<path class="st2" d="M240.1,88.2c-7.8,0-14.3-4.3-14.3-11c0-9,10.6-11.8,26.5-13.2v-0.8c0-5.9-3.2-7.8-7.8-7.8s-7.8,2-8.1,6.3
			h-9.7c1-7.6,7.8-13,17.8-13c9.9,0,17.5,3.9,17.5,16.5c0,1-0.3,6.3-0.3,9.8c-0.1,4.2,0.3,8.3,1.1,12.4H254
			c-0.4-1.6-0.7-3.2-0.8-4.9C250.3,86.2,246.2,88.2,240.1,88.2z M252.2,69.7c-11.5,1.1-16.1,2.5-16.1,6.6c0,2.7,2.4,4.9,7,4.9
			c6.3,0,9.1-3.5,9.1-9.8V69.7z"/>
		<path class="st2" d="M293.9,58.5c-1.4-0.2-2.9-0.3-4.3-0.3c-5.2,0-8.3,2-8.3,9V87H271V49.1h10.1v6.6c1.9-4.2,6.1-6.8,10.6-6.6
			c0.8,0,1.6,0,2.4,0.3L293.9,58.5z"/>
		<path class="st2" d="M309.8,54.3c2.5-4,7.1-6.3,11.8-5.9c9.6,0,13.9,5.6,13.9,14.8V87h-10.3V65.4c0-4.9-1.1-9.1-7-9.1
			c-7,0-8.3,5.2-8.3,11V87h-10.4V49.1h10.4v5.2H309.8z"/>
		<path class="st2" d="M34.5,65c2.8,0,3.8,2.4,3.8,4.3c0,4.6-0.3,9-2.4,12.2c-2.1,3.2-5.6,5.5-11.5,5.5l0,0c-4.2,0-8.3-1.3-10.4-5.2
			c-1.4-2.4-1.7-4.3-1.7-10.9V53.3C12.1,50.9,12.6,51,10,51c-1.3,0.3-2.7,0.2-3.9-0.3C5,50.3,4.4,49.2,4.7,48c0.2-2,1.8-3.5,3.8-3.5
			h2.8c0.8,0,0.8,0,0.8-0.3c0.2-0.7,0.3-1.4,0.3-2.1v-6.3c-0.1-1.1,0.1-2.2,0.7-3.2c0.7-1,2-1.5,3.2-1.3c1.2,0,2.4,0.4,3.2,1.3
			c0,1,0.3,2,0.3,2.9v8.7h9.1c1.3-0.1,2.6,0.2,3.8,0.8c0.8,0.5,1.2,1.4,1.1,2.4c0.1,0.9-0.3,1.9-1.1,2.4c-1.2,0.8-2.7,1.2-4.2,1
			h-7.1c-0.5,0-1,0.1-1.4,0.3c-0.2,0.2-0.3,0.5-0.3,0.8v19.3c0,7,1.4,9,5.9,9c4.6,0,5.6-3.5,5.6-7.3v-2.4c0-1.4,0.3-2.8,0.8-4.1
			C32.1,65.5,33.2,65,34.5,65 M88.3,44.4c-2.5,0-5.6,0.8-8.1,0.8c-2.8,0-5.9-0.8-8.1-0.8c-1.7,0-3.2,1.2-3.5,2.9v0.3
			c0,1.8,1.4,3.4,3.2,3.5l0,0c0.8,0,1.7-0.3,2.4-0.7c0.3-0.2,0.7-0.3,1.1-0.3c0.3,0,0.7,0.3,0.7,1c-0.3,1.3-0.7,2.5-1.1,3.9
			l-8.8,23.5l-10-25.2c-0.3-0.8-0.4-1.4-0.7-2.2c0-0.4,0.1-0.8,0.7-0.8h0.1c0.6-0.1,1.2,0,1.7,0.3c0.7,0.2,1.4,0.4,2.1,0.7
			c1.9,0,3.5-1.6,3.5-3.5c0-2-1.4-3.2-4.3-3.2c-2.8,0-5.9,0.8-8.2,0.8s-5-0.8-8-0.8c-1,0-2,0.2-2.8,0.8c-0.7,0.5-1,1.4-0.8,2.2
			c0,2,1.1,3.5,2.8,3.5c0.8,0,1.5-0.3,2.1-0.7c0.5-0.2,0.9-0.3,1.4-0.3c0.7,0,1.4,0.7,2.5,3.5l12,28.5c0.8,2.4,2.5,4.8,6,4.8l0,0
			c3.8,0,5.2-2.4,6.3-4.9L84,54.5c0.4-1.3,1.1-2.5,1.7-3.9c0.3-0.8,0.7-0.8,0.7-0.8c0.7,0,0.8,0.3,1.4,0.3c0.7,0.2,1.4,0.4,2.1,0.7
			c1.9,0,3.5-1.5,3.5-3.4l0,0C92.4,45.5,90.4,44.4,88.3,44.4 M127.8,49.6c3.7,4.5,5.7,10.2,5.6,16.1c0,12.2-7.4,22.5-21.3,22.5
			S91.6,77.6,91.6,66s6.7-22.5,20.7-22.5C118.2,43.3,123.9,45,127.8,49.6 M112.1,81.6c10.1,0,13.2-7.8,13.2-16.4c0-3.8-1-7.6-2.8-11
			c-2.1-3.2-5.9-4.3-9.8-4.3c-4.2-0.4-8.2,1.6-10.3,5.2c-1.9,3.2-2.9,6.9-2.8,10.6C99.5,73.4,102.5,81.7,112.1,81.6"/>
	</g>
	<g class="st1">
		<path class="st3" d="M35.2,65.6c2.9,0,3.8,2.6,3.8,4.5c0,5-0.4,9.6-2.6,13.3c-2.1,3.6-5.7,5.9-12.1,5.9h-0.2
			c-4.2,0-8.7-1.5-10.8-5.4c-1.4-2.6-2-4.7-2-11.8V53.3c-0.2-2.6,0.2-2.3-2.6-2.4c-1.3,0.1-2.7-0.1-4-0.6c-1-0.7-1.6-1.8-1.5-3
			c0.2-2,1.9-3.6,3.9-3.6h3.2c0.8,0,0.9-0.2,0.9-0.2c0.2-0.7,0.3-1.3,0.3-2v-6.9c-0.1-1.1,0.1-2.3,0.6-3.3c0.7-1.1,2-1.7,3.3-1.5
			c1.3-0.1,2.6,0.5,3.3,1.5c0.4,1,0.6,2.1,0.6,3.2v8.6c0,0.6,0,0.8,0.2,0.8c0.3,0,0.6,0.2,0.8,0h8.9c1.4-0.2,2.8,0.1,3.9,0.9
			c0.8,0.7,1.2,1.7,1.1,2.7c0,1-0.4,2-1.1,2.7c-1.3,0.7-2.7,1.1-4.2,1.1h-7.6c-0.5,0-1,0-1.5,0.2c0,0-0.2,0.2-0.2,0.9v20.7
			c0.2,7.7,1.5,9.5,5.9,9.7c4.8,0,5.7-3.8,5.7-7.8v-3c-0.2-1.5,0.2-3.1,0.9-4.4C32.6,66.4,33.8,65.6,35.2,65.6 M91.7,43.6
			c-2.6,0-5.6,0.9-8.6,0.9s-6-0.9-8.3-0.9c-1.8-0.2-3.4,1.1-3.6,2.9c0,0.1,0,0.1,0,0.2v0.2c-0.1,1.9,1.4,3.5,3.3,3.6
			c0.1,0,0.1,0,0.2,0l0,0c0.8,0,1.6-0.2,2.4-0.5c0.3-0.2,0.6-0.3,1-0.3c0.3,0,0.8,0.2,0.8,1.2c-0.2,1.4-0.6,2.7-1.2,3.9l-9.3,25
			L58,52.8c-0.3-0.8-0.5-1.6-0.6-2.4c0-0.6,0.2-0.8,0.8-0.8c0.7,0,1.3,0.1,2,0.3c0.6,0.4,1.4,0.6,2.1,0.5c1.9-0.1,3.5-1.7,3.6-3.6
			c0-2-1.5-3.3-4.4-3.3s-5.9,0.9-8.9,0.9s-5.3-0.9-8-0.9c-1.1-0.1-2.3,0.2-3.2,0.9c-0.7,0.6-1,1.5-0.9,2.4c-0.3,1.8,1,3.4,2.8,3.7
			h0.1h0.2c0.7,0,1.4-0.2,2.1-0.5c0.4-0.2,0.9-0.3,1.3-0.3c0.6,0,1.5,0.6,2.9,3.9l11.9,30.8c1.1,2.6,2.7,5.4,6.3,5.4l0,0
			c3.8,0,5.4-2.6,6.5-5.4l12.1-29.7c0.4-1.4,1-2.8,1.8-4.1c0.2-0.8,0.3-0.8,0.4-0.8c0.5,0,1,0.1,1.5,0.3c0.7,0.3,1.4,0.5,2.1,0.5
			c2,0,3.6-1.7,3.6-3.7C95.8,45.1,94.1,43.7,91.7,43.6 M132.7,49c3.8,4.8,5.9,10.9,5.8,17c0,13.1-7.7,24.1-22.3,24.1
			c-14.3,0-21.4-11.2-21.4-23.8s6.9-24,21.4-24C122.7,42.4,128.7,44.2,132.7,49 M116.2,83.4c10.4,0,13.7-8.6,13.7-17.5
			c0.1-4.1-1-8.2-3.2-11.8c-2.4-3.1-6.2-4.9-10.1-4.7c-4.7,0-8.1,1.5-10.7,5.6c-2,3.4-3,7.3-2.9,11.3
			C103.2,74.7,106.4,83.4,116.2,83.4"/>
		<path class="st3" d="M202.4,27.8v10.9h-12.1V27.8H202.4z M202.4,43.6V89h-12.1V43.6H202.4z"/>
		<path class="st3" d="M156.3,27.8v34.1l17-18.2h13.6L170,61.1l17.8,28.2h-13.6l-12.4-19.8l-5.7,6v13.8H144V27.8H156.3z"/>
		<path class="st3" d="M239.7,89.2v-5.9c-3,5-8.8,6.8-13.6,6.8c-11.5,0-20.2-9.3-20.2-23.8s8.6-23.8,20.2-23.8
			c5.4-0.2,10.5,2.3,13.6,6.8V27.8h12.1v61.4H239.7z M240.1,66.4c0-9.2-4.4-14.8-11-14.8s-10.6,6-10.6,14.8s3.9,14.8,10.4,14.8
			S240,75.6,240.1,66.4L240.1,66.4z"/>
		<path class="st3" d="M284.3,57.3c-0.9-3.8-4.5-6.5-10.4-6.5c-4.7,0-7.8,1.5-7.8,4.4c0,2.4,2,4.2,6.6,5.3l6.3,1.3
			c9.6,2.1,17.6,4.2,17.6,13.7c0,9.2-9.6,14.6-20.7,14.6c-11.8,0-20.5-5.7-21.7-16.1h11.5c0.6,4.4,3.9,7.7,10.4,7.7
			c5.6,0,8.9-2,8.9-5.3s-3.6-4.5-8-5.6l-6.9-1.4c-9.2-2-14.9-5.4-14.9-13.6s9-13.6,19.6-13.6c10.1,0,19.5,4.4,21,14.8L284.3,57.3z"
			/>
	</g>
	<g class="st1">
		<path class="st2" d="M32.6,65c2.6,0,3.4,2.3,3.4,4.4c0,4.7-0.4,9-2.3,12.5s-5.4,5.5-11,5.5l0,0c-3.8,0-7.9-1.4-9.9-5.1
			c-1.2-2.3-1.6-4.5-1.6-11V53.6c-0.1-2.3,0.1-2.1-2.3-2.2c-1.3,0.1-2.6-0.1-3.8-0.7c-1-0.6-1.5-1.7-1.4-2.9
			c0.1-1.9,1.7-3.4,3.6-3.4h3c0.7,0,0.8-0.1,0.8-0.1c0.2-0.6,0.2-1.2,0.1-1.8v-6.6c-0.1-1.1,0.1-2.2,0.6-3.2c0.6-1.1,1.8-1.7,3-1.5
			c1.2-0.2,2.3,0.4,2.9,1.5c0.4,0.9,0.6,2,0.5,3v8.6c0.3-0.2,0.7-0.3,1.1-0.3h8c1.2-0.1,2.5,0.2,3.6,0.8c0.7,0.7,1.1,1.6,1,2.6
			c0.1,0.9-0.3,1.8-1,2.3c-1.1,0.8-2.5,1.2-3.8,1h-7c-0.5,0-0.9,0-1.4,0.1c-0.1,0-0.1,0.3-0.1,0.8V71c0.1,7.3,1.4,8.9,5.4,9
			c4.4,0,5.1-3.6,5.1-7.4V70c-0.1-1.4,0.2-2.9,0.8-4.1C30.4,65.3,31.5,64.8,32.6,65 M83.9,44.2c-2.3,0-5.1,1-7.8,1s-5.5-1-7.6-1
			c-0.9,0-1.7,0.4-2.3,1c-0.7,0.5-1,1.4-1,2.2c0,0.9,0.3,1.7,0.8,2.3c0.6,0.7,1.4,1.1,2.3,1.1c0.7,0,1.5-0.1,2.2-0.4
			c0.3-0.2,0.7-0.3,1-0.3s0.7,0.1,0.7,1.1c-0.2,1.3-0.5,2.5-1.1,3.7l-8.4,23.4l-9.5-25.5c-0.3-0.5-0.5-1.1-0.6-1.8
			c0-0.5,0.1-0.7,0.8-0.7c0.6,0,1.1,0.1,1.7,0.3c0.5,0.3,1.1,0.4,1.8,0.4c1.8-0.1,3.2-1.6,3.3-3.4c0-1.8-1.5-3.2-4-3.2
			s-5.3,0.8-8,0.8s-4.7-0.8-7.4-0.8c-1,0-2,0.3-2.9,0.8c-0.6,0.6-0.9,1.4-0.8,2.2c0,2,1.1,3.4,2.6,3.4c0.6,0,1.2-0.1,1.8-0.4
			c0.4-0.2,0.8-0.2,1.2-0.3c0.5,0,1.4,0.5,2.6,3.7l11.2,28.8c1,2.3,2.3,4.9,5.6,4.9c3.3,0,4.8-2.3,5.9-4.9l11-27.8
			c0.8-1.9,1.2-3.2,1.5-3.8s0.5-0.7,0.5-0.7c0.5,0,0.9,0.1,1.4,0.3c0.6,0.3,1.2,0.4,1.8,0.4c1.8-0.1,3.3-1.6,3.3-3.4
			C87.4,45.7,85.8,44.1,83.9,44.2L83.9,44.2 M121.1,49.4c3.4,4.6,5.2,10.2,5.1,15.9c0,12.3-7,22.6-20.3,22.6
			c-13,0-19.3-10.6-19.5-22.4S92.7,43,105.9,43C111.9,43,117.1,44.5,121.1,49.4 M106,81.4c9.5,0,12.5-8,12.5-16.3
			c0.1-3.9-0.9-7.8-2.9-11.1c-2.1-3.2-5.5-4.4-9.2-4.4c-4.4,0-7.4,1.4-9.6,5.2c-1.8,3.3-2.7,7-2.6,10.7
			C94.2,73.2,97.2,81.4,106,81.4"/>
		<rect x="263.9" y="32.6" class="st2" width="10.8" height="55.1"/>
		<path class="st2" d="M294.7,32.6h-10.8v55.1h37.7v-8.9h-26.7V32.6H294.7z"/>
		<path class="st2" d="M346.2,80.1c-8,0-14.3-7-14.3-20.2c0-12.8,6.3-19.6,14.7-19.6c6,0,11.2,2.5,13.3,10.2h10.3
			c-1.8-11.5-10.7-18.8-23.6-18.8c-16,0-26.1,10.8-26.1,28.3s9.5,28.8,25.8,28.8c13.2,0,22.4-7.9,23.9-19.1h-10.3
			C358.1,77.1,352.8,80.1,346.2,80.1z"/>
		<path class="st2" d="M195.6,10.3c-26.9,0.1-48.7,21.9-48.6,48.8c0.1,19.5,11.7,37.1,29.7,44.7V66.5c0-5.4,4.4-9.7,9.7-9.7l0,0
			c5.2,0,9.5,4.2,9.5,9.5l0,0v41.4c26.9-0.1,48.6-21.9,48.6-48.8C244.3,31.9,222.5,10.2,195.6,10.3L195.6,10.3z M186.2,53.5
			c-5.5,0.1-10.1-4.3-10.1-9.9c0-2.7,1-5.4,3-7.3c2.9-2.9,7.2-3.7,11-2.2s6.3,5.2,6.2,9.3c0,2.7-1,5.2-2.9,7.1
			C191.5,52.4,188.9,53.4,186.2,53.5L186.2,53.5z"/>
	</g>
</g>
<g id="Layer_2_00000030451081804518000410000011047323115086013316_">
	<rect x="0.3" y="1" class="st4" width="373.4" height="116.2"/>
	<g class="st0">
		<circle class="st5" cx="191.3" cy="27.1" r="11.4"/>
		<g class="st1">
			<path class="st3" d="M181.1,42.7h20.5V101h-20.5V42.7z"/>
			<path class="st3" d="M259.4,71.9c0,2.2,0.3,4.1,1,5.8c0.6,1.7,1.5,3.1,2.6,4.3c1.1,1.2,2.4,2.1,3.9,2.7s3,0.9,4.7,0.9
				c2.4,0,4.6-0.6,6.5-1.9s3.4-3.1,4.4-5.4h20.6c-0.7,3.4-1.9,6.7-3.7,9.6c-1.8,3-4.1,5.5-6.8,7.7c-2.7,2.2-5.9,3.9-9.4,5.1
				c-3.6,1.2-7.5,1.8-11.7,1.8c-4.8,0-9.2-0.8-13.2-2.4s-7.4-3.8-10.2-6.6c-2.8-2.8-5-6-6.6-9.7c-1.5-3.7-2.3-7.7-2.3-11.8
				s0.8-8.1,2.3-11.8s3.7-7,6.5-9.8s6.2-5,10.2-6.7c4-1.6,8.4-2.4,13.2-2.4c4.2,0,8.1,0.6,11.7,1.8s6.7,2.9,9.4,5.1
				c2.7,2.1,4.9,4.7,6.7,7.7c1.8,3,3.1,6.2,3.8,9.6h-20.6c-1-2.3-2.4-4.1-4.4-5.4c-1.9-1.3-4.1-1.9-6.5-1.9c-1.6,0-3.2,0.3-4.7,0.9
				s-2.8,1.5-3.9,2.7s-2,2.6-2.6,4.3C259.7,67.8,259.4,69.7,259.4,71.9z"/>
			<path class="st3" d="M212.3,16.7h20.5V101h-20.5V16.7z"/>
		</g>
		<g class="st1">
			<path class="st3" d="M94.2,78c0.4,0,0.6,0.3,0.5,0.7L92.2,85c-0.2,0.4-0.6,0.5-0.8,0.5h-1.1c-14.2,0.3-14.5-8.9-14.5-14V60.4
				c0-0.3-0.2-0.5-0.5-0.5h-4c-0.3,0-0.5-0.2-0.5-0.5v-6.6c0-0.3,0.2-0.5,0.5-0.5h4c0.2,0,0.5-0.2,0.5-0.4v-5.8
				c0-1.4,0.9-2.2,1.5-2.5l6.2-3c0.3-0.1,0.6,0.1,0.6,0.4v11c0,0.3,0.2,0.5,0.5,0.5h6.9c0.2,0,0.3,0.1,0.4,0.3l2.7,6.7
				c0.1,0.2-0.1,0.6-0.4,0.6h-9.5c-0.2,0-0.5,0.2-0.5,0.5v10.9c0,0.9-0.2,3.7,1.7,5.5C88.6,79.2,94.2,78,94.2,78z"/>
			<path class="st3" d="M119.3,54.1l-6.5,17.6c-0.2,0.3-0.7,0.3-0.8,0l-6.5-17.6c-0.4-0.9-1.5-1.7-2.7-1.7h-6.6
				c-0.4,0-0.5,0.4-0.4,0.6l12.9,32.3c0.1,0.2,0.2,0.3,0.4,0.3h6.6c0.2,0,0.4-0.1,0.4-0.3L129,53c0.1-0.3-0.1-0.6-0.4-0.6h-6.5
				C120.9,52.3,119.8,53,119.3,54.1z"/>
			<path class="st3" d="M162.6,69c0,9.4-7.8,17.1-17.4,17.1c-9.6,0-17.4-7.7-17.4-17.1s7.8-17.1,17.4-17.1
				C154.8,51.9,162.6,59.6,162.6,69z M145.2,60.3c-4.8,0-8.4,4.1-8.4,8.7c0,4.7,3.6,8.7,8.4,8.7c4.8,0,8.4-4.1,8.4-8.7
				C153.5,64.3,150,60.3,145.2,60.3z"/>
		</g>
	</g>
	<g>
		<g>
			<path class="st3" d="M121.9,100.5V16.2H137v84.3H121.9z"/>
			<path class="st3" d="M171,102.1c-5.4,0-10.3-1.2-14.6-3.5s-7.7-5.5-10.2-9.5s-3.7-8.5-3.7-13.6c0-3.7,0.7-7.2,2.1-10.4
				c1.4-3.2,3.4-6.1,5.9-8.5s5.5-4.3,8.9-5.7c3.4-1.3,7-2,10.9-2c5.2,0,9.8,1.1,13.7,3.2c3.9,2.2,7,5.2,9.2,9
				c2.2,3.9,3.3,8.4,3.4,13.4c0,0.4-0.1,0.8-0.1,1.1c0,0.3-0.1,0.9-0.2,1.8h-38.5c0,2.5,0.6,4.7,1.7,6.6s2.8,3.4,4.9,4.5
				c2.1,1.1,4.5,1.6,7.3,1.6c2.6,0,4.9-0.5,6.9-1.5s3.9-2.6,5.8-4.9l10.8,5.5c-2.3,4-5.7,7.2-10,9.5
				C181.1,100.9,176.3,102.1,171,102.1z M158.4,69h23.4c-0.3-2-1-3.6-2.1-5s-2.4-2.5-4-3.2s-3.5-1.1-5.5-1.1c-2.2,0-4.1,0.4-5.8,1.1
				c-1.7,0.7-3,1.8-4,3.2C159.3,65.4,158.6,67.1,158.4,69z"/>
			<path class="st3" d="M224.4,102.1c-4.6,0-8.8-1.1-12.6-3.5c-3.8-2.3-6.8-5.5-9-9.5s-3.3-8.6-3.3-13.7s1.1-9.6,3.2-13.6
				s5.1-7.2,8.8-9.5s8-3.5,12.8-3.5c3.6,0,6.9,0.7,10,2c3.1,1.4,5.6,3.2,7.6,5.7v-6.1h15v50.2h-15V94c-2.3,2.6-4.9,4.6-7.9,6
				C231,101.3,227.8,102.1,224.4,102.1z M228.8,89.3c2.6,0,4.9-0.6,6.9-1.8c2-1.2,3.6-2.8,4.7-4.9c1.2-2.1,1.7-4.5,1.7-7.2
				s-0.6-5.1-1.7-7.1c-1.2-2.1-2.7-3.7-4.7-4.9c-2-1.2-4.3-1.8-6.9-1.8c-2.6,0-4.9,0.6-6.9,1.8c-2,1.2-3.6,2.8-4.8,4.9
				s-1.8,4.5-1.8,7.1s0.6,5,1.8,7.1s2.8,3.7,4.8,4.9C223.9,88.7,226.2,89.3,228.8,89.3z"/>
			<path class="st3" d="M266.8,100.5V50.3h15.1v7.2c1.9-2.8,4.1-5,6.8-6.5c2.7-1.5,5.6-2.3,8.7-2.3c1.8,0,3.6,0.3,5.5,0.8
				s3.5,1.2,4.8,2l-6.3,12.7c-1.1-0.7-2.4-1.3-3.9-1.8c-1.5-0.4-2.9-0.7-4.1-0.7c-2,0-3.9,0.5-5.6,1.5s-3.2,2.3-4.2,3.9
				c-1.1,1.6-1.6,3.4-1.6,5.2v28L266.8,100.5L266.8,100.5z"/>
			<path class="st3" d="M311.2,100.5V50.3h15.1v5.5c1.9-2.1,4.3-3.8,7.2-5.1c2.9-1.3,6.1-2,9.6-2c3.8,0,7.2,0.8,10.1,2.5
				s5.2,4,6.9,7s2.5,6.5,2.5,10.5v31.8h-15V71.9c0-3.6-0.9-6.4-2.8-8.4s-4.4-3-7.7-3c-2.2,0-4.1,0.4-5.7,1.3
				c-1.6,0.9-2.8,2.1-3.7,3.7c-0.9,1.5-1.3,3.3-1.3,5.3v29.7C326.3,100.5,311.2,100.5,311.2,100.5z"/>
		</g>
		<g>
			<path class="st3" d="M34.7,77.4c0.4,0,0.6,0.3,0.5,0.7l-2.5,6.3c-0.2,0.4-0.6,0.5-0.8,0.5h-1.1c-14.2,0.3-14.5-8.9-14.5-14V59.8
				c0-0.3-0.2-0.5-0.5-0.5h-4c-0.3,0-0.5-0.2-0.5-0.5v-6.6c0-0.3,0.2-0.5,0.5-0.5h4c0.2,0,0.5-0.2,0.5-0.4v-5.8
				c0-1.4,0.9-2.2,1.5-2.5l6.2-3c0.3-0.1,0.6,0.1,0.6,0.4v11c0,0.3,0.2,0.5,0.5,0.5H32c0.2,0,0.3,0.1,0.4,0.3l2.7,6.7
				c0.1,0.2-0.1,0.6-0.4,0.6H25c-0.2,0-0.5,0.2-0.5,0.5v10.9c0,0.9-0.2,3.7,1.7,5.5C29,78.6,34.7,77.4,34.7,77.4z"/>
			<path class="st3" d="M59.8,53.6l-6.5,17.6c-0.2,0.3-0.7,0.3-0.8,0L46,53.6c-0.4-0.9-1.5-1.7-2.7-1.7h-6.6c-0.4,0-0.5,0.4-0.4,0.6
				l12.9,32.3c0.1,0.2,0.2,0.3,0.4,0.3h6.6c0.2,0,0.4-0.1,0.4-0.3l12.9-32.3c0.1-0.3-0.1-0.6-0.4-0.6h-6.5
				C61.4,51.8,60.3,52.5,59.8,53.6z"/>
			<path class="st3" d="M103,68.5c0,9.5-7.8,17.1-17.4,17.1s-17.4-7.7-17.4-17.1S76,51.4,85.6,51.4S103,59,103,68.5z M85.7,59.7
				c-4.8,0-8.4,4.1-8.4,8.7c0,4.7,3.6,8.7,8.4,8.7s8.4-4.1,8.4-8.7S90.5,59.7,85.7,59.7z"/>
		</g>
	</g>
	<g class="st0">
		<g class="st1">
			<circle class="st3" cx="251.5" cy="67.6" r="8.5"/>
			<path class="st3" d="M197.9,25c0-1.3,0.2-2.5,0.7-3.6s1.2-2.1,2.1-3c0.9-0.9,2.1-1.5,3.4-2c1.3-0.5,2.8-0.7,4.4-0.7
				s3.1,0.2,4.4,0.7c1.3,0.5,2.4,1.2,3.4,2s1.7,1.9,2.1,3c0.5,1.1,0.7,2.4,0.7,3.6c0,1.3-0.2,2.5-0.7,3.6s-1.2,2.1-2.1,3
				c-0.9,0.8-2.1,1.5-3.4,2c-1.3,0.5-2.8,0.7-4.4,0.7c-1.6,0-3-0.2-4.3-0.7s-2.4-1.2-3.3-2c-0.9-0.9-1.6-1.9-2.1-3
				C198.2,27.5,197.9,26.3,197.9,25z M199.5,41h17.9v59.6h-17.9V41z"/>
			<path class="st3" d="M172.1,65.9L192.2,41h-20.8l-19.8,25.2V24.5c0-4.9-4-8.9-8.9-8.9s-8.9,4-8.9,8.9v76.2h17.8V86.8l7.8-9.3
				l13.4,23.2H194L172.1,65.9z"/>
			<path class="st3" d="M281,15.6c-4.9,0-8.9,4-8.9,8.9c0,0.3,0,0.6,0.1,0.9v19.1c-2.2-1.6-4.7-2.8-7.5-3.8s-6-1.5-9.6-1.5
				c-4.9,0-9.3,0.8-13.2,2.5s-7.2,4-9.9,6.8c-2.7,2.9-4.8,6.2-6.3,10.1c-1.5,3.8-2.2,8-2.2,12.3c0,4.4,0.7,8.5,2.2,12.3
				s3.6,7.2,6.4,10.1c2.8,2.9,6.1,5.2,10.1,6.8s8.3,2.5,13.2,2.5c3.9,0,7.4-0.7,10.5-2s5.8-3,8-4.9l0.9,4.9h15.1V24.4
				C289.9,19.6,285.9,15.6,281,15.6z M273,69.5c0.2,2.8-0.2,5.6-1.2,8.1c-0.8,2-1.9,3.8-3.4,5.2c-1.4,1.4-3.1,2.5-5.1,3.3
				c-1.9,0.8-4,1.2-6.2,1.2c-2.2,0-4.2-0.4-6.2-1.2c-1.9-0.8-3.6-1.9-5.1-3.4c-1.4-1.5-2.6-3.2-3.4-5.2c-0.8-2-1.2-4.3-1.2-6.8
				c0-2.4,0.4-4.7,1.2-6.7c0.8-2,1.9-3.7,3.3-5.2c1.4-1.4,3.1-2.5,5-3.3s4-1.2,6.2-1.2s4.3,0.4,6.2,1.2c1.9,0.8,3.6,1.9,5.1,3.3
				C271.2,61.7,272.7,65.6,273,69.5z"/>
			<path class="st3" d="M313.3,82c0.1,1.8,1.1,3.3,2.8,4.4c1.7,1.1,3.9,1.7,6.5,1.7c3.4,0,5.8-0.4,7.3-1.3s2.2-2.1,2.2-3.7
				c0-1-0.3-1.7-1-2.3c-0.7-0.6-1.7-1.1-3-1.6s-3-0.9-4.9-1.3s-4.2-0.9-6.8-1.4c-1.1-0.2-2.4-0.5-3.8-0.8s-2.7-0.8-4.1-1.3
				s-2.7-1.2-3.9-2.1c-1.3-0.8-2.4-1.8-3.4-3.1c-1-1.2-1.7-2.7-2.3-4.4c-0.6-1.7-0.9-3.7-0.9-6c0-3,0.5-5.8,1.6-8.2s2.7-4.5,5-6.1
				c2.2-1.7,5-2.9,8.4-3.8c3.4-0.9,7.3-1.3,11.9-1.3c3.7,0,7.1,0.5,10,1.4c3,1,5.5,2.3,7.6,4.1s3.6,3.9,4.7,6.3
				c1.1,2.4,1.6,5.1,1.6,8L331,59.1c-0.1-1.5-0.8-2.7-2.1-3.8c-1.3-1-3-1.6-5.3-1.6c-2.7,0-4.7,0.5-6,1.5s-1.9,2.1-1.9,3.4
				c0,0.8,0.2,1.4,0.7,1.9c0.4,0.5,1.1,1,2.1,1.3c0.9,0.4,2.1,0.7,3.6,0.9c1.4,0.3,3.2,0.5,5.2,0.8c3.1,0.5,6.1,1.2,9,1.9
				c2.8,0.7,5.3,1.8,7.5,3.1c2.2,1.3,3.9,3,5.1,5.2c1.3,2.1,1.9,4.8,1.9,8.1c0,3.6-0.7,6.7-2.1,9.3c-1.4,2.6-3.4,4.8-5.9,6.5
				s-5.6,3-9.1,3.8s-7.4,1.2-11.6,1.2c-4.6,0-8.5-0.6-11.8-1.8c-3.3-1.2-6-2.8-8.1-4.8s-3.7-4.2-4.7-6.7s-1.5-4.9-1.5-7.4L313.3,82z
				"/>
			<circle class="st3" cx="249" cy="66.1" r="3"/>
		</g>
		<g class="st1">
			<path class="st3" d="M46.7,77.8c0.4,0,0.6,0.3,0.5,0.7l-2.5,6.3c-0.2,0.4-0.6,0.5-0.8,0.5h-1.1c-14.2,0.3-14.5-8.9-14.5-14V60.2
				c0-0.3-0.2-0.5-0.5-0.5h-4c-0.3,0-0.5-0.2-0.5-0.5v-6.6c0-0.3,0.2-0.5,0.5-0.5h4c0.2,0,0.5-0.2,0.5-0.4v-5.8
				c0-1.4,0.9-2.2,1.5-2.5l6.2-3c0.3-0.1,0.6,0.1,0.6,0.4v11c0,0.3,0.2,0.5,0.5,0.5H44c0.2,0,0.3,0.1,0.4,0.3l2.7,6.7
				c0.1,0.2-0.1,0.6-0.4,0.6h-9.5c-0.2,0-0.5,0.2-0.5,0.5v10.9c0,0.9-0.2,3.7,1.7,5.5C41.1,79,46.7,77.8,46.7,77.8z"/>
			<path class="st3" d="M71.8,53.9l-6.5,17.6c-0.2,0.3-0.7,0.3-0.8,0L58,53.9c-0.4-0.9-1.5-1.7-2.7-1.7h-6.6c-0.4,0-0.5,0.4-0.4,0.6
				l12.9,32.3c0.1,0.2,0.3,0.3,0.4,0.3h6.6c0.2,0,0.4-0.1,0.4-0.3l12.9-32.3c0.1-0.3-0.1-0.6-0.4-0.6h-6.5
				C73.4,52.2,72.3,52.8,71.8,53.9z"/>
			<path class="st3" d="M115.1,68.8c0,9.5-7.8,17.1-17.4,17.1s-17.4-7.7-17.4-17.1s7.8-17.1,17.4-17.1S115.1,59.4,115.1,68.8z
				 M97.7,60.1c-4.8,0-8.4,4.1-8.4,8.7c0,4.7,3.6,8.7,8.4,8.7s8.4-4.1,8.4-8.7C106.1,64.1,102.5,60.1,97.7,60.1z"/>
		</g>
	</g>
</g>
</svg>
