<?xml version="1.0" encoding="utf-8"?>
<!-- Generator: Adobe Illustrator 27.3.0, SVG Export Plug-In . SVG Version: 6.00 Build 0)  -->
<svg version="1.1" id="Layer_1" xmlns="http://www.w3.org/2000/svg" xmlns:xlink="http://www.w3.org/1999/xlink" x="0px" y="0px"
	 viewBox="0 0 93.8 43" style="enable-background:new 0 0 93.8 43;" xml:space="preserve">
<style type="text/css">
	.st0{fill:#E7131A;}
	.st1{clip-path:url(#SVGID_00000021836453977917019360000002044952810044578463_);}
	.st2{fill:#FFFFFF;}
</style>
<rect x="-1.4" y="-0.3" class="st0" width="96.1" height="44"/>
<g id="Group_62418" transform="translate(25.242 9.572)">
	<g>
		<g>
			<g>
				<defs>
					<rect id="SVGID_1_" x="-21.3" y="-2.5" width="87.2" height="31.9"/>
				</defs>
				<clipPath id="SVGID_00000000211482867803855320000017402692666892629639_">
					<use xlink:href="#SVGID_1_"  style="overflow:visible;"/>
				</clipPath>
				
					<g id="Group_62342" transform="translate(0 0)" style="clip-path:url(#SVGID_00000000211482867803855320000017402692666892629639_);">
					<path id="Path_4286" class="st2" d="M-14.4,15.6c0.1,0,0.2,0.1,0.2,0.1s0,0,0,0.1l-0.7,1.9c0,0.1-0.1,0.2-0.2,0.2h-0.3
						c-4.2,0.1-4.3-2.6-4.3-4.1v-3.3c0-0.1-0.1-0.1-0.1-0.1l0,0h-1.4c-0.1,0-0.1-0.1-0.1-0.1l0,0v-2c0-0.1,0.1-0.1,0.1-0.1l0,0h1.2
						c0.1,0,0.1-0.1,0.1-0.1V6.2c0-0.3,0.2-0.6,0.4-0.7l1.8-0.9c0.1,0,0.2,0,0.2,0.1c0,0,0,0,0,0.1V8c0,0.1,0.1,0.1,0.1,0.1l0,0h2
						c0.1,0,0.1,0,0.1,0.1l0.8,2c0,0.1,0,0.2-0.1,0.2l0,0h-2.6c-0.1,0-0.1,0.1-0.1,0.1l0,0v3.2c-0.1,0.6,0.1,1.2,0.5,1.6
						C-16.1,16-14.4,15.6-14.4,15.6"/>
					<path id="Path_4287" class="st2" d="M-7,8.5l-1.9,5.2c0,0.1-0.1,0.1-0.2,0.1c0,0-0.1,0-0.1-0.1l-1.9-5.2
						C-11.2,8.2-11.6,8-11.9,8h-2L-14,8.1c0,0,0,0,0,0.1l3.8,9.6c0,0.1,0.1,0.1,0.1,0.1h2c0.1,0,0.1,0,0.1-0.1l3.8-9.6
						c0-0.1,0-0.2-0.1-0.2c0,0,0,0-0.1,0h-1.9C-6.5,8-6.8,8.2-7,8.5"/>
					<path id="Path_4288" class="st2" d="M5.9,13c0,2.8-2.2,5.2-5.1,5.2s-5.2-2.2-5.2-5.1c0-2.8,2.2-5.2,5.1-5.2h0.1
						C3.5,7.9,5.8,10.1,5.9,13C5.9,12.9,5.9,12.9,5.9,13 M0.7,10.4c-1.4-0.1-2.6,1-2.7,2.5c-0.1,1.4,1,2.6,2.5,2.7
						c1.4,0.1,2.6-1,2.7-2.5V13C3.2,11.6,2.1,10.4,0.7,10.4"/>
					<path id="Path_4289" class="st2" d="M15.9-2.4h-3.8v5.1h-1.8v3.4h1.8V16c-0.1,1.4,0.1,2.8,0.5,4.2c0.5,1.6,2,2.6,3.7,2.5
						c0.5,0,0.9,0,1.4-0.1c0.1,0,0.2,0,0.3-0.1s0.2-0.1,0.3-0.1h0.1v-3.8h-0.1c-0.1,0-0.1,0-0.2,0s-0.1,0-0.2,0
						c-0.3,0-0.6,0.1-0.9,0.1c-0.4,0-0.7-0.4-0.9-1.1c-0.1-0.7-0.2-1.3-0.1-2V6.1h2.5V2.6H16L15.9-2.4L15.9-2.4z"/>
					<path id="Path_4290" class="st2" d="M62.1,2.6l-1.4,12.1v0.4v-0.4l-1.4-12V2.6h-3.8l3.3,20.2c0,0.4,0,0.7-0.1,1
						c-0.2,0.7-0.6,1.3-1.1,1.7c-0.5,0.3-1,0.4-1.6,0.3h-0.1l-0.2-0.2v3.5v0.1h0.1c0.4,0,0.9,0.1,1.2,0.1h0.4c1.4,0,2.7-0.7,3.5-1.8
						c0.9-1.1,1.4-2.4,1.6-3.8L66,2.6C66,2.6,62.1,2.6,62.1,2.6z"/>
					<path id="Path_4291" class="st2" d="M29.2,5c-0.7-1.7-2.4-2.7-4.2-2.6c-1-0.1-2,0.2-2.8,0.8c-1.3,1.1-2,2.7-2,4.4v9.8
						c0,0.9,0.2,1.8,0.6,2.6c0.7,1.7,2.3,2.7,4.1,2.6c1,0.1,2-0.2,2.8-0.8c1.3-1.1,2-2.7,2-4.3v-10C29.8,6.6,29.6,5.8,29.2,5
						 M26.2,18.4c-0.1,0.6-0.6,1-1.1,1c-0.3,0-0.5-0.1-0.7-0.3c-0.4-0.5-0.5-1.1-0.5-1.7V7.6c0-0.3,0-0.7,0.1-1c0.1-0.5,0.4-1,1.1-1
						c0.3,0,0.6,0.1,0.8,0.3c0.4,0.5,0.5,1.1,0.5,1.7v9.8C26.4,17.8,26.3,18.1,26.2,18.4"/>
					<path id="Path_4292" class="st2" d="M37.9-2.5v6.3c-0.2-0.2-0.5-0.4-0.7-0.6c-0.6-0.5-1.3-0.7-2-0.8c-0.9,0-1.8,0.5-2.2,1.3
						c-0.5,0.8-0.7,1.7-0.7,2.6v12.5c0,0.9,0.2,1.8,0.7,2.6c0.4,0.8,1.3,1.4,2.2,1.4c0.4,0,0.7-0.1,1.1-0.3c0.6-0.3,1.2-0.7,1.7-1.2
						v1.1h3.8V-2.5H37.9z M38,18c0,0.6-0.5,1.1-1.1,1.2c-0.6-0.1-1-0.6-1-1.2l0,0V7c-0.1-0.6,0.4-1.1,0.9-1.2l0,0
						c0.6,0.1,1.1,0.6,1.1,1.2L38,18L38,18z"/>
					<path id="Path_4293" class="st2" d="M53.9,22.3c-0.2-1.1-0.3-2.2-0.2-3.4v-12c0-1.2-0.5-2.4-1.4-3.3c-0.8-0.8-2-1.3-3.1-1.3
						c-1.4,0-2.6,0.6-3.5,1.6s-1.4,2.4-1.4,3.8v0.9h3.8v-1c0-0.3,0-0.6,0.1-0.9c0.1-0.6,0.4-0.9,0.8-0.9c0.3,0,0.7,0.2,0.8,0.5
						c0.1,0.4,0.1,0.8,0.1,1.1v2.1c-0.1,0.3-0.7,0.6-1.4,1l-0.2,0.1c-1.1,0.5-2.1,1.3-2.9,2.2c-1,1.4-1.6,3.1-1.5,4.9
						c-0.1,1.4,0.3,2.9,1.1,4c0.5,0.6,1.1,0.9,1.9,0.9c0.7,0,1.4-0.3,2-0.7c0.4-0.3,0.7-0.7,1-1.2H50c0,0.5,0.1,1.1,0.3,1.5l0,0H54
						L53.9,22.3z M49.9,17.8c-0.1,0.7-0.8,1.3-1.5,1.2c-0.4,0-0.7-0.3-0.8-0.7c-0.1-0.3-0.2-0.7-0.2-1.1c-0.1-1.8,0.8-3.6,2.5-4.4
						V17.8z"/>
				</g>
			</g>
		</g>
	</g>
</g>
</svg>
